<svg width="76" height="59" viewBox="0 0 76 59" fill="none" xmlns="http://www.w3.org/2000/svg">
<path d="M5.87589 7.28013C8.11916 4.82357 10.7945 3.00418 13.9002 1.82114C16.1434 1.00249 18.4733 0.547485 20.8032 0.547485C27.7922 0.547485 34.1777 4.18627 37.9741 10.1003C38.5784 9.09952 39.2681 8.18945 40.1312 7.28016C42.3745 4.8236 45.0498 3.00421 48.1555 1.82117C50.3988 1.00252 52.7287 0.547518 55.0585 0.547518C63.946 0.547518 71.8843 6.46074 74.818 15.2857C76.6303 20.8354 76.3708 26.8401 73.9549 32.1166C71.5389 37.3933 67.3107 41.3965 62.0473 43.398C61.012 43.7617 59.9763 44.1259 58.8549 44.3081C60.4944 47.1282 62.4789 49.767 64.8947 52.1321C65.7578 52.9508 66.2754 54.1336 66.1888 55.3167C66.1027 56.4082 65.5845 57.409 64.722 57.9547C64.1177 58.3184 63.514 58.5919 62.7376 58.5919C62.2199 58.5919 61.7884 58.5011 61.2708 58.319C55.6625 56.0445 50.3123 52.2235 45.7393 47.2197C43.7549 45.0361 41.1662 42.0336 39.009 38.3949C38.4914 37.5762 38.0598 36.6661 37.6283 35.7568C35.1263 39.305 31.7612 41.943 27.7917 43.3988C26.7565 43.7624 25.7207 44.1267 24.5993 44.3088C26.2389 47.129 28.2233 49.7678 30.6391 52.1329C31.5023 52.9516 32.0199 54.1344 31.9332 55.3175C31.8471 56.409 31.3289 57.4098 30.4664 57.9555C29.8621 58.3191 29.2584 58.5927 28.482 58.5927C27.9644 58.5927 27.5328 58.5019 27.0152 58.3198C21.4069 56.0453 16.0567 52.2243 11.4837 47.2205C9.49933 45.0369 6.9106 42.0344 4.75345 38.3956C3.11387 35.6661 1.90601 32.846 1.12944 29.8436C-1.19981 21.7453 0.612419 13.1021 5.87593 7.27948L5.87589 7.28013ZM5.96196 28.296C6.65232 30.8434 7.68752 33.2085 9.06824 35.5744C10.9665 38.7589 13.2098 41.3969 15.1949 43.4893C17.0931 45.5816 19.1643 47.4924 21.4074 49.0389C20.1995 47.128 19.1642 45.2178 18.3011 43.1257C17.9563 42.307 18.0423 41.3063 18.4739 40.4876C18.9054 39.7597 19.7679 39.3047 20.631 39.3047C22.5293 39.3047 24.341 39.0319 26.0672 38.3947C30.0367 36.9389 33.2289 33.9366 35.0406 29.9341C35.1267 29.752 35.1267 29.6612 35.2134 29.4791C36.8529 25.5674 37.0257 21.2914 35.731 17.1968C35.6449 16.8331 35.4722 16.5596 35.3861 16.196C32.8829 10.0098 27.1885 6.00664 20.803 6.00664C18.9907 6.00664 17.2651 6.37027 15.5396 6.91667C13.2097 7.73533 11.2253 9.19111 9.49973 11.0105C5.61702 15.3773 4.23629 22.0185 5.96185 28.2963L5.96196 28.296ZM43.3237 35.4829C45.222 38.6674 47.4653 41.3055 49.4503 43.3978C51.3486 45.4901 53.4198 47.401 55.6629 48.9474C54.455 47.0366 53.4197 45.1264 52.5566 43.0342C52.2118 42.2156 52.2978 41.2148 52.7294 40.3962C53.1609 39.6683 54.0234 39.2133 54.8865 39.2133C56.7848 39.2133 58.5965 38.9404 60.3227 38.3032C64.2921 36.8475 67.4844 33.8452 69.2961 29.8426C71.1084 25.8395 71.3671 21.2906 69.9865 17.1061C67.7432 10.4649 61.7895 6.0068 55.0592 6.0068C53.2469 6.0068 51.5213 6.37043 49.7957 6.91683C47.4659 7.73549 45.4814 9.19128 43.7559 11.0107C42.4618 12.4665 41.426 14.1952 40.6496 16.1053C41.9436 20.5633 41.9436 25.203 40.5635 29.5698C41.3394 31.6621 42.2019 33.573 43.3237 35.483V35.4829Z" fill="white"/>
</svg>
