<svg width="59" height="56" viewBox="0 0 59 56" fill="none" xmlns="http://www.w3.org/2000/svg">
<path fill-rule="evenodd" clip-rule="evenodd" d="M6.97668 26.2406C7.02837 21.8559 6.46164 17.4317 5.88073 13.1482C5.75257 12.2264 4.91193 11.564 4.02318 11.7338C3.11671 11.8401 2.48978 12.6915 2.60087 13.5495C3.16738 17.7003 3.73227 21.9876 3.67205 26.1697C3.65505 27.0621 4.38609 27.8227 5.30058 27.8509C6.21443 27.8792 6.95905 27.1332 6.97668 26.2406Z" fill="#E8112B"/>
<path fill-rule="evenodd" clip-rule="evenodd" d="M26.5138 34.2544C31.4527 25.8967 35.3076 16.9416 40.4604 8.66323C40.9491 7.91765 40.7103 6.88892 39.94 6.41239C39.169 5.93603 38.1427 6.143 37.6711 6.9523C32.4986 15.236 28.6246 24.1962 23.6658 32.5592C23.2096 33.3644 23.4738 34.386 24.2613 34.8579C25.0311 35.2663 26.0575 35.0596 26.5138 34.2544Z" fill="#F7C600"/>
<path fill-rule="evenodd" clip-rule="evenodd" d="M55.5703 39.6503C51.7882 40.8686 48.0059 42.0866 44.2232 43.305C43.3451 43.5403 42.8721 44.487 43.1538 45.3676C43.4362 46.2481 44.3542 46.6846 45.2329 46.4492C49.0215 45.2292 52.8094 44.0097 56.5973 42.7899C57.4583 42.4909 57.9269 41.5457 57.6401 40.6664C57.3703 39.8508 56.4306 39.3515 55.5703 39.6503Z" fill="#E8112B"/>
</svg>
