<svg width="98" height="70" viewBox="0 0 98 70" fill="none" xmlns="http://www.w3.org/2000/svg">
<path opacity="0.2" d="M91.2126 68.0424C91.2126 68.0424 91.2126 67.9608 91.2126 67.7976C91.2126 67.6344 91.2126 67.4712 91.131 67.3897L90.8047 66.4922L90.6415 66.0843L90.3968 65.4316L89.6625 63.5551C89.4993 63.0656 89.3362 62.5761 89.0914 62.1682C89.0098 62.0866 89.0098 61.9234 88.9282 61.8419V61.7603C88.9282 61.7603 88.9282 61.6787 88.8466 61.6787C88.8466 61.6787 88.8466 61.5971 88.7651 61.5971C88.6835 61.5155 88.6835 61.4339 88.6019 61.3523C88.6019 61.2707 88.5203 61.2707 88.5203 61.1892C88.4387 61.1076 88.4387 61.026 88.3571 60.9444C88.2755 60.8628 88.194 60.6997 88.194 60.6181C88.1124 60.5365 88.1124 60.4549 88.0308 60.4549C88.0308 60.4549 88.0308 60.3733 87.9492 60.3733C86.9702 59.0679 85.7464 58.0073 84.2779 57.1915L70.7346 49.604L72.2848 47.238L75.0587 48.7066C75.4666 48.8698 75.9561 48.8697 76.6088 48.5434C77.9142 47.9723 79.0564 46.5038 79.2195 45.3616C79.3011 44.7905 79.138 44.3825 78.8116 44.2194L75.4666 42.4245L78.8932 37.203L80.9328 38.2636C81.3408 38.4268 81.8303 38.4268 82.483 38.1005C83.7883 37.5294 84.9305 36.0608 85.0937 34.9186C85.1753 34.3475 85.0121 33.9396 84.6858 33.7764L81.1776 31.8184L84.1963 24.3941L78.73 21.7018L65.5132 37.6109L58.1705 42.5061L42.0981 33.5317L31.8999 27.7391L34.3475 21.2123C33.858 20.478 32.0631 19.9885 31.8184 19.9069L25.5363 25.4547C24.5572 25.0468 23.4966 24.802 22.2728 25.0468C22.0281 25.1284 21.7017 25.2099 21.457 25.2915L9.54551 18.6831L7.26111 19.5805L19.2542 26.2706C18.4383 27.168 16.9698 25.6179 17.7856 26.5153C17.6225 26.4337 17.6225 26.4337 17.6225 26.4337L5.79257 32.1447L9.21916 33.858L19.8253 33.4501C19.9069 33.6133 19.9885 33.6948 20.07 33.858C20.3964 34.3475 20.7227 34.837 21.0491 35.245C21.2122 35.4897 21.457 35.7345 21.7017 35.9792C22.2728 36.5503 28.4733 40.3033 29.0444 40.8744C29.4524 41.2823 29.9419 41.6902 30.4314 42.0166C30.5946 42.1797 30.8393 42.2613 31.0025 42.4245L31.8999 42.914L43.6483 49.5224L28.3918 51.8068L0 60.6996L5.71099 64.1262L22.7624 60.9444C22.6808 61.1892 22.5992 61.3523 22.5992 61.5971C22.5176 62.1682 23.4966 62.984 24.3125 63.392L27.8207 65.2684C28.2286 65.4316 28.7181 65.4316 29.3708 65.1053C30.6762 64.5342 31.8184 63.0656 31.9815 61.9234C32.0631 61.3523 31.8999 60.9444 31.5736 60.7812L30.1866 60.047L40.4664 58.8232C40.4664 59.3943 41.3639 60.1285 42.0981 60.5365L45.6063 62.4129C46.0142 62.5761 46.5038 62.5761 47.1564 62.2498C48.4618 61.6787 49.604 60.2101 49.7672 59.0679C49.8488 58.4968 49.6856 58.0889 49.3592 57.9257L49.0329 57.7626L56.9467 56.7835L78.4037 67.3897C78.4853 67.3897 78.5669 67.3897 78.6484 67.4712C78.9748 67.5528 79.3011 67.6344 79.7091 67.716C80.4433 67.9608 80.1986 68.5319 81.0144 68.7766C82.7277 69.3477 85.5832 69.5925 87.2149 69.6741C87.2965 69.6741 87.4597 69.6741 87.5413 69.6741C87.6229 69.6741 87.7044 69.6741 87.786 69.6741C87.8676 69.6741 87.8676 69.6741 87.9492 69.6741C88.0308 69.6741 88.1124 69.6741 88.1124 69.6741C88.3571 69.6741 88.6835 69.6741 88.8466 69.5925C89.173 69.5109 89.5809 69.4293 89.8257 69.2661C90.3152 69.0214 90.7231 68.6134 90.8863 68.2055C91.131 68.2871 91.2126 68.2055 91.2126 68.0424Z" fill="#D4D4D4"/>
<path d="M39.977 59.639L37.04 61.2708L35.3267 60.2917L34.7556 59.9654L33.4502 59.1495L36.3057 57.5178L37.6926 58.2521L38.2637 58.5784L39.977 59.639Z" fill="#D4D4D4"/>
<path d="M82.0757 68.1244L79.1386 69.7561L77.4253 68.7771L76.8542 68.4507L75.4673 67.7165L78.4044 66.0032L79.7913 66.819L80.3624 67.1454L82.0757 68.1244Z" fill="#D4D4D4"/>
<path fill-rule="evenodd" clip-rule="evenodd" d="M77.9136 34.5924C77.2609 34.2661 76.9346 34.674 76.9346 35.3267C76.9346 35.9793 77.5873 36.5504 78.2399 36.9584C78.8926 37.2847 79.0558 36.9584 79.0558 36.3873C79.0558 35.7346 78.5663 35.0003 77.9136 34.5924Z" fill="#010007"/>
<path fill-rule="evenodd" clip-rule="evenodd" d="M76.4448 35.0818L77.1791 34.5923L77.0975 35.0818H76.4448Z" fill="#010007"/>
<path fill-rule="evenodd" clip-rule="evenodd" d="M78.0776 37.4475L78.8118 37.0396L78.2408 36.4685L78.1592 37.2028L78.0776 37.4475Z" fill="#010007"/>
<path fill-rule="evenodd" clip-rule="evenodd" d="M77.2613 35.1632C76.6086 34.8368 76.1191 35 76.1191 35.6527C76.1191 36.3054 76.6086 37.0396 77.2613 37.366C77.914 37.6923 78.4035 37.5292 78.4035 36.8765C78.4035 36.3054 77.8324 35.4895 77.2613 35.1632Z" fill="#2E2D30"/>
<path fill-rule="evenodd" clip-rule="evenodd" d="M77.2608 35.2452C76.6897 34.9188 76.2817 35.082 76.2817 35.6531C76.2817 36.2242 76.7712 36.8769 77.2608 37.2032C77.8319 37.5296 78.2398 37.3664 78.2398 36.7953C78.2398 36.3058 77.8319 35.5715 77.2608 35.2452Z" fill="#1B1B1F"/>
<path fill-rule="evenodd" clip-rule="evenodd" d="M77.2616 35.5715C76.8537 35.3268 76.5273 35.49 76.5273 35.8979C76.5273 36.3058 76.8537 36.7953 77.2616 37.0401C77.6695 37.2848 77.9959 37.1217 77.9959 36.7137C77.9959 36.3058 77.6695 35.7347 77.2616 35.5715Z" fill="#3B3B3B"/>
<path fill-rule="evenodd" clip-rule="evenodd" d="M77.2621 35.5715C76.9357 35.3267 76.6094 35.4899 76.6094 35.8162C76.6094 36.1426 76.9357 36.6321 77.2621 36.8768C77.5884 37.1216 77.9147 36.9584 77.9147 36.6321C77.9147 36.2241 77.67 35.8162 77.2621 35.5715Z" fill="#CECECE"/>
<path fill-rule="evenodd" clip-rule="evenodd" d="M77.8321 36.469C77.8321 36.1426 77.5873 35.8163 77.261 35.6531C76.9346 35.4899 76.6899 35.5715 76.6899 35.8979C76.6899 36.2242 76.9346 36.6321 77.261 36.7953C77.5873 36.9585 77.8321 36.8769 77.8321 36.5506V36.469Z" fill="#7C7774"/>
<path fill-rule="evenodd" clip-rule="evenodd" d="M77.2608 35.6526C77.0977 35.6526 77.0977 35.7342 77.0977 35.8973C77.0977 36.1421 77.2608 36.3869 77.5056 36.4684C77.6688 36.55 77.8319 36.55 77.8319 36.3869C77.7503 36.1421 77.5872 35.8158 77.2608 35.6526Z" fill="#CECECE"/>
<path d="M76.772 28.718V36.2239C76.772 36.3055 76.9351 36.3871 77.0983 36.3871C77.2615 36.3871 77.4247 36.3055 77.4247 36.2239V28.718H76.772Z" fill="url(#paint0_linear_3070_5672)"/>
<path fill-rule="evenodd" clip-rule="evenodd" d="M76.5264 35.4896C75.8737 35.1633 75.5474 35.5712 75.5474 36.2239C75.5474 36.8766 76.2 37.4477 76.8527 37.8556C77.5054 38.1819 77.6686 37.8556 77.6686 37.2845C77.6686 36.6318 77.1791 35.816 76.5264 35.4896Z" fill="#010007"/>
<path fill-rule="evenodd" clip-rule="evenodd" d="M75.0576 35.8974L75.7919 35.4895L75.7103 35.8974H75.0576Z" fill="#010007"/>
<path fill-rule="evenodd" clip-rule="evenodd" d="M76.6904 38.3447L77.4247 37.8552L76.8536 37.3657L76.772 38.0184L76.6904 38.3447Z" fill="#010007"/>
<path fill-rule="evenodd" clip-rule="evenodd" d="M75.8741 35.9791C75.2214 35.6527 74.7319 35.8159 74.7319 36.4686C74.7319 37.1213 75.2214 37.8556 75.8741 38.1819C76.5268 38.5082 77.0163 38.3451 77.0163 37.6924C77.0163 37.1213 76.4452 36.387 75.8741 35.9791Z" fill="#2E2D30"/>
<path fill-rule="evenodd" clip-rule="evenodd" d="M75.8736 36.1424C75.3025 35.8161 74.8945 35.9792 74.8945 36.5503C74.8945 37.1214 75.384 37.7741 75.8736 38.1005C76.4447 38.4268 76.8526 38.2636 76.8526 37.6925C76.8526 37.1214 76.4447 36.4687 75.8736 36.1424Z" fill="#1B1B1F"/>
<path fill-rule="evenodd" clip-rule="evenodd" d="M75.8744 36.387C75.4665 36.1422 75.1401 36.3054 75.1401 36.7133C75.1401 37.1212 75.4665 37.6108 75.8744 37.8555C76.2823 38.1003 76.6087 37.9371 76.6087 37.5292C76.6087 37.1212 76.2823 36.6317 75.8744 36.387Z" fill="#3B3B3B"/>
<path fill-rule="evenodd" clip-rule="evenodd" d="M75.8749 36.4687C75.5485 36.2239 75.2222 36.3871 75.2222 36.7134C75.2222 37.0398 75.5485 37.5293 75.8749 37.774C76.2012 38.0188 76.5275 37.8556 76.5275 37.5293C76.5275 37.1214 76.2828 36.6318 75.8749 36.4687Z" fill="#CECECE"/>
<path fill-rule="evenodd" clip-rule="evenodd" d="M76.4449 37.2846C76.4449 36.9583 76.2002 36.632 75.8738 36.4688C75.5475 36.3056 75.3027 36.3872 75.3027 36.7135C75.3027 37.0399 75.5475 37.4478 75.8738 37.611C76.2002 37.7742 76.4449 37.6926 76.4449 37.3662C76.4449 37.3662 76.4449 37.3662 76.4449 37.2846Z" fill="#7C7774"/>
<path fill-rule="evenodd" clip-rule="evenodd" d="M75.8736 36.5498C75.7104 36.5498 75.7104 36.6314 75.7104 36.7946C75.7104 37.0393 75.8736 37.2841 76.1184 37.3657C76.2815 37.4472 76.4447 37.4472 76.4447 37.2841C76.3631 37.0393 76.2 36.713 75.8736 36.5498Z" fill="#CECECE"/>
<path fill-rule="evenodd" clip-rule="evenodd" d="M81.4234 66.2477C80.7707 65.9213 80.4443 66.3293 80.4443 66.9819C80.4443 67.6346 81.097 68.2057 81.7497 68.6137C82.4024 68.94 82.5656 68.6137 82.5656 68.0426C82.5656 67.3899 82.0761 66.574 81.4234 66.2477Z" fill="#010007"/>
<path fill-rule="evenodd" clip-rule="evenodd" d="M79.9551 66.6557L80.6893 66.2478L80.6078 66.7373L79.9551 66.6557Z" fill="#010007"/>
<path fill-rule="evenodd" clip-rule="evenodd" d="M81.668 69.103L82.3207 68.6951L81.7496 68.124L81.668 68.7767V69.103Z" fill="#010007"/>
<path fill-rule="evenodd" clip-rule="evenodd" d="M80.7711 66.8187C80.1184 66.4923 79.6289 66.6555 79.6289 67.3082C79.6289 67.9609 80.1184 68.6952 80.7711 69.0215C81.4238 69.3478 81.9133 69.1847 81.9133 68.532C81.9133 67.8793 81.4238 67.145 80.7711 66.8187Z" fill="#2E2D30"/>
<path fill-rule="evenodd" clip-rule="evenodd" d="M80.7705 66.9005C80.1994 66.5741 79.7915 66.7373 79.7915 67.3084C79.7915 67.8795 80.281 68.5322 80.7705 68.8585C81.3416 69.1849 81.7496 69.0217 81.7496 68.4506C81.8311 67.9611 81.3416 67.2268 80.7705 66.9005Z" fill="#1B1B1F"/>
<path fill-rule="evenodd" clip-rule="evenodd" d="M80.7709 67.1453C80.363 66.9005 80.0366 67.0637 80.0366 67.4716C80.0366 67.8795 80.363 68.3691 80.7709 68.6138C81.1788 68.8586 81.5052 68.6954 81.5052 68.2875C81.5052 67.8795 81.1788 67.39 80.7709 67.1453Z" fill="#3B3B3B"/>
<path fill-rule="evenodd" clip-rule="evenodd" d="M80.8524 67.2267C80.526 66.982 80.1997 67.1451 80.1997 67.4715C80.1997 67.7978 80.526 68.2873 80.8524 68.5321C81.1787 68.7769 81.5051 68.6137 81.5051 68.2873C81.5051 67.8794 81.1787 67.3899 80.8524 67.2267Z" fill="#CECECE"/>
<path fill-rule="evenodd" clip-rule="evenodd" d="M81.3419 68.1242C81.3419 67.7979 81.0971 67.4716 80.7708 67.3084C80.4445 67.1452 80.1997 67.2268 80.1997 67.5532C80.1997 67.8795 80.4445 68.2874 80.7708 68.4506C81.0971 68.6138 81.3419 68.5322 81.3419 68.2058C81.3419 68.1242 81.3419 68.1242 81.3419 68.1242Z" fill="#7C7774"/>
<path fill-rule="evenodd" clip-rule="evenodd" d="M80.8526 67.3079C80.771 67.3079 80.8526 67.3079 80.8526 67.3079C80.6895 67.3079 80.6895 67.3894 80.6895 67.5526C80.6895 67.7974 80.8526 68.0421 81.0974 68.1237C81.2606 68.2053 81.4237 68.2053 81.4237 68.0421C81.3421 67.7974 81.0974 67.471 80.8526 67.3079Z" fill="#CECECE"/>
<path d="M79.1382 66.7368L79.7909 65.7578L79.8725 65.8394L79.2198 66.8184L79.1382 66.7368Z" fill="#B37100"/>
<path d="M80.77 65.1863L79.791 65.7574L79.8726 65.839L80.8516 65.2679L80.77 65.1863Z" fill="#C3840C"/>
<path d="M80.1988 66.2476L79.2197 66.8187L79.8724 65.8397L80.8514 65.2686L80.1988 66.2476Z" fill="#E1AD25"/>
<path d="M80.2808 60.2917V67.7976C80.2808 67.8792 80.4439 67.9608 80.6071 67.9608C80.7703 67.9608 80.9334 67.8792 80.9334 67.7976V60.2917H80.2808Z" fill="url(#paint1_linear_3070_5672)"/>
<path fill-rule="evenodd" clip-rule="evenodd" d="M80.0357 67.0631C79.383 66.7368 79.0566 67.1447 79.0566 67.7974C79.0566 68.4501 79.7093 69.0212 80.362 69.4291C81.0147 69.7554 81.1779 69.4291 81.1779 68.858C81.1779 68.2053 80.6883 67.471 80.0357 67.0631Z" fill="#010007"/>
<path fill-rule="evenodd" clip-rule="evenodd" d="M78.5669 67.5525L79.3012 67.063L79.2196 67.5525H78.5669Z" fill="#010007"/>
<path fill-rule="evenodd" clip-rule="evenodd" d="M80.2803 69.9185L80.933 69.5105L80.3619 68.9395L80.2803 69.6737V69.9185Z" fill="#010007"/>
<path fill-rule="evenodd" clip-rule="evenodd" d="M79.3834 67.6339C78.7307 67.3075 78.2412 67.4707 78.2412 68.1234C78.2412 68.7761 78.7307 69.5103 79.3834 69.8367C80.0361 70.163 80.5256 69.9999 80.5256 69.3472C80.5256 68.7761 80.0361 67.9602 79.3834 67.6339Z" fill="#2E2D30"/>
<path fill-rule="evenodd" clip-rule="evenodd" d="M79.3828 67.7159C78.8117 67.3895 78.4038 67.5527 78.4038 68.1238C78.4038 68.6949 78.8933 69.3476 79.3828 69.6739C79.9539 70.0003 80.3619 69.8371 80.3619 69.266C80.4434 68.7765 79.9539 68.0422 79.3828 67.7159Z" fill="#1B1B1F"/>
<path fill-rule="evenodd" clip-rule="evenodd" d="M79.3832 67.9607C78.9753 67.7159 78.6489 67.8791 78.6489 68.287C78.6489 68.695 78.9753 69.1845 79.3832 69.4292C79.7911 69.674 80.1175 69.5108 80.1175 69.1029C80.1175 68.7766 79.7911 68.2055 79.3832 67.9607Z" fill="#3B3B3B"/>
<path fill-rule="evenodd" clip-rule="evenodd" d="M79.4647 68.0422C79.1384 67.7974 78.812 67.9606 78.812 68.2869C78.812 68.6133 79.1384 69.1028 79.4647 69.3475C79.791 69.5923 80.1174 69.4291 80.1174 69.1028C80.1174 68.6948 79.791 68.2869 79.4647 68.0422Z" fill="#CECECE"/>
<path fill-rule="evenodd" clip-rule="evenodd" d="M79.9542 68.9397C79.9542 68.6133 79.7095 68.287 79.3831 68.1238C79.0568 67.9607 78.812 68.0422 78.812 68.3686C78.812 68.6949 79.0568 69.1028 79.3831 69.266C79.7095 69.4292 79.9542 69.3476 79.9542 69.0213V68.9397Z" fill="#7C7774"/>
<path fill-rule="evenodd" clip-rule="evenodd" d="M79.4649 68.1233C79.3833 68.1233 79.3833 68.1233 79.4649 68.1233C79.3018 68.1233 79.3018 68.2049 79.3018 68.3681C79.3018 68.6128 79.4649 68.8576 79.7097 68.9391C79.8729 69.0207 80.036 69.0207 80.036 68.8576C79.9544 68.6128 79.7097 68.2865 79.4649 68.1233Z" fill="#CECECE"/>
<path d="M81.9114 68.2874L80.5244 66.2478H80.606L81.993 68.2874H81.9114Z" fill="#B37100"/>
<path d="M81.5034 65.6765L80.5244 66.2476H80.606L81.6666 65.6765H81.5034Z" fill="#C3840C"/>
<path d="M83.0545 67.7162L81.9939 68.2872L80.6069 66.2476L81.6675 65.6765L83.0545 67.7162Z" fill="#E1AD25"/>
<path fill-rule="evenodd" clip-rule="evenodd" d="M39.0801 57.5995C38.4274 57.2731 38.1011 57.6811 38.1011 58.3337C38.1011 58.9864 38.7538 59.5575 39.4064 59.9655C40.0591 60.2918 40.2223 59.9655 40.2223 59.3944C40.2223 58.7417 39.7328 57.9258 39.0801 57.5995Z" fill="#010007"/>
<path fill-rule="evenodd" clip-rule="evenodd" d="M37.6123 58.0078L38.3466 57.5999L38.265 58.0894L37.6123 58.0078Z" fill="#010007"/>
<path fill-rule="evenodd" clip-rule="evenodd" d="M39.3247 60.4553L39.9774 60.0474L39.4063 59.4763L39.3247 60.129V60.4553Z" fill="#010007"/>
<path fill-rule="evenodd" clip-rule="evenodd" d="M38.4278 58.171C37.7752 57.8446 37.2856 58.0078 37.2856 58.6605C37.2856 59.3132 37.7752 60.0474 38.4278 60.3738C39.0805 60.7001 39.57 60.537 39.57 59.8843C39.57 59.2316 39.0805 58.4973 38.4278 58.171Z" fill="#2E2D30"/>
<path fill-rule="evenodd" clip-rule="evenodd" d="M38.4273 58.2523C37.8562 57.9259 37.4482 58.0891 37.4482 58.6602C37.4482 59.2313 37.9378 59.884 38.4273 60.2103C38.9984 60.5367 39.4063 60.3735 39.4063 59.8024C39.4063 59.2313 38.9984 58.5786 38.4273 58.2523Z" fill="#1B1B1F"/>
<path fill-rule="evenodd" clip-rule="evenodd" d="M38.4281 58.4973C38.0202 58.2526 37.6938 58.4157 37.6938 58.8237C37.6938 59.2316 38.0202 59.7211 38.4281 59.9659C38.836 60.2106 39.1624 60.0474 39.1624 59.6395C39.1624 59.2316 38.836 58.7421 38.4281 58.4973Z" fill="#3B3B3B"/>
<path fill-rule="evenodd" clip-rule="evenodd" d="M38.4286 58.5785C38.1022 58.3338 37.7759 58.497 37.7759 58.8233C37.7759 59.1496 38.1022 59.6392 38.4286 59.8839C38.7549 60.1287 39.0812 59.9655 39.0812 59.6391C39.0812 59.2312 38.8365 58.7417 38.4286 58.5785Z" fill="#CECECE"/>
<path fill-rule="evenodd" clip-rule="evenodd" d="M38.9986 59.3945C38.9986 59.0682 38.7539 58.7418 38.4275 58.5787C38.1012 58.4155 37.8564 58.4971 37.8564 58.8234C37.8564 59.1498 38.1012 59.5577 38.4275 59.7208C38.7539 59.884 38.9986 59.8024 38.9986 59.4761C38.9986 59.4761 38.9986 59.4761 38.9986 59.3945Z" fill="#7C7774"/>
<path fill-rule="evenodd" clip-rule="evenodd" d="M38.4278 58.6602C38.2646 58.6602 38.2646 58.7417 38.2646 58.9049C38.2646 59.1497 38.4278 59.3944 38.6726 59.476C38.8357 59.5576 38.9989 59.5576 38.9989 59.3944C38.9989 59.1497 38.7542 58.8233 38.4278 58.6602Z" fill="#CECECE"/>
<path d="M37.9375 51.644V59.1499C37.9375 59.2315 38.1007 59.3131 38.2638 59.3131C38.427 59.3131 38.5902 59.2315 38.5902 59.1499V51.644H37.9375Z" fill="url(#paint2_linear_3070_5672)"/>
<path fill-rule="evenodd" clip-rule="evenodd" d="M37.6914 58.4156C37.0387 58.0893 36.7124 58.4972 36.7124 59.1499C36.7124 59.8026 37.3651 60.3737 38.0178 60.7816C38.6705 61.108 38.8336 60.7816 38.8336 60.2105C38.8336 59.5578 38.3441 58.8236 37.6914 58.4156Z" fill="#010007"/>
<path fill-rule="evenodd" clip-rule="evenodd" d="M36.2227 58.8235L36.9569 58.4155L36.8753 58.905L36.2227 58.8235Z" fill="#010007"/>
<path fill-rule="evenodd" clip-rule="evenodd" d="M37.936 61.2708L38.5887 60.8628L38.0176 60.2917L37.936 61.026V61.2708Z" fill="#010007"/>
<path fill-rule="evenodd" clip-rule="evenodd" d="M37.0392 58.9864C36.3865 58.6601 35.897 58.8232 35.897 59.4759C35.897 60.1286 36.3865 60.8629 37.0392 61.1892C37.6919 61.5156 38.1814 61.3524 38.1814 60.6997C38.1814 60.1286 37.6919 59.3128 37.0392 58.9864Z" fill="#2E2D30"/>
<path fill-rule="evenodd" clip-rule="evenodd" d="M37.0386 59.0684C36.4675 58.7421 36.0596 58.9053 36.0596 59.4764C36.0596 60.0475 36.5491 60.7001 37.0386 61.0265C37.6097 61.3528 38.0176 61.1897 38.0176 60.6186C38.0176 60.129 37.6097 59.3948 37.0386 59.0684Z" fill="#1B1B1F"/>
<path fill-rule="evenodd" clip-rule="evenodd" d="M37.0394 59.313C36.6315 59.0682 36.3052 59.2314 36.3052 59.6393C36.3052 60.0473 36.6315 60.5368 37.0394 60.7815C37.4474 61.0263 37.7737 60.8631 37.7737 60.4552C37.7737 60.1289 37.4474 59.5578 37.0394 59.313Z" fill="#3B3B3B"/>
<path fill-rule="evenodd" clip-rule="evenodd" d="M37.0399 59.3947C36.7136 59.1499 36.3872 59.3131 36.3872 59.6395C36.3872 59.9658 36.7136 60.4553 37.0399 60.7001C37.3662 60.9448 37.6926 60.7817 37.6926 60.4553C37.6926 60.0474 37.4478 59.6395 37.0399 59.3947Z" fill="#CECECE"/>
<path fill-rule="evenodd" clip-rule="evenodd" d="M37.61 60.2922C37.61 59.9659 37.3652 59.6395 37.0389 59.4764C36.7125 59.3132 36.4678 59.3948 36.4678 59.7211C36.4678 60.0475 36.7125 60.4554 37.0389 60.6186C37.3652 60.7817 37.61 60.7001 37.61 60.3738V60.2922Z" fill="#7C7774"/>
<path fill-rule="evenodd" clip-rule="evenodd" d="M37.0387 59.4758C36.8755 59.4758 36.8755 59.5574 36.8755 59.7206C36.8755 59.9653 37.0387 60.2101 37.2834 60.2917C37.4466 60.3733 37.6098 60.3733 37.6098 60.2101C37.6098 59.9653 37.365 59.639 37.0387 59.4758Z" fill="#CECECE"/>
<path d="M21.6199 26.2705L23.4147 23.1702L20.2329 21.3753C19.9882 21.2121 19.6618 21.2937 19.3355 21.4569C18.6012 21.8648 18.3564 22.8439 18.3564 23.6597C18.3564 24.3124 18.7644 24.6387 19.3355 24.9651L21.6199 26.2705Z" fill="url(#paint3_linear_3070_5672)"/>
<path d="M78.9747 38.5896L75.7928 44.0559L74.2427 43.24C74.2427 43.24 74.2427 43.24 74.1611 43.24L73.2637 42.7505L71.632 41.8531C70.6529 41.3636 69.5923 40.3029 69.5107 39.6503V39.4871C69.5107 38.1817 70.3266 36.7132 71.3872 35.9789C71.4688 35.8973 71.5504 35.8157 71.632 35.8157C72.2847 35.4894 72.8558 35.4078 73.2637 35.6526L73.5084 35.8157L77.1798 37.8554L78.9747 38.5896Z" fill="#A4CBEB"/>
<path d="M77.3432 37.6925C77.0985 37.7741 76.7721 37.7741 76.5274 37.9372C76.201 38.1004 76.0379 38.3452 75.7931 38.6715C75.3852 39.2426 75.0588 39.8953 74.8141 40.548C74.7325 40.8743 74.5693 41.1191 74.4877 41.4454C74.4061 41.7717 74.4061 42.0981 74.3246 42.3428C74.3246 42.4244 74.3246 43.1587 74.3246 43.1587C74.3246 43.1587 74.3246 43.1587 74.243 43.1587C74.0798 43.0771 73.5087 42.8324 73.4271 42.7508C73.3455 42.7508 73.3455 42.6692 73.4271 42.6692C73.4271 42.5876 73.6719 42.3428 73.5087 42.3428C73.1008 42.0981 72.7744 41.9349 72.3665 41.6902C71.9586 41.4454 71.6322 41.2822 71.2243 41.0375C70.6532 40.7111 70.1637 40.14 69.8374 39.5689C69.7558 39.4874 69.7558 39.4058 69.6742 39.3242C69.511 38.9978 69.4294 38.6715 69.511 38.3452C69.5926 37.9372 69.8374 37.4477 70.0821 37.1214C70.3269 36.795 70.5716 36.4687 70.898 36.1423C71.0611 35.9792 71.3059 35.8976 71.5506 35.7344C72.2033 35.4081 72.9376 35.4081 73.6719 35.4897L77.3432 37.6925Z" fill="#7290DB"/>
<path d="M78.9747 38.5896L76.5272 37.2026C76.1193 36.9579 75.5482 37.0394 74.8955 37.3658C73.6717 38.1001 73.1006 39.8134 73.1006 41.2003C73.1006 42.2609 73.8349 42.9136 74.8139 43.4847L75.7929 44.0558L78.9747 38.5896Z" fill="#FFD800"/>
<path d="M79.7089 40.0585C79.7905 41.4454 78.7299 43.2403 77.5061 43.9746C76.2824 44.7088 75.2217 44.1377 75.1402 42.6692C75.0586 41.2822 76.1192 39.4874 77.343 38.7531C78.5668 38.0188 79.6274 38.5899 79.7089 40.0585Z" fill="#FAA808"/>
<path d="M79.5461 40.0584C79.6277 41.4454 78.6487 43.0771 77.4249 43.8114C76.2011 44.5457 75.2221 43.9746 75.1405 42.5876C75.0589 41.2006 76.0379 39.5689 77.2617 38.8347C78.5671 38.182 79.5461 38.7531 79.5461 40.0584Z" fill="#EDEDED"/>
<path d="M79.0565 40.3845C79.0565 41.4451 78.3222 42.7505 77.4248 43.3216C76.4457 43.8927 75.7115 43.4032 75.6299 42.3426C75.6299 41.2819 76.3642 39.9766 77.2616 39.4055C78.2406 38.916 79.0565 39.3239 79.0565 40.3845Z" fill="#DEF7FF"/>
<path d="M78.9743 40.4662C78.9743 41.4452 78.3216 42.669 77.4242 43.1585C76.5268 43.648 75.7925 43.2401 75.7925 42.2611C75.7925 41.282 76.4452 40.0583 77.3426 39.5688C78.24 39.0792 78.9743 39.4872 78.9743 40.4662Z" fill="#071C26"/>
<path d="M77.3431 39.5684C76.4457 40.0579 75.793 41.2817 75.8746 42.2607C75.8746 42.4239 75.8746 42.5054 75.9561 42.6686L77.1799 43.3213C77.3431 43.3213 77.4247 43.2397 77.5879 43.1581C78.4853 42.6686 79.138 41.4448 79.138 40.4658L77.3431 39.5684Z" fill="#56757E"/>
<path d="M76.4456 40.3845C76.1193 40.7924 75.9561 41.282 75.8745 41.7715L77.8326 42.9137C78.2405 42.5873 78.4852 42.1794 78.73 41.6899L76.4456 40.3845Z" fill="#E2FF9B"/>
<path d="M76.4456 40.3845C76.1193 40.7924 75.9561 41.282 75.8745 41.7715L77.8326 42.9137C78.2405 42.5873 78.4852 42.1794 78.73 41.6899L76.4456 40.3845Z" fill="#8DA9B1"/>
<path d="M78.4852 40.4658C78.4852 41.2816 77.9957 42.1791 77.2614 42.587C76.5272 42.9949 75.9561 42.6686 75.9561 41.8527C75.9561 41.0369 76.4456 40.1395 77.1798 39.7315C77.8325 39.3236 78.4036 39.6499 78.4852 40.4658Z" fill="#56757E"/>
<path d="M78.2409 40.5474C78.2409 41.2001 77.833 42.0159 77.1803 42.4239C76.6092 42.7502 76.1197 42.5054 76.0381 41.8528C76.0381 41.2001 76.446 40.3842 77.0987 39.9763C77.7514 39.5684 78.2409 39.8131 78.2409 40.5474Z" fill="#071C26"/>
<path d="M77.5877 41.2005C77.5877 41.3637 77.5061 41.5269 77.3429 41.6085C77.1797 41.69 77.0981 41.6085 77.0981 41.4453C77.0981 41.2821 77.1797 41.1189 77.3429 41.0374C77.5061 41.0374 77.5877 41.0374 77.5877 41.2005Z" fill="#56757E"/>
<path d="M81.9124 33.532L85.0942 28.0658L79.5464 24.9656C79.1385 24.7208 78.5674 24.8024 77.9147 25.1287C76.6909 25.863 75.7119 27.5763 75.7119 29.0448C75.7119 29.6975 76.8541 30.7581 77.8331 31.2476L81.9124 33.532Z" fill="#A4CBEB"/>
<path d="M77.099 27.9844C77.2622 27.5764 77.5885 27.2501 77.8333 27.0053C78.1596 26.679 78.5676 26.3526 78.9755 26.1895C79.3018 26.0263 79.7098 26.0263 80.1177 25.9447C80.3624 25.9447 80.6072 25.7 80.9335 25.7815C81.0967 25.7815 81.9126 26.1895 81.831 26.3526C81.831 26.4342 81.5046 26.4342 81.4231 26.5158C81.2599 26.5974 81.0967 26.7606 80.9335 26.9237C80.3624 27.5764 80.1177 28.0659 79.7913 29.2081C79.6282 29.6161 79.6282 30.1872 79.5466 30.5951C79.5466 31.003 79.3834 31.9005 79.5466 32.2268C79.465 32.1452 78.9755 31.9005 78.8123 31.8189C78.6491 31.7373 77.9965 31.4925 77.8333 31.4109C77.4254 31.3294 77.5885 31.003 77.2622 30.6767C76.7727 30.024 76.7727 28.8002 77.099 27.9844Z" fill="#7290DB"/>
<path d="M85.2584 28.0659L82.8109 26.6789C82.4029 26.4342 81.8318 26.5158 81.1792 26.8421C79.9554 27.5764 79.3843 29.2897 79.3843 30.6766C79.3843 31.7372 80.1185 32.3899 81.0976 32.961L82.0766 33.5321L85.2584 28.0659Z" fill="#FFD800"/>
<path d="M85.7466 29.4524C85.8282 30.8394 84.7676 32.6343 83.5438 33.3685C82.32 34.1028 81.2594 33.5317 81.1778 32.0632C81.0962 30.6762 82.1568 28.8813 83.3806 28.1471C84.686 27.4944 85.7466 28.0655 85.7466 29.4524Z" fill="#FAA808"/>
<path d="M85.6653 29.5346C85.7468 30.9216 84.7678 32.5533 83.544 33.2876C82.3203 34.0218 81.3412 33.4507 81.2596 32.0638C81.1781 30.6768 82.1571 29.0451 83.3809 28.3109C84.6046 27.6582 85.5837 28.1477 85.6653 29.5346Z" fill="#EDEDED"/>
<path d="M85.1761 29.8611C85.1761 30.9217 84.4418 32.227 83.5444 32.7981C82.5654 33.3692 81.8311 32.8797 81.7495 31.8191C81.7495 30.7585 82.4838 29.4531 83.3812 28.882C84.3602 28.3925 85.1761 28.8004 85.1761 29.8611Z" fill="#DEF7FF"/>
<path d="M85.0939 29.943C85.0939 30.922 84.4413 32.1458 83.5438 32.6353C82.6464 33.1248 81.9121 32.7169 81.9121 31.7379C81.9121 30.7589 82.5648 29.5351 83.4622 29.0456C84.2781 28.556 85.0124 28.964 85.0939 29.943Z" fill="#071C26"/>
<path d="M83.3807 29.0449C82.4833 29.5344 81.8306 30.7582 81.9122 31.7372C81.9122 31.9004 81.9122 31.982 81.9937 32.1452L83.2175 32.7979C83.3807 32.7979 83.4623 32.7163 83.6255 32.6347C84.5229 32.1452 85.1756 30.9214 85.1756 29.9424L83.3807 29.0449Z" fill="#56757E"/>
<path d="M82.5652 29.8613C82.2389 30.2693 82.0757 30.7588 81.9941 31.2483L83.9522 32.3905C84.3601 32.0641 84.6049 31.6562 84.8496 31.1667L82.5652 29.8613Z" fill="#E2FF9B"/>
<path d="M82.5652 29.8613C82.2389 30.2693 82.0757 30.7588 81.9941 31.2483L83.9522 32.3905C84.3601 32.0641 84.6049 31.6562 84.8496 31.1667L82.5652 29.8613Z" fill="#8DA9B1"/>
<path d="M84.5233 29.8613C84.5233 30.6771 84.0338 31.5746 83.2995 31.9825C82.5652 32.3904 81.9941 32.0641 81.9941 31.2482C81.9941 30.4324 82.4837 29.5349 83.2179 29.127C83.9522 28.8006 84.5233 29.127 84.5233 29.8613Z" fill="#56757E"/>
<path d="M84.2785 29.9428C84.2785 30.5955 83.8706 31.4113 83.2179 31.8193C82.6468 32.1456 82.1573 31.9009 82.0757 31.2482C82.0757 30.5955 82.4836 29.7796 83.1363 29.3717C83.789 29.0454 84.2785 29.2901 84.2785 29.9428Z" fill="#071C26"/>
<path d="M83.7073 30.6766C83.7073 30.8398 83.6257 31.003 83.4625 31.0845C83.2994 31.1661 83.2178 31.0846 83.2178 30.9214C83.2178 30.7582 83.2994 30.595 83.4625 30.5135C83.6257 30.4319 83.7073 30.5134 83.7073 30.6766Z" fill="#56757E"/>
<path d="M66.4106 37.448L72.04 47.483L84.5225 17.7043L84.3594 16.8069C84.2778 16.8069 66.4106 37.3664 66.4106 37.448Z" fill="#FAA808"/>
<path d="M70.8979 48.2173L84.2779 16.8885L76.9352 13.054L64.9422 30.0237L54.9071 38.5902C54.9071 38.5902 66.9002 44.8723 70.8979 48.2173Z" fill="#CCE6FF"/>
<path d="M64.9427 30.0239L65.6769 30.4319L57.1105 39.2431L55.8051 37.7746L64.9427 30.0239Z" fill="#ABC3D9"/>
<path d="M78.9751 14.0332L57.2733 43.0776L65.5951 46.749L81.5858 15.4202L78.9751 14.0332Z" fill="#D1EBFF"/>
<path d="M65.9218 46.0963L81.5862 15.4202L84.2785 16.8071L71.4696 46.8306L65.9218 46.0963Z" fill="#DEF8FF"/>
<path d="M97.5759 66.4924C97.5759 66.6556 97.5758 66.8188 97.4943 66.9819C97.3311 67.553 97.0048 67.961 96.5152 68.2873C96.1889 68.4505 95.8625 68.6137 95.4546 68.6952C95.2099 68.7768 94.9651 68.7768 94.6388 68.7768C94.5572 68.7768 94.4756 68.7768 94.4756 68.7768C94.394 68.7768 94.394 68.7768 94.3124 68.7768C94.2308 68.7768 94.1493 68.7768 94.0677 68.7768C93.9861 68.7768 93.8229 68.7768 93.7413 68.7768C92.028 68.6137 88.9278 68.3689 87.0513 67.7162C86.0723 67.3899 86.317 66.6556 85.4196 66.4109C85.0117 66.2477 84.6038 66.1661 84.2774 66.0845C84.1958 66.0845 84.1142 66.0029 83.9511 66.0029L56.3752 51.807L30.1046 36.6321L29.044 35.9794C28.7992 35.8163 28.5545 35.6531 28.3913 35.4899C27.8202 35.082 27.2491 34.5925 26.678 34.103C25.9438 33.4503 25.2095 32.7976 24.4752 32.0633C24.2305 31.737 23.9041 31.4922 23.6594 31.1659C23.1698 30.5948 22.7619 30.0237 22.354 29.4526C21.7013 28.5552 21.2118 27.5761 20.8039 26.5155C20.6407 26.1076 20.5591 25.7813 20.4775 25.3733C20.4775 25.2102 20.4775 24.9654 20.3959 24.8022C20.3959 24.7206 20.2328 24.6391 20.1512 24.5575C20.0696 24.4759 19.9064 24.3127 19.8248 24.2311C19.7432 24.068 19.5801 23.9048 19.5801 23.66C19.5801 23.5785 19.5801 23.5784 19.5801 23.4969V23.4153C19.5801 23.3337 19.5801 23.3337 19.5801 23.2521C19.5801 23.1705 19.6617 23.0889 19.6617 23.0074C19.6617 22.9258 19.6617 22.9258 19.7432 22.8442C19.7432 22.7626 19.8248 22.681 19.8248 22.681C19.8248 22.681 19.8248 22.5994 19.9064 22.5994L19.988 22.5178C19.988 22.4363 20.0696 22.4363 20.1512 22.3547L20.2328 22.2731C20.3959 22.1915 21.2934 18.8465 21.375 18.7649C21.375 18.7649 21.8645 18.2754 22.354 18.2754C22.5172 18.2754 22.6803 18.2754 22.8435 18.2754C23.5778 18.2754 29.3703 20.6414 30.1046 20.8045C30.2678 20.8045 30.431 20.8861 30.5125 20.8861C30.5941 20.8861 30.6757 20.9677 30.8389 20.9677C31.1652 21.0493 31.41 21.1309 31.7363 21.2125C31.8179 21.2125 31.8995 21.2941 31.9811 21.2941C32.2258 21.3756 32.389 21.4572 32.6338 21.5388C32.9601 21.702 33.2864 21.8652 33.6128 22.0283L39.2422 25.2917L88.2751 53.5203C89.9884 54.4994 91.5385 55.8047 92.7623 57.3549L92.8439 57.4364C92.9255 57.518 92.9255 57.5996 93.0071 57.6812C93.0886 57.7628 93.1702 57.926 93.2518 58.0075C93.3334 58.0891 93.415 58.2523 93.4966 58.3339C93.4966 58.4155 93.5782 58.4155 93.5782 58.4971C93.6597 58.5786 93.7413 58.6602 93.7413 58.8234C93.7413 58.8234 93.7413 58.905 93.8229 58.905C93.8229 58.905 93.9045 58.9866 93.9045 59.0682L93.9861 59.1497C94.0677 59.3129 94.1493 59.4761 94.2308 59.5577C94.5572 60.1288 94.8019 60.6183 95.0467 61.271L96.1889 63.5554L96.5968 64.3712L96.8416 64.8607L97.4127 65.9213C97.4943 66.0845 97.4943 66.2477 97.5759 66.4109C97.5759 66.3293 97.5759 66.4924 97.5759 66.4924Z" fill="#D6F7FF"/>
<path d="M96.8416 66.4109C96.8416 67.1452 96.4336 67.7979 95.781 68.2058C95.6994 68.2874 95.5362 68.369 95.373 68.369C95.2099 68.4506 94.9651 68.5322 94.7204 68.5322C94.7204 68.5322 94.7203 68.5322 94.6388 68.5322C94.5572 68.5322 94.3124 68.6137 93.9045 68.6137C93.8229 68.6137 93.7413 68.6137 93.6597 68.6137C93.5782 68.6137 93.415 68.6137 93.2518 68.6137C92.5991 68.6137 91.7017 68.5322 90.3147 68.369C88.1935 67.9611 85.9907 67.2268 84.2774 66.6557C83.7879 66.4925 83.5431 65.8398 83.1352 65.7582L55.6409 51.6439L29.3703 36.469L28.3097 35.8979C28.3097 35.8979 19.9064 30.187 19.5801 24.1496C19.5801 23.9865 19.5801 23.9049 19.5801 23.7417L20.3959 24.2312L20.6407 24.3944L28.065 32.3082C28.065 32.3082 78.4848 61.5974 84.1958 64.3713C87.5408 66.003 91.2938 66.4109 93.8229 66.4925C95.6994 66.4925 96.8416 66.4109 96.8416 66.4109Z" fill="#EFAD3C"/>
<path d="M91.5384 56.457C91.8647 56.8649 91.212 56.9465 90.8041 56.8649L88.8461 55.9675L36.2234 25.6177C35.7339 25.2913 25.9436 20.3962 21.8643 18.1118C22.0275 18.1118 22.1907 18.1118 22.3539 18.1118C23.3329 18.1118 24.3935 18.275 25.2909 18.5197C26.27 18.7645 32.0625 21.2937 32.96 21.7832L87.6223 53.2752C89.0908 54.091 90.3962 55.1516 91.5384 56.457Z" fill="#E6FFFF"/>
<path d="M33.6935 23.2515L35.2436 14.6035C35.2436 14.5219 35.2436 14.2771 35.3252 14.1956L31.4091 21.7014C31.9802 21.8646 33.1224 23.0068 33.6935 23.2515Z" fill="#E17B29"/>
<path d="M33.6939 23.2512L35.3256 14.1136C34.6729 13.2977 32.6333 12.6451 32.3885 12.5635L26.0248 20.0693C26.1064 20.0693 26.2696 20.1509 26.3512 20.1509C28.6356 20.5589 31.5727 22.2722 33.6939 23.2512Z" fill="#ED9029"/>
<path d="M32.0617 21.8643L34.2645 13.3794L33.0408 12.8899L27.8193 20.5589C29.2878 20.8853 30.6748 21.3748 32.0617 21.8643Z" fill="#F29C29"/>
<path d="M34.1831 23.4142L35.3253 14.1135C35.1621 13.7871 34.2647 13.2976 34.2647 13.2976L31.246 21.5377C31.9803 21.8641 33.4488 23.0879 34.1831 23.4142Z" fill="#FFC929"/>
<path d="M94.8022 60.3734L95.6181 62.1683C94.639 62.6578 93.1705 63.3105 92.1915 63.392C90.8861 63.4736 89.5807 63.2289 88.357 62.6578L83.9513 60.7813C83.7066 60.6181 83.5434 60.5366 83.2987 60.3734C82.7276 60.047 59.9652 46.9934 59.3941 46.667C58.4967 46.1775 57.5992 45.6064 56.6202 45.1169C55.478 44.4642 54.3358 43.8115 53.1936 43.1588C51.8882 42.4246 50.5829 41.6087 49.1959 40.8744C47.809 40.0586 46.3404 39.2427 44.9535 38.4269C43.4849 37.611 38.1003 34.4292 36.7133 33.6133C35.3264 32.7975 33.8578 31.9816 32.4709 31.1658C31.1655 30.4315 29.8601 29.6972 28.5548 28.963C27.4126 28.3103 26.352 27.6576 25.2098 27.0049C24.3939 26.5154 23.4965 26.0259 22.6806 25.5364C22.1911 25.21 21.62 24.9653 21.1305 24.6389C21.1305 24.6389 21.0489 24.5573 20.9673 24.5573C20.8041 24.3942 20.1515 23.5783 20.3146 23.4151C20.3962 23.3336 22.4359 20.0701 23.9044 21.1307C25.0466 21.9466 27.6573 23.3336 27.8205 23.4151L58.2519 41.0376L60.3731 42.2614C63.555 43.9747 88.4386 57.9258 90.3966 58.3337C92.5994 58.8233 92.8442 57.3547 92.8442 57.4363C93.3337 58.089 93.66 58.4969 93.7416 58.6601C93.9864 58.9864 94.5575 59.8023 94.8022 60.3734Z" fill="#E6FFFF"/>
<path d="M83.2984 65.8396L55.6409 51.6437L29.3703 36.4688L28.3097 35.8977C28.3097 35.8977 19.9064 30.1867 19.5801 24.1494C20.0696 24.6389 20.4775 25.2916 20.8039 26.1075C21.7829 28.555 26.678 32.9607 27.2491 33.6949C27.9018 34.4292 82.8089 65.5949 83.2984 65.8396Z" fill="#C98C1F"/>
<path d="M94.8839 68.5323C94.8023 68.5323 94.8839 68.5323 94.8839 68.5323C94.8023 68.5323 94.8023 68.5323 94.8839 68.5323C94.7207 68.6139 94.4759 68.6139 94.068 68.6139C93.9864 68.6139 93.9048 68.6139 93.8232 68.6139C93.7416 68.6139 94.1496 68.777 93.9864 68.777C93.3337 68.777 91.8652 68.5323 90.4782 68.3691C89.4176 68.2875 88.0307 68.1244 86.3174 67.798C82.0749 67.0637 55.6412 51.5625 55.6412 51.5625C55.886 51.6441 81.8302 65.0241 82.8092 65.5136C83.0539 65.5952 83.2987 65.7584 83.5435 65.84C84.7672 66.3295 85.991 66.819 87.378 66.9822C90.5598 67.3901 92.1915 67.3901 93.5785 67.5533C94.2312 67.7164 94.7207 68.5323 94.8839 68.5323C94.8839 68.5323 94.8023 68.5323 94.8839 68.5323Z" fill="#C98C1F"/>
<path d="M97.5767 66.4927C97.5767 66.6559 97.5767 66.819 97.4951 66.9822C96.5161 67.9612 94.558 67.8796 93.579 67.7165C93.579 67.3085 93.7422 66.819 93.9869 66.3295C94.2317 65.9216 94.4765 65.4321 94.8844 65.1057C95.2107 64.7794 95.5371 64.5346 95.8634 64.3715C96.1082 64.2083 96.3529 64.1267 96.5977 64.1267L96.8424 64.6162L97.4135 65.6768C97.4951 65.84 97.4951 66.0032 97.5767 66.1663C97.5767 66.3295 97.5767 66.4111 97.5767 66.4927Z" fill="#30485C"/>
<path d="M95.3742 61.6788L95.2926 61.842L94.8847 62.7394L94.8031 62.821H93.4161H91.2133H90.3975L86.6445 61.2709C85.5023 60.7813 85.3391 59.2312 86.3998 58.5785L86.7261 58.3338L90.0711 59.3944L90.6422 59.3128L92.0292 59.1496L92.6818 59.0681L93.0082 58.8233L93.5793 58.2522L94.3136 59.3944L95.3742 61.6788Z" fill="url(#paint4_linear_3070_5672)"/>
<path d="M94.7212 60.6188H94.8844L94.3949 59.5582L93.6606 58.416L93.0895 58.9871L92.8447 59.2319L92.1105 59.3135H91.7025L94.7212 60.6188Z" fill="url(#paint5_linear_3070_5672)"/>
<path d="M94.8032 60.4547L94.7216 60.5363L94.3137 61.4338L94.2321 61.5153H92.8452H90.6424H89.8265L86.0736 59.9652C85.9104 59.8836 85.7472 59.802 85.6656 59.7205C85.5841 60.3731 85.9104 61.0258 86.5631 61.2706L90.316 62.8207H91.1319H93.3347H94.7216L94.8032 62.7391L95.2111 61.8417L95.2927 61.6785L94.8032 60.4547Z" fill="#6F94A3"/>
<path d="M27.1692 29.045L10.7705 29.9424L7.01756 27.9844L6.93597 27.4949L13.1365 27.7396L27.1692 28.6371C27.1692 28.8818 27.1692 28.9634 27.1692 29.045Z" fill="#E17B29"/>
<path d="M27.0867 28.7186L10.7696 29.616L6.85352 27.5764L19.744 24.313C19.8256 24.313 24.9655 26.9237 27.0867 28.7186Z" fill="#ED9029"/>
<path d="M8.89258 28.637L25.1281 27.25L27.0862 28.7185L10.769 29.616L8.89258 28.637Z" fill="#FFC929"/>
<path d="M7.58838 27.9025L20.7237 24.7207L25.1293 27.2499L8.89375 28.6368L7.58838 27.9025Z" fill="#F29C29"/>
<path d="M97.4957 66.9824C97.3326 67.5535 97.0062 67.9614 96.5167 68.2878C96.1904 68.451 95.864 68.6141 95.4561 68.6957C95.2113 68.7773 94.9666 68.7773 94.6402 68.7773C94.5587 68.7773 94.4771 68.7773 94.3955 68.7773C94.3139 68.7773 94.3139 68.7773 94.2323 68.7773C94.1507 68.7773 94.0691 68.7773 93.9876 68.7773C93.906 68.7773 93.7428 68.7773 93.6612 68.7773C93.6612 68.7773 93.6612 68.6957 93.5796 68.6957C93.498 68.5325 93.498 68.2878 93.498 68.043C93.498 67.9615 93.498 67.8799 93.498 67.7983C94.5587 67.8799 96.5983 68.043 97.4957 66.9824Z" fill="#111C2E"/>
<path d="M34.1841 26.1074C34.1025 26.189 33.7762 26.4337 33.5314 26.5153C33.5314 26.5153 33.5314 26.5153 33.4498 26.5153V26.4337L29.7785 24.3125L29.3706 24.0677L24.4754 21.1307L22.7621 20.1516L21.9463 19.6621L19.1724 0.244757L19.6619 0L25.536 3.42659L34.1841 26.1074Z" fill="#C0D9FF"/>
<path d="M33.4498 26.4341L29.8601 24.3944L29.3706 24.0681L24.4754 21.131L22.7621 20.152L21.9463 19.6625L21.212 19.3361V19.2545L19.1724 0.245117L20.3146 0.897801L22.7621 2.28476L25.1281 3.67171L33.4498 26.4341Z" fill="#D1EBFF"/>
<path d="M33.4499 26.4335L29.8601 24.3939L29.3706 24.0675L22.7622 2.28418L25.1282 3.67113L33.4499 26.4335Z" fill="#DAF3FF"/>
<path d="M22.7621 20.152L21.9463 19.6625L21.212 19.3361L19.1724 0.245117L20.233 0.489874L20.3146 0.897801L22.7621 20.152Z" fill="#C98C1F"/>
<path d="M29.6962 63.637L32.8781 58.1708L27.3302 55.0705C26.9223 54.8258 26.3512 54.9074 25.6985 55.2337C24.4747 55.968 23.4141 57.6813 23.4957 59.1498C23.4957 59.8025 24.6379 60.8631 25.6169 61.3526L29.6962 63.637Z" fill="#9AB1EB"/>
<path d="M32.307 58.4967C31.736 58.1704 31.0833 58.1704 30.5938 58.3335C29.8595 58.5783 28.4725 59.1494 27.6567 59.3126C26.025 59.8021 23.8222 59.3126 23.659 59.0678C22.9247 58.0072 26.1881 54.9885 26.1881 54.9885C26.025 55.0701 25.9434 55.0701 25.7802 55.1517C25.1275 55.5596 24.5564 56.2123 24.1485 56.9466C23.7406 57.5993 23.5774 58.4151 23.5774 59.0678C23.5774 59.3126 24.2301 59.9652 25.1275 60.5363L29.2884 62.9023C29.4516 62.8207 29.6963 62.7392 29.9411 62.6576C30.1858 62.4944 30.4306 62.3312 30.5938 62.168L32.2255 59.3126C32.3071 59.0678 32.307 58.823 32.307 58.4967Z" fill="#A4CBEB"/>
<path d="M32.8777 58.1709L30.4301 56.7839C30.0222 56.5392 29.4511 56.6207 28.7984 56.9471C27.5746 57.6814 27.0035 59.3947 27.0035 60.7816C27.0035 61.8422 27.7378 62.4949 28.7168 63.066L29.6958 63.6371L32.8777 58.1709Z" fill="#FFD800"/>
<path d="M33.6129 59.5572C33.6944 60.9441 32.6338 62.739 31.41 63.4733C30.1863 64.2075 29.1256 63.6364 29.0441 62.1679C28.9625 60.7809 30.0231 58.9861 31.2469 58.2518C32.4707 57.5991 33.5313 58.1702 33.6129 59.5572Z" fill="#FAA808"/>
<path d="M33.45 59.6394C33.5316 61.0263 32.5526 62.658 31.3288 63.3923C30.105 64.1266 29.126 63.5555 29.0444 62.1685C28.9628 60.7816 29.9418 59.1499 31.1656 58.4156C32.471 57.7629 33.45 58.2524 33.45 59.6394Z" fill="#EDEDED"/>
<path d="M32.9589 59.9656C32.9589 61.0262 32.2246 62.3315 31.3272 62.9026C30.3482 63.4737 29.6139 62.9842 29.5323 61.9236C29.5323 60.863 30.2666 59.5576 31.164 58.9865C32.1431 58.497 32.9589 58.9049 32.9589 59.9656Z" fill="#DEF7FF"/>
<path d="M32.8767 60.0475C32.8767 61.0265 32.2241 62.2503 31.3266 62.7398C30.4292 63.2293 29.6949 62.8214 29.6949 61.8424C29.6949 60.8633 30.3476 59.6396 31.245 59.1501C32.1425 58.6605 32.8767 59.0685 32.8767 60.0475Z" fill="#071C26"/>
<path d="M31.245 59.1499C30.3476 59.6394 29.6949 60.8632 29.6949 61.8422C29.6949 62.0054 29.6949 62.087 29.7765 62.2502L31.0003 62.9028C31.1635 62.9028 31.245 62.8213 31.4082 62.7397C32.3057 62.2502 32.9583 61.0264 32.9583 60.0473L31.245 59.1499Z" fill="#56757E"/>
<path d="M30.348 59.9661C30.0217 60.374 29.8585 60.8635 29.7769 61.353L31.735 62.4952C32.1429 62.1689 32.3877 61.7609 32.6324 61.2714L30.348 59.9661Z" fill="#E2FF9B"/>
<path d="M30.348 59.9661C30.0217 60.374 29.8585 60.8635 29.7769 61.353L31.735 62.4952C32.1429 62.1689 32.3877 61.7609 32.6324 61.2714L30.348 59.9661Z" fill="#8DA9B1"/>
<path d="M32.3876 60.0473C32.3876 60.8632 31.8981 61.7606 31.1639 62.1686C30.4296 62.5765 29.8585 62.2502 29.8585 61.4343C29.8585 60.6184 30.348 59.721 31.0823 59.3131C31.735 58.9051 32.3061 59.2315 32.3876 60.0473Z" fill="#56757E"/>
<path d="M32.1428 60.0473C32.1428 60.7 31.7349 61.5158 31.0822 61.9238C30.5111 62.2501 30.0216 62.0053 29.94 61.3527C29.94 60.7 30.348 59.8841 31.0006 59.4762C31.6533 59.1499 32.1428 59.3946 32.1428 60.0473Z" fill="#071C26"/>
<path d="M31.4901 60.7816C31.4901 60.9448 31.4085 61.1079 31.2453 61.1895C31.0822 61.2711 31.0006 61.1895 31.0006 61.0264C31.0006 60.8632 31.0822 60.7 31.2453 60.6184C31.4085 60.5368 31.4901 60.6184 31.4901 60.7816Z" fill="#56757E"/>
<path d="M48.2171 60.129L51.399 54.6627L45.8511 51.5625C45.4432 51.3177 44.8721 51.3993 44.2194 51.7256C42.9956 52.4599 41.935 54.1732 42.0166 55.6418C42.0166 56.2944 43.1588 57.3551 44.1378 57.8446L48.2171 60.129Z" fill="#9AB1EB"/>
<path d="M50.8283 54.9891C50.2572 54.6628 49.6045 54.6628 49.115 54.826C48.3808 55.0707 46.9938 55.6418 46.178 55.805C44.5462 56.2945 42.3434 55.805 42.1803 55.5602C41.446 54.4996 44.6278 51.481 44.6278 51.481C44.4647 51.5625 44.3831 51.5625 44.2199 51.6441C43.5672 52.0521 42.9961 52.7047 42.5882 53.439C42.1803 54.0917 42.0171 54.9075 42.0171 55.5602C42.0171 55.805 42.6698 56.4577 43.5672 57.0288L47.7281 59.3948C47.8912 59.3132 48.136 59.2316 48.3808 59.15C48.6255 58.9868 48.8703 58.8237 49.0334 58.6605L50.6652 55.805C50.7467 55.5602 50.8283 55.3155 50.8283 54.9891Z" fill="#A4CBEB"/>
<path d="M51.3986 54.6631L48.951 53.2761C48.5431 53.0313 47.972 53.1129 47.3193 53.4393C46.0955 54.1735 45.5244 55.8868 45.5244 57.2738C45.5244 58.3344 46.2587 58.9871 47.2377 59.5582L48.2167 60.1293L51.3986 54.6631Z" fill="#FFD800"/>
<path d="M52.0517 56.0494C52.1333 57.4363 51.0727 59.2312 49.8489 59.9655C48.6251 60.6997 47.5645 60.1286 47.4829 58.6601C47.4013 57.2731 48.462 55.4783 49.6857 54.744C50.9911 54.0913 52.0517 54.6624 52.0517 56.0494Z" fill="#FAA808"/>
<path d="M51.9709 56.1316C52.0525 57.5185 51.0735 59.1502 49.8497 59.8845C48.6259 60.6188 47.6469 60.0477 47.5653 58.6607C47.4837 57.2738 48.4627 55.642 49.6865 54.9078C50.9103 54.2551 51.9709 54.7446 51.9709 56.1316Z" fill="#EDEDED"/>
<path d="M51.4798 56.4575C51.4798 57.5181 50.7455 58.8235 49.8481 59.3946C48.9507 59.8841 48.1348 59.4762 48.1348 58.4155C48.1348 57.3549 48.8691 56.0496 49.7665 55.4785C50.6639 54.989 51.4798 55.3969 51.4798 56.4575Z" fill="#DEF7FF"/>
<path d="M51.3991 56.5394C51.3991 57.5185 50.7464 58.7422 49.849 59.2318C48.9515 59.7213 48.2173 59.3133 48.2173 58.3343C48.2173 57.3553 48.8699 56.1315 49.7674 55.642C50.5832 55.1525 51.3175 55.5604 51.3991 56.5394Z" fill="#071C26"/>
<path d="M49.6854 55.6414C48.788 56.1309 48.1353 57.3547 48.2169 58.3337C48.2169 58.4969 48.2169 58.5784 48.2985 58.7416L49.5222 59.3943C49.6854 59.3943 49.767 59.3127 49.9302 59.2311C50.8276 58.7416 51.4803 57.5178 51.4803 56.5388L49.6854 55.6414Z" fill="#56757E"/>
<path d="M48.8685 56.4578C48.5422 56.8657 48.379 57.3552 48.2974 57.8447L50.2554 58.9869C50.6634 58.6606 50.9081 58.2527 51.1529 57.7631L48.8685 56.4578Z" fill="#E2FF9B"/>
<path d="M48.8685 56.4578C48.5422 56.8657 48.379 57.3552 48.2974 57.8447L50.2554 58.9869C50.6634 58.6606 50.9081 58.2527 51.1529 57.7631L48.8685 56.4578Z" fill="#8DA9B1"/>
<path d="M50.827 56.539C50.827 57.3549 50.3375 58.2523 49.6032 58.6603C48.9505 59.0682 48.3794 58.7418 48.3794 57.926C48.3794 57.1101 48.8689 56.2127 49.6032 55.8048C50.3375 55.3968 50.827 55.7232 50.827 56.539Z" fill="#56757E"/>
<path d="M50.6633 56.5392C50.6633 57.1919 50.2554 58.0078 49.6027 58.4157C49.0316 58.742 48.5421 58.4973 48.4605 57.8446C48.4605 57.1919 48.8684 56.3761 49.5211 55.9681C50.0922 55.6418 50.5817 55.8866 50.6633 56.5392Z" fill="#071C26"/>
<path d="M50.0105 57.2731C50.0105 57.4362 49.929 57.5994 49.7658 57.681C49.6026 57.7626 49.521 57.681 49.521 57.5178C49.521 57.3546 49.6026 57.1915 49.7658 57.1099C49.8474 57.0283 50.0105 57.1099 50.0105 57.2731Z" fill="#56757E"/>
<path d="M62.4935 53.5211L8.32076 61.2718L1.30441 57.6004L1.14124 56.703L12.7264 57.1925L62.4935 52.7869C62.4935 53.1948 62.4935 53.4396 62.4935 53.5211Z" fill="#FAA808"/>
<path d="M62.4935 52.7866L8.48387 60.5372L1.14117 56.7027L30.6751 49.6048L46.4211 43.4858C46.4211 43.4858 58.4958 49.5232 62.4935 52.7866Z" fill="#CCE6FF"/>
<path d="M57.8442 49.6858L4.65039 58.5786L8.48491 60.5367L62.4945 52.786L57.8442 49.6858Z" fill="#DEF8FF"/>
<path d="M49.9306 45.3618L2.36621 57.3549L4.65061 58.5787L57.8444 49.6859L49.9306 45.3618Z" fill="#D1EBFF"/>
<path d="M89.9084 62.9026H89.582L90.0715 59.0681H90.3979L89.9084 62.9026Z" fill="#E6FFFF"/>
<path d="M92.8657 58.6224L92.5775 58.7754L94.9488 63.2434L95.2371 63.0904L92.8657 58.6224Z" fill="#E6FFFF"/>
<path d="M42.4259 37.0402L42.0179 38.0193L40.3862 37.1218L42.5075 32.4714L43.0786 32.7978L41.4468 36.4691L42.4259 37.0402Z" fill="#F29C29"/>
<path d="M45.6895 37.2031C45.0368 38.59 44.0578 39.3243 43.3235 38.8348C42.5892 38.4268 42.5077 37.0399 43.1603 35.6529C43.813 34.266 44.7921 33.6133 45.5263 34.0212C46.2606 34.5107 46.3422 35.8977 45.6895 37.2031ZM43.813 36.1424C43.4867 36.9583 43.4867 37.6926 43.813 37.9373C44.1394 38.1821 44.7105 37.6926 45.1184 36.9583C45.4447 36.1424 45.4447 35.4082 45.1184 35.1634C44.7105 34.9187 44.1394 35.3266 43.813 36.1424Z" fill="#F29C29"/>
<path d="M48.055 38.5904L47.2392 40.3853C46.8313 40.63 46.3417 40.63 46.0154 40.3853C45.2811 39.9773 45.1995 38.5904 45.8522 37.285C46.4233 35.8981 47.4839 35.2454 48.2182 35.6533C48.5446 35.8981 48.7893 36.306 48.8709 36.8771L48.1366 37.5298C48.1366 37.1218 47.9735 36.7955 47.7287 36.6323C47.3208 36.3876 46.7497 36.7955 46.4233 37.6114C46.097 38.4272 46.097 39.1615 46.5049 39.4062C46.5865 39.4878 46.8313 39.4878 46.9944 39.4062L47.5655 38.1825L48.055 38.5904Z" fill="#F29C29"/>
<path d="M47.4033 41.2007L49.5245 36.5503L50.0956 36.8766L47.9744 41.527L47.4033 41.2007Z" fill="#F29C29"/>
<path d="M52.2163 38.6718L51.5636 39.4877C51.482 39.0798 51.2373 38.6718 50.9925 38.5903C50.8293 38.5087 50.6662 38.5903 50.5846 38.7534C50.2582 39.5693 51.6452 39.814 50.9109 41.5273C50.503 42.4248 49.8503 42.7511 49.3608 42.4248C48.9529 42.18 48.7081 41.6905 48.6265 41.0378L49.2792 40.222C49.3608 40.7931 49.6056 41.2826 49.8503 41.4458C50.0135 41.5273 50.2582 41.4458 50.3398 41.201C50.7477 40.3851 49.2792 40.1404 50.0135 38.5087C50.4214 37.6112 50.9925 37.2849 51.5636 37.6112C51.8899 37.7744 52.1347 38.1823 52.2163 38.6718Z" fill="#F29C29"/>
<path d="M53.4402 39.9775L51.7269 43.7304L51.1558 43.404L52.8691 39.6511L52.1348 39.2432L52.5427 38.2642L54.5824 39.4064L54.1744 40.3854L53.4402 39.9775Z" fill="#F29C29"/>
<path d="M52.7065 44.3015L54.8278 39.6511L55.3989 39.9775L53.2776 44.6278L52.7065 44.3015Z" fill="#F29C29"/>
<path d="M57.6009 42.1803L56.8666 42.833C56.8666 42.3434 56.7851 42.0171 56.5403 41.8539C56.1324 41.6092 55.6429 42.0987 55.2349 42.833C54.9086 43.6488 54.9086 44.3831 55.2349 44.6278C55.3981 44.7094 55.7244 44.6278 56.0508 44.4647V45.4437C55.5613 45.8516 55.0718 45.9332 54.6638 45.77C53.9296 45.3621 53.9296 43.9751 54.5007 42.6698C55.0718 41.2828 56.1324 40.6301 56.7851 41.0381C57.3562 41.0381 57.6009 41.5276 57.6009 42.1803Z" fill="#F29C29"/>
<path d="M59.8857 43.0778L59.233 43.8937C59.1514 43.4858 58.9066 43.0779 58.6619 42.9963C58.4987 42.9147 58.3355 42.9963 58.254 43.1594C57.9276 43.9753 59.3146 44.22 58.5803 45.9333C58.1724 46.8308 57.5197 47.1571 57.0302 46.8308C56.6222 46.586 56.3775 46.0965 56.2959 45.4438L56.9486 44.628C57.0302 45.1991 57.2749 45.6886 57.5197 45.8518C57.6829 45.9333 57.9276 45.8518 58.0092 45.607C58.4171 44.7911 56.9486 44.5464 57.6828 42.9147C58.0908 42.0172 58.6619 41.6909 59.233 42.0172C59.4777 42.262 59.7225 42.6699 59.8857 43.0778Z" fill="#F29C29"/>
<path d="M82.8089 56.784L82.4826 57.5999L82.401 57.7631L82.2378 58.171L82.1562 58.3342C82.0746 58.4973 81.9115 58.4973 81.8299 58.4973L81.1772 58.0894C81.0956 58.0078 81.014 57.9262 81.014 57.7631L81.2588 57.0288L81.5036 56.2945C81.5851 56.2129 81.7483 56.1313 81.8299 56.1313H81.9115L82.4826 56.4577C82.5642 56.4577 82.5642 56.5393 82.6457 56.6209C82.8089 56.6209 82.8089 56.7024 82.8089 56.784Z" fill="url(#paint6_linear_3070_5672)"/>
<path d="M81.5856 57.8442C81.504 57.7626 81.4224 57.6811 81.4224 57.5179L81.6672 56.7836L81.912 56.0493C81.8304 55.9678 81.5856 56.0493 81.5856 56.2125L81.3409 56.9468L81.0961 57.6811C81.0961 57.8442 81.0961 57.9258 81.2593 58.0074L81.912 58.4153C81.9935 58.4969 82.2383 58.4153 82.2383 58.2522L81.5856 57.8442Z" fill="#6F94A3"/>
<path d="M80.1987 55.3158L79.8724 56.1316L79.7908 56.2948L79.6276 56.7027L79.546 56.8659C79.4644 57.0291 79.3012 57.0291 79.2197 57.0291L78.567 56.6211C78.4854 56.5396 78.4038 56.458 78.4038 56.2948L78.6486 55.5605L78.8933 54.8263C78.9749 54.7447 79.1381 54.6631 79.2197 54.6631H79.3012L79.8724 54.9894C79.9539 54.9894 79.9539 55.071 80.0355 55.1526C80.1987 55.2342 80.1987 55.2342 80.1987 55.3158Z" fill="url(#paint7_linear_3070_5672)"/>
<path d="M78.9749 56.4575C78.8933 56.3759 78.8117 56.2943 78.8117 56.1312L79.0565 55.3969L79.3012 54.6626C79.2196 54.581 78.9749 54.6626 78.9749 54.8258L78.7301 55.5601L78.4854 56.2943C78.4854 56.4575 78.4854 56.5391 78.6485 56.6207L79.3012 57.0286C79.3828 57.1102 79.6276 57.0286 79.6276 56.8654L78.9749 56.4575Z" fill="#6F94A3"/>
<path d="M76.4462 53.6842L76.1199 54.5001L76.0383 54.6632L75.8751 55.0712L75.7936 55.2343C75.712 55.3975 75.5488 55.3975 75.4672 55.3975L74.8145 54.9896C74.733 54.908 74.6514 54.8264 74.6514 54.6632L75.0593 53.8474L75.3041 53.1131C75.3856 53.0315 75.5488 52.95 75.6304 52.95H75.712L76.2831 53.2763C76.3647 53.2763 76.3647 53.3579 76.4462 53.4395C76.5278 53.521 76.5278 53.6026 76.4462 53.6842Z" fill="url(#paint8_linear_3070_5672)"/>
<path d="M75.3034 54.7444C75.2218 54.6628 75.1402 54.5812 75.1402 54.418L75.385 53.6838L75.6298 52.9495C75.5482 52.8679 75.3034 52.9495 75.3034 53.1127L75.0587 53.8469L74.8139 54.5812C74.8139 54.7444 74.8139 54.826 74.9771 54.9075L75.6298 55.3155C75.7113 55.3971 75.9561 55.3155 75.9561 55.1523L75.3034 54.7444Z" fill="#6F94A3"/>
<path d="M22.3544 14.7666C22.3544 14.9297 22.3544 15.0113 22.3544 15.1745C22.3544 15.1745 22.3544 15.1745 22.3544 15.2561C22.3544 15.5008 22.436 15.7456 22.5176 16.0719C22.5176 16.0719 22.5176 16.0719 22.5176 16.1535C22.5992 16.3983 22.6807 16.7246 22.8439 16.9694C22.8439 16.9694 22.8439 16.9694 22.8439 17.0509C23.0071 17.2957 23.1703 17.5405 23.3334 17.7852C23.3334 17.7852 23.3334 17.7852 23.3334 17.8668C23.4966 18.1116 23.7414 18.2747 23.9045 18.4379C23.9861 18.5195 24.0677 18.6011 24.2309 18.6011C24.3125 18.6827 24.4756 18.6827 24.5572 18.7642C24.5572 18.7642 24.5572 18.7642 24.6388 18.7642C24.8836 18.8458 25.0467 18.9274 25.2099 18.9274C25.3731 18.9274 25.6178 18.8458 25.6994 18.7642C25.8626 18.6827 26.0257 18.6011 26.1073 18.4379C26.1889 18.2747 26.2705 18.1116 26.3521 17.8668C26.3521 17.7852 26.3521 17.622 26.4337 17.5405C26.4337 17.3773 26.4337 17.2957 26.4337 17.1325C26.4337 17.1325 26.4337 17.1325 26.4337 17.0509C26.4337 16.8062 26.3521 16.5614 26.2705 16.2351C26.2705 16.2351 26.2705 16.2351 26.2705 16.1535C26.1889 15.9087 26.1073 15.5824 25.9442 15.3376C25.9442 15.3376 25.9442 15.3376 25.9442 15.2561C25.781 15.0113 25.6178 14.7665 25.4546 14.5218C25.4546 14.5218 25.4546 14.5218 25.4546 14.4402C25.2915 14.1955 25.0467 14.0323 24.8836 13.8691C24.8836 13.8691 24.8836 13.8691 24.802 13.8691C24.7204 13.7875 24.6388 13.7059 24.4756 13.7059C24.394 13.6244 24.2309 13.6244 24.1493 13.5428C23.9045 13.4612 23.7414 13.4612 23.5782 13.4612C23.415 13.4612 23.1703 13.5428 23.0887 13.6244C22.9255 13.7059 22.7623 13.8691 22.6807 13.9507C22.5992 14.1139 22.5176 14.277 22.436 14.5218C22.3544 14.5218 22.3544 14.6034 22.3544 14.7666Z" fill="#E79A1A"/>
<path d="M22.9252 15.991L25.5359 15.012L24.8833 17.949L24.4753 16.2357L22.9252 15.991Z" fill="#DAF3FF"/>
<path d="M77.3437 53.4393L76.2831 56.3763L75.8752 58.3344L75.712 58.7423C75.6304 58.9871 75.2225 59.1503 74.9777 59.0687L73.5908 58.2528C73.346 58.0896 73.2644 57.8449 73.346 57.6001V57.5185L73.9987 55.071L74.9777 52.2155C75.0593 51.9707 75.4672 51.8076 75.712 51.8891L75.7936 51.9707L75.8752 52.0523L77.099 52.705C77.1805 52.7866 77.3437 52.8682 77.3437 52.9498C77.4253 53.1129 77.4253 53.2761 77.3437 53.4393Z" stroke="#B8DFEF" stroke-width="0.3004" stroke-miterlimit="10"/>
<path d="M35.5717 30.1869L35.2453 31.0028L35.1637 31.1659L35.0821 31.4923V31.6554C35.0006 31.8186 34.8374 31.8186 34.7558 31.8186L34.1031 31.4107C34.0215 31.3291 33.9399 31.2475 33.9399 31.0843L34.1847 30.3501L34.4295 29.6158C34.511 29.5342 34.6742 29.4526 34.7558 29.4526H34.8374L35.4085 29.779C35.4901 29.779 35.4901 29.8606 35.5717 29.9422C35.5717 30.0237 35.5717 30.1053 35.5717 30.1869Z" fill="url(#paint9_linear_3070_5672)"/>
<path d="M34.4295 31.3293C34.2663 31.2477 34.2663 31.0846 34.2663 31.003L34.511 30.2687L34.7558 29.5344C34.6742 29.4529 34.4295 29.5344 34.4295 29.6976L34.1847 30.4319L33.9399 31.1662C33.9399 31.3293 33.9399 31.4109 34.1031 31.4925L34.7558 31.9004C34.8374 31.982 35.0821 31.9004 35.0821 31.7373L34.4295 31.3293Z" fill="#6F94A3"/>
<path d="M36.4687 29.942L35.4081 32.879L35.0002 34.8371L34.837 35.245C34.7554 35.4898 34.3475 35.6529 34.1027 35.5714L32.7158 34.7555C32.471 34.5923 32.3894 34.3476 32.471 34.1028V34.0212L33.1237 31.5737L34.1027 28.7182C34.1843 28.4734 34.5922 28.3102 34.837 28.3918L34.9186 28.4734L35.0002 28.555L36.224 29.2077C36.3055 29.2893 36.4687 29.3709 36.4687 29.4524C36.5503 29.6156 36.5503 29.7788 36.4687 29.942Z" stroke="#B8DFEF" stroke-width="0.3004" stroke-miterlimit="10"/>
<path d="M30.6768 49.6039L31.5742 49.9302L43.9752 46.1773L42.0171 45.1982L30.6768 49.6039Z" fill="#ABC3D9"/>
<defs>
<linearGradient id="paint0_linear_3070_5672" x1="76.7102" y1="32.5134" x2="77.3582" y2="32.5088" gradientUnits="userSpaceOnUse">
<stop offset="0.1613" stop-color="#3D3D3D"/>
<stop offset="0.1633" stop-color="#5E5E5E"/>
<stop offset="0.5593" stop-color="#5E5E5E"/>
<stop offset="0.5622" stop-color="#7A7A7A"/>
<stop offset="0.8728" stop-color="#7A7A7A"/>
<stop offset="0.8739" stop-color="#7A7A7A"/>
</linearGradient>
<linearGradient id="paint1_linear_3070_5672" x1="80.2491" y1="64.1346" x2="80.8973" y2="64.1301" gradientUnits="userSpaceOnUse">
<stop offset="0.1613" stop-color="#3D3D3D"/>
<stop offset="0.1633" stop-color="#5E5E5E"/>
<stop offset="0.5593" stop-color="#5E5E5E"/>
<stop offset="0.5622" stop-color="#7A7A7A"/>
<stop offset="0.8728" stop-color="#7A7A7A"/>
<stop offset="0.8739" stop-color="#7A7A7A"/>
</linearGradient>
<linearGradient id="paint2_linear_3070_5672" x1="37.8947" y1="55.4826" x2="38.5428" y2="55.478" gradientUnits="userSpaceOnUse">
<stop offset="0.1613" stop-color="#3D3D3D"/>
<stop offset="0.1633" stop-color="#5E5E5E"/>
<stop offset="0.5593" stop-color="#5E5E5E"/>
<stop offset="0.5622" stop-color="#7A7A7A"/>
<stop offset="0.8728" stop-color="#7A7A7A"/>
<stop offset="0.8739" stop-color="#7A7A7A"/>
</linearGradient>
<linearGradient id="paint3_linear_3070_5672" x1="19.5411" y1="25.2763" x2="21.3793" y2="22.0288" gradientUnits="userSpaceOnUse">
<stop offset="0.1656" stop-color="#363636"/>
<stop offset="0.1676" stop-color="#646464"/>
<stop offset="0.5343" stop-color="#646464"/>
<stop offset="0.5417" stop-color="#626262"/>
<stop offset="0.5433" stop-color="#5F5F5F"/>
<stop offset="0.8043" stop-color="#5F5F5F"/>
<stop offset="0.8473" stop-color="#5F5F5F"/>
<stop offset="0.8483" stop-color="#646464"/>
</linearGradient>
<linearGradient id="paint4_linear_3070_5672" x1="91.1254" y1="63.3758" x2="90.0837" y2="58.862" gradientUnits="userSpaceOnUse">
<stop offset="0.0837438" stop-color="#597E90"/>
<stop offset="0.4241" stop-color="#4D6976"/>
<stop offset="0.9409" stop-color="#3C4B52"/>
</linearGradient>
<linearGradient id="paint5_linear_3070_5672" x1="93.3588" y1="60.9486" x2="93.0705" y2="56.8195" gradientUnits="userSpaceOnUse">
<stop stop-color="#92C6B9"/>
<stop offset="0.9409" stop-color="#6F797B"/>
</linearGradient>
<linearGradient id="paint6_linear_3070_5672" x1="80.8973" y1="59.4879" x2="82.4048" y2="54.6287" gradientUnits="userSpaceOnUse">
<stop offset="0.0837438" stop-color="#597E90"/>
<stop offset="0.4241" stop-color="#4D6976"/>
<stop offset="0.9409" stop-color="#3C4B52"/>
</linearGradient>
<linearGradient id="paint7_linear_3070_5672" x1="78.2847" y1="58.0817" x2="79.7923" y2="53.2223" gradientUnits="userSpaceOnUse">
<stop offset="0.0837438" stop-color="#597E90"/>
<stop offset="0.4241" stop-color="#4D6976"/>
<stop offset="0.9409" stop-color="#3C4B52"/>
</linearGradient>
<linearGradient id="paint8_linear_3070_5672" x1="74.5713" y1="56.3863" x2="76.0789" y2="51.5271" gradientUnits="userSpaceOnUse">
<stop offset="0.0837438" stop-color="#597E90"/>
<stop offset="0.4241" stop-color="#4D6976"/>
<stop offset="0.9409" stop-color="#3C4B52"/>
</linearGradient>
<linearGradient id="paint9_linear_3070_5672" x1="33.685" y1="32.8972" x2="35.1925" y2="28.0379" gradientUnits="userSpaceOnUse">
<stop offset="0.0837438" stop-color="#597E90"/>
<stop offset="0.4241" stop-color="#4D6976"/>
<stop offset="0.9409" stop-color="#3C4B52"/>
</linearGradient>
</defs>
</svg>
