<svg width="84" height="70" viewBox="0 0 84 70" fill="none" xmlns="http://www.w3.org/2000/svg">
<path d="M79.5305 61.324L15.0516 24.3193L0 32.9297L0.657277 33.2583L64.4789 70.0001L79.5305 61.324Z" fill="#D4D4D4"/>
<path d="M48.7699 47.0608L48.3098 47.7838L47.9155 48.3753L47.1267 49.4927L46.2066 50.873L45.5493 51.8589L45.2206 52.319L42.3943 50.7415C42.1314 50.6101 34.3756 46.0748 34.2441 45.8119C34.1784 45.6805 34.1127 45.549 34.0469 45.3518C33.9812 45.2204 33.9812 45.0889 33.9812 44.9575C33.9812 44.6288 34.0469 44.3659 34.1127 44.0373C34.2441 43.5115 34.507 42.9856 34.8357 42.5913C35.0986 42.2626 35.4929 41.934 35.8873 41.7368L44.4319 45.549C44.6948 45.4176 49.1643 47.7838 49.4272 47.7838C49.6244 47.7838 43.9718 44.3659 44.169 44.4317C44.3004 44.4974 44.4319 44.5631 44.5634 44.6288L47.5868 46.4035L48.1127 46.7321L48.7699 47.0608Z" fill="#5C5C5C"/>
<path d="M47.8496 48.3753L47.0608 49.4927L46.1406 50.873L45.4834 51.8589L33.981 45.3518C33.9153 45.2204 33.9153 45.0889 33.9153 44.9575C33.9153 44.6288 33.981 44.3659 34.0467 44.0373C34.1782 43.5115 34.4411 42.9856 34.7697 42.5913C35.0327 42.2626 35.427 41.934 35.8214 41.7368L44.366 45.549C44.6289 45.4176 49.0984 47.7838 49.3613 47.7838C49.5585 47.7838 43.9059 44.3659 44.1031 44.4317C44.2345 44.4974 44.366 44.5631 44.4974 44.6288L47.5209 46.4035L47.8496 48.3753Z" fill="#7E7E7E"/>
<path d="M48.2439 47.7838L47.8496 48.3753L47.0608 49.4927L46.1406 50.873L34.0468 44.0373C34.1782 43.5115 34.4411 42.9856 34.7698 42.5913C35.0327 42.2626 35.427 41.934 35.8214 41.7368L44.366 45.549C44.6289 45.4176 49.0984 47.7838 49.3613 47.7838C49.5585 47.7838 43.9059 44.3659 44.1031 44.4317C44.2345 44.4974 44.366 44.5631 44.4975 44.6288L47.5209 46.4035L48.0468 46.7321L48.2439 47.7838Z" fill="#B1B1B1"/>
<path d="M48.7697 47.0609L48.3096 47.7839L47.9153 48.3755L47.1265 49.4929L34.8354 42.5915C35.0984 42.2628 37.3988 40.8825 37.7932 40.6196L44.366 45.4835C44.6289 45.352 49.0984 47.7182 49.3613 47.7182C49.5585 47.7182 43.9059 44.3004 44.1031 44.3661C44.2345 44.4318 44.366 44.4976 44.4974 44.5633L47.5209 46.3379L48.0467 46.6666L48.7697 47.0609Z" fill="#424242"/>
<path d="M44.4977 51.0043C44.4977 52.1874 45.8122 52.9762 46.8639 52.3846L47.8498 51.7931C49.0329 51.1358 49.6902 49.887 49.6902 48.5724C49.6902 47.3893 48.3756 46.6006 47.324 47.1921L46.3381 47.7837C45.2207 48.441 44.4977 49.6241 44.4977 51.0043Z" fill="#585858"/>
<path d="M49.4271 47.6526C49.2299 48.7042 48.5726 49.6901 47.6524 50.216L46.6665 50.8075C45.9435 51.2676 45.0233 51.0047 44.629 50.3474C44.5632 50.5446 44.5632 50.8075 44.5632 51.0047C44.5632 52.1878 45.8778 52.9765 46.9294 52.385L47.9153 51.7934C49.0984 51.1362 49.7557 49.8873 49.7557 48.5728C49.69 48.1784 49.5585 47.8498 49.4271 47.6526Z" fill="#4F4F4F"/>
<path d="M56.7231 54.7512L46.9954 49.2301L55.9343 43.709L65.662 49.2301L56.7231 54.7512Z" fill="#9F5B0F"/>
<path d="M56.7231 59.5491L46.9954 53.9622V49.0984L56.7231 54.6195V59.5491Z" fill="#B37A00"/>
<path d="M56.7231 59.5492L46.9954 53.9623V52.845L56.7231 58.3661V59.5492Z" fill="#2E2E2E"/>
<path d="M62.2442 39.4365L57.709 42.1314L54.2255 42.2628L64.0846 42.5915L62.2442 39.4365Z" fill="#313131"/>
<path d="M18.0093 25.4365L18.5351 25.6994L11.9623 29.5116L11.4365 29.183L18.0093 25.4365Z" fill="#9EA2A7"/>
<path d="M11.9623 32.9296L11.4365 32.601V29.1831L11.9623 29.5117V32.9296Z" fill="#161718"/>
<path d="M18.5352 25.6995V29.1173L11.9625 32.9295V29.5117L18.5352 25.6995Z" fill="#424D52"/>
<path d="M20.5072 43.3802L14.9861 34.1126L17.8781 32.4694C18.6011 32.075 19.5213 32.1407 20.5729 32.798C22.6762 34.0468 24.4509 37.0046 24.4509 39.3708C24.4509 40.5539 24.0565 41.3426 23.3992 41.737L23.3335 41.8027C23.3335 41.8027 23.3335 41.8027 23.2678 41.8027L20.5072 43.3802Z" fill="black"/>
<path d="M15.9722 34.6385L19.9158 32.4038C20.113 32.4695 20.3759 32.601 20.5731 32.7324C22.6764 33.9813 24.451 36.939 24.451 39.3052C24.451 39.7653 24.3853 40.1597 24.2539 40.4883L21.2304 42.263C20.9017 42.1972 20.5731 42.0001 20.1787 41.8029C19.7844 41.6057 19.39 41.277 19.0614 40.9484L16.1694 36.0846C16.0379 35.6245 15.9722 35.0986 15.9722 34.6385Z" fill="#1F1F1F"/>
<path d="M13.9344 36.479C13.9344 38.9109 15.6434 41.8687 17.8124 43.0518C19.9157 44.3006 21.6903 43.3147 21.6903 40.8828C21.6903 38.4508 19.9814 35.4931 17.8124 34.31C15.6434 33.1269 13.9344 34.0471 13.9344 36.479Z" fill="#2A2A2A"/>
<path d="M14.0658 36.5444C14.0658 38.8449 15.709 41.7369 17.7465 42.92C19.7841 44.1031 21.4273 43.1829 21.4273 40.8167C21.4273 38.5163 19.7841 35.6242 17.7465 34.4411C15.709 33.3238 14.0658 34.244 14.0658 36.5444Z" fill="#1D1D1D"/>
<path d="M14.9203 37.0704C14.9203 38.845 16.2348 41.0798 17.8123 42C19.3898 42.9202 20.7043 42.1971 20.7043 40.3568C20.7043 38.5821 19.3898 36.3474 17.8123 35.4272C16.1691 34.507 14.9203 35.23 14.9203 37.0704Z" fill="#3B3B3B"/>
<path d="M15.1177 37.1361C15.1177 38.845 16.3008 40.8826 17.8125 41.737C19.3242 42.5915 20.5073 41.9342 20.5073 40.2253C20.5073 38.5164 19.3242 36.4788 17.8125 35.6244C16.3008 34.7699 15.1177 35.4929 15.1177 37.1361Z" fill="#727272"/>
<path d="M17.8124 35.6902C19.2585 36.5446 20.4416 38.5822 20.4416 40.2911C20.4416 40.554 20.4416 40.7512 20.3758 40.9484L18.404 42.0658C18.2068 42 18.0096 41.9343 17.7467 41.8029C16.3007 40.9484 15.1176 38.9766 15.0519 37.2676L17.8124 35.6902Z" fill="#A9A9A9"/>
<path d="M19.2585 37.0703C19.7843 37.7933 20.1786 38.5821 20.3758 39.4365L17.1552 41.3426C16.4979 40.8168 15.9721 40.0281 15.6434 39.2393L19.2585 37.0703Z" fill="#E9EAE7"/>
<path d="M19.2585 37.0703C19.7843 37.7933 20.1786 38.5821 20.3758 39.4365L17.1552 41.3426C16.4979 40.8168 15.9721 40.0281 15.6434 39.2393L19.2585 37.0703Z" fill="#E9EAE7"/>
<path d="M15.9722 37.1361C15.9722 38.4506 16.9581 40.0938 18.0755 40.8168C19.2586 41.4741 20.1787 40.9483 20.1787 39.6337C20.1787 38.3192 19.1928 36.676 18.0755 35.953C16.8924 35.23 15.9722 35.8215 15.9722 37.1361Z" fill="#737373"/>
<path d="M16.3663 37.2018C16.3663 38.3191 17.1551 39.7651 18.2067 40.3567C19.1926 40.9482 20.0471 40.4882 20.0471 39.3051C20.0471 38.1877 19.2584 36.7417 18.2067 36.1501C17.1551 35.6243 16.3663 36.0844 16.3663 37.2018Z" fill="#949494"/>
<path d="M19.127 37.0701C19.127 37.0044 19.1927 37.0044 19.2584 37.0044C19.3899 37.1358 19.4556 37.2673 19.5871 37.4645C19.5213 37.4645 19.3899 37.4645 19.3242 37.4645C19.0612 37.333 19.0612 37.1358 19.127 37.0701Z" fill="#575757"/>
<path d="M16.3665 38.1219C16.235 37.9904 16.3007 37.7932 16.4322 37.7932C16.5636 37.7932 16.8265 37.9247 16.958 38.0561C17.0895 38.1876 17.0237 38.3848 16.8923 38.3848C16.6951 38.3848 16.4979 38.2533 16.3665 38.1219Z" fill="#575757"/>
<path d="M19.5871 39.3707C19.5213 39.1736 19.6528 39.1078 19.7842 39.1736C19.9157 39.305 20.1129 39.5022 20.1129 39.6994C20.1786 39.8966 20.0472 39.9623 19.9157 39.8966C19.7842 39.7651 19.5871 39.5679 19.5871 39.3707Z" fill="#575757"/>
<path d="M17.221 36.0186C17.2867 35.8872 17.4181 35.8872 17.4839 36.0843C17.6153 36.2815 17.6153 36.5444 17.5496 36.6759C17.4839 36.8074 17.3524 36.8073 17.2867 36.6102C17.221 36.413 17.1552 36.1501 17.221 36.0186Z" fill="#575757"/>
<path d="M19.587 38.0562C19.4555 37.9247 19.4555 37.7933 19.587 37.7275C19.6527 37.7275 19.6527 37.7275 19.7185 37.7275C19.7842 37.9247 19.9156 38.0562 19.9814 38.2534C19.7842 38.1876 19.6527 38.1219 19.587 38.0562Z" fill="#575757"/>
<path d="M19.6528 40.3569C19.6528 40.554 19.5214 40.554 19.3899 40.3569C19.2585 40.2254 19.1927 39.8968 19.1927 39.7653C19.1927 39.5681 19.3242 39.5681 19.4557 39.7653C19.5871 39.8968 19.7186 40.1597 19.6528 40.3569Z" fill="#575757"/>
<path d="M19.7187 38.7793C19.5872 38.5821 19.6529 38.4506 19.8501 38.5164C19.9158 38.5164 20.0473 38.5821 20.113 38.6478C20.1788 38.845 20.1788 38.9765 20.2445 39.1736C20.0473 39.1079 19.7844 38.9107 19.7187 38.7793Z" fill="#575757"/>
<path d="M16.6951 39.1079C16.5637 38.9765 16.4979 38.845 16.6294 38.7793C16.7608 38.7135 16.958 38.7135 17.0895 38.7793C17.2209 38.9107 17.2867 39.0422 17.1552 39.1079C17.0895 39.2394 16.8923 39.2394 16.6951 39.1079Z" fill="#575757"/>
<path d="M17.8782 40.2252C17.8782 40.0281 17.9439 39.8309 18.1411 39.7651C18.2725 39.6994 18.404 39.8309 18.404 40.0281C18.404 40.2252 18.3383 40.4224 18.1411 40.4882C18.0096 40.5539 17.8782 40.4224 17.8782 40.2252Z" fill="#575757"/>
<path d="M18.9955 40.0281C19.0612 40.2253 19.0612 40.4882 18.9955 40.6196C18.9298 40.7511 18.7983 40.6854 18.7326 40.4882C18.6669 40.291 18.6669 40.0281 18.7326 39.8966C18.7983 39.8309 18.9298 39.8966 18.9955 40.0281Z" fill="#575757"/>
<path d="M17.1551 39.6339C17.2209 39.5024 17.4181 39.3709 17.5495 39.4367C17.681 39.4367 17.8124 39.6339 17.7467 39.7653C17.681 39.8968 17.4838 40.0282 17.3523 39.9625C17.1551 39.8968 17.0894 39.7653 17.1551 39.6339Z" fill="#575757"/>
<path d="M16.8922 37.0704C16.7607 36.939 16.6293 36.6761 16.6293 36.4789C16.6293 36.2817 16.695 36.216 16.8922 36.3474C17.0236 36.4789 17.1551 36.7418 17.1551 36.939C17.1551 37.1362 17.0894 37.2019 16.8922 37.0704Z" fill="#575757"/>
<path d="M18.9955 36.6761C18.9298 36.8075 18.8641 36.8732 18.7326 36.8732C18.6012 36.8732 18.4697 36.7418 18.5354 36.6103C18.5354 36.5446 18.6012 36.4131 18.6669 36.3474C18.7326 36.4131 18.8641 36.5446 18.9955 36.6761Z" fill="#575757"/>
<path d="M16.4978 37.0044C16.6293 37.0701 16.8265 37.2673 16.9579 37.4645C17.0236 37.6617 16.9579 37.7274 16.8265 37.7274C16.695 37.6617 16.4978 37.4645 16.3664 37.2673C16.2349 37.0701 16.3006 37.0044 16.4978 37.0044Z" fill="#575757"/>
<path d="M18.2726 36.0187C18.2726 36.0844 18.2726 36.0844 18.2726 36.0187C18.3383 36.2816 18.2726 36.4788 18.1411 36.6102C18.0097 36.6759 17.8782 36.6102 17.8782 36.413C17.8125 36.2158 17.8782 35.9529 18.0097 35.8872C18.0097 35.8872 18.0754 35.8872 18.0754 35.9529C18.1411 35.9529 18.2068 36.0187 18.2726 36.0187Z" fill="#575757"/>
<path d="M17.1552 37.596C17.1552 38.319 17.681 39.1735 18.2725 39.5021C18.9298 39.8308 19.3899 39.5679 19.3899 38.8449C19.3899 38.1218 18.8641 37.2674 18.2725 36.9387C17.681 36.6101 17.1552 36.9387 17.1552 37.596Z" fill="#CDCDCD"/>
<path d="M18.0097 36.873C18.1412 36.873 18.2069 36.9388 18.3384 37.0045C18.9956 37.3331 19.4557 38.2533 19.4557 38.9106C19.4557 39.1078 19.39 39.2392 19.3243 39.3707L18.2726 39.1735C17.8783 38.8449 17.8125 38.4505 17.6154 37.9247L18.0097 36.873Z" fill="#A9A9A9"/>
<path d="M17.9439 38.7793C17.8782 38.6478 17.8125 38.5164 17.7468 38.3192C18.2069 38.122 18.6012 37.9248 18.9299 37.5962C19.127 37.8591 19.2585 38.1877 19.3242 38.4507C18.8641 38.4507 18.404 38.5821 17.9439 38.7793Z" fill="#DCDED9"/>
<path d="M17.1552 38.1219C17.1552 38.6477 17.4838 39.2393 17.9439 39.5022C18.404 39.7651 18.7326 39.5679 18.7326 39.0421C18.7326 38.5163 18.404 37.9247 17.9439 37.6618C17.5495 37.4646 17.1552 37.6618 17.1552 38.1219Z" fill="#A9A9A9"/>
<path d="M17.418 38.4507C17.418 38.7136 17.6152 39.0423 17.8781 39.1737C18.141 39.3052 18.3382 39.1737 18.3382 38.9108C18.3382 38.6479 18.141 38.3193 17.8781 38.1878C17.6152 38.0563 17.418 38.1878 17.418 38.4507Z" fill="#E0E0E0"/>
<path d="M20.5072 43.3803L22.2161 42.3944C22.2161 42.3944 22.2161 42.3944 22.2819 42.3944L22.3476 42.3286C23.0049 41.9343 23.3992 41.0798 23.3992 39.9624C23.3992 37.5305 21.6903 34.5728 19.5213 33.3897C18.4697 32.7981 17.4838 32.7324 16.8265 33.061L17.0237 32.9296C17.7467 32.5352 18.6669 32.6009 19.7185 33.2582C21.8218 34.507 23.5964 37.4648 23.5964 39.831C23.5964 41.0141 23.2021 41.8028 22.5448 42.1972L22.4791 42.2629C22.4791 42.2629 22.4791 42.2629 22.4133 42.2629L20.5072 43.3803Z" fill="black"/>
<path d="M20.5074 43.3801L21.3618 42.92C21.3618 42.92 21.3618 42.92 21.4276 42.92L21.4933 42.8543C22.1506 42.4599 22.5449 41.6054 22.5449 40.4881C22.5449 38.0562 20.836 35.0984 18.667 33.9153C17.6154 33.3238 16.6294 33.258 15.9722 33.5867L16.1694 33.4552C16.8924 33.0608 17.8125 33.1266 18.8642 33.7838C20.9675 35.0327 22.7421 37.9904 22.7421 40.3566C22.7421 41.5397 22.3478 42.3284 21.6905 42.7228L21.6248 42.7885C21.6248 42.7885 21.6248 42.7885 21.559 42.7885L20.5074 43.3801Z" fill="black"/>
<path d="M28.1317 47.8496L22.6106 38.582L25.5026 36.9388C26.2256 36.5445 27.1458 36.6102 28.1974 37.2675C30.3007 38.5163 32.0754 41.4741 32.0754 43.8403C32.0754 45.0234 31.681 45.8121 31.0237 46.2065L30.958 46.2722C30.958 46.2722 30.958 46.2722 30.8923 46.2722L28.1317 47.8496Z" fill="black"/>
<path d="M23.5965 39.108L27.5402 36.8733C27.7373 36.939 28.0003 37.0705 28.1974 37.2019C30.3007 38.4508 32.0754 41.4085 32.0754 43.7747C32.0754 44.2348 32.0096 44.6292 31.8782 44.9578L28.8547 46.7324C28.5261 46.6667 28.1974 46.4695 27.8031 46.2723C27.4087 46.0752 27.0143 45.7465 26.6857 45.4179L23.7937 40.554C23.6622 40.0939 23.5965 39.5681 23.5965 39.108Z" fill="#1F1F1F"/>
<path d="M21.559 40.9483C21.559 43.3802 23.2679 46.3379 25.4369 47.521C27.5402 48.7699 29.3148 47.7839 29.3148 45.352C29.3148 42.9201 27.6059 39.9623 25.4369 38.7792C23.2679 37.5961 21.559 38.5163 21.559 40.9483Z" fill="#2A2A2A"/>
<path d="M21.6903 41.0141C21.6903 43.3146 23.3335 46.2066 25.3711 47.3897C27.4086 48.5728 29.0518 47.6526 29.0518 45.2864C29.0518 42.986 27.4086 40.094 25.3711 38.9109C23.3335 37.7278 21.6903 38.7137 21.6903 41.0141Z" fill="#1D1D1D"/>
<path d="M22.479 41.5399C22.479 43.3145 23.7936 45.5493 25.371 46.4694C26.9485 47.3896 28.263 46.6666 28.263 44.8263C28.263 42.9859 26.9485 40.8169 25.371 39.8967C23.7936 38.9765 22.479 39.6995 22.479 41.5399Z" fill="#3B3B3B"/>
<path d="M22.6762 41.6054C22.6762 43.3143 23.8593 45.3519 25.371 46.2063C26.8828 47.0608 28.0659 46.4035 28.0659 44.6946C28.0659 42.9857 26.8828 40.9481 25.371 40.0936C23.925 39.3049 22.6762 39.9622 22.6762 41.6054Z" fill="#727272"/>
<path d="M25.4368 40.1597C26.8828 41.0141 28.0659 43.0517 28.0659 44.7606C28.0659 45.0235 28.0659 45.2207 28.0002 45.4179L26.0283 46.5353C25.8311 46.4695 25.634 46.4038 25.371 46.2723C23.925 45.4179 22.7419 43.446 22.6762 41.7371L25.4368 40.1597Z" fill="#A9A9A9"/>
<path d="M26.883 41.5398C27.4088 42.2628 27.8032 43.0515 28.0003 43.906L24.7797 45.8121C24.1224 45.2863 23.5966 44.4975 23.2679 43.7088L26.883 41.5398Z" fill="#E9EAE7"/>
<path d="M26.883 41.5398C27.4088 42.2628 27.8032 43.0515 28.0003 43.906L24.7797 45.8121C24.1224 45.2863 23.5966 44.4975 23.2679 43.7088L26.883 41.5398Z" fill="#E9EAE7"/>
<path d="M23.5307 41.6055C23.5307 42.9201 24.5166 44.5633 25.634 45.2863C26.8171 45.9436 27.7373 45.4178 27.7373 44.1032C27.7373 42.7886 26.7514 41.1454 25.634 40.4224C24.5166 39.6994 23.5307 40.291 23.5307 41.6055Z" fill="#737373"/>
<path d="M23.9253 41.6715C23.9253 42.7889 24.714 44.2349 25.7657 44.8264C26.7516 45.418 27.606 44.9579 27.606 43.7748C27.606 42.6574 26.8173 41.2114 25.7657 40.6199C24.7798 40.094 23.9253 40.5541 23.9253 41.6715Z" fill="#949494"/>
<path d="M26.6857 41.5398C26.6857 41.4741 26.7514 41.4741 26.8171 41.4741C26.9486 41.6056 27.0143 41.737 27.1458 41.9342C27.08 41.9342 26.9486 41.9342 26.8828 41.9342C26.6857 41.8028 26.6199 41.6056 26.6857 41.5398Z" fill="#575757"/>
<path d="M23.991 42.5913C23.8595 42.4599 23.9252 42.2627 24.0567 42.2627C24.1881 42.2627 24.4511 42.3941 24.5825 42.5256C24.714 42.6571 24.6482 42.8542 24.5168 42.8542C24.3196 42.8542 24.0567 42.7228 23.991 42.5913Z" fill="#575757"/>
<path d="M27.1458 43.8402C27.0801 43.6431 27.2115 43.5773 27.343 43.6431C27.4744 43.7745 27.6716 43.9717 27.6716 44.1689C27.7373 44.3661 27.6059 44.4318 27.4744 44.3661C27.343 44.2346 27.2115 44.0374 27.1458 43.8402Z" fill="#575757"/>
<path d="M24.8454 40.4881C24.9111 40.3566 25.0425 40.3566 25.1083 40.5538C25.2397 40.751 25.2397 41.0139 25.174 41.1454C25.1083 41.2768 24.9768 41.2768 24.9111 41.0796C24.7796 40.8825 24.7796 40.6196 24.8454 40.4881Z" fill="#575757"/>
<path d="M27.2115 42.5259C27.0801 42.3944 27.0801 42.263 27.2115 42.1973C27.2772 42.1973 27.2772 42.1973 27.343 42.1973C27.4087 42.3944 27.5401 42.5259 27.6059 42.7231C27.4087 42.6574 27.2772 42.5916 27.2115 42.5259Z" fill="#575757"/>
<path d="M27.2772 44.8263C27.2772 45.0235 27.1458 45.0235 27.0143 44.8263C26.8829 44.6949 26.8171 44.3663 26.8171 44.2348C26.8171 44.0376 26.9486 44.0376 27.0801 44.2348C27.2115 44.3663 27.2772 44.6949 27.2772 44.8263Z" fill="#575757"/>
<path d="M27.2773 43.2488C27.1458 43.0516 27.2115 42.9201 27.4087 42.9858C27.4744 42.9858 27.6059 43.0516 27.6716 43.1173C27.7373 43.3145 27.7373 43.4459 27.8031 43.6431C27.6059 43.5774 27.4087 43.3802 27.2773 43.2488Z" fill="#575757"/>
<path d="M24.3194 43.5774C24.1879 43.4459 24.1222 43.3145 24.2537 43.2488C24.3851 43.183 24.5823 43.183 24.7138 43.2488C24.8452 43.3802 24.9109 43.5117 24.7795 43.5774C24.7138 43.7089 24.4508 43.7089 24.3194 43.5774Z" fill="#575757"/>
<path d="M25.5027 44.6947C25.5027 44.4975 25.5684 44.3004 25.7656 44.2346C25.8971 44.1689 26.0285 44.3004 26.0285 44.4975C26.0285 44.6947 25.9628 44.8919 25.7656 44.9576C25.5684 45.0234 25.5027 44.8919 25.5027 44.6947Z" fill="#575757"/>
<path d="M26.6201 44.5634C26.6858 44.7606 26.6858 45.0235 26.6201 45.1549C26.5543 45.2864 26.4229 45.2206 26.3572 45.0235C26.2914 44.8263 26.2914 44.5634 26.3572 44.4319C26.3572 44.3005 26.4886 44.3662 26.6201 44.5634Z" fill="#575757"/>
<path d="M24.7797 44.1031C24.8454 43.9716 25.0426 43.8402 25.174 43.9059C25.3055 43.9059 25.4369 44.1031 25.3712 44.2345C25.3055 44.366 25.1083 44.4975 24.9768 44.4975C24.7797 44.366 24.7139 44.2346 24.7797 44.1031Z" fill="#575757"/>
<path d="M24.5167 41.5397C24.3852 41.4082 24.2538 41.1453 24.2538 40.9481C24.2538 40.751 24.3195 40.6852 24.5167 40.8167C24.6481 40.9481 24.7796 41.211 24.7796 41.4082C24.7796 41.6054 24.6481 41.6711 24.5167 41.5397Z" fill="#575757"/>
<path d="M26.62 41.1453C26.5543 41.2767 26.4886 41.3425 26.3571 41.3425C26.2257 41.3425 26.0942 41.211 26.1599 41.0796C26.1599 41.0138 26.2257 40.8824 26.2914 40.8167C26.3571 40.8824 26.4886 41.0138 26.62 41.1453Z" fill="#575757"/>
<path d="M24.1223 41.5398C24.2538 41.6055 24.451 41.8027 24.5824 41.9999C24.6482 42.1971 24.5824 42.2628 24.451 42.2628C24.3195 42.2628 24.1223 41.9999 23.9909 41.8027C23.8594 41.5398 23.9251 41.4741 24.1223 41.5398Z" fill="#575757"/>
<path d="M25.8314 40.4884C25.8971 40.5541 25.8971 40.5541 25.8314 40.4884C25.8971 40.7513 25.8314 40.9485 25.6999 41.0799C25.5685 41.1457 25.437 41.0799 25.437 40.8828C25.3713 40.6856 25.437 40.4227 25.5685 40.3569C25.5685 40.3569 25.6342 40.3569 25.6342 40.4227C25.7657 40.4227 25.8314 40.4884 25.8314 40.4884Z" fill="#575757"/>
<path d="M24.7797 42.1314C24.7797 42.8544 25.3055 43.7089 25.897 44.0375C26.5543 44.3661 27.0144 44.1032 27.0144 43.3802C27.0144 42.6572 26.4886 41.8028 25.897 41.4741C25.3055 41.0798 24.7797 41.4084 24.7797 42.1314Z" fill="#CDCDCD"/>
<path d="M25.5682 41.3428C25.6997 41.3428 25.7654 41.4085 25.8968 41.4742C26.5541 41.8029 27.0142 42.7231 27.0142 43.3803C27.0142 43.5775 26.9485 43.709 26.8827 43.8404L25.8311 43.6432C25.4367 43.3146 25.371 42.9202 25.1738 42.3944L25.5682 41.3428Z" fill="#A9A9A9"/>
<path d="M25.5684 43.249C25.5027 43.1176 25.4369 42.9861 25.3712 42.7889C25.8313 42.5917 26.2257 42.3946 26.5543 42.0659C26.7515 42.3288 26.883 42.6575 26.9487 42.9204C26.4886 42.9861 26.0285 43.0518 25.5684 43.249Z" fill="#DCDED9"/>
<path d="M24.7797 42.5917C24.7797 43.1175 25.1083 43.709 25.5684 43.9719C26.0285 44.2348 26.3571 44.0377 26.3571 43.5118C26.3571 42.986 26.0285 42.3945 25.5684 42.1316C25.1083 41.9344 24.7797 42.1316 24.7797 42.5917Z" fill="#A9A9A9"/>
<path d="M25.0425 42.9202C25.0425 43.1831 25.2397 43.5117 25.5026 43.6432C25.7655 43.7747 25.9627 43.6432 25.9627 43.3803C25.9627 43.1174 25.7655 42.7887 25.5026 42.6573C25.2397 42.5258 25.0425 42.6573 25.0425 42.9202Z" fill="#E0E0E0"/>
<path d="M28.1317 47.8498L29.8407 46.8638C29.8407 46.8638 29.8407 46.8638 29.9064 46.8638L29.9721 46.7981C30.6294 46.4037 31.0238 45.5493 31.0238 44.4319C31.0238 42 29.3148 39.0423 27.1458 37.8592C26.0942 37.2676 25.1083 37.2019 24.451 37.5305L24.6482 37.3991C25.3712 37.0047 26.2914 37.0704 27.343 37.7277C29.4463 38.9765 31.2209 41.9343 31.2209 44.3005C31.2209 45.4836 30.8266 46.2723 30.1693 46.6667L30.1036 46.7324C30.1036 46.7324 30.1036 46.7324 30.0378 46.7324L28.1317 47.8498Z" fill="black"/>
<path d="M28.1317 47.8496L28.9862 47.3895C28.9862 47.3895 28.9862 47.3895 29.0519 47.3895L29.1176 47.3237C29.7749 46.9294 30.1693 46.0749 30.1693 44.9575C30.1693 42.5256 28.4603 39.5679 26.2913 38.3848C25.2397 37.7932 24.2538 37.7275 23.5965 38.0561L23.7937 37.9247C24.5167 37.5303 25.4369 37.596 26.4885 38.2533C28.5918 39.5022 30.3664 42.4599 30.3664 44.8261C30.3664 46.0092 29.9721 46.7979 29.3148 47.1923L29.2491 47.258C29.2491 47.258 29.2491 47.258 29.1834 47.258L28.1317 47.8496Z" fill="black"/>
<path d="M16.4977 32.2065L13.1456 33.784V34.1784L15.0517 33.5868L18.3381 31.615L16.4977 32.2065Z" fill="#181818"/>
<path d="M16.4977 31.812L13.1456 33.7838L15.0517 33.1923L18.3381 31.2205L16.4977 31.812Z" fill="#313131"/>
<path d="M18.3381 31.615L15.0518 33.5868L29.5119 41.8685L32.864 39.8967L18.3381 31.615Z" fill="#181818"/>
<path d="M32.3383 39.4365L28.9862 41.4084L30.7609 44.5633L31.2867 44.629L32.3383 39.4365Z" fill="#181818"/>
<path d="M18.3381 31.2205L15.0518 33.1923L29.5119 41.474L32.864 39.5022L18.3381 31.2205Z" fill="#252525"/>
<path d="M32.8637 39.5022L29.5116 41.474L31.2862 44.6289L36.2158 41.8684L32.8637 39.5022Z" fill="#313131"/>
<path d="M68.6856 23.9906L27.2114 0L12.1598 8.67605L53.634 32.6667L68.6856 23.9906Z" fill="#E66344"/>
<path d="M68.6858 23.9905V44.2346L53.9628 51.9905L53.6342 52.1877V32.6008L68.6858 23.9905Z" fill="#D83D17"/>
<path d="M68.6857 27.8027V44.2347L53.9626 51.9905V36.2816L68.6857 27.8027Z" fill="#BD2B2B"/>
<path d="M53.634 32.6009L12.1598 8.67603V28.2629L53.634 52.1878V32.6009Z" fill="#A2190F"/>
<path d="M54.6199 49.4273L12.1598 24.9109L11.3711 25.3053L54.6199 52.3193V49.4273Z" fill="#CAD8E6"/>
<path d="M53.8967 49.8217L54.6197 49.2959V51.9907L53.8967 52.648V49.8217Z" fill="#2A6198"/>
<path d="M53.8969 49.8216L11.3711 25.3052V28.1972L53.8969 52.6479V49.8216Z" fill="#8BA9C7"/>
<path d="M79.5305 45.4179L81.3052 44.3663V39.5024L79.5305 40.5541V45.4179Z" fill="#0D0D0D"/>
<path d="M81.2393 44.2346V40.0938L79.9905 40.751V44.8919L81.2393 44.2346Z" fill="#1A1A1A"/>
<path d="M81.3052 39.5024L81.2394 40.094L79.9906 40.7513L79.5305 40.5541L81.3052 39.5024Z" fill="#6C6C6C"/>
<path d="M79.9906 44.8919L79.5305 45.4177L81.3052 44.3661L81.2394 44.2346L79.9906 44.8919Z" fill="#404040"/>
<path d="M81.4367 45.5493C81.4367 46.1409 80.9766 46.8639 80.4508 47.1925C79.9249 47.5211 79.4648 47.324 79.4648 46.7324C79.4648 46.1409 79.9249 45.4179 80.4508 45.0892C80.9766 44.7606 81.4367 44.9578 81.4367 45.5493Z" fill="#676767"/>
<path d="M80.9766 46.7324C80.8451 46.9296 80.648 47.1268 80.4508 47.1925C80.3851 47.2582 80.2536 47.2582 80.1879 47.324C80.3193 47.1268 80.4508 46.9296 80.648 46.7981C80.7137 46.7324 80.8451 46.7324 80.9766 46.7324Z" fill="#404040"/>
<path d="M79.925 45.4833C80.0565 45.3519 80.188 45.1547 80.3851 45.089C80.7138 44.8918 80.9767 44.8918 81.1739 45.0233V45.089C81.1739 45.5491 80.8452 45.8777 80.5166 45.8777C80.3194 45.8777 80.0565 45.7463 79.925 45.4833Z" fill="#E9EAE7"/>
<path d="M81.305 45.8123C81.305 46.2067 80.9764 46.7325 80.6478 46.9297C80.3191 47.1268 79.9905 46.9954 79.9905 46.601C79.9905 46.2067 80.3191 45.6808 80.6478 45.4837C80.9764 45.2865 81.305 45.4179 81.305 45.8123Z" fill="#92978D"/>
<path d="M80.5164 43.1176L80.9108 42.9204V43.6434L80.5164 43.9063L80.4507 43.8406V43.1176H80.5164Z" fill="#73796C"/>
<path d="M80.9108 43.4459V42.7229L80.5165 42.9201V43.6431L80.9108 43.4459Z" fill="#676767"/>
<path d="M80.9108 42.723L80.845 42.6572L80.4507 42.9201H80.5164L80.9108 42.723Z" fill="#E9EAE7"/>
<path d="M80.4507 43.6434V42.9204H80.5164V43.6434H80.4507Z" fill="#404040"/>
<path d="M80.5164 46.2065L80.9108 45.9436V46.4694L80.5164 46.6666L80.4507 46.6009V46.1408L80.5164 46.2065Z" fill="#73796C"/>
<path d="M80.9108 46.2724V45.7466L80.5165 46.0095V46.4696L80.9108 46.2724Z" fill="#676767"/>
<path d="M80.9108 45.7464L80.845 45.6807L80.4507 45.9436L80.5164 46.0093L80.9108 45.7464Z" fill="#E9EAE7"/>
<path d="M80.4507 46.4037V45.9436L80.5164 46.0093V46.4694L80.4507 46.4037Z" fill="#404040"/>
<path d="M79.0706 49.0329V48.7042L80.648 47.1925V38.7136L80.1879 38.385L80.2537 38.1221L80.8452 38.5822V47.3239L79.0706 49.0329Z" fill="black"/>
<path d="M54.0281 43.1174L65.9248 49.9531V64.8076L54.0281 57.9719V43.1174Z" fill="#B37A00"/>
<path d="M65.925 58.3007L65.202 56.0659L64.7419 56.9861V64.0847L65.925 64.6762H66.3194H66.5166L66.5823 61.0612L65.925 58.3007Z" fill="#C7A22A"/>
<path d="M57.9061 46.1408C57.9061 46.0751 57.9061 46.0093 57.9719 45.9436C57.9719 46.0093 57.9061 46.0751 57.9061 46.1408Z" fill="#2E2E2E"/>
<path d="M58.1689 45.8122C58.2347 45.7465 58.3661 45.7465 58.3661 45.8122C58.3004 45.8122 58.2347 45.8122 58.1689 45.8122Z" fill="#2E2E2E"/>
<path d="M58.4976 45.8777C58.4976 45.8777 58.4319 45.8777 58.4319 45.812C58.4319 45.812 58.4976 45.8777 58.4976 45.8777Z" fill="#2E2E2E"/>
<path d="M64.4791 55.0797L62.3101 48.1125L62.9016 48.1783L65.5307 57.0515L64.4791 56.7886V55.0797Z" fill="#C7A22A"/>
<path d="M58.3005 54.8826L59.5494 55.6057V55.1456C59.5494 54.8169 59.4179 54.554 59.155 54.4226L58.3005 53.8967V54.8826Z" fill="#9F5B0F"/>
<path d="M64.3474 56.723L64.2817 61.061L60.4038 59.0235L58.0376 57.5775V52.7794L57.9061 52.7136V57.6432L60.3381 59.1549L64.4132 61.324L64.4789 56.8545L64.3474 56.723Z" fill="#9F5B0F"/>
<path d="M64.4787 55.0799V56.7888L64.413 56.7231V55.1456L62.3097 48.2442L58.4975 46.0095C58.366 45.9438 58.1031 46.0095 58.1031 46.2067V52.7794L57.9717 52.7137V46.2067C57.9717 46.141 57.9717 46.0752 58.0374 46.0095C58.0374 46.0095 58.1031 45.9438 58.1689 45.9438C58.1689 45.9438 58.1689 45.9438 58.2346 45.9438C58.3003 45.9438 58.366 45.878 58.4318 45.9438C58.4318 45.9438 58.4975 45.9438 58.4975 46.0095L62.3097 48.2442L64.4787 55.0799Z" fill="#9F5B0F"/>
<path d="M53.7653 57.7747V54.0939C54.4225 53.9625 55.2113 54.1597 56.1315 54.6198C58.3662 55.9343 60.2066 58.9578 60.2723 61.5212L53.7653 57.7747Z" fill="#131313"/>
<path d="M77.5588 52.8452L77.6903 52.7795L75.7842 46.864L75.6527 46.9297L77.5588 52.8452Z" fill="black"/>
<path d="M72.2347 56.2631H72.3662L70.3943 50.3477H70.3286L72.2347 56.2631Z" fill="black"/>
<path d="M62.9014 48.1785L79.9906 38.3193L82.291 46.1409L65.2018 56.0658L62.9014 48.1785Z" fill="#F3D052"/>
<path d="M80.9107 44.892L80.845 44.6948L80.9107 44.892Z" fill="#C0FFFF"/>
<path d="M75.1267 42.5257C75.3239 42.8543 75.5868 43.1172 75.9154 43.3144L79.8591 45.6149C79.9248 45.4834 80.0563 45.352 80.1877 45.2863C80.2535 45.2205 80.3192 45.1548 80.4507 45.0891C80.5164 45.0234 80.5821 45.0234 80.6478 45.0234C80.6478 45.0234 80.6478 45.0234 80.7136 45.0234V44.8262L79.5962 45.4834V41.9999L78.1502 40.9482L75.1267 42.5257Z" fill="url(#paint0_linear_3070_5894)"/>
<path d="M79.5305 40.5541V45.4179L80.6479 44.7606V44.9578C80.6479 44.9578 80.6479 44.9578 80.5822 44.9578C80.5164 44.9578 80.4507 45.0235 80.385 45.0235C80.3193 45.0893 80.2535 45.155 80.1221 45.2207C79.9906 45.3522 79.9249 45.4179 79.7934 45.5494L80.4507 45.9437C80.7793 46.1409 81.108 45.8123 81.0423 45.4836L80.8451 44.8264H80.7793V44.6292L80.1221 42.3944L79.5962 40.4226L79.5305 40.5541Z" fill="#65818A"/>
<path d="M79.5306 41.9342V40.5539L79.6621 40.4882L79.5306 40.0281L78.0846 40.8825L79.5306 41.9342Z" fill="#A6DDFF"/>
<path d="M81.6338 44.8263L81.1079 43.0517L80.2535 42.3944L81.1079 45.4836C81.1737 45.8122 80.845 46.0752 80.5164 45.9437L75.9155 43.3146C75.5868 43.1174 75.3239 42.8545 75.1267 42.5259L78.0845 40.8169L81.1079 43.0517L79.9906 39.3052C79.9249 39.0423 79.5962 38.9108 79.3333 39.0423L77.2957 40.2254L77.7558 40.554L77.2957 40.2254L72.8263 42.7888L68.554 45.2207L64.0845 47.7841C63.5587 48.047 63.3615 48.7043 63.4929 49.2301L64.8075 53.6338C64.8075 53.6996 64.8732 53.7653 64.8732 53.831C65.2676 54.6198 66.2535 54.9484 67.0422 54.4883L70.4601 52.5165L73.4178 48.8357L74.8638 49.9531L79.1361 47.5212L77.6901 46.4038L77.8873 46.2723C78.5446 45.9437 79.2676 45.878 79.9249 46.1409L80.7793 46.5353C81.5023 46.2723 81.831 45.5493 81.6338 44.8263Z" fill="url(#paint1_linear_3070_5894)"/>
<path d="M58.3661 65.136L52.845 55.8684L55.737 54.2252C56.46 53.8309 57.3802 53.8966 58.4318 54.5539C60.5351 55.8027 62.3098 58.7604 62.3098 61.1266C62.3098 62.3097 61.9154 63.0985 61.2581 63.4928L61.1924 63.5586C61.1924 63.5586 61.1924 63.5586 61.1267 63.5586L58.3661 65.136Z" fill="black"/>
<path d="M53.7653 56.4601L57.7089 54.2253C57.9061 54.2911 58.169 54.4225 58.3662 54.554C60.4695 55.8028 62.2441 58.7606 62.2441 61.1267C62.2441 61.5868 62.1784 61.9812 62.0469 62.3099L59.0235 64.0845C58.6948 64.0188 58.3662 63.8216 57.9718 63.6244C57.5775 63.4272 57.1831 63.0986 56.8545 62.7699L53.9624 57.9061C53.8967 57.3803 53.831 56.9202 53.7653 56.4601Z" fill="#1F1F1F"/>
<path d="M51.7278 58.3004C51.7278 60.7323 53.4367 63.6901 55.6057 64.8732C57.709 66.122 59.4837 65.1361 59.4837 62.7041C59.4837 60.2722 57.7747 57.3145 55.6057 56.1314C53.4367 54.8826 51.7278 55.8685 51.7278 58.3004Z" fill="#2A2A2A"/>
<path d="M51.925 58.3661C51.925 60.6666 53.5682 63.5586 55.6058 64.7417C57.6434 65.9248 59.2865 65.0046 59.2865 62.6384C59.2865 60.338 57.6434 57.4459 55.6058 56.2628C53.5682 55.0797 51.925 55.9999 51.925 58.3661Z" fill="#1D1D1D"/>
<path d="M52.7136 58.8262C52.7136 60.6009 54.0282 62.8356 55.6056 63.7558C57.1831 64.676 58.4977 63.953 58.4977 62.1126C58.4977 60.338 57.1831 58.1032 55.6056 57.1831C54.0282 56.3286 52.7136 57.0516 52.7136 58.8262Z" fill="#3B3B3B"/>
<path d="M52.9108 58.9576C52.9108 60.6665 54.0939 62.7041 55.6056 63.5585C57.1173 64.413 58.3004 63.7557 58.3004 62.0468C58.3004 60.3379 57.1173 58.3003 55.6056 57.4458C54.0939 56.5914 52.9108 57.2487 52.9108 58.9576Z" fill="#727272"/>
<path d="M55.6055 57.446C57.0515 58.3005 58.2346 60.3381 58.2346 62.047C58.2346 62.3099 58.2346 62.5071 58.1689 62.7043L56.1971 63.8216C55.9999 63.7559 55.8027 63.6902 55.5398 63.5587C54.0938 62.7043 52.9107 60.7324 52.845 59.0235L55.6055 57.446Z" fill="#A9A9A9"/>
<path d="M57.1172 58.8262C57.643 59.5492 58.0374 60.3379 58.2346 61.1924L55.0139 63.0985C54.3567 62.5727 53.8308 61.7839 53.5022 60.9952L57.1172 58.8262Z" fill="#E9EAE7"/>
<path d="M57.1172 58.8262C57.643 59.5492 58.0374 60.3379 58.2346 61.1924L55.0139 63.0985C54.3567 62.5727 53.8308 61.7839 53.5022 60.9952L57.1172 58.8262Z" fill="#E9EAE7"/>
<path d="M53.7653 58.8921C53.7653 60.2066 54.7512 61.8498 55.8685 62.5728C57.0516 63.2301 57.9718 62.7043 57.9718 61.3897C57.9718 60.0752 56.9859 58.432 55.8685 57.709C54.7512 57.0517 53.7653 57.5775 53.7653 58.8921Z" fill="#737373"/>
<path d="M54.1597 59.0234C54.1597 60.1408 54.9484 61.5868 56 62.1783C56.986 62.7699 57.8404 62.3098 57.8404 61.1267C57.8404 60.0093 57.0517 58.5633 56 57.9718C54.9484 57.3802 54.1597 57.8403 54.1597 59.0234Z" fill="#949494"/>
<path d="M56.9202 58.8262C56.9202 58.7605 56.9859 58.7605 57.0516 58.7605C57.1831 58.892 57.2488 59.0234 57.3803 59.2206C57.3145 59.2206 57.1831 59.2206 57.1173 59.2206C56.9202 59.0891 56.8544 58.9577 56.9202 58.8262Z" fill="#575757"/>
<path d="M54.1598 59.8777C54.0283 59.7463 54.0941 59.5491 54.2255 59.5491C54.357 59.5491 54.6199 59.6805 54.7513 59.812C54.8828 59.9434 54.8171 60.1406 54.6856 60.1406C54.4884 60.2063 54.2912 60.0749 54.1598 59.8777Z" fill="#575757"/>
<path d="M57.3805 61.1266C57.3148 60.9294 57.4462 60.8637 57.5777 60.9294C57.7092 61.0609 57.9063 61.2581 57.9063 61.4553C57.9721 61.6524 57.8406 61.7182 57.7092 61.6524C57.5777 61.5867 57.4462 61.3238 57.3805 61.1266Z" fill="#575757"/>
<path d="M55.0143 57.7745C55.08 57.643 55.2115 57.643 55.2772 57.8402C55.4087 58.0374 55.4087 58.3003 55.3429 58.4318C55.2772 58.5632 55.1457 58.5632 55.08 58.366C55.0143 58.1688 54.9486 57.9059 55.0143 57.7745Z" fill="#575757"/>
<path d="M57.3803 59.8123C57.2489 59.6808 57.2489 59.5494 57.3803 59.4836C57.4461 59.4836 57.4461 59.4836 57.5118 59.4836C57.5775 59.6808 57.709 59.8123 57.7747 60.0095C57.6432 59.9437 57.5118 59.9437 57.3803 59.8123Z" fill="#575757"/>
<path d="M57.5118 62.1784C57.5118 62.3756 57.3804 62.3756 57.2489 62.1784C57.1175 62.047 57.0518 61.7183 57.0518 61.5869C57.0518 61.3897 57.1832 61.3897 57.3147 61.5869C57.4461 61.7183 57.5118 61.9812 57.5118 62.1784Z" fill="#575757"/>
<path d="M57.5119 60.5351C57.3804 60.338 57.4461 60.2065 57.6433 60.2722C57.7091 60.2722 57.8405 60.3379 57.9062 60.4037C57.972 60.6009 57.972 60.7323 58.0377 60.9295C57.8405 60.8638 57.6433 60.7323 57.5119 60.5351Z" fill="#575757"/>
<path d="M54.5541 60.8638C54.4227 60.7323 54.3569 60.6009 54.4884 60.5351C54.6199 60.4694 54.817 60.4694 54.9485 60.5351C55.08 60.6666 55.1457 60.798 55.0142 60.8638C54.8828 60.9952 54.6856 60.9952 54.5541 60.8638Z" fill="#575757"/>
<path d="M55.6713 62.047C55.6713 61.8498 55.737 61.6526 55.9342 61.5869C56.0656 61.5212 56.1971 61.6527 56.1971 61.8498C56.1971 62.047 56.1314 62.2442 55.9342 62.3099C55.8027 62.3099 55.6713 62.2442 55.6713 62.047Z" fill="#575757"/>
<path d="M56.7888 61.8498C56.8545 62.0469 56.8545 62.3098 56.7888 62.4413C56.723 62.5728 56.5916 62.507 56.5259 62.3098C56.4601 62.1127 56.4601 61.8497 56.5259 61.7183C56.5916 61.5868 56.723 61.6526 56.7888 61.8498Z" fill="#575757"/>
<path d="M54.9484 61.3895C55.0141 61.258 55.2113 61.1266 55.3428 61.1923C55.4742 61.1923 55.6057 61.3895 55.5399 61.5209C55.4742 61.6524 55.277 61.7838 55.1456 61.7181C55.0141 61.7181 54.8827 61.5866 54.9484 61.3895Z" fill="#575757"/>
<path d="M54.7514 58.8261C54.62 58.6946 54.4885 58.4317 54.4885 58.2345C54.4885 58.0373 54.5543 57.9716 54.7514 58.1031C54.8829 58.2345 55.0143 58.4974 55.0143 58.6946C55.0143 58.8918 54.8829 58.9575 54.7514 58.8261Z" fill="#575757"/>
<path d="M56.7886 58.4976C56.7229 58.629 56.6572 58.6948 56.5257 58.6948C56.3942 58.6948 56.2628 58.5633 56.3285 58.4319C56.3285 58.3661 56.3942 58.2347 56.46 58.1689C56.5914 58.2347 56.7229 58.3661 56.7886 58.4976Z" fill="#575757"/>
<path d="M54.2911 58.8262C54.4226 58.8919 54.6198 59.0891 54.7512 59.2863C54.817 59.4835 54.7512 59.5492 54.6198 59.5492C54.4883 59.4835 54.2911 59.2863 54.1597 59.0891C54.0282 58.8919 54.1597 58.7605 54.2911 58.8262Z" fill="#575757"/>
<path d="M56.0658 57.8402C56.1315 58.1031 56.0658 58.3003 55.9343 58.4317C55.8029 58.4975 55.6714 58.4317 55.6714 58.2346C55.6057 58.0374 55.6714 57.7745 55.8029 57.7087C55.8029 57.7087 55.8686 57.7087 55.8686 57.7745C55.9343 57.7745 56.0001 57.7745 56.0658 57.8402Z" fill="#575757"/>
<path d="M55.0142 59.4178C55.0142 60.1408 55.54 60.9952 56.1315 61.3239C56.7888 61.6525 57.2489 61.3896 57.2489 60.6666C57.2489 59.9436 56.7231 59.0891 56.1315 58.7605C55.4743 58.4319 55.0142 58.6948 55.0142 59.4178Z" fill="#CDCDCD"/>
<path d="M55.8028 58.6292C55.9343 58.6292 56 58.6949 56.1315 58.7606C56.7887 59.0892 57.2488 60.0094 57.2488 60.6667C57.2488 60.8639 57.1831 60.9953 57.1174 61.1268L56.0657 60.9296C55.6714 60.601 55.6056 60.2066 55.4084 59.6808L55.8028 58.6292Z" fill="#A9A9A9"/>
<path d="M55.8027 60.5352C55.7369 60.4037 55.6712 60.2722 55.6055 60.075C56.0656 59.8779 56.4599 59.6807 56.7886 59.3521C56.9858 59.615 57.1172 59.9436 57.1829 60.2065C56.7228 60.2722 56.197 60.338 55.8027 60.5352Z" fill="#DCDED9"/>
<path d="M55.0142 59.9437C55.0142 60.4695 55.3428 61.0611 55.8029 61.324C56.263 61.5869 56.5916 61.3897 56.5916 60.8639C56.5916 60.3381 56.263 59.7465 55.8029 59.4836C55.3428 59.2207 55.0142 59.4179 55.0142 59.9437Z" fill="#A9A9A9"/>
<path d="M55.2112 60.2065C55.2112 60.4695 55.4084 60.7981 55.6713 60.9295C55.9342 61.061 56.1314 60.9295 56.1314 60.6666C56.1314 60.4037 55.9342 60.0751 55.6713 59.9436C55.4084 59.8779 55.2112 59.9436 55.2112 60.2065Z" fill="#E0E0E0"/>
<path d="M58.3661 65.1361L60.075 64.1502C60.075 64.1502 60.075 64.1502 60.1407 64.1502L60.2064 64.0845C60.8637 63.6901 61.2581 62.8357 61.2581 61.7183C61.2581 59.2864 59.5492 56.3286 57.3801 55.1455C56.3285 54.554 55.3426 54.4882 54.6853 54.8169L54.8825 54.6854C55.6055 54.2911 56.5257 54.3568 57.5773 55.0141C59.6806 56.2629 61.4553 59.2206 61.4553 61.5868C61.4553 62.7699 61.0609 63.5587 60.4036 63.953L60.3379 64.0188C60.3379 64.0188 60.3379 64.0188 60.2722 64.0188L58.3661 65.1361Z" fill="black"/>
<path d="M58.366 65.1359L59.2205 64.6758C59.2205 64.6758 59.2205 64.6758 59.2862 64.6758L59.3519 64.6101C60.0092 64.2158 60.4036 63.3613 60.4036 62.2439C60.4036 59.812 58.6947 56.8543 56.5256 55.6712C55.474 55.0796 54.4881 55.0139 53.8308 55.3425L54.028 55.2111C54.751 54.8167 55.6712 54.8824 56.7228 55.5397C58.8261 56.7885 60.6008 59.7463 60.6008 62.1125C60.6008 63.2956 60.2064 64.0843 59.5491 64.4787L59.4834 64.5444C59.4834 64.5444 59.4834 64.5444 59.4177 64.5444L58.366 65.1359Z" fill="black"/>
<path d="M59.9437 58.8921L65.0705 61.5869L66.5165 60.4696L67.831 63.4273L67.5681 65.7278L65.3334 65.8592L60.5353 63.0329L59.9437 58.8921Z" fill="#707070"/>
<path d="M59.9437 59.0891L65.2677 61.9154L66.4508 60.7323L68.0282 63.7558V65.9905L66.9766 66.0563C66.0564 66.122 65.0705 65.9248 64.2818 65.4647L60.6667 63.3614L59.9437 59.0891Z" fill="#3F3F3F"/>
<path d="M64.4133 62.3757L60.864 60.3381V61.6527L64.4133 63.6902V62.3757Z" fill="#2F2E2A"/>
<path d="M64.4133 62.1128L60.864 60.0752V61.3897H61.4556C62.1786 61.3897 62.9016 61.6527 63.4274 62.2442L64.4133 63.493V62.1128Z" fill="#1F1E19"/>
<path d="M82.7513 48.5728L79.9908 50.7418V56.723L70.7232 62.0469V56.1972L65.925 58.3005L70.7232 55.5399L79.7279 50.3474L82.7513 48.5728Z" fill="#EA7C00"/>
<path d="M81.831 49.2957L79.9906 57.183L78.5446 58.0375L78.3474 58.1689L77.9531 58.3661L75.8498 59.6149L75.5869 59.7464L75.1925 60.0093L73.0892 61.2581L72.892 61.3896L72.6948 61.4553L70.723 62.6384L66.1221 56.7887L67.0423 56.0657L69.277 54.5539L79.0704 49.4272L81.831 47.4553V49.2957Z" fill="#F3D052"/>
<path d="M81.5024 48.1125L79.8592 54.4224L79.7278 51.9248C79.7278 50.4787 80.3851 49.0985 81.5024 48.1125Z" fill="#666666"/>
<path d="M83.0141 54.9483L79.9249 56.7229L79.7934 54.4882L79.662 51.9905C79.662 50.5445 80.3193 49.1642 81.4366 48.1783C81.5024 48.1126 81.5681 48.0469 81.6338 48.0469L82.2254 46.2722L82.7512 47.3896L83.0141 54.9483Z" fill="#F3D052"/>
<path d="M66.5822 62.2439V60.9951L65.5305 56.9857L66.5822 56.5256C66.7136 56.4599 66.8451 56.4599 66.9765 56.3942C67.7653 56.2627 68.8169 56.7228 69.5399 57.3144C70.0657 57.7744 70.3944 58.3003 70.3944 58.8918L70.4601 59.7463L70.5916 61.1266L70.6573 61.9153L67.0423 64.15L66.5822 62.2439Z" fill="#F3D052"/>
<path d="M83.0141 50.939L83.2113 51.2019L82.9484 55.0798C83.0141 56.2629 82.6198 57.1174 81.6996 57.6432L67.8967 65.662C67.3709 65.9906 66.8451 65.0047 66.6479 64.3474L66.385 60.6009L83.0141 50.939Z" fill="#8C8C8C"/>
<path d="M82.5539 47.324L79.7276 49.4273L74.7323 52.385L70.46 54.8827L65.5304 57.0517L65.2018 56.0658L82.291 46.1409L82.5539 47.324Z" fill="#F3D052"/>
<path d="M79.9907 46.2724C79.3334 46.0095 78.5447 46.0095 77.9531 46.4038L77.7559 46.5353L78.0846 46.3381L76.77 45.4836L75.1925 46.4038L72.3005 48.047V49.5588L64.8733 53.8968C65.2677 54.6855 66.2536 55.0142 67.0423 54.5541L70.4601 52.5822L74.9296 50.0189L79.2019 47.5869L80.8451 46.6667L79.9907 46.2724Z" fill="#6F94A3"/>
<path d="M62.967 48.2442C62.967 48.1127 62.9013 47.9812 62.9013 47.8498C62.9013 47.5869 62.967 47.324 63.0328 47.1268L54.5539 42.2629L54.0281 43.1174L62.967 48.2442Z" fill="#B37A00"/>
<path d="M63.0328 47.1269C62.9671 47.3241 62.9014 47.587 62.9014 47.8499C62.9014 47.9814 62.9014 48.1128 62.9671 48.2443L63.1643 48.3757C63.4929 48.5729 63.8216 48.6386 64.1502 48.6386C64.2817 48.6386 64.4131 48.6386 64.5446 48.5729C64.676 48.5729 64.8075 48.5072 64.9389 48.4415C65.0047 48.4415 65.0704 48.3757 65.0704 48.3757L80.2535 39.5682C80.5164 39.371 80.6479 39.0424 80.5164 38.7795C80.4507 38.648 79.9906 37.9907 79.8591 37.925L71.0516 33.1926L54.554 42.2631L63.0328 47.1269Z" fill="#F3D052"/>
<path d="M62.9014 47.8497C62.9014 47.9811 62.9014 48.1126 62.9671 48.244L63.1643 48.3755C63.4929 48.5727 63.8216 48.6384 64.1502 48.6384C64.2816 48.6384 64.4131 48.6384 64.5446 48.5727C64.676 48.5727 64.8075 48.507 64.9389 48.4412C65.0047 48.244 65.0047 48.0469 65.0047 47.8497C65.0047 47.7182 65.0047 47.5211 64.9389 47.3896C64.8075 46.7323 64.4131 46.2722 63.8873 46.2722C63.4929 46.2722 63.0986 46.6009 62.9671 47.1267C62.9671 47.3239 62.9014 47.5868 62.9014 47.8497Z" fill="#C7A22A"/>
<path d="M54.554 42.2626L62.9671 47.1265L63.2957 47.3237C63.8216 47.5866 64.4131 47.6523 64.9389 47.4551C65.0047 47.4551 65.0704 47.3894 65.1361 47.3237L79.7934 38.9105C80.122 38.7133 80.1878 38.2533 79.9248 37.9903C79.8591 37.9246 79.8591 37.9246 79.7934 37.8589L70.9859 32.7979L54.554 42.2626Z" fill="#FAE35A"/>
<path d="M62.5071 52.6478C62.5071 52.5164 62.5071 52.3192 62.4414 52.1877L61.9813 48.9013C61.9156 48.6384 61.7841 48.4412 61.5869 48.3098C61.5212 48.2441 61.4555 48.1783 61.3897 48.1783L59.0235 46.798C58.9578 46.798 58.9578 46.7323 58.8921 46.7323C58.6292 46.6666 58.3663 46.7981 58.3005 47.061C58.3005 47.1267 58.3005 47.1267 58.3005 47.1924V50.4131C58.3005 50.5445 58.3663 50.7417 58.3663 50.8074C58.4977 51.399 58.8264 51.7276 59.3522 52.2534L62.1785 54.7511C62.77 54.7511 62.5728 53.3051 62.5071 52.6478Z" fill="url(#paint2_linear_3070_5894)"/>
<path d="M57.446 50.216V46.9296C57.446 46.5352 57.2488 46.1409 56.8544 45.9437L55.2112 45.0235C54.8826 44.8263 54.554 45.0892 54.554 45.4179V48.7042C54.554 49.0329 54.7511 49.3615 55.014 49.5587L56.8544 50.6103C57.1173 50.6761 57.446 50.5446 57.446 50.216Z" fill="#9F5B0F"/>
<path d="M57.0514 50.3475C56.9857 50.3475 57.0514 50.3475 57.0514 50.3475L55.1453 49.2958C54.9481 49.1644 54.8167 48.9672 54.8167 48.7043V45.4179C54.8167 45.2864 54.8824 45.2207 55.0138 45.2207H55.0796L56.7228 46.1409C56.9857 46.2723 57.1828 46.601 57.1828 46.9296V50.216C57.1828 50.2817 57.1171 50.3475 57.0514 50.3475Z" fill="#B37A00"/>
<path d="M52.9766 54.028C53.6996 53.8965 54.554 54.0937 55.5399 54.6195C57.9719 55.9998 60.0094 59.3519 60.0752 62.1782V63.2299L60.6667 62.9012V61.8496C60.5353 59.0233 58.5634 55.6712 56.1315 54.2909C55.2113 53.7651 54.2911 53.5679 53.5681 53.6993L52.9766 54.028Z" fill="#252525"/>
<path d="M55.5399 54.554C57.9718 55.9343 60.0094 59.2864 60.0751 62.1127V63.1643L59.7464 62.9672V61.9155C59.7464 61.7841 59.7464 61.6526 59.6807 61.5211C59.3521 58.892 57.5117 56.0657 55.3427 54.8169C54.6854 54.4225 54.0281 54.2254 53.4366 54.2254C53.3709 54.2254 53.3051 54.2254 53.2394 54.2254C53.1079 54.2254 53.0422 54.2254 52.9108 54.2254V53.8967C53.6995 53.8967 54.554 54.0282 55.5399 54.554Z" fill="black"/>
<path d="M72.8262 39.9626C72.6947 40.1598 72.8919 40.4884 73.2863 40.7513C73.6807 40.9485 74.075 41.0142 74.2065 40.7513C74.3379 40.5541 74.1408 40.2255 73.7464 39.9626C73.352 39.7654 72.9577 39.7654 72.8262 39.9626Z" fill="#9F5B0F"/>
<path d="M70.1972 41.4743C70.0657 41.6715 70.2629 42.0001 70.6573 42.263C71.0516 42.4602 71.446 42.5259 71.5775 42.263C71.7089 42.0659 71.5117 41.7372 71.1174 41.4743C70.723 41.2771 70.3286 41.2771 70.1972 41.4743Z" fill="#9F5B0F"/>
<path d="M67.5022 43.0517C67.3708 43.2489 67.568 43.5775 67.9623 43.8404C68.3567 44.0376 68.7511 44.1033 68.8825 43.8404C69.014 43.6432 68.8168 43.3146 68.4224 43.0517C68.028 42.8545 67.6337 42.8545 67.5022 43.0517Z" fill="#9F5B0F"/>
<path d="M73.2205 39.9626C73.089 40.1598 73.2862 40.4884 73.6806 40.7513C74.0749 40.9485 74.4693 41.0142 74.6008 40.7513C74.7322 40.5541 74.535 40.2255 74.1407 39.9626C73.7463 39.7654 73.3519 39.7654 73.2205 39.9626Z" fill="#DA5400"/>
<path d="M70.5915 41.4743C70.46 41.6715 70.6572 42.0001 71.0516 42.263C71.4459 42.4602 71.8403 42.5259 71.9717 42.263C72.1032 42.0659 71.906 41.7372 71.5116 41.4743C71.1173 41.2771 70.6572 41.2771 70.5915 41.4743Z" fill="#DA5400"/>
<path d="M67.8968 43.0517C67.7653 43.2489 67.9625 43.5775 68.3569 43.8404C68.7512 44.0376 69.1456 44.1033 69.277 43.8404C69.4085 43.6432 69.2113 43.3146 68.8169 43.0517C68.4226 42.8545 67.9625 42.8545 67.8968 43.0517Z" fill="#DA5400"/>
<path d="M68.2254 43.0517C68.1596 43.1832 68.2911 43.3147 68.4883 43.4461C68.6854 43.5776 68.8826 43.5776 68.9484 43.4461C69.0141 43.3147 68.8826 43.1832 68.6854 43.0517C68.4883 42.986 68.2911 42.986 68.2254 43.0517Z" fill="#FFB345"/>
<path d="M70.9201 41.54C70.8543 41.6715 70.9858 41.8029 71.183 41.9344C71.3801 42.0658 71.5773 42.0658 71.6431 41.9344C71.7088 41.8029 71.5773 41.6715 71.3801 41.54C71.183 41.4085 70.9858 41.4085 70.9201 41.54Z" fill="#FFB345"/>
<path d="M73.615 39.9624C73.5493 40.0938 73.6807 40.2253 73.8779 40.3567C74.0751 40.4882 74.2723 40.4882 74.338 40.3567C74.4037 40.2253 74.2723 40.0938 74.0751 39.9624C73.8779 39.8967 73.6807 39.8967 73.615 39.9624Z" fill="#FFB345"/>
<path d="M60.6011 56.3286L62.4415 55.2769V50.4131L60.6011 51.4647V56.3286Z" fill="#111111"/>
<path d="M62.3098 55.1457V51.0049L61.1267 51.6622V55.803L62.3098 55.1457Z" fill="#242424"/>
<path d="M62.4415 50.4131L62.31 51.0046L61.1269 51.6619L60.6011 51.4647L62.4415 50.4131Z" fill="#212121"/>
<path d="M61.1269 55.8028L60.6011 56.3286L62.4415 55.277L62.31 55.1455L61.1269 55.8028Z" fill="#030303"/>
<path d="M61.5868 54.028L61.9812 53.8308V54.5538L61.5868 54.751H61.5211V54.028H61.5868Z" fill="#161714"/>
<path d="M61.9813 54.3568V53.6338L61.5869 53.831V54.554L61.9813 54.3568Z" fill="#111111"/>
<path d="M61.9812 53.6338L61.9155 53.5681L61.5211 53.831H61.5868L61.9812 53.6338Z" fill="#212121"/>
<path d="M61.5211 54.5538V53.8308H61.5868V54.5538H61.5211Z" fill="#030303"/>
<path d="M62.1128 47.521L61.4556 47.9811L61.7185 54.8168L61.9157 54.751L62.0471 48.7698L62.5729 48.3755L62.1128 47.521Z" fill="black"/>
<path d="M83.277 51.2676V55.5399C83.277 56.5915 82.8827 57.446 82.0282 57.9718L68.2254 65.9906C67.5681 66.3849 66.7794 65.0704 66.7794 64.3474L66.5165 60.7981L83.277 51.2676Z" fill="#4E4E4E"/>
<path d="M82.0282 56.5257L68.2254 64.5444C68.1597 64.5444 68.1597 64.6102 68.094 64.6102C68.0282 64.6102 68.0282 64.6102 67.9625 64.6102L67.0423 64.6759C66.1221 64.7416 65.1362 64.5445 64.3475 64.0844L60.7325 61.9811L60.2066 59.2205L59.9437 59.089L60.7325 63.3613L64.3475 65.4646C65.1362 65.9247 66.1221 66.1219 67.0423 66.0562L67.9625 65.9905C68.0282 65.9905 68.0282 65.9905 68.094 65.9905C68.1597 65.9905 68.1597 65.9905 68.2254 65.9247L82.0282 57.906C82.9484 57.3801 83.2771 56.5257 83.2771 55.474V54.0938C83.2771 55.2111 82.8827 56.0656 82.0282 56.5257Z" fill="#3B3A36"/>
<path d="M80.4509 49.4272V50.6761C80.4509 51.0704 80.2537 51.0047 79.7279 51.3991C78.6105 52.1878 77.8218 52.7136 76.573 53.5024C75.3899 54.2254 72.4321 55.8686 70.7889 56.6573C70.6575 56.723 69.8688 57.1174 69.803 56.7887V56.723L69.7373 55.4742L80.1223 49.5587L80.4509 49.4272Z" fill="#FAED76"/>
<path d="M80.1221 49.5586C80.1221 50.0187 79.9249 50.8731 79.3991 51.2018C78.2817 51.9905 77.493 52.5163 76.2442 53.3051C75.0611 54.0281 72.1033 55.6713 70.4601 56.46C70.3287 56.5257 70 56.7229 69.7371 56.7229L69.6714 55.4741L80.1221 49.5586Z" fill="#4E4E4E"/>
<path d="M76.967 36.5446C76.967 36.7417 76.7699 36.9389 76.4412 37.399C76.4412 37.2018 76.3755 37.0704 76.3755 36.9389C76.3755 36.8732 76.3755 36.8075 76.3098 36.7417C75.5868 33.2582 72.8919 31.5492 70.8544 30.6948L69.2112 29.446L69.5398 29.2488C70.3286 29.446 71.7746 29.9061 73.0891 30.7605C74.9295 31.7464 76.5727 33.5868 76.967 36.5446Z" fill="#F1C435"/>
<path d="M76.4415 37.399L70.1973 41.4741L63.1645 45.1549C62.3757 38.6478 55.08 37.6619 55.08 37.6619L69.2771 29.3145L69.6058 29.1173L70.3945 28.6572C70.4602 28.6572 71.7748 29.2488 73.2208 30.6291C74.5354 31.8779 75.8499 33.8497 76.3757 36.676C76.3757 36.7417 76.3757 36.8075 76.4415 36.8732C76.3757 37.0046 76.4415 37.2018 76.4415 37.399Z" fill="#FAED76"/>
<path d="M55.08 37.6619V41.9999L60.0095 44.7605C60.9954 45.2863 62.1128 45.4835 63.2302 45.1548C62.3757 38.6478 55.08 37.6619 55.08 37.6619Z" fill="#C7A22A"/>
<path d="M55.08 37.6619V38.2534C57.249 39.1736 60.141 41.0797 60.6668 45.0234C61.4555 45.352 62.3757 45.352 63.2302 45.1548C62.3757 38.6478 55.08 37.6619 55.08 37.6619Z" fill="#F1C435"/>
<path d="M69.9343 62.9016L68.6855 63.6903C68.2911 63.9532 67.7653 63.8217 67.5024 63.3616L67.3052 63.0987V61.0612C67.3052 60.7983 67.4366 60.4696 67.6995 60.3382L68.8826 59.6809C69.0798 59.6152 69.277 59.6809 69.277 59.8781V60.2067L69.3427 60.7983L69.4742 62.31L69.9343 62.9016Z" fill="#ECF1F6"/>
<path d="M69.3427 60.2724C69.3427 60.3382 69.3427 60.3382 69.277 60.4039L68.8826 61.587L67.5024 62.31L67.3052 62.5729V61.0612C67.3052 60.7983 67.4366 60.4696 67.6995 60.3382L68.8826 59.6809C69.0798 59.6152 69.277 59.6809 69.277 59.8781L69.3427 60.2724Z" fill="#C4D8EC"/>
<path d="M82.7513 52.1876V54.2909L82.4883 55.1454C82.2912 55.8027 81.6339 56.3285 80.9109 56.7229L80.9766 55.6712L81.0423 54.4881L81.1081 53.2393C81.1081 52.9764 81.3053 52.7135 81.5024 52.5163L82.3569 51.9905C82.5541 51.9247 82.7513 51.9905 82.7513 52.1876Z" fill="#ECF1F6"/>
<path d="M82.7511 52.1876V53.5022L81.1079 54.4881L81.1736 53.2393C81.1736 52.9764 81.3708 52.7135 81.568 52.5163L82.4225 51.9905C82.5539 51.9247 82.7511 51.9905 82.7511 52.1876Z" fill="#C4D8EC"/>
<path d="M68.7513 63.4273L69.6057 62.9015L69.2771 62.5071L69.4743 62.3756L68.7513 62.8357C68.3569 63.0987 67.8311 62.9672 67.5682 62.5071L67.371 62.1785V62.9015L67.5682 63.1644C67.8311 63.5587 68.3569 63.6902 68.7513 63.4273Z" fill="#FF8D31"/>
<path d="M81.5682 55.4086L81.2396 55.6058L81.1738 56.3945L81.6997 56.0659C82.0283 55.8687 82.2255 55.6715 82.3569 55.0142L82.6198 54.1598V53.4368L82.4884 53.8311C82.3569 54.4884 81.8968 55.2114 81.5682 55.4086Z" fill="#FF8D31"/>
<path d="M80.5165 53.3054V54.2256C80.5165 54.62 80.385 54.62 79.9249 54.9486C78.8733 55.6716 78.0188 56.1317 76.8357 56.8547C75.7183 57.5777 72.892 59.1552 71.3146 59.8782C71.1831 59.9439 70.3944 60.3383 70.3287 60.0096V59.9439L70.2629 59.0237L80.1878 53.3711L80.5165 53.3054Z" fill="#8C8C8C"/>
<path d="M80.2535 53.4368C80.2535 53.8969 80.1221 54.4884 79.662 54.817C78.6104 55.54 77.7559 56.0001 76.5728 56.7232C75.4554 57.4462 72.6291 59.0236 71.0517 59.7466C70.9859 59.8123 70.5916 59.9438 70.3287 60.0095L70.2629 59.0893L80.2535 53.4368Z" fill="#0E0E0E"/>
<path d="M80.5165 55.0798V56C80.5165 56.3944 80.385 56.3944 79.9249 56.723C78.8733 57.446 78.0188 57.9061 76.8357 58.6291C75.7183 59.3521 72.892 60.9296 71.3146 61.6526C71.1831 61.7183 70.3944 62.1127 70.3287 61.7841V61.7183L70.2629 60.7981L80.1878 55.1456L80.5165 55.0798Z" fill="#8C8C8C"/>
<path d="M80.2535 55.2112C80.2535 55.6713 80.1221 56.2628 79.662 56.5915C78.6104 57.3145 77.7559 57.7746 76.5728 58.4976C75.4554 59.2206 72.6291 60.798 71.0517 61.521C70.9859 61.5868 70.5916 61.7182 70.3287 61.784L70.2629 60.8638L80.2535 55.2112Z" fill="#0E0E0E"/>
<path d="M74.6665 58.1034C74.6665 57.6433 74.9951 57.0517 75.3895 56.8546L75.7839 56.7888C75.9811 56.8545 76.1125 56.986 76.1125 57.2489C76.1125 57.709 75.7839 58.3006 75.3895 58.4977C74.9951 58.7607 74.6665 58.5635 74.6665 58.1034Z" fill="#DCE4E8"/>
<path d="M81.9623 44.9575L82.0937 45.1547C82.028 45.812 81.6336 46.2063 80.7792 46.7979C78.9388 48.0467 77.69 48.704 75.6524 50.0186C73.7463 51.2017 68.6196 54.2251 65.9904 55.474C65.7275 55.6054 64.8073 56.0655 64.6759 55.5397L64.6102 55.3425L64.5444 54.8824L81.4365 45.2862L81.9623 44.9575Z" fill="white"/>
<path d="M82.0939 45.155V45.6809C82.0282 46.3381 81.7653 46.4696 80.9766 46.9954C79.1362 48.2442 77.8874 48.9015 75.8498 50.2161C73.9437 51.3992 69.0799 54.094 66.385 55.4086C66.1221 55.54 65.0705 56.1316 64.939 55.6057V55.54L64.8733 55.0799L81.6339 45.5494L82.0939 45.155Z" fill="#C4D3E2"/>
<path d="M64.6104 54.8167L64.8733 54.9481L64.939 55.4739C64.939 55.4739 65.0047 55.6711 65.1362 55.7368C65.2676 55.7368 65.3334 55.7368 65.3334 55.7368C65.3334 55.7368 65.0047 55.8026 64.8733 55.7368C64.7418 55.6711 64.6761 55.6711 64.6104 55.3425C64.6104 54.9481 64.6104 54.8167 64.6104 54.8167Z" fill="#8BA9C7"/>
<path d="M67.9624 61.7841C67.9624 61.3897 68.2253 60.9953 68.554 60.7982L68.8826 60.7324C69.014 60.7981 69.1455 60.9296 69.1455 61.1268C69.1455 61.5212 68.8826 61.9155 68.554 62.1127C68.2253 62.3099 67.9624 62.1127 67.9624 61.7841Z" fill="#FBFCFD"/>
<path d="M81.3052 54.2252C81.3052 53.8309 81.5681 53.4365 81.8967 53.2393L82.2254 53.1736C82.3568 53.2393 82.4883 53.3708 82.4883 53.568C82.4883 53.9623 82.2254 54.3567 81.8967 54.5539C81.5681 54.7511 81.3052 54.6196 81.3052 54.2252Z" fill="#FBFCFD"/>
<path d="M32.4695 38.3849V38.9764C32.4695 39.1079 32.5352 39.1736 32.6009 39.2393L33.7183 39.8966C33.784 39.9623 33.9155 39.8966 33.9155 39.7652V39.6994L32.9953 39.1736C32.8638 39.1079 32.8638 39.0422 32.8638 38.9107V38.3849L32.6667 38.2534C32.5352 38.2534 32.4695 38.2534 32.4695 38.3849Z" fill="#658391"/>
<path d="M32.7981 38.3848V38.9106C32.7981 39.042 32.8638 39.1078 32.9295 39.1735L33.8497 39.6993V39.1735C33.8497 39.0421 33.784 38.9763 33.7183 38.9106L32.7981 38.3848Z" fill="#B8571F"/>
<path d="M41.08 43.3801V43.9717C41.08 44.1031 41.1457 44.1689 41.2114 44.2346L42.3288 44.8919C42.3945 44.9576 42.526 44.8919 42.526 44.7604V44.6947L41.6058 44.1689C41.4743 44.1031 41.4743 44.0374 41.4743 43.906V43.3801L41.2771 43.2487C41.2114 43.183 41.08 43.2487 41.08 43.3801Z" fill="#658391"/>
<path d="M41.4744 43.3801V43.906C41.4744 44.0374 41.5401 44.1031 41.6058 44.1689L42.526 44.6947V44.1689C42.526 44.0374 42.4603 43.9717 42.3946 43.906L41.4744 43.3801Z" fill="#B8571F"/>
<path d="M50.2161 48.6384V49.23C50.2161 49.3614 50.2818 49.4272 50.3475 49.4929L51.4649 50.1502C51.5306 50.2159 51.6621 50.1502 51.6621 50.0187V49.953L50.7419 49.4272C50.6104 49.3614 50.6104 49.2957 50.6104 49.1643V48.6384L50.4132 48.507C50.3475 48.4413 50.2161 48.507 50.2161 48.6384Z" fill="#658391"/>
<path d="M50.6104 48.6384V49.1643C50.6104 49.2957 50.6761 49.3614 50.7418 49.4272L51.662 49.953V49.4272C51.662 49.2957 51.5963 49.23 51.5305 49.1643L50.6104 48.6384Z" fill="#B8571F"/>
<path d="M15.3802 28.5256V29.1172C15.3802 29.2487 15.446 29.3144 15.5117 29.3801L16.6291 30.0374C16.6948 30.1031 16.8263 30.0374 16.8263 29.9059V29.8402L15.9061 29.3144C15.7746 29.2487 15.7746 29.1829 15.7746 29.0515V28.5256L15.5774 28.3942C15.5117 28.3285 15.3802 28.3942 15.3802 28.5256Z" fill="#658391"/>
<path d="M15.7747 28.5256V29.0515C15.7747 29.1829 15.8404 29.2486 15.9061 29.3144L16.8263 29.8402V29.3144C16.8263 29.1829 16.7606 29.1172 16.6948 29.0515L15.7747 28.5256Z" fill="#B8571F"/>
<path d="M23.5962 33.2582V33.8497C23.5962 33.9812 23.6619 34.0469 23.7276 34.1126L24.845 34.7699C24.9107 34.8356 25.0422 34.7699 25.0422 34.6384V34.5727L24.122 34.0469C23.9906 33.9812 23.9906 33.9154 23.9906 33.784V33.2582L23.7934 33.1267C23.7276 33.1267 23.5962 33.1924 23.5962 33.2582Z" fill="#658391"/>
<path d="M23.9905 33.2581V33.7839C23.9905 33.9153 24.0562 33.9811 24.1219 34.0468L25.0421 34.5726V34.0468C25.0421 33.9153 24.9764 33.8496 24.9107 33.7839L23.9905 33.2581Z" fill="#B8571F"/>
<path d="M19.6526 23.9907V25.8311L16.7606 24.1222V15.6433L17.8779 16.3006V23.0048L19.6526 23.9907Z" fill="#8BA9C7"/>
<path d="M24.5161 24.3852C24.5161 26.8829 23.5302 28.1974 22.1499 27.4087C20.8353 26.6199 19.8494 24.188 19.8494 21.6904C19.8494 19.1927 20.8353 17.9439 22.1499 18.7326C23.5959 19.4556 24.5818 21.8875 24.5161 24.3852ZM21.0325 22.3476C21.0325 23.7936 21.5583 25.2396 22.2156 25.5683C22.8729 25.9627 23.3987 25.1739 23.3987 23.7279C23.3987 22.2819 22.8729 20.9016 22.2156 20.5073C21.5583 20.1129 21.0325 20.9016 21.0325 22.3476Z" fill="#8BA9C7"/>
<path d="M28.8542 26.817V30.1034C28.3941 30.4978 27.6711 30.4977 27.0796 30.1691C25.765 29.3804 24.7791 26.9485 24.7791 24.5165C24.7791 22.0189 25.8308 20.7701 27.1453 21.5588C27.8026 21.9532 28.4599 22.8076 28.92 23.8593L28.3284 24.9766C27.9998 24.2536 27.6054 23.5963 27.211 23.3992C26.488 23.0048 25.9622 23.7935 25.9622 25.1738C25.9622 26.6198 26.488 28.0001 27.211 28.4602C27.4082 28.5916 27.7369 28.5916 27.9998 28.4602V26.2912L28.8542 26.817Z" fill="#8BA9C7"/>
<path d="M29.5773 31.5494V23.0706L30.6946 23.7278V32.2067L29.5773 31.5494Z" fill="#8BA9C7"/>
<path d="M34.9012 27.0143L34.5068 28.4603C34.0468 27.6716 33.4552 26.9486 33.1266 26.7514C32.8637 26.6199 32.6665 26.6856 32.6665 27.08C32.6665 28.526 34.9012 29.0518 34.9012 32.0753C34.9012 33.7842 34.1125 34.2443 33.1923 33.6528C32.4693 33.2584 31.7463 32.2725 31.2205 31.1551L31.6148 29.7091C32.0749 30.7608 32.7322 31.6152 33.1923 31.8781C33.5209 32.0753 33.7181 31.9439 33.7838 31.4838C33.7838 29.972 31.5491 29.5777 31.5491 26.5542C31.5491 24.9767 32.2064 24.3852 33.258 24.9767C33.8496 25.4368 34.4411 26.1598 34.9012 27.0143Z" fill="#8BA9C7"/>
<path d="M37.4646 29.3805V36.1505L36.3472 35.4932V28.7232L35.0984 28.0002V26.2256L38.7791 28.3289V30.1035L37.4646 29.3805Z" fill="#8BA9C7"/>
<path d="M39.2393 37.202V28.7231L40.3566 29.3804V37.8593L39.2393 37.202Z" fill="#8BA9C7"/>
<path d="M44.9576 33.3242L44.3004 34.4416C44.0374 33.5871 43.5774 32.9299 43.2487 32.7327C42.5914 32.3383 42.0656 33.1271 42.0656 34.5073C42.0656 35.9533 42.5914 37.3336 43.2487 37.728C43.6431 37.9252 44.0374 37.7937 44.3004 37.3336L44.9576 39.0425C44.4975 39.6998 43.8403 39.9627 43.183 39.5684C41.8684 38.8454 40.9482 36.3477 40.9482 33.9158C40.9482 31.4839 41.9342 30.1693 43.2487 30.958C43.8403 31.2867 44.4975 32.2069 44.9576 33.3242Z" fill="#8BA9C7"/>
<path d="M48.7699 35.0328L48.3755 36.4788C47.9154 35.6901 47.3239 34.9671 46.9952 34.7699C46.7323 34.6385 46.5351 34.7042 46.5351 35.0986C46.5351 36.5446 48.7699 37.0704 48.7699 40.0939C48.7699 41.8028 47.9811 42.2629 47.0609 41.6713C46.3379 41.277 45.6149 40.2911 45.0891 39.1737L45.5492 37.7277C46.0093 38.7793 46.6666 39.6338 47.1267 39.8967C47.4553 40.0939 47.6525 39.9624 47.7182 39.5023C47.7182 37.9906 45.4835 37.5962 45.4835 34.5727C45.4835 32.9953 46.1408 32.4037 47.1924 32.9953C47.7182 33.4554 48.3098 34.2441 48.7699 35.0328Z" fill="#8BA9C7"/>
<defs>
<linearGradient id="paint0_linear_3070_5894" x1="77.6123" y1="44.3165" x2="80.5162" y2="38.6456" gradientUnits="userSpaceOnUse">
<stop stop-color="#92C6B9"/>
<stop offset="0.9409" stop-color="#6F797B"/>
</linearGradient>
<linearGradient id="paint1_linear_3070_5894" x1="74.2478" y1="50.3362" x2="71.7651" y2="45.2434" gradientUnits="userSpaceOnUse">
<stop offset="0.0837438" stop-color="#597E90"/>
<stop offset="0.4241" stop-color="#4D6976"/>
<stop offset="0.9409" stop-color="#3C4B52"/>
</linearGradient>
<linearGradient id="paint2_linear_3070_5894" x1="59.5233" y1="53.4242" x2="61.4544" y2="47.6308" gradientUnits="userSpaceOnUse">
<stop offset="0.0837438" stop-color="#305F76"/>
<stop offset="0.4391" stop-color="#29485A"/>
<stop offset="0.9409" stop-color="#1F2B36"/>
</linearGradient>
</defs>
</svg>
