<svg width="92" height="70" viewBox="0 0 92 70" fill="none" xmlns="http://www.w3.org/2000/svg">
<path d="M83.0061 35.6124C82.9162 35.1628 82.8263 34.7131 82.8263 34.3534C82.8263 33.9937 82.7363 33.544 82.9162 33.1843C83.096 32.8246 83.4558 32.4648 83.8155 32.285C83.9953 32.195 84.2651 32.195 84.445 32.285C84.7148 33.2742 84.8947 34.1735 84.9846 35.1628C85.0745 35.7923 85.1644 36.3319 85.1644 36.9614C85.1644 37.501 85.2544 38.0405 85.1644 38.5801C85.0745 38.8499 84.8947 39.0298 84.6249 39.1197C84.5349 39.2096 84.445 39.2096 84.3551 39.2096C84.1752 39.2096 84.1752 39.0298 84.1752 38.8499C84.0853 38.8499 83.9953 38.9399 83.9054 38.8499C83.7256 38.4902 83.7256 38.0405 83.5457 37.7708C83.3658 37.501 83.0061 37.2312 82.8263 36.9614L82.7363 36.8714C82.7363 36.7815 82.8262 36.6916 82.9162 36.6916C83.096 36.6017 83.2759 36.6017 83.186 36.3319C83.186 36.0621 83.096 35.7923 83.0061 35.6124Z" fill="#646464"/>
<path d="M61.1528 39.9291L26.9792 20.0544L6.56486 31.9253C5.66555 32.4649 5.66555 33.8138 6.56486 34.3534L65.6494 68.2573C69.7862 70.5955 74.9122 70.5955 79.139 68.1674L88.9414 62.5018C91.6394 60.9729 91.6394 57.016 88.9414 55.4872L61.1528 39.9291Z" fill="#D4D4D4"/>
<path d="M67.7178 50.0914L67.3581 50.4511L66.2789 51.3504L56.8362 44.6956L67.7178 50.0914Z" fill="#B37A00"/>
<path d="M23.3821 40.5588L28.2384 36.8717C28.2384 36.8717 25.4505 35.3428 25.2707 35.4328C25.1807 35.4328 23.6519 36.1522 23.6519 36.1522C23.6519 36.1522 21.4936 38.0408 23.3821 40.5588Z" fill="#211E1E"/>
<path d="M59.5341 61.1529L76.531 50.0914L76.7108 45.415L59.7139 56.4765L58.6348 59.2644L59.5341 61.1529Z" fill="black"/>
<path d="M73.3835 59.3544L81.2075 58.3652L90.4704 51.7103L90.2006 48.0231L85.3443 40.0193L67.3582 50.4513L73.3835 59.3544Z" fill="#F3D052"/>
<path d="M90.2005 48.0231L85.3443 40.0193L84.4449 41.1884L89.6609 52.6096L90.4703 49.3721L90.2005 48.0231Z" fill="#F1C435"/>
<path d="M79.3189 57.9155L69.8762 49.9116L67.3582 50.4512L73.6533 63.1314L79.3189 57.9155Z" fill="#F1C435"/>
<path d="M89.571 51.98C89.3911 52.1599 89.3012 52.2498 89.1213 52.4297C88.4918 53.1491 87.5026 53.7786 86.4234 54.588C86.3335 54.588 86.3335 54.6779 86.2435 54.6779C83.8154 56.2967 76.2612 58.9047 74.5526 59.5342L74.3727 60.1637L74.4626 63.5811C74.4626 63.5811 83.006 62.5019 86.2435 60.2536C87.5026 59.3543 88.4918 58.2752 89.2113 57.196C90.0206 56.0269 90.5602 54.7679 90.83 53.9585C90.83 53.9585 90.83 53.9585 90.83 53.8686C90.83 53.8686 90.92 52.0699 90.92 51.4404C90.4703 51.4404 90.1106 52.1599 89.571 51.98Z" fill="#CAA830"/>
<path d="M67.1782 67.6282L60.8831 57.1063L64.2105 55.2177C65.0199 54.7681 66.099 54.858 67.2681 55.5774C69.6963 56.9264 71.6747 60.3438 71.6747 63.0417C71.6747 64.3907 71.2251 65.29 70.5057 65.7396H70.4157C70.4157 65.7396 70.4157 65.7396 70.3258 65.7396L67.1782 67.6282Z" fill="black"/>
<path d="M62.0522 57.7354L66.5488 55.1274C66.8186 55.2174 67.0884 55.3073 67.3582 55.4872C69.7863 56.8361 71.7648 60.2535 71.7648 62.9514C71.7648 63.491 71.6748 63.9407 71.5849 64.3004L68.1675 66.2789C67.8078 66.1889 67.3582 66.0091 66.9984 65.7393C66.5488 65.4695 66.0991 65.1997 65.7394 64.75L62.412 59.1743C62.1422 58.8146 62.0522 58.275 62.0522 57.7354Z" fill="#1F1F1F"/>
<path d="M59.7139 59.8038C59.7139 62.5916 61.6923 65.919 64.1205 67.268C66.5486 68.617 68.5271 67.5378 68.5271 64.8399C68.5271 62.052 66.5486 58.7246 64.1205 57.3756C61.6024 55.9367 59.7139 57.1058 59.7139 59.8038Z" fill="#2A2A2A"/>
<path d="M59.8037 59.8941C59.8037 62.5021 61.6922 65.7396 64.0304 67.0886C66.3686 68.4375 68.2572 67.3584 68.2572 64.7504C68.2572 62.1424 66.3686 58.9049 64.0304 57.5559C61.6922 56.2069 59.8037 57.2861 59.8037 59.8941Z" fill="#1D1D1D"/>
<path d="M60.7931 60.4337C60.7931 62.5021 62.232 65.0202 64.0306 66.0094C65.8292 67.0886 67.2681 66.1893 67.2681 64.2108C67.2681 62.1424 65.8292 59.6243 64.0306 58.6351C62.232 57.5559 60.7931 58.3653 60.7931 60.4337Z" fill="#3B3B3B"/>
<path d="M60.973 60.6134C60.973 62.502 62.322 64.8402 64.0307 65.8294C65.7393 66.8187 67.0883 66.0093 67.0883 64.1207C67.0883 62.2322 65.7393 59.894 64.0307 58.9047C62.4119 57.9155 60.973 58.635 60.973 60.6134Z" fill="#727272"/>
<path d="M64.1206 58.9048C65.7394 59.894 67.0883 62.2322 67.0883 64.1208C67.0883 64.3906 67.0883 64.6604 66.9984 64.8402L64.7501 66.0992C64.4803 66.0093 64.3005 65.9194 64.0307 65.7395C62.4119 64.7503 61.063 62.502 60.973 60.6135L64.1206 58.9048Z" fill="#A9A9A9"/>
<path d="M65.7392 60.4338C66.3688 61.2432 66.8184 62.1425 66.9983 63.1318L63.3111 65.2901C62.5916 64.6606 61.9621 63.8512 61.6024 62.9519L65.7392 60.4338Z" fill="#E9EAE7"/>
<path d="M65.7392 60.4338C66.3688 61.2432 66.8184 62.1425 66.9983 63.1318L63.3111 65.2901C62.5916 64.6606 61.9621 63.8512 61.6024 62.9519L65.7392 60.4338Z" fill="#E9EAE7"/>
<path d="M61.9624 60.5238C61.9624 62.0526 63.0416 63.9411 64.3905 64.6606C65.7395 65.4699 66.8187 64.8404 66.8187 63.3116C66.8187 61.7828 65.7395 59.8942 64.3905 59.1748C63.0416 58.4554 61.9624 58.9949 61.9624 60.5238Z" fill="#4D4D4D"/>
<path d="M62.412 60.6138C62.412 61.8728 63.3113 63.4916 64.4804 64.211C65.6495 64.8405 66.5488 64.3909 66.5488 63.0419C66.5488 61.7829 65.6495 60.1641 64.4804 59.4447C63.3113 58.8152 62.412 59.3547 62.412 60.6138Z" fill="#949494"/>
<path d="M65.5594 60.4337L65.6494 60.3438C65.7393 60.5236 65.9192 60.7035 66.0091 60.7934C65.9192 60.7934 65.8293 60.7934 65.7393 60.7934C65.5595 60.7934 65.4695 60.6135 65.5594 60.4337Z" fill="#727272"/>
<path d="M62.4116 61.6927C62.2318 61.5129 62.3217 61.333 62.5016 61.333C62.6814 61.333 62.9512 61.4229 63.0412 61.6028C63.221 61.7827 63.1311 61.9625 62.9512 61.9625C62.8613 61.9625 62.5915 61.8726 62.4116 61.6927Z" fill="#727272"/>
<path d="M66.0989 63.0418C66.0089 62.8619 66.1888 62.772 66.3687 62.8619C66.5485 62.9519 66.7284 63.2217 66.8183 63.4915C66.9082 63.6713 66.7284 63.7612 66.5485 63.6713C66.2787 63.5814 66.0989 63.3116 66.0989 63.0418Z" fill="#727272"/>
<path d="M63.401 59.2648C63.4909 59.0849 63.5809 59.0849 63.7607 59.3547C63.8507 59.5345 63.9406 59.8943 63.8507 60.0741C63.7607 60.254 63.6708 60.254 63.491 59.9842C63.401 59.7144 63.3111 59.4446 63.401 59.2648Z" fill="#727272"/>
<path d="M66.0989 61.6029C65.919 61.423 65.919 61.2432 66.0989 61.2432H66.1888C66.2788 61.423 66.3687 61.6029 66.4586 61.7827C66.3687 61.7827 66.1888 61.6928 66.0989 61.6029Z" fill="#727272"/>
<path d="M66.1888 64.2108C66.1888 64.3906 66.0089 64.3906 65.919 64.2108C65.7391 64.0309 65.6492 63.7611 65.7391 63.4913C65.7391 63.3115 65.919 63.3115 66.0089 63.4913C66.0989 63.6712 66.1888 64.0309 66.1888 64.2108Z" fill="#727272"/>
<path d="M66.1888 62.4124C66.0989 62.2325 66.0989 62.0526 66.2787 62.1426C66.3687 62.1426 66.4586 62.2325 66.5486 62.3224C66.6385 62.5023 66.6385 62.6822 66.6385 62.9519C66.5486 62.7721 66.3687 62.5922 66.1888 62.4124Z" fill="#727272"/>
<path d="M62.8614 62.7719C62.6815 62.682 62.6815 62.5021 62.7715 62.4122C62.8614 62.3222 63.1312 62.3222 63.3111 62.4122C63.4909 62.5021 63.4909 62.682 63.401 62.7719C63.2211 62.9518 63.0413 62.8618 62.8614 62.7719Z" fill="#727272"/>
<path d="M64.1204 64.0308C64.1204 63.8509 64.2103 63.5811 64.3902 63.4912C64.57 63.4013 64.66 63.5811 64.66 63.761C64.66 63.9409 64.57 64.2106 64.3902 64.3006C64.3002 64.3905 64.2103 64.3006 64.1204 64.0308Z" fill="#727272"/>
<path d="M65.3794 63.8514C65.4694 64.0312 65.4694 64.391 65.3794 64.4809C65.2895 64.6608 65.1096 64.5708 65.0197 64.301C64.9298 64.1212 64.9298 63.7614 65.0197 63.6715C65.1996 63.5816 65.3794 63.6715 65.3794 63.8514Z" fill="#727272"/>
<path d="M63.3113 63.4016C63.4012 63.2218 63.5811 63.1318 63.7609 63.1318C63.9408 63.1318 64.0307 63.3117 63.9408 63.4916C63.8509 63.6714 63.671 63.7613 63.4912 63.7613C63.4012 63.6714 63.3113 63.5815 63.3113 63.4016Z" fill="#727272"/>
<path d="M63.0413 60.4337C62.8614 60.2538 62.7714 59.984 62.6815 59.8042C62.6815 59.6243 62.7715 59.5344 62.9513 59.7143C63.1312 59.8941 63.2211 60.1639 63.311 60.3438C63.401 60.5236 63.2211 60.6136 63.0413 60.4337Z" fill="#727272"/>
<path d="M65.3795 60.0739C65.2896 60.1639 65.1997 60.2538 65.1097 60.2538C64.9299 60.2538 64.84 60.1639 64.84 59.8941C64.84 59.8041 64.9299 59.7142 65.0198 59.6243C65.1997 59.8041 65.2896 59.8941 65.3795 60.0739Z" fill="#727272"/>
<path d="M62.5916 60.4338C62.7715 60.5238 62.9513 60.7036 63.0413 60.9734C63.1312 61.1533 63.0413 61.3331 62.8614 61.2432C62.6815 61.1533 62.5017 60.9734 62.4117 60.7036C62.3218 60.5238 62.4118 60.3439 62.5916 60.4338Z" fill="#727272"/>
<path d="M64.5699 59.3544C64.6598 59.6242 64.5699 59.894 64.48 59.9839C64.39 60.0739 64.2102 59.9839 64.1202 59.8041C64.0303 59.6242 64.1203 59.3544 64.3001 59.1746C64.3001 59.1746 64.39 59.1746 64.39 59.2645C64.48 59.2645 64.5699 59.2645 64.5699 59.3544Z" fill="#727272"/>
<path d="M63.4011 61.1534C63.4011 61.9627 63.9407 62.952 64.6601 63.3117C65.3796 63.7614 65.9192 63.4016 65.9192 62.5923C65.9192 61.7829 65.3796 60.7936 64.6601 60.4339C63.9407 59.9843 63.4011 60.344 63.4011 61.1534Z" fill="#727272"/>
<path d="M64.3004 60.2539C64.3903 60.2539 64.5701 60.3438 64.6601 60.4338C65.3795 60.8834 65.9191 61.7827 65.9191 62.5921C65.9191 62.772 65.9191 62.9518 65.8292 63.1317L64.6601 62.8619C64.2104 62.5022 64.1205 62.0525 63.8507 61.423L64.3004 60.2539Z" fill="#A9A9A9"/>
<path d="M64.3002 62.4122C64.2103 62.2323 64.1203 62.0525 64.0304 61.8726C64.48 61.6927 65.0196 61.423 65.3794 61.0632C65.5592 61.333 65.7391 61.6927 65.829 62.0525C65.2894 62.0525 64.7499 62.2323 64.3002 62.4122Z" fill="#DCDED9"/>
<path d="M63.4011 61.6928C63.4011 62.2324 63.8508 62.9518 64.3004 63.2216C64.84 63.4914 65.1997 63.3115 65.1997 62.682C65.1997 62.1424 64.7501 61.423 64.3004 61.1532C63.7608 60.8834 63.4011 61.1532 63.4011 61.6928Z" fill="#C4C4C4"/>
<path d="M63.671 62.0526C63.671 62.3224 63.8509 62.772 64.2106 62.862C64.4804 63.0418 64.7502 62.862 64.7502 62.5922C64.7502 62.3224 64.5703 61.8727 64.2106 61.7828C63.8509 61.6029 63.671 61.6929 63.671 62.0526Z" fill="#4D4D4D"/>
<path d="M67.1783 67.6282L69.0668 66.549C69.0668 66.549 69.0668 66.549 69.1568 66.549H69.2467C69.9661 66.0994 70.4158 65.1101 70.4158 63.8511C70.4158 61.0632 68.4373 57.7358 66.0092 56.3869C64.8401 55.6674 63.7609 55.5775 62.9515 56.0271L63.1314 55.9372C63.9408 55.4875 65.02 55.5775 66.1891 56.2969C68.6172 57.6459 70.5957 61.0632 70.5957 63.7612C70.5957 65.1101 70.146 66.0094 69.4265 66.4591H69.3366C69.3366 66.4591 69.3366 66.4591 69.2467 66.4591L67.1783 67.6282Z" fill="black"/>
<path d="M67.178 67.6279L68.0773 67.0883C68.0773 67.0883 68.0773 67.0883 68.1673 67.0883H68.2572C68.9766 66.6387 69.4263 65.6494 69.4263 64.3904C69.4263 61.6026 67.4478 58.2751 65.0197 56.9262C63.8506 56.2067 62.7714 56.1168 61.962 56.5664L62.1419 56.4765C62.9513 56.0269 64.0304 56.1168 65.1995 56.8362C67.6277 58.1852 69.6061 61.6026 69.6061 64.3005C69.6061 65.6494 69.1565 66.5487 68.4371 66.9984H68.3471C68.3471 66.9984 68.3471 66.9984 68.2572 66.9984L67.178 67.6279Z" fill="black"/>
<path d="M30.8467 46.9438L24.5515 36.4219L27.879 34.5334C28.6883 34.0837 29.7675 34.1737 30.9366 34.8931C33.3647 36.2421 35.3432 39.6594 35.3432 42.3574C35.3432 43.7063 34.8936 44.6056 34.1741 45.0553H34.0842C34.0842 45.0553 34.0842 45.0553 33.9942 45.0553L30.8467 46.9438Z" fill="black"/>
<path d="M25.7205 37.0514L30.217 34.4434C30.4868 34.5333 30.7566 34.6232 31.0264 34.8031C33.4545 36.152 35.433 39.5694 35.433 42.2673C35.433 42.8069 35.343 43.2566 35.2531 43.6163L31.8357 45.5948C31.476 45.5048 31.0264 45.325 30.6666 45.0552C30.217 44.7854 29.7673 44.5156 29.4076 44.0659L26.0802 38.4902C25.8104 38.1305 25.7205 37.5909 25.7205 37.0514Z" fill="#1F1F1F"/>
<path d="M23.3821 39.1197C23.3821 41.9075 25.3606 45.235 27.7887 46.5839C30.2168 47.9329 32.1953 46.8537 32.1953 44.1558C32.1953 41.3679 30.2168 38.0405 27.7887 36.6915C25.3606 35.2527 23.3821 36.4218 23.3821 39.1197Z" fill="#2A2A2A"/>
<path d="M23.562 39.2098C23.562 41.8178 25.4506 45.0553 27.7888 46.4042C30.127 47.7532 32.0155 46.674 32.0155 44.066C32.0155 41.458 30.127 38.2205 27.7888 36.8716C25.4506 35.5226 23.562 36.6018 23.562 39.2098Z" fill="#1D1D1D"/>
<path d="M24.5515 39.7494C24.5515 41.8178 25.9904 44.3358 27.789 45.3251C29.5876 46.4042 31.0265 45.5049 31.0265 43.5265C31.0265 41.4581 29.5876 38.94 27.789 37.9508C25.9904 36.8716 24.5515 37.681 24.5515 39.7494Z" fill="#3B3B3B"/>
<path d="M24.7314 39.9293C24.7314 41.8179 26.0804 44.1561 27.7891 45.1453C29.4978 46.1346 30.8467 45.3252 30.8467 43.4366C30.8467 41.5481 29.4978 39.2099 27.7891 38.2207C26.0804 37.2314 24.7314 37.9509 24.7314 39.9293Z" fill="#727272"/>
<path d="M27.7889 38.2207C29.4077 39.2099 30.7566 41.5481 30.7566 43.4367C30.7566 43.7065 30.7567 43.9763 30.6667 44.1561L28.4185 45.4152C28.1487 45.3252 27.9688 45.2353 27.699 45.0554C26.0802 44.0662 24.7313 41.8179 24.6414 39.9294L27.7889 38.2207Z" fill="#A9A9A9"/>
<path d="M29.4978 39.7495C30.1273 40.5589 30.5769 41.4582 30.7568 42.4474L27.0697 44.6058C26.3502 43.9763 25.7207 43.1669 25.361 42.2676L29.4978 39.7495Z" fill="#E9EAE7"/>
<path d="M29.4978 39.7495C30.1273 40.5589 30.5769 41.4582 30.7568 42.4474L27.0697 44.6058C26.3502 43.9763 25.7207 43.1669 25.361 42.2676L29.4978 39.7495Z" fill="#E9EAE7"/>
<path d="M25.7207 39.8394C25.7207 41.3683 26.7999 43.2568 28.1488 43.9762C29.4978 44.7856 30.577 44.1561 30.577 42.6273C30.577 41.0985 29.4978 39.2099 28.1488 38.4905C26.7999 37.771 25.7207 38.3106 25.7207 39.8394Z" fill="#4D4D4D"/>
<path d="M26.1704 39.9294C26.1704 41.1885 27.0697 42.8072 28.2388 43.5267C29.4079 44.1562 30.3072 43.7065 30.3072 42.3576C30.3072 41.0985 29.4079 39.4798 28.2388 38.7603C27.0697 38.1308 26.1704 38.6704 26.1704 39.9294Z" fill="#949494"/>
<path d="M29.318 39.7496L29.4079 39.6597C29.4978 39.8395 29.6777 40.0194 29.7676 40.1093C29.6777 40.1093 29.5877 40.1093 29.4978 40.1093C29.228 40.1093 29.228 39.9295 29.318 39.7496Z" fill="#727272"/>
<path d="M26.1703 41.0086C25.9905 40.8288 26.0804 40.6489 26.2602 40.6489C26.4401 40.6489 26.7099 40.7389 26.7998 40.9187C26.9797 41.0986 26.8897 41.2784 26.7099 41.2784C26.53 41.2784 26.2602 41.1885 26.1703 41.0086Z" fill="#727272"/>
<path d="M29.7676 42.3575C29.6776 42.1776 29.8575 42.0877 30.0374 42.1776C30.2172 42.2675 30.3971 42.5373 30.487 42.8071C30.5769 42.987 30.3971 43.0769 30.2172 42.987C30.0374 42.8971 29.8575 42.6273 29.7676 42.3575Z" fill="#727272"/>
<path d="M27.1597 38.5804C27.2496 38.4006 27.3395 38.4006 27.5194 38.6704C27.6093 38.8502 27.6992 39.2099 27.6093 39.3898C27.5194 39.5697 27.4295 39.5697 27.2496 39.2999C27.0697 39.0301 27.0697 38.7603 27.1597 38.5804Z" fill="#727272"/>
<path d="M29.8576 40.9186C29.6777 40.7387 29.6777 40.5588 29.8576 40.5588H29.9475C30.0374 40.7387 30.1274 40.9186 30.2173 41.0984C30.0374 41.0984 29.9475 41.0085 29.8576 40.9186Z" fill="#727272"/>
<path d="M29.9475 43.5267C29.9475 43.7066 29.7676 43.7066 29.6777 43.5267C29.4978 43.3468 29.4079 43.0771 29.4978 42.8073C29.4978 42.6274 29.6777 42.6274 29.7676 42.8073C29.8575 43.0771 29.9475 43.3468 29.9475 43.5267Z" fill="#727272"/>
<path d="M29.9475 41.728C29.8576 41.5482 29.8576 41.3683 30.0374 41.4582C30.1274 41.4582 30.2173 41.5482 30.3072 41.6381C30.3971 41.818 30.3972 41.9978 30.3972 42.2676C30.3072 42.0878 30.0374 41.9079 29.9475 41.728Z" fill="#727272"/>
<path d="M26.5299 42.0878C26.35 41.9979 26.35 41.818 26.4399 41.7281C26.5299 41.6382 26.7997 41.6382 26.9795 41.7281C27.1594 41.818 27.1594 41.9979 27.0695 42.0878C26.9795 42.2677 26.7097 42.2677 26.5299 42.0878Z" fill="#727272"/>
<path d="M27.8789 43.3467C27.8789 43.1668 27.9688 42.8971 28.1487 42.8071C28.3285 42.7172 28.4185 42.8971 28.4185 43.0769C28.4185 43.2568 28.3285 43.5266 28.1487 43.6165C28.0588 43.7064 27.8789 43.6165 27.8789 43.3467Z" fill="#727272"/>
<path d="M29.1381 43.167C29.228 43.3469 29.228 43.7066 29.1381 43.7966C29.0482 43.9764 28.8683 43.8865 28.7784 43.6167C28.6885 43.4368 28.6885 43.0771 28.7784 42.9872C28.8683 42.8973 29.0482 42.9872 29.1381 43.167Z" fill="#727272"/>
<path d="M27.07 42.7175C27.1599 42.5377 27.3397 42.4478 27.5196 42.4478C27.6995 42.4478 27.7894 42.6276 27.6994 42.8075C27.6095 42.9873 27.4297 43.0773 27.2498 43.0773C27.0699 42.9873 26.98 42.8974 27.07 42.7175Z" fill="#727272"/>
<path d="M26.7997 39.7494C26.6198 39.5695 26.5299 39.2997 26.4399 39.1199C26.4399 38.94 26.5299 38.8501 26.7097 39.0299C26.8896 39.2098 26.9795 39.4796 27.0695 39.6594C27.0695 39.8393 26.9795 39.9292 26.7997 39.7494Z" fill="#727272"/>
<path d="M29.1377 39.3896C29.0478 39.4795 28.9579 39.5695 28.868 39.5695C28.6881 39.5695 28.5981 39.4795 28.5981 39.2097C28.5981 39.1198 28.6881 39.0299 28.778 38.9399C28.8679 39.1198 29.0478 39.2097 29.1377 39.3896Z" fill="#727272"/>
<path d="M26.2603 39.7495C26.4402 39.8394 26.7099 40.0193 26.7099 40.2891C26.7999 40.469 26.71 40.6488 26.5301 40.5589C26.3502 40.469 26.1704 40.2891 26.0804 40.0193C26.0804 39.8394 26.0804 39.6596 26.2603 39.7495Z" fill="#727272"/>
<path d="M28.3286 38.6703C28.4185 38.9401 28.3286 39.2099 28.2386 39.2999C28.1487 39.3898 27.9688 39.2999 27.8789 39.12C27.789 38.9401 27.8789 38.6703 28.0588 38.4905C28.0588 38.4905 28.1487 38.4905 28.1487 38.5804C28.1487 38.5804 28.2386 38.5804 28.3286 38.6703Z" fill="#727272"/>
<path d="M27.0701 40.469C27.0701 41.2784 27.6096 42.2677 28.3291 42.6274C29.0485 43.077 29.5881 42.7173 29.5881 41.9079C29.5881 41.0986 29.0485 40.1093 28.3291 39.7496C27.6996 39.2999 27.0701 39.6597 27.0701 40.469Z" fill="#727272"/>
<path d="M27.9691 39.5696C28.059 39.5696 28.2388 39.6595 28.3288 39.7494C29.0482 40.1991 29.5878 41.0984 29.5878 41.9078C29.5878 42.0876 29.5878 42.2675 29.4979 42.4474L28.3288 42.1776C27.8791 41.8178 27.7892 41.3682 27.5194 40.7387L27.9691 39.5696Z" fill="#A9A9A9"/>
<path d="M27.9688 41.7279C27.8789 41.548 27.7889 41.3681 27.699 41.1883C28.1486 41.0084 28.6882 40.7386 29.0479 40.3789C29.2278 40.6487 29.4077 41.0084 29.4976 41.3681C29.0479 41.3681 28.5084 41.548 27.9688 41.7279Z" fill="#DCDED9"/>
<path d="M27.0701 41.0085C27.0701 41.548 27.5197 42.2675 27.9694 42.5373C28.509 42.8071 28.8687 42.6272 28.8687 41.9977C28.8687 41.3682 28.419 40.7387 27.9694 40.4689C27.5197 40.1991 27.0701 40.4689 27.0701 41.0085Z" fill="#C4C4C4"/>
<path d="M27.3395 41.3683C27.3395 41.6381 27.5193 42.0877 27.8791 42.1776C28.1489 42.3575 28.4187 42.1776 28.4187 41.9079C28.4187 41.6381 28.2388 41.1884 27.8791 41.0985C27.6093 40.9186 27.3395 41.0085 27.3395 41.3683Z" fill="#4D4D4D"/>
<path d="M30.8465 46.9439L32.735 45.8647C32.735 45.8647 32.735 45.8647 32.825 45.8647H32.9149C33.6343 45.415 34.084 44.4258 34.084 43.1668C34.084 40.3789 32.1055 37.0515 29.6774 35.7025C28.5083 34.9831 27.4291 34.8931 26.6198 35.3428L26.7996 35.2529C27.609 34.8032 28.6881 34.8931 29.8572 35.6126C32.2854 36.9616 34.2639 40.3789 34.2639 43.0768C34.2639 44.4258 33.8142 45.3251 33.0947 45.7748H33.0048C33.0048 45.7748 33.0048 45.7748 32.9149 45.7748L30.8465 46.9439Z" fill="black"/>
<path d="M30.8462 46.9436L31.7455 46.404C31.7455 46.404 31.7455 46.404 31.8355 46.404H31.9254C32.6448 45.9544 33.0945 44.9651 33.0945 43.7061C33.0945 40.9182 31.116 37.5908 28.6879 36.2418C27.5188 35.5224 26.4396 35.4325 25.6302 35.8821L25.8101 35.7922C26.6195 35.3425 27.6987 35.4325 28.8678 36.1519C31.2959 37.5009 33.2744 40.9182 33.2744 43.6162C33.2744 44.9651 32.8247 45.8644 32.1052 46.3141H32.0153C32.0153 46.3141 32.0153 46.3141 31.9254 46.3141L30.8462 46.9436Z" fill="black"/>
<path d="M74.5526 60.6133L74.3727 65.3796L72.664 67.7178V67.8977C72.3043 68.0775 71.1352 67.3581 69.5165 66.8185C68.9769 66.6386 68.6172 66.4588 68.6172 66.4588C68.6172 66.2789 68.7071 66.0991 68.7071 65.8293C68.7071 65.6494 68.7071 65.3796 68.7071 65.1998C68.7071 65.0199 68.7071 64.84 68.7071 64.7501C68.5272 61.8723 66.4588 58.5449 63.9408 57.106C62.7717 56.4765 61.7824 56.2966 60.973 56.5664C59.9838 56.9261 59.3543 57.8254 59.2644 59.2643C59.2644 59.4442 59.2644 59.6241 59.2644 59.714C59.2644 60.1636 59.3543 60.6133 59.4442 61.1529L58.8147 60.7932L36.5119 47.2136L35.1629 46.764L33.2744 46.1344L32.3751 45.7747C32.465 45.415 32.5549 44.9653 32.5549 44.4258C32.5549 44.3358 32.5549 44.156 32.5549 44.066C32.3751 41.1882 30.3067 37.7709 27.7886 36.332C25.9001 35.2528 24.2813 35.5226 23.4719 36.9615C23.382 36.9615 23.2021 37.0514 23.2021 37.2313C22.9323 37.7709 23.0223 38.3105 23.0223 38.94C23.0223 39.4796 23.1122 40.0192 23.2021 40.4688C22.4827 40.1091 19.8747 38.5803 19.1552 37.8608C18.5257 37.2313 18.0761 36.332 17.7164 35.5226C17.2667 34.4434 16.4573 34.3535 16.4573 34.3535L15.6479 32.375V27.249C15.6479 27.0691 15.7379 26.8893 15.8278 26.8893H15.9177C16.0976 26.7993 16.3674 26.8893 16.6372 26.8893C17.1768 26.9792 17.8962 27.0691 18.2559 26.7094C18.3459 26.6195 18.4358 26.5295 18.5257 26.5295L19.515 27.1591L51.4404 41.3681H51.5303C51.5303 41.3681 51.6203 41.458 51.7102 41.458C52.7894 42.0876 54.7678 43.0768 55.0376 42.807L75.4519 57.9154L74.5526 60.6133Z" fill="#B37A00"/>
<path d="M65.4697 55.4873L70.326 58.2751L74.8225 58.1852C74.8225 58.1852 68.977 52.4296 67.2683 50.4512L65.7395 51.7102L65.4697 55.4873Z" fill="#B37A00"/>
<path d="M65.4697 55.4873C65.4697 55.4873 69.2468 57.196 70.6857 57.8255C71.8548 58.2751 74.3729 62.1422 74.3729 62.1422L74.8225 58.1852L67.2683 50.4512L65.7395 51.7102L65.4697 55.4873Z" fill="#B37A00"/>
<path d="M22.8426 39.6595C22.8426 39.2099 22.7527 38.4904 22.9325 38.0408L23.2023 36.9616C17.5367 34.4436 15.9179 32.6449 15.828 32.4651C15.828 32.555 16.6374 36.422 17.2669 37.0516C17.8964 37.6811 21.9433 39.7495 22.9325 40.2891C22.8426 40.1092 22.8426 39.9293 22.8426 39.6595Z" fill="#2D2D2D"/>
<path d="M90.1105 56.3865C90.0206 56.4764 89.3011 58.5448 86.2435 60.6132C83.8154 62.232 73.8331 64.0306 72.0344 64.5702L70.5056 67.1782C70.5056 67.1782 71.6747 67.9876 72.7539 67.8976C75.9015 67.8077 83.2758 65.0199 86.0636 63.3112C90.6501 60.5233 91.0998 57.6455 91.0998 57.4657L91.0098 54.5879L90.1105 56.3865Z" fill="#FF935E"/>
<path d="M59.4442 59.8039C59.4442 60.2536 59.5342 60.7032 59.6241 61.2428L58.9946 60.8831L33.4542 46.2244L32.5549 45.8646C32.6449 45.5049 32.7348 45.0553 32.7348 44.5157C32.7348 44.4258 32.7348 42.3574 32.7348 42.1775L59.4442 57.3758C59.4442 57.5556 59.4442 59.6241 59.4442 59.8039Z" fill="#2D2D2D"/>
<path d="M28.6878 35.4328C26.4396 34.1738 24.1014 34.8033 23.292 36.512C23.6517 36.2422 24.3712 35.7925 24.7309 35.5227C25.1805 35.2529 25.5403 35.2529 25.9 35.5227C26.7094 35.3429 26.8892 35.6127 27.9684 36.2422C30.5764 37.771 33.3642 41.2783 33.3642 44.246C33.3642 44.5158 33.3642 44.6957 33.3642 44.8755C33.3642 45.0554 33.5441 46.0446 33.5441 46.2245C33.5441 46.2245 33.9038 45.7748 34.0837 45.505C34.1736 45.1453 34.1736 45.1453 34.1736 44.7856C34.0837 41.2783 31.6556 37.1415 28.6878 35.4328Z" fill="#646464"/>
<path d="M33.5443 45.1451C33.5443 45.5048 33.5443 45.8645 33.4544 46.2243C32.9148 46.0444 32.555 45.8645 32.555 45.8645C32.645 45.6847 32.645 45.5048 32.645 45.235C32.645 45.0552 32.645 44.7854 32.645 44.6055C32.645 41.6378 30.4867 38.0406 27.8787 36.5118C26.7096 35.8822 25.7203 35.7024 24.821 35.9722C23.7419 36.3319 23.1123 37.501 23.1123 39.1197C23.1123 39.5694 23.2023 40.0191 23.2922 40.5586L22.6627 40.1989C22.5727 39.7493 22.5728 39.2996 22.5728 38.85C22.5728 35.4326 25.0009 34.0836 27.9686 35.7923C31.1162 37.5909 33.5443 41.7277 33.5443 45.1451Z" fill="#2D2D2D"/>
<path d="M87.6822 58.365C85.1642 60.3435 81.1173 62.6817 74.7322 63.1314C73.9228 63.2213 72.7537 63.0414 71.4947 62.6817C70.2357 59.8939 67.9874 57.1959 65.7391 55.9369C64.3002 55.1275 61.1527 54.5879 60.1634 55.6671C59.444 56.5664 59.0842 57.1959 58.8145 58.6348C60.3433 54.9477 62.8613 56.2067 64.9297 57.4657C66.2787 58.1852 67.3579 59.5341 68.2572 60.973C67.6277 60.6133 68.9766 64.2105 68.9766 64.2105C68.9766 64.2105 69.1565 64.2105 69.4263 64.3005C69.5162 64.7501 69.5162 65.1098 69.5162 65.4696C69.5162 65.9192 69.6061 66.3689 69.5162 66.8185L70.4155 67.1782C70.4155 67.1782 70.6853 66.8185 71.045 66.3689C71.7645 65.3796 74.6423 65.1098 74.7322 65.1098C77.7899 64.84 83.9951 61.7824 86.1534 60.7032C90.1103 58.6348 90.3801 56.2067 90.3801 56.2067L91.0996 55.2175L91.3694 57.3758L91.2795 53.7786C91.1895 54.5879 90.56 56.1168 87.6822 58.365Z" fill="#646464"/>
<path d="M69.6963 65.7393C69.6963 66.0991 69.6963 66.4588 69.6064 66.8185C69.0668 66.6386 68.707 66.4588 68.707 66.4588C68.797 66.2789 68.797 66.0991 68.797 65.8293C68.797 65.6494 68.797 65.3796 68.797 65.1998C68.797 62.232 66.6386 58.6348 64.0306 57.106C62.8615 56.4765 61.8723 56.2966 60.973 56.5664C59.8938 56.9261 59.2643 58.0952 59.2643 59.714C59.2643 60.1636 59.3543 60.6133 59.4442 61.1529L58.8147 60.7932C58.7247 60.3435 58.7247 59.8938 58.7247 59.4442C58.7247 56.0268 61.1529 54.6779 64.1206 56.3865C67.2682 58.1852 69.6963 62.322 69.6963 65.7393Z" fill="#1F1F1F"/>
<path d="M85.3446 40.0192L81.2078 29.7671L63.2217 40.1991L67.3585 50.4512C67.7182 51.0807 72.0349 49.2821 77.071 46.4043C82.0172 43.5265 85.7044 40.7386 85.3446 40.0192Z" fill="#F3D052"/>
<path d="M64.3008 43.0767C64.3907 43.0767 64.3907 43.0767 64.4806 42.9868L64.3008 43.0767Z" fill="#829AA9"/>
<path d="M72.3942 38.4004L72.3043 38.4903L72.2144 38.5802C72.2144 38.4903 72.3043 38.4903 72.3942 38.4004Z" fill="#829AA9"/>
<path d="M79.3189 39.3896L79.8585 39.2098L80.488 38.94L80.6678 38.8501L74.4626 34.3535L74.3727 34.4434L66.7286 38.8501L66.5487 38.94L64.0306 40.3789L66.7286 48.2029L67.8077 50.0914C67.8977 50.0914 67.8977 50.0914 67.9876 50.0914C68.0775 50.0914 68.0775 50.0914 68.1675 50.0914C68.3473 50.0015 68.707 50.0015 68.9768 49.8216C69.0668 49.8216 69.1567 49.7317 69.3366 49.7317C69.5164 49.6417 69.7862 49.5518 70.056 49.4619C70.056 49.4619 70.056 49.4619 70.1459 49.4619C70.2359 49.4619 70.3258 49.3719 70.5057 49.3719C70.6855 49.282 70.8654 49.1921 71.0453 49.1022C71.0453 49.1022 71.1352 49.1022 71.1352 49.0122C71.405 48.9223 71.5848 48.8324 71.8546 48.6525C72.3043 48.4726 72.7539 48.2028 73.2935 47.9331C73.3835 47.8431 73.4734 47.8431 73.6532 47.7532L71.405 45.5049L74.8223 43.4365L75.272 43.1667L77.6102 45.5049C79.0491 44.6056 80.3081 43.8862 81.2974 43.1667L78.2397 40.0192L79.3189 39.3896Z" fill="url(#paint0_linear_3070_15508)"/>
<path d="M83.9053 37.5912L80.9376 30.3967L79.8584 31.2061L80.8476 31.7457L82.3765 37.5013V37.9509V38.2207H82.4664H82.6463L84.8046 40.379C84.8945 40.2891 84.8945 40.1992 84.9845 40.1992L83.9053 37.5912Z" fill="url(#paint1_linear_3070_15508)"/>
<path d="M83.5456 38.0408L83.006 38.2206H82.5563H82.3765H82.2865L80.6678 38.8501L80.4879 38.9401L79.8584 39.2099L79.3188 39.3897L78.1497 40.0192L76.2612 41.0984L75.8115 41.9977L75.182 43.2568L74.7324 43.5265L71.315 45.595L66.7285 48.2929L67.8077 50.1814C67.8976 50.1814 67.8976 50.1814 67.9876 50.1814C68.0775 50.1814 68.0775 50.1814 68.1674 50.1814C68.3473 50.0915 68.707 50.0915 68.9768 49.9116C69.0667 49.9116 69.1567 49.8217 69.3365 49.8217C69.5164 49.7318 69.7862 49.6418 70.056 49.5519C70.1459 49.5519 70.2358 49.462 70.4157 49.462C70.5955 49.372 70.7754 49.2821 70.9553 49.1922C70.9553 49.1922 71.0452 49.1922 71.0452 49.1023C71.315 49.0123 71.4949 48.9224 71.7646 48.7425C72.2143 48.5627 72.664 48.2929 73.2035 48.0231C73.2935 47.9332 73.3834 47.9332 73.5633 47.8432C74.5525 47.3036 75.6317 46.7641 76.8008 46.0446C77.0706 45.8647 77.3403 45.7748 77.5202 45.595C78.9591 44.6956 80.2181 43.9762 81.2074 43.2568C83.0959 41.9977 84.265 41.0085 84.6248 40.4689C84.7147 40.379 84.7147 40.289 84.8046 40.289L83.5456 38.0408Z" fill="#6F94A3"/>
<path d="M80.7576 31.8355L79.7684 31.2959L74.4625 34.3535L74.3726 34.4435L80.5778 38.94L82.1965 38.3105V38.0407V37.5911L80.7576 31.8355Z" fill="url(#paint2_linear_3070_15508)"/>
<path d="M53.9583 54.4981V43.5266L54.6777 41.9977L57.3756 37.771L65.0197 47.4835L64.3003 49.1922L64.1204 54.9478L61.7822 53.8686L57.6454 56.8363L53.9583 54.4981ZM63.8506 54.4082L64.0305 49.0123L64.66 47.4835L57.3756 38.2206L54.8576 42.0877L54.318 43.6165V54.4981L57.6454 56.4766L61.7822 53.5089L63.8506 54.4082Z" fill="#995B00"/>
<path d="M56.8363 36.6018L63.2214 40.199L67.3582 50.4511L54.0485 43.1667L56.8363 36.6018Z" fill="#C7A22A"/>
<path d="M63.0413 40.3789L61.6923 39.6594L56.836 36.8716L54.9475 43.0768L61.4225 46.674L64.3902 48.3827L64.5701 46.1344L63.0413 40.3789Z" fill="url(#paint3_linear_3070_15508)"/>
<path d="M81.2074 29.857L80.9376 29.6771L72.3942 24.731L54.3181 35.1629L63.1313 40.289C63.1313 40.289 67.448 38.0407 72.3942 35.1629C77.4303 32.2851 81.2074 29.857 81.2074 29.857Z" fill="#EAF9FF"/>
<path d="M71.4049 19.425L71.1351 19.2452L38.1305 0L20.0544 10.432L53.3288 29.7671C53.3288 29.857 71.4049 19.425 71.4049 19.425Z" fill="#FAE35A"/>
<path d="M56.117 36.1521L54.0486 43.1667L54.9479 43.0768L56.8364 36.6018L56.117 36.1521Z" fill="#C7A22A"/>
<path d="M54.4077 35.1631L51.8896 41.4582L54.048 43.1669L56.1164 36.1523L54.4077 35.1631Z" fill="#C7A22A"/>
<path d="M81.2076 30.0371L80.3983 30.4868L66.1892 38.9403L63.4014 40.6489C63.4014 40.6489 61.5128 35.0732 53.3291 29.8573L71.4052 19.4253H71.4951H71.4052C72.2146 19.6951 72.934 20.0548 73.6535 20.5045C78.15 23.3822 80.9378 29.4076 81.2076 30.0371Z" fill="#FAED76"/>
<path d="M53.3291 29.8572L54.4083 35.1631L51.8902 41.4582L15.828 21.2238L20.0547 10.4321L53.3291 29.8572Z" fill="#C7A22A"/>
<path d="M53.509 48.6525L16.8172 27.9684L16.4575 27.7886L15.9179 27.5188L15.828 27.4289V21.2236L51.7104 41.3681L53.509 48.6525Z" fill="#B37A00"/>
<path d="M54.7676 46.404L56.5662 47.3932V47.0335C56.5662 46.6738 56.6561 46.4939 56.2964 46.3141C56.2964 46.3141 55.7568 45.9544 55.2172 45.6846C54.7676 45.4148 54.7676 46.404 54.7676 46.404Z" fill="#995B00"/>
<path d="M89.9308 57.1958C89.8409 57.2858 88.5818 58.7246 85.9739 60.5233C83.9054 61.9622 76.8009 64.3903 73.2936 63.9406L69.3367 62.9514L69.6964 66.7285C69.6964 66.7285 72.6641 67.9875 73.5634 68.0774C77.4304 68.2573 83.9054 64.5701 86.3336 63.1313C89.2114 61.4226 90.8301 60.1635 91.1898 58.9944C91.5496 57.8253 91.4596 58.3649 91.4596 57.1958L91.2798 54.1382L89.9308 57.1958Z" fill="#3A3A3A"/>
<path d="M87.5026 62.3217C87.7724 62.1419 87.9522 61.8721 87.9522 61.6023V60.3433C87.9522 60.0735 87.7724 59.9835 87.5026 60.1634L84.2651 62.0519C83.9953 62.2318 83.8154 62.5016 83.8154 62.7714V64.0304C83.8154 64.3002 83.9953 64.3901 84.2651 64.2103L87.5026 62.3217Z" fill="#4B4146"/>
<path d="M87.5026 62.052C87.7724 61.8721 87.9522 61.6023 87.9522 61.3325V60.0735C87.9522 59.8037 87.7724 59.7138 87.5026 59.8936L84.2651 61.7822C83.9953 61.962 83.8154 62.2318 83.8154 62.5016V63.7606C83.8154 64.0304 83.9953 64.1204 84.2651 63.9405L87.5026 62.052Z" fill="#FFF5C7"/>
<path d="M84.2651 63.8508L87.5026 61.9622C87.6825 61.8723 87.8623 61.6025 87.8623 61.4227V60.1636C87.8623 59.9838 87.6825 59.8938 87.5026 59.9838L84.2651 61.8723C84.0853 61.9622 83.9054 62.232 83.9054 62.4119V63.6709C83.9054 63.9407 84.0853 63.9407 84.2651 63.8508Z" fill="#FFF5C7"/>
<path d="M83.9054 62.5017C83.9054 62.3218 84.0853 62.052 84.2651 61.9621L87.5026 60.0736C87.6825 59.9836 87.8623 59.9836 87.8623 60.2534L83.9054 62.5017Z" fill="#7EAEA6"/>
<path d="M87.8625 61.4226C87.8625 61.6025 87.6826 61.8723 87.5027 61.9622L84.2652 63.8507C84.0854 63.9407 83.9055 63.9407 83.9055 63.6709L87.8625 61.4226Z" fill="#7EAEA6"/>
<path d="M79.8584 64.4803V65.2896C79.8584 65.4695 79.7685 65.5594 79.6786 65.6493L78.2397 66.1889C78.1497 66.2789 77.9698 66.099 77.9698 66.0091V65.9191L79.2289 65.4695C79.4088 65.3796 79.4087 65.2896 79.4087 65.1098V64.3903L79.6786 64.3004C79.6786 64.2105 79.8584 64.3903 79.8584 64.4803Z" fill="#4B4146"/>
<path d="M79.3188 64.3901V65.1096C79.3188 65.2894 79.2288 65.3794 79.1389 65.4693L77.8799 65.919V65.1995C77.8799 65.0196 77.9698 64.9297 78.0597 64.8398L79.3188 64.3901Z" fill="#FFF2D1"/>
<path d="M90.7401 58.0055V58.725C90.7401 58.9049 90.6502 58.9948 90.6502 59.0847L89.7509 59.8042C89.661 59.8941 89.571 59.8042 89.571 59.6243V59.5344L90.2905 58.9048C90.3804 58.8149 90.3804 58.725 90.3804 58.5451V57.9156L90.5603 57.8257C90.6502 57.8257 90.7401 57.9156 90.7401 58.0055Z" fill="#4B4146"/>
<path d="M90.4703 58.0054V58.6349C90.4703 58.8148 90.3804 58.9047 90.3804 58.9946L89.6609 59.6241V58.9946C89.6609 58.8148 89.7508 58.7248 89.7508 58.6349L90.4703 58.0054Z" fill="#FFF2D1"/>
<path d="M90.9202 53.0591C90.9202 53.0591 91.3698 53.4188 91.4597 53.5987C91.7295 54.3181 89.9309 57.1959 89.9309 57.1959L89.6611 56.5664C89.6611 56.6563 91.0101 54.3181 90.9202 53.0591Z" fill="#646464"/>
<path d="M16.8172 25.0007V26.9791V27.9684V31.2958C16.7273 31.3857 16.6374 31.4757 16.5475 31.5656C16.2777 31.8354 16.0079 31.9253 15.828 31.9253V23.5618C16.0978 23.9215 16.8172 25.0906 16.8172 25.0007Z" fill="#820000"/>
<path d="M16.5476 25.0907L16.3677 26.7094L15.8281 25.1806V23.7417C16.0979 23.9216 16.5476 25.0907 16.5476 25.0907Z" fill="#B10000"/>
<path d="M16.4576 27.249V27.7885V30.1267C16.4576 30.6663 16.1878 31.116 15.8281 31.3858V28.3281L15.9181 28.4181L16.008 27.6087V27.159V27.0691L16.0979 27.159L16.4576 27.249Z" fill="#B10000"/>
<path d="M16.008 26.8893V26.9792L15.9181 27.5188V28.3282L15.8281 28.2382V26.2598L16.008 26.8893Z" fill="#EF8800"/>
<path d="M54.678 30.6662L53.329 29.8568L20.0547 10.5217L18.4359 14.5686L54.3183 35.2527L63.1315 40.3787V40.1089C62.7718 39.1197 59.7141 33.0943 54.678 30.6662Z" fill="#C7A22A"/>
<path d="M72.844 55.7571C72.6641 55.5773 72.3943 55.4873 72.1245 55.5773C71.6749 55.6672 71.8548 56.3866 71.9447 56.6564C72.1246 57.196 72.3044 57.6457 72.5742 58.1853C72.9339 58.8148 73.2937 59.5342 73.8332 59.9839C74.0131 60.1637 74.193 60.3436 74.4627 60.4335C74.7325 60.5235 75.0023 60.6134 75.2721 60.7033C75.9916 60.8832 76.5312 60.3436 77.2506 60.2537C77.6103 60.1637 77.8801 60.2537 78.2398 60.2537C78.5996 60.2537 78.8694 60.2537 79.2291 60.1637C79.4989 60.0738 80.0385 59.804 80.0385 59.4443C80.0385 59.2644 79.9485 59.0846 79.8586 58.9946C79.7687 58.8148 79.6787 58.6349 79.4989 58.4551C79.4089 58.2752 79.319 58.1853 79.2291 58.0054C78.9593 57.7356 78.4197 57.4658 77.97 57.5557C77.7902 57.6457 77.5204 57.6457 77.3405 57.7356C76.801 57.8255 76.3513 57.9155 75.8117 57.8255C75.0923 57.7356 74.7325 57.3759 74.193 56.9262C73.8332 56.6564 73.4735 56.4766 73.1138 56.2068C73.1138 56.0269 73.0239 55.8471 72.844 55.7571Z" fill="#CDDAE7"/>
<path d="M78.9592 58.8146L79.9485 59.0844C79.9485 59.0844 79.9485 58.9945 79.8585 58.9945C79.7686 58.8146 79.6787 58.6347 79.4988 58.4549C79.4089 58.275 79.319 58.1851 79.229 58.0052C78.9592 57.7354 78.4196 57.4656 77.97 57.5556C77.7901 57.6455 77.5203 57.6455 77.3405 57.7354C76.8009 57.8254 76.3512 57.9153 75.8117 57.8254C75.0922 57.7354 74.7325 57.3757 74.1929 56.9261C73.8332 56.6563 73.4735 56.4764 73.1137 56.2066C73.0238 56.1167 72.9339 56.0268 72.754 55.9368C72.5742 55.757 72.3044 55.667 72.0346 55.757C71.8547 55.757 71.8547 55.9368 71.7648 56.0268V56.2066L73.8332 58.365L75.0023 59.8938L75.8117 59.1743L76.8908 58.9045L77.7002 59.5341L78.9592 58.8146Z" fill="#ADC2D7"/>
<path d="M90.83 52.6095C90.7401 52.7894 90.6501 52.8793 90.5602 53.0592C90.4703 53.239 90.5602 53.4189 90.4703 53.5987C90.3804 53.7786 90.2005 53.8685 90.0206 53.9585C89.7508 54.1383 89.481 53.9585 89.3911 53.6887C89.3012 53.1491 89.2112 52.6994 89.3012 52.1599C89.3012 52.0699 89.3012 51.98 89.3012 51.8901C89.3911 51.2605 90.0206 50.9008 90.2005 50.3612C90.2904 49.9116 90.2005 49.6418 90.2005 49.1921C90.2005 49.0123 90.2005 48.8324 90.2904 48.7425C90.3803 48.5626 90.4703 48.7425 90.4703 48.8324C90.6501 49.2821 90.7401 49.6418 90.7401 50.0914C90.83 50.4512 90.83 50.721 90.83 51.0807C91.0998 51.5303 91.0998 52.1599 90.83 52.6095Z" fill="#CDDAE7"/>
<path d="M88.6719 52.6996C88.7619 52.6096 88.8518 52.6096 88.9417 52.6096C89.0316 52.6995 89.0316 52.6996 89.0316 52.7895C89.1216 53.6888 89.2115 54.768 88.9417 55.5773C88.7618 56.2968 88.492 57.0162 87.9525 57.5558C87.3229 58.0954 86.5136 58.635 85.7941 59.0846C84.2653 60.0739 82.4667 60.7034 82.107 60.7034C81.5674 60.7933 80.8479 60.3437 80.3083 59.1746C80.1285 58.7249 79.8587 58.0954 80.0386 57.5558C80.1285 57.1062 80.6681 57.1062 81.0278 57.0162C81.2976 56.9263 81.5674 56.8364 81.8372 56.7464C82.9163 56.2968 84.0855 55.9371 85.0747 55.3975C85.974 54.8579 86.7834 54.2284 87.6827 53.5989C87.9525 53.419 88.2223 53.1492 88.492 52.9693C88.492 52.8794 88.582 52.7895 88.6719 52.6996Z" fill="#BDBDBD"/>
<path d="M88.7615 53.9586C88.7615 54.1385 88.7615 54.3183 88.7615 54.4982C88.7615 54.8579 88.7615 55.1277 88.6716 55.3975C88.6716 55.4874 88.6716 55.4874 88.6716 55.5774C88.6716 55.7572 88.5816 55.8472 88.4917 56.027C88.3119 56.4767 88.132 56.9263 87.7723 57.2861L87.6823 57.376C87.0528 57.9156 86.3334 58.4552 85.6139 58.8149C84.0851 59.8041 82.3764 60.3437 82.1066 60.4336H82.0167C81.7469 60.4336 81.3872 60.2538 81.1174 59.8041C81.0275 59.7142 80.9375 59.6243 80.9375 59.4444C80.8476 59.3545 80.8476 59.1746 80.7577 59.0847C80.7577 58.9947 80.6677 58.9947 80.6677 58.9048C80.5778 58.8149 80.5778 58.635 80.4879 58.4552C80.398 58.1854 80.3979 57.9156 80.3979 57.7357C80.3979 57.6458 80.7577 57.5558 80.9375 57.4659H81.1174C81.3872 57.376 81.657 57.2861 81.9268 57.1961C82.1966 57.1062 82.5563 56.9263 82.8261 56.8364C83.6355 56.5666 84.4448 56.2069 85.1643 55.8472C85.9736 55.3975 86.873 54.768 87.7723 54.0486C88.0421 53.8687 88.3119 53.5989 88.5817 53.419C88.5817 53.419 88.5817 53.419 88.6716 53.3291C88.7615 53.419 88.7615 53.6888 88.7615 53.9586Z" fill="#211E1E"/>
<path d="M74.463 57.7355C74.2832 57.1959 73.204 56.0268 72.6644 56.1167C72.1248 56.1167 72.5745 57.106 72.6644 57.3758C73.1141 58.2751 73.6537 59.0844 74.2832 59.8039L74.3731 59.8938C74.463 59.8938 74.463 59.8039 74.463 59.714C74.463 59.2643 74.463 58.8146 74.463 58.365C74.463 58.0952 74.463 57.9153 74.463 57.7355Z" fill="#D47931"/>
<path d="M72.664 50.7207L72.2143 50.271C72.0345 50.0912 72.0345 49.7315 72.3043 49.6415L75.6317 48.0228C75.9015 47.9328 76.2612 47.9329 76.4411 48.2026L76.8907 48.6523C77.0706 48.8322 77.0706 49.1919 76.8008 49.2818L73.4734 50.9006C73.2036 50.9905 72.9338 50.9905 72.664 50.7207Z" fill="#646464"/>
<path d="M81.5673 45.6846L81.2975 45.3249C81.1176 45.145 81.2076 44.8753 81.3874 44.6954L83.6357 42.9867C83.9954 42.7169 84.4451 42.8068 84.7149 43.1666L84.8947 43.4364C84.9847 43.6162 84.9847 43.7961 84.8048 43.9759L82.6465 45.5947C82.2867 45.9544 81.8371 45.9544 81.5673 45.6846Z" fill="#646464"/>
<path d="M64.3006 53.8684L18.7057 27.6086L18.4359 27.6986L64.0308 54.8577L64.3006 54.6778V53.8684Z" fill="#646464"/>
<path d="M64.0308 54.0484L18.4359 27.6987V28.598L64.0308 54.8578V54.0484Z" fill="#312D22"/>
<path d="M27.6087 23.2918L27.159 24.4609L25.2705 23.3817L27.4288 17.7161L28.1483 18.1657L26.4396 22.5723L27.6087 23.2918Z" fill="#C1D6D6"/>
<path d="M31.4752 23.5614C30.8457 25.1802 29.6766 26.0795 28.8673 25.5399C27.968 25.0003 27.7881 23.3815 28.4176 21.7628C29.0471 20.144 30.1263 19.2447 31.0256 19.7843C31.835 20.3239 32.1048 21.9426 31.4752 23.5614ZM29.137 22.2124C28.7773 23.2017 28.8673 24.101 29.3169 24.3708C29.7666 24.6406 30.3961 24.101 30.7558 23.1117C31.1155 22.1225 31.0256 21.2232 30.5759 20.9534C30.1263 20.7735 29.4968 21.3131 29.137 22.2124Z" fill="#C1D6D6"/>
<path d="M34.2634 25.1803L33.454 27.3386C33.0043 27.6084 32.3748 27.6084 32.0151 27.4286C31.1158 26.889 30.9359 25.2702 31.5654 23.6515C32.1949 22.0327 33.364 21.1334 34.2634 21.673C34.713 21.9428 34.9828 22.4824 35.0727 23.2018L34.2634 23.9213C34.1734 23.3817 33.9936 23.0219 33.7238 22.8421C33.2741 22.5723 32.6446 23.1119 32.2849 24.0112C31.9251 25.0004 32.0151 25.8997 32.4647 26.1695C32.6446 26.2595 32.8244 26.2595 33.0942 26.1695L33.6338 24.7306L34.2634 25.1803Z" fill="#C1D6D6"/>
<path d="M33.7241 28.328L35.8825 22.6624L36.6019 23.112L34.4436 28.7776L33.7241 28.328Z" fill="#C1D6D6"/>
<path d="M39.1202 25.3601L38.4008 26.3493C38.2209 25.8097 37.9511 25.3601 37.6813 25.2701C37.5015 25.1802 37.3216 25.2701 37.2317 25.5399C36.8719 26.5292 38.5806 26.799 37.7713 28.8674C37.3216 30.0365 36.6022 30.3063 35.9726 29.9465C35.523 29.6767 35.1633 29.0472 34.9834 28.3278L35.7028 27.4285C35.7928 28.1479 36.1525 28.6875 36.4223 28.8674C36.6921 28.9573 36.872 28.9573 36.9619 28.5976C37.3216 27.6083 35.6129 27.3385 36.4223 25.3601C36.782 24.2809 37.5015 23.9212 38.2209 24.2809C38.6706 24.2809 38.9404 24.7305 39.1202 25.3601Z" fill="#C1D6D6"/>
<path d="M40.6487 26.889L38.94 31.3855L38.2206 30.9358L39.9293 26.4393L39.1199 25.9897L39.5695 24.8206L41.9977 26.2595L41.548 27.4285L40.6487 26.889Z" fill="#C1D6D6"/>
<path d="M40.019 32.1051L42.1774 26.4395L42.8968 26.8891L40.7385 32.5547L40.019 32.1051Z" fill="#C1D6D6"/>
<path d="M45.5949 29.497L44.7855 30.2165C44.7855 29.6769 44.6056 29.2272 44.3359 29.0474C43.8862 28.7776 43.2567 29.3172 42.897 30.2165C42.5372 31.1158 42.6272 32.105 43.0768 32.3748C43.3466 32.5547 43.7063 32.3748 44.0661 32.105L44.156 33.2741C43.6164 33.7238 42.9869 33.9036 42.6272 33.6338C41.7279 33.0942 41.6379 31.4755 42.2675 29.8567C42.897 28.238 43.9761 27.4286 44.8754 27.8783C45.2352 28.1481 45.5949 28.7776 45.5949 29.497Z" fill="#C1D6D6"/>
<path d="M48.2928 30.6662L47.5734 31.6555C47.3935 31.1159 47.1237 30.6662 46.8539 30.5763C46.6741 30.4864 46.4942 30.4864 46.4043 30.8461C46.0446 31.8353 47.7532 32.1051 46.9438 34.1735C46.4942 35.3426 45.7747 35.6124 45.1452 35.2527C44.6956 34.9829 44.3359 34.3534 44.156 33.6339L44.8754 32.7346C44.9654 33.4541 45.3251 33.9937 45.5949 34.1735C45.8647 34.2634 46.0445 34.2634 46.1345 33.9037C46.4942 32.9145 44.7855 32.6447 45.5949 30.6662C45.9546 29.587 46.674 29.2273 47.3935 29.587C47.8431 29.587 48.1129 30.1266 48.2928 30.6662Z" fill="#C1D6D6"/>
<path d="M77.7001 59.1745C77.7001 58.8148 77.9699 58.2752 78.3296 58.0953L78.6893 58.0054C78.8692 58.0054 78.9591 58.1852 78.9591 58.455C78.9591 58.8147 78.6893 59.3543 78.3296 59.5342C78.0598 59.7141 77.79 59.5342 77.7001 59.1745Z" fill="#DCE4E8"/>
<path d="M75.0922 59.5343C75.0922 59.0847 75.4519 58.4552 75.8116 58.1854L76.2613 58.0955C76.4411 58.1854 76.621 58.3652 76.621 58.635C76.621 59.0847 76.2613 59.7142 75.9015 59.984C75.4519 60.1639 75.0922 59.984 75.0922 59.5343Z" fill="#DCE4E8"/>
<path d="M90.9195 50.1814C90.8295 50.2713 90.7396 50.2713 90.6496 50.2713C90.5597 50.3612 90.4698 50.5411 90.4698 50.631C90.3799 50.8109 90.2899 50.9008 90.2899 51.0807L90.3799 51.5303L89.8403 52.6095C89.8403 52.6994 89.4806 52.3397 89.4806 52.2498L89.3906 52.1598C89.3906 52.0699 89.3906 51.98 89.3906 51.8901C89.4806 51.2605 90.1101 50.9008 90.2899 50.3612C90.3799 50.0015 90.2899 49.6418 90.2899 49.2821C90.2899 49.0123 90.2899 48.8324 90.2899 48.5626C90.2899 48.3828 90.2899 48.2029 90.2899 47.9331L90.3799 48.113C90.3799 48.2029 90.4698 48.2928 90.4698 48.3828C90.5597 48.5626 90.6496 48.7425 90.6496 49.0123C90.7396 49.1921 90.7396 49.372 90.8295 49.5519C90.8295 49.7317 90.9195 50.0015 90.9195 50.1814Z" fill="#A3BED6"/>
<path d="M90.3806 51.7103C90.3806 51.98 90.2007 52.3398 90.0209 52.5196C89.841 52.6995 89.6611 52.5196 89.6611 52.2498C89.6611 51.98 89.841 51.6203 90.0209 51.4405C90.2007 51.3505 90.3806 51.4405 90.3806 51.7103Z" fill="#DCE4E8"/>
<path d="M90.9201 50.3612C90.9201 50.631 90.7403 50.9907 90.5604 51.1706C90.3805 51.3505 90.2007 51.1706 90.2007 50.9008C90.2007 50.631 90.3805 50.2713 90.5604 50.0914C90.8302 49.9116 90.9201 50.0914 90.9201 50.3612Z" fill="#DCE4E8"/>
<path d="M88.6716 53.8683C88.4018 54.1381 88.132 54.318 87.8622 54.5878C87.0528 55.3072 86.1535 55.9367 85.2542 56.4763C84.265 57.1058 83.0959 57.5555 81.9268 58.0051C81.657 58.0951 81.3872 58.2749 81.1174 58.3649C80.8476 58.4548 80.5778 58.5447 80.3979 58.7246C80.4879 58.9045 80.4879 58.9944 80.5778 59.1743C80.5778 59.1743 80.5778 59.1743 80.5778 59.0843C80.5778 58.9944 80.9375 58.9045 81.1174 58.8145L81.2973 58.7246C81.567 58.6347 81.8368 58.5447 82.1066 58.3649C82.3764 58.185 82.7361 58.0951 83.0059 58.0051C83.8153 57.6454 84.6247 57.2857 85.4341 56.8361C86.2435 56.2965 87.1428 55.6669 88.0421 54.8576C88.3119 54.6777 88.4917 54.4979 88.7615 54.2281C88.7615 54.0482 88.7615 53.8683 88.7615 53.6885C88.7615 53.7784 88.7615 53.8683 88.6716 53.8683Z" fill="#BDBDBD"/>
<path d="M88.222 55.667C87.4126 56.3865 86.5133 57.016 85.614 57.5556C84.6247 58.1851 83.4557 58.6347 82.2866 59.0844C82.0168 59.1743 81.747 59.3542 81.4772 59.4441C81.2973 59.5341 81.0275 59.534 80.8477 59.7139C80.9376 59.8038 80.9376 59.8938 81.0275 59.9837C81.1175 59.8938 81.2973 59.8938 81.3872 59.8038H81.5671C81.8369 59.7139 82.1067 59.624 82.3765 59.4441C82.6463 59.2643 83.006 59.1743 83.2758 59.0844C84.0852 58.7247 84.8945 58.3649 85.7039 57.9153C86.5133 57.3757 87.4126 56.7462 88.3119 55.9368C88.4018 55.9368 89.0313 55.5771 88.7615 55.667C88.8515 55.4872 88.5817 55.4872 88.6716 55.3073C88.6716 55.2174 88.6716 55.2174 88.6716 55.1274C88.5817 55.3972 88.4018 55.4872 88.222 55.667Z" fill="#BDBDBD"/>
<path d="M66.1892 38.9399L63.4014 40.6486C63.4014 40.6486 61.5128 35.0729 53.3291 29.8569C53.3291 29.8569 61.243 30.3965 65.8295 38.2205C65.9194 38.4903 66.0993 38.7601 66.1892 38.9399Z" fill="#F1C435"/>
<path d="M81.2076 30.037L80.3982 30.4866C80.3083 30.4866 80.2184 30.4866 80.0385 30.5766C80.0385 30.5766 77.6104 23.6519 73.5635 20.5942C78.1499 23.3821 80.9378 29.4075 81.2076 30.037Z" fill="#F1C435"/>
<path d="M84.7148 57.8255C84.7148 57.196 85.1645 56.4765 85.7041 56.1168L86.2437 56.0269C86.5135 56.1168 86.6933 56.2966 86.6933 56.6564C86.6933 57.2859 86.2437 58.0053 85.7041 58.3651C85.1645 58.6348 84.7148 58.455 84.7148 57.8255Z" fill="#DCE4E8"/>
<path d="M6.65487 42.1775L0 46.0445L8.36355 50.8108L15.0184 46.9438L6.65487 42.1775Z" fill="#D4D4D4"/>
<path d="M13.3997 53.7787L5.03613 49.0124V40.0193L13.3997 44.7856V53.7787Z" fill="#BF9245"/>
<path d="M20.0545 40.9187L13.3997 44.7857V53.7788L20.0545 50.0017V40.9187Z" fill="#CFA658"/>
<path d="M16.2775 44.3359L14.2091 45.505V48.203L16.2775 47.0339V44.3359Z" stroke="#A05E00" stroke-width="0.1365" stroke-miterlimit="10"/>
<path d="M15.5581 45.8645V47.2135L14.9286 47.5732V46.2243L14.5688 46.4041L15.2883 45.0552L15.9178 45.6847L15.5581 45.8645Z" fill="#A05E00"/>
<path d="M20.0546 40.9184L13.3997 44.7854L9.53267 42.5372L8.27364 41.8177L5.03613 40.0191L11.691 36.1521L14.8386 37.9507L16.1876 38.6702L20.0546 40.9184Z" fill="#EDCE7D"/>
<path d="M9.53271 42.5371L8.27368 41.8177L14.8386 37.9507L16.1876 38.6701L9.53271 42.5371Z" fill="#FEE9AB"/>
<path d="M8.09391 49.9115L5.66577 48.5625V46.4941L8.09391 47.8431V49.9115Z" fill="#ABABAB"/>
<path d="M7.91385 49.6418L5.84546 48.4727V48.3828L7.91385 49.5519V49.6418Z" fill="#595959"/>
<path d="M7.91385 49.3721L5.84546 48.203V48.113L7.91385 49.2821V49.3721Z" fill="#595959"/>
<path d="M7.91385 49.192L5.84546 47.9329V47.843L7.91385 49.0121V49.192Z" fill="#595959"/>
<path d="M7.91385 48.9222L5.84546 47.6632V47.5732L7.91385 48.8323V48.9222Z" fill="#595959"/>
<path d="M7.91385 48.3826L5.84546 47.2135V46.8538L7.91385 48.1128V48.3826Z" fill="#595959"/>
<path d="M8.27368 41.8179V44.8755L8.45354 44.1561L8.81326 45.1453L9.17299 44.5158L9.44278 45.505L9.53271 42.5373L8.27368 41.8179Z" fill="#DBC68A"/>
<path d="M17.8063 43.5264L17.1768 43.8861V44.6955L17.8063 44.3357V43.5264Z" fill="#A05E00"/>
<path d="M18.6158 43.0767L17.9863 43.4364V44.2458L18.6158 43.886V43.0767Z" fill="#A05E00"/>
<path d="M19.515 42.627L18.8855 42.8967V43.7961L19.515 43.4363V42.627Z" fill="#A05E00"/>
<path d="M11.0614 37.0518L7.2843 39.2101L11.9607 41.908L15.7378 39.7497L11.0614 37.0518Z" fill="#E6DACA"/>
<path d="M14.8383 43.5267L10.1619 40.8288V38.1309L14.8383 40.8288V43.5267Z" fill="#BF9245"/>
<path d="M18.6153 38.6704L14.8383 40.8287V43.5267L18.6153 41.3683V38.6704Z" fill="#CFA658"/>
<path d="M18.6154 38.6706L14.8383 40.8289L12.6799 39.5699L11.9605 39.1202L10.1619 38.131L13.849 35.9727L15.6476 36.9619L16.3671 37.4115L18.6154 38.6706Z" fill="#EDCE7D"/>
<path d="M12.6801 39.5697L11.9607 39.12L15.6479 36.9617L16.3673 37.4113L12.6801 39.5697Z" fill="#FEE9AB"/>
<path d="M11.9607 39.1199V40.8286L12.0506 40.4688L12.2305 41.0084L12.4103 40.6487L12.5902 41.1883L12.6801 39.5695L11.9607 39.1199Z" fill="#DBC68A"/>
<path d="M17.2666 40.1094L16.9968 40.2892V40.7389L17.2666 40.559V40.1094Z" fill="#A05E00"/>
<path d="M17.8063 39.8394L17.4465 40.0192V40.4689L17.8063 40.289V39.8394Z" fill="#A05E00"/>
<path d="M18.2558 39.5696L17.8961 39.7494V40.1991L18.2558 40.0192V39.5696Z" fill="#A05E00"/>
<path d="M14.7485 36.6918L13.6694 37.3214L12.86 36.8717L13.9392 36.2422L14.7485 36.6918Z" fill="#EBEBEB"/>
<path d="M14.5685 36.6917L13.6692 37.2313H13.5792L14.5685 36.6018V36.6917Z" fill="#BFBFBF"/>
<path d="M14.4787 36.6018L13.5794 37.1414H13.4895L14.4787 36.6018Z" fill="#BFBFBF"/>
<path d="M14.3889 36.512L13.4896 37.1415L13.3997 37.0515L14.3889 36.512Z" fill="#BFBFBF"/>
<path d="M14.2989 36.5118L13.3097 37.0514L14.2989 36.4219V36.5118Z" fill="#BFBFBF"/>
<path d="M14.1193 36.422L13.1301 36.9615L13.0402 36.8716L14.0294 36.332L14.1193 36.422Z" fill="#BFBFBF"/>
<path d="M15.9177 40.6489L15.1982 41.0986V42.1777L15.9177 41.7281V40.6489Z" stroke="#A05E00" stroke-width="0.050295" stroke-miterlimit="10"/>
<path d="M15.6478 41.2784V41.7281L15.4679 41.9079V41.3684L15.2881 41.4583L15.5579 40.9187L15.7377 41.1885L15.6478 41.2784Z" fill="#A05E00"/>
<path d="M64.7501 47.4834C64.6601 46.7639 64.84 45.6848 64.2105 45.1452C64.0306 44.9653 63.8508 45.0553 63.581 44.9653C63.3112 44.9653 63.0414 44.9653 62.8615 44.9653C62.5917 44.9653 62.3219 45.0553 62.0522 45.3251C61.6025 45.6848 61.7823 46.5841 61.7823 47.1237C61.8723 47.7532 61.9622 48.4726 62.0522 49.1022C62.0522 49.4619 62.1421 49.8216 62.232 50.0914C62.4119 50.631 63.0414 50.7209 63.581 50.7209C63.8508 50.7209 64.1206 50.7209 64.3904 50.4511C64.5702 50.2713 64.5702 50.0914 64.5702 49.9115C64.5702 49.6417 64.5702 49.3719 64.5702 49.1022C64.5702 49.0122 64.5702 48.9223 64.5702 48.9223C64.5702 48.9223 64.5702 48.9223 64.5702 48.8324H64.6601C64.9299 48.8324 65.1098 49.0122 65.2897 49.1022C65.4695 49.1921 65.7393 49.3719 65.9192 49.282H66.0091V49.1921C66.099 48.6525 66.0091 48.2028 65.6494 47.7532C65.3796 47.4834 65.1098 47.4834 64.7501 47.4834C64.84 47.5733 64.84 47.5733 64.7501 47.4834C64.7501 47.5733 64.7501 47.5733 64.7501 47.4834Z" fill="#646464"/>
<defs>
<linearGradient id="paint0_linear_3070_15508" x1="76.2839" y1="47.9459" x2="69.2152" y2="36.4502" gradientUnits="userSpaceOnUse">
<stop offset="0.0837438" stop-color="#597E90"/>
<stop offset="0.4241" stop-color="#4D6976"/>
<stop offset="0.9409" stop-color="#3C4B52"/>
</linearGradient>
<linearGradient id="paint1_linear_3070_15508" x1="83.5221" y1="43.1747" x2="81.1878" y2="28.6801" gradientUnits="userSpaceOnUse">
<stop offset="0.0837438" stop-color="#597E90"/>
<stop offset="0.4241" stop-color="#4D6976"/>
<stop offset="0.9409" stop-color="#3C4B52"/>
</linearGradient>
<linearGradient id="paint2_linear_3070_15508" x1="77.368" y1="39.3827" x2="80.4204" y2="29.5292" gradientUnits="userSpaceOnUse">
<stop stop-color="#92C6B9"/>
<stop offset="0.9409" stop-color="#6F797B"/>
</linearGradient>
<linearGradient id="paint3_linear_3070_15508" x1="56.6998" y1="52.9485" x2="64.0898" y2="33.4917" gradientUnits="userSpaceOnUse">
<stop offset="0.0837438" stop-color="#305F76"/>
<stop offset="0.4391" stop-color="#29485A"/>
<stop offset="0.9409" stop-color="#1F2B36"/>
</linearGradient>
</defs>
</svg>
