<svg width="130" height="220" viewBox="0 0 130 220" fill="none" xmlns="http://www.w3.org/2000/svg">
<circle cx="125" cy="215" r="4" transform="rotate(180 125 215)" stroke="#E8112B" stroke-width="2"/>
<circle cx="95.0003" cy="215" r="4" transform="rotate(180 95.0003 215)" stroke="#E8112B" stroke-width="2"/>
<circle cx="65.0002" cy="215" r="4" transform="rotate(180 65.0002 215)" stroke="#E8112B" stroke-width="2"/>
<circle cx="35.0002" cy="215" r="4" transform="rotate(180 35.0002 215)" stroke="#E8112B" stroke-width="2"/>
<circle cx="5.00009" cy="215" r="4" transform="rotate(180 5.00009 215)" stroke="#E8112B" stroke-width="2"/>
<circle cx="125" cy="185" r="4" transform="rotate(180 125 185)" stroke="#E8112B" stroke-width="2"/>
<circle cx="95.0003" cy="185" r="4" transform="rotate(180 95.0003 185)" stroke="#E8112B" stroke-width="2"/>
<circle cx="65.0002" cy="185" r="4" transform="rotate(180 65.0002 185)" stroke="#E8112B" stroke-width="2"/>
<circle cx="35.0001" cy="185" r="4" transform="rotate(180 35.0001 185)" stroke="#E8112B" stroke-width="2"/>
<circle cx="5.00009" cy="185" r="4" transform="rotate(180 5.00009 185)" stroke="#E8112B" stroke-width="2"/>
<circle cx="125" cy="155" r="4" transform="rotate(180 125 155)" stroke="#E8112B" stroke-width="2"/>
<circle cx="95.0003" cy="155" r="4" transform="rotate(180 95.0003 155)" stroke="#E8112B" stroke-width="2"/>
<circle cx="65.0002" cy="155" r="4" transform="rotate(180 65.0002 155)" stroke="#E8112B" stroke-width="2"/>
<circle cx="35.0002" cy="155" r="4" transform="rotate(180 35.0002 155)" stroke="#E8112B" stroke-width="2"/>
<circle cx="5.00009" cy="155" r="4" transform="rotate(180 5.00009 155)" stroke="#E8112B" stroke-width="2"/>
<circle cx="125" cy="125" r="4" transform="rotate(180 125 125)" stroke="#E8112B" stroke-width="2"/>
<circle cx="95.0003" cy="125" r="4" transform="rotate(180 95.0003 125)" stroke="#E8112B" stroke-width="2"/>
<circle cx="65.0002" cy="125" r="4" transform="rotate(180 65.0002 125)" stroke="#E8112B" stroke-width="2"/>
<circle cx="35.0002" cy="125" r="4" transform="rotate(180 35.0002 125)" stroke="#E8112B" stroke-width="2"/>
<circle cx="5.00009" cy="125" r="4" transform="rotate(180 5.00009 125)" stroke="#E8112B" stroke-width="2"/>
<circle cx="125" cy="95" r="4" transform="rotate(180 125 95)" stroke="#E8112B" stroke-width="2"/>
<circle cx="125" cy="65" r="4" transform="rotate(180 125 65)" stroke="#E8112B" stroke-width="2"/>
<circle cx="125" cy="35" r="4" transform="rotate(180 125 35)" stroke="#E8112B" stroke-width="2"/>
<circle cx="125" cy="5" r="4" transform="rotate(180 125 5)" stroke="#E8112B" stroke-width="2"/>
<circle cx="95.0003" cy="95" r="4" transform="rotate(180 95.0003 95)" stroke="#E8112B" stroke-width="2"/>
<circle cx="95.0003" cy="65" r="4" transform="rotate(180 95.0003 65)" stroke="#E8112B" stroke-width="2"/>
<circle cx="95.0003" cy="35" r="4" transform="rotate(180 95.0003 35)" stroke="#E8112B" stroke-width="2"/>
<circle cx="95.0002" cy="5" r="4" transform="rotate(180 95.0002 5)" stroke="#E8112B" stroke-width="2"/>
<circle cx="65.0002" cy="95" r="4" transform="rotate(180 65.0002 95)" stroke="#E8112B" stroke-width="2"/>
<circle cx="65.0002" cy="65" r="4" transform="rotate(180 65.0002 65)" stroke="#E8112B" stroke-width="2"/>
<circle cx="65.0002" cy="35" r="4" transform="rotate(180 65.0002 35)" stroke="#E8112B" stroke-width="2"/>
<circle cx="65.0002" cy="5" r="4" transform="rotate(180 65.0002 5)" stroke="#E8112B" stroke-width="2"/>
<circle cx="35.0002" cy="95" r="4" transform="rotate(180 35.0002 95)" stroke="#E8112B" stroke-width="2"/>
<circle cx="35.0002" cy="65" r="4" transform="rotate(180 35.0002 65)" stroke="#E8112B" stroke-width="2"/>
<circle cx="35.0002" cy="35" r="4" transform="rotate(180 35.0002 35)" stroke="#E8112B" stroke-width="2"/>
<circle cx="35.0001" cy="5" r="4" transform="rotate(180 35.0001 5)" stroke="#E8112B" stroke-width="2"/>
<circle cx="5.00009" cy="95" r="4" transform="rotate(180 5.00009 95)" stroke="#E8112B" stroke-width="2"/>
<circle cx="5.00012" cy="65" r="4" transform="rotate(180 5.00012 65)" stroke="#E8112B" stroke-width="2"/>
<circle cx="5.00009" cy="35" r="4" transform="rotate(180 5.00009 35)" stroke="#E8112B" stroke-width="2"/>
<circle cx="5.00003" cy="5" r="4" transform="rotate(180 5.00003 5)" stroke="#E8112B" stroke-width="2"/>
</svg>
