<svg width="41" height="44" viewBox="0 0 41 44" fill="none" xmlns="http://www.w3.org/2000/svg">
<path fill-rule="evenodd" clip-rule="evenodd" d="M13.4051 40.9624C9.57947 39.8889 5.5742 39.3473 1.68884 38.8512C0.851994 38.7472 0.0750381 39.3276 0.0152633 40.1453C-0.104286 40.9636 0.493812 41.712 1.27088 41.816C5.0367 42.2936 8.92171 42.8047 12.568 43.8382C13.345 44.0623 14.1822 43.6009 14.4213 42.8071C14.6604 42.0139 14.1821 41.1872 13.4051 40.9624Z" fill="#E8112B"/>
<path fill-rule="evenodd" clip-rule="evenodd" d="M25.001 25.7419C18.8442 19.4589 11.9103 13.9847 5.87307 7.53325C5.33509 6.93072 4.3787 6.89844 3.78095 7.46092C3.1832 8.024 3.12366 8.97083 3.72141 9.57336C9.75866 16.0434 16.6925 21.5355 22.8493 27.837C23.4471 28.4251 24.4033 28.4335 25.001 27.8549C25.539 27.2769 25.5988 26.33 25.001 25.7419Z" fill="#F7C600"/>
<path fill-rule="evenodd" clip-rule="evenodd" d="M36.5384 1.57552C36.7178 5.17157 36.8967 8.76762 37.0761 12.3643C37.0761 13.188 37.7937 13.824 38.6306 13.7839C39.4674 13.7433 40.0648 13.0421 40.0648 12.2178C39.8855 8.6158 39.7065 5.01436 39.5272 1.41293C39.4674 0.589235 38.75 -0.0425855 37.9132 0.00224564C37.1361 0.0470767 36.4787 0.752422 36.5384 1.57552Z" fill="#E8112B"/>
</svg>
