<svg width="759" height="687" viewBox="0 0 759 687" fill="none" xmlns="http://www.w3.org/2000/svg">
<g opacity="0.05">
<path d="M7.09363 777.319L0 770.226L390.344 379.882L397.438 386.975L7.09363 777.319Z" fill="#E8112B"/>
<path d="M21.2809 791.511L14.1873 784.417L404.531 394.073L411.625 401.167L21.2809 791.511Z" fill="#E8112B"/>
<path d="M35.4708 805.702L28.3772 798.608L418.721 408.265L425.815 415.358L35.4708 805.702Z" fill="#E8112B"/>
<path d="M49.6605 819.889L42.5669 812.795L432.911 422.451L440.004 429.545L49.6605 819.889Z" fill="#E8112B"/>
<path d="M63.8512 834.077L56.7576 826.983L447.101 436.64L454.195 443.733L63.8512 834.077Z" fill="#E8112B"/>
<path d="M673.92 422.667L666.826 415.573L1082.4 0.000362431L1089.49 7.094L673.92 422.667Z" fill="#E8112B"/>
<path d="M688.107 436.851L681.013 429.758L1096.59 14.1849L1103.68 21.2785L688.107 436.851Z" fill="#E8112B"/>
<path d="M702.297 451.042L695.203 443.948L1110.78 28.3754L1117.87 35.469L702.297 451.042Z" fill="#E8112B"/>
<path d="M716.487 465.23L709.394 458.137L1124.97 42.5638L1132.06 49.6574L716.487 465.23Z" fill="#E8112B"/>
<path d="M730.677 479.422L723.584 472.328L1139.16 56.7552L1146.25 63.8489L730.677 479.422Z" fill="#E8112B"/>
<path d="M390.344 379.881L397.437 386.977L673.92 422.667L666.827 415.57L390.344 379.881Z" fill="#E8112B"/>
<path d="M404.533 394.069L411.626 401.165L688.109 436.855L681.016 429.759L404.533 394.069Z" fill="#E8112B"/>
<path d="M418.722 408.262L425.818 415.354L702.301 451.044L695.205 443.951L418.722 408.262Z" fill="#E8112B"/>
<path d="M432.91 422.45L440.006 429.546L716.489 465.232L709.393 458.14L432.91 422.45Z" fill="#E8112B"/>
<path d="M447.103 436.639L454.195 443.735L730.678 479.424L723.585 472.328L447.103 436.639Z" fill="#E8112B"/>
<path d="M204.671 726.434L198.104 719.866L856.543 61.4268L863.111 67.9941L204.671 726.434Z" fill="#E8112B"/>
<path d="M217.806 739.565L211.239 732.998L869.678 74.5586L876.245 81.126L217.806 739.565Z" fill="#E8112B"/>
<path d="M230.938 752.704L224.371 746.137L882.811 87.6973L889.378 94.2646L230.938 752.704Z" fill="#E8112B"/>
<path d="M244.073 765.834L237.506 759.267L895.945 100.827L902.513 107.395L244.073 765.834Z" fill="#E8112B"/>
<path d="M257.208 778.969L250.641 772.401L909.08 113.962L915.648 120.529L257.208 778.969Z" fill="#E8112B"/>
<path d="M270.341 792.104L263.773 785.537L922.213 127.098L928.78 133.665L270.341 792.104Z" fill="#E8112B"/>
</g>
</svg>
