<svg width="630" height="790" viewBox="0 0 630 790" fill="none" xmlns="http://www.w3.org/2000/svg">
<path d="M-243.839 74.8145L-237.391 67.1296L185.488 421.967L179.04 429.652L-243.839 74.8145Z" fill="#E8112B"/>
<path d="M-256.741 90.1847L-250.292 82.4998L172.587 437.338L166.138 445.023L-256.741 90.1847Z" fill="#E8112B"/>
<path d="M-269.641 105.557L-263.193 97.8725L159.686 452.71L153.238 460.395L-269.641 105.557Z" fill="#E8112B"/>
<path d="M-282.537 120.93L-276.089 113.245L146.791 468.082L140.342 475.767L-282.537 120.93Z" fill="#E8112B"/>
<path d="M-295.435 136.303L-288.987 128.618L133.893 483.456L127.444 491.141L-295.435 136.303Z" fill="#E8112B"/>
<path d="M167.581 708.193L174.03 700.508L624.241 1078.28L617.792 1085.97L167.581 708.193Z" fill="#E8112B"/>
<path d="M154.687 723.563L161.135 715.878L611.346 1093.65L604.898 1101.33L154.687 723.563Z" fill="#E8112B"/>
<path d="M141.787 738.935L148.236 731.25L598.447 1109.02L591.999 1116.71L141.787 738.935Z" fill="#E8112B"/>
<path d="M128.89 754.309L135.338 746.624L585.549 1124.4L579.101 1132.08L128.89 754.309Z" fill="#E8112B"/>
<path d="M115.989 769.681L122.438 761.996L572.649 1139.77L566.2 1147.45L115.989 769.681Z" fill="#E8112B"/>
<path d="M185.489 421.968L179.038 429.652L167.581 708.193L174.032 700.509L185.489 421.968Z" fill="#E8112B"/>
<path d="M172.591 437.339L166.14 445.023L154.683 723.565L161.134 715.88L172.591 437.339Z" fill="#E8112B"/>
<path d="M159.689 452.711L153.242 460.398L141.786 738.939L148.233 731.252L159.689 452.711Z" fill="#E8112B"/>
<path d="M146.792 468.082L140.341 475.77L128.888 754.311L135.335 746.623L146.792 468.082Z" fill="#E8112B"/>
<path d="M133.894 483.457L127.443 491.141L115.986 769.682L122.437 761.998L133.894 483.457Z" fill="#E8112B"/>
<path d="M-175.927 267.205L-169.957 260.09L543.363 858.637L537.393 865.752L-175.927 267.205Z" fill="#E8112B"/>
<path d="M-187.864 281.435L-181.894 274.32L531.427 872.867L525.457 879.982L-187.864 281.435Z" fill="#E8112B"/>
<path d="M-199.809 295.662L-193.839 288.547L519.482 887.094L513.512 894.209L-199.809 295.662Z" fill="#E8112B"/>
<path d="M-211.744 309.891L-205.774 302.777L507.547 901.324L501.577 908.439L-211.744 309.891Z" fill="#E8112B"/>
<path d="M-223.684 324.121L-217.714 317.006L495.607 915.553L489.637 922.668L-223.684 324.121Z" fill="#E8112B"/>
<path d="M-235.625 338.348L-229.655 331.234L483.666 929.781L477.696 936.896L-235.625 338.348Z" fill="#E8112B"/>
</svg>
