<svg width="837" height="663" viewBox="0 0 837 663" fill="none" xmlns="http://www.w3.org/2000/svg">
<g opacity="0.05">
<path d="M-302.906 605.319L-310 598.226L80.3439 207.882L87.4375 214.975L-302.906 605.319Z" fill="#E8112B"/>
<path d="M-288.719 619.511L-295.813 612.417L94.5311 222.073L101.625 229.167L-288.719 619.511Z" fill="#E8112B"/>
<path d="M-274.529 633.702L-281.623 626.608L108.721 236.265L115.815 243.358L-274.529 633.702Z" fill="#E8112B"/>
<path d="M-260.339 647.889L-267.433 640.795L122.911 250.451L130.004 257.545L-260.339 647.889Z" fill="#E8112B"/>
<path d="M-246.149 662.077L-253.242 654.983L137.102 264.64L144.195 271.733L-246.149 662.077Z" fill="#E8112B"/>
<path d="M363.92 250.667L356.826 243.573L772.399 -172L779.493 -164.906L363.92 250.667Z" fill="#E8112B"/>
<path d="M378.107 264.851L371.013 257.758L786.586 -157.815L793.68 -150.721L378.107 264.851Z" fill="#E8112B"/>
<path d="M392.297 279.042L385.203 271.948L800.776 -143.625L807.87 -136.531L392.297 279.042Z" fill="#E8112B"/>
<path d="M406.487 293.23L399.394 286.137L814.967 -129.436L822.06 -122.343L406.487 293.23Z" fill="#E8112B"/>
<path d="M420.677 307.422L413.584 300.328L829.157 -115.245L836.25 -108.151L420.677 307.422Z" fill="#E8112B"/>
<path d="M80.3442 207.881L87.4369 214.977L363.92 250.667L356.827 243.57L80.3442 207.881Z" fill="#E8112B"/>
<path d="M94.533 222.069L101.626 229.165L378.109 264.855L371.016 257.759L94.533 222.069Z" fill="#E8112B"/>
<path d="M108.722 236.262L115.818 243.354L392.301 279.044L385.205 271.951L108.722 236.262Z" fill="#E8112B"/>
<path d="M122.91 250.45L130.006 257.546L406.489 293.232L399.393 286.14L122.91 250.45Z" fill="#E8112B"/>
<path d="M137.103 264.639L144.195 271.735L420.678 307.424L413.585 300.328L137.103 264.639Z" fill="#E8112B"/>
<path d="M-105.329 554.434L-111.896 547.866L546.543 -110.573L553.11 -104.006L-105.329 554.434Z" fill="#E8112B"/>
<path d="M-92.1941 567.565L-98.7615 560.998L559.678 -97.4414L566.245 -90.874L-92.1941 567.565Z" fill="#E8112B"/>
<path d="M-79.0617 580.704L-85.629 574.137L572.81 -84.3027L579.378 -77.7354L-79.0617 580.704Z" fill="#E8112B"/>
<path d="M-65.9268 593.834L-72.4941 587.267L585.945 -71.1728L592.513 -64.6055L-65.9268 593.834Z" fill="#E8112B"/>
<path d="M-52.792 606.969L-59.3594 600.401L599.08 -58.0381L605.648 -51.4707L-52.792 606.969Z" fill="#E8112B"/>
<path d="M-39.6594 620.104L-46.2268 613.537L612.213 -44.9023L618.78 -38.335L-39.6594 620.104Z" fill="#E8112B"/>
</g>
</svg>
