<svg width="480" height="600" viewBox="0 0 480 600" fill="none" xmlns="http://www.w3.org/2000/svg">
<g opacity="0.1">
<path d="M-335.906 561.319L-343 554.226L47.3439 163.882L54.4375 170.975L-335.906 561.319Z" fill="white"/>
<path d="M-321.719 575.511L-328.813 568.417L61.5311 178.074L68.6248 185.167L-321.719 575.511Z" fill="white"/>
<path d="M-307.529 589.703L-314.623 582.609L75.7211 192.265L82.8147 199.359L-307.529 589.703Z" fill="white"/>
<path d="M-293.339 603.889L-300.433 596.795L89.9108 206.451L97.0044 213.545L-293.339 603.889Z" fill="white"/>
<path d="M-279.149 618.078L-286.242 610.984L104.101 220.64L111.195 227.734L-279.149 618.078Z" fill="white"/>
<path d="M330.92 206.666L323.826 199.573L739.399 -216L746.493 -208.906L330.92 206.666Z" fill="white"/>
<path d="M345.107 220.852L338.013 213.758L753.586 -201.815L760.68 -194.721L345.107 220.852Z" fill="white"/>
<path d="M359.297 235.041L352.203 227.948L767.776 -187.625L774.87 -180.531L359.297 235.041Z" fill="white"/>
<path d="M373.488 249.23L366.394 242.137L781.967 -173.436L789.061 -166.343L373.488 249.23Z" fill="white"/>
<path d="M387.677 263.421L380.584 256.328L796.157 -159.245L803.25 -152.152L387.677 263.421Z" fill="white"/>
<path d="M47.3442 163.881L54.4369 170.977L330.92 206.667L323.827 199.57L47.3442 163.881Z" fill="white"/>
<path d="M61.533 178.069L68.6256 185.165L345.109 220.855L338.016 213.759L61.533 178.069Z" fill="white"/>
<path d="M75.7217 192.262L82.8178 199.354L359.301 235.044L352.205 227.951L75.7217 192.262Z" fill="white"/>
<path d="M89.9104 206.45L97.0065 213.546L373.489 249.232L366.393 242.14L89.9104 206.45Z" fill="white"/>
<path d="M104.103 220.639L111.195 227.735L387.678 263.425L380.585 256.329L104.103 220.639Z" fill="white"/>
<path d="M-138.329 510.434L-144.896 503.866L513.543 -154.573L520.111 -148.006L-138.329 510.434Z" fill="white"/>
<path d="M-125.194 523.565L-131.761 516.998L526.678 -141.442L533.245 -134.874L-125.194 523.565Z" fill="white"/>
<path d="M-112.062 536.704L-118.629 530.137L539.811 -128.303L546.378 -121.735L-112.062 536.704Z" fill="white"/>
<path d="M-98.9268 549.834L-105.494 543.267L552.945 -115.172L559.513 -108.605L-98.9268 549.834Z" fill="white"/>
<path d="M-85.7917 562.969L-92.3591 556.401L566.08 -102.038L572.648 -95.4707L-85.7917 562.969Z" fill="white"/>
<path d="M-72.6594 576.104L-79.2268 569.537L579.213 -88.9023L585.78 -82.335L-72.6594 576.104Z" fill="white"/>
</g>
</svg>
