<svg width="167" height="217" viewBox="0 0 167 217" fill="none" xmlns="http://www.w3.org/2000/svg">
<g opacity="0.2">
<circle cx="163.5" cy="213.5" r="3.5" transform="rotate(180 163.5 213.5)" fill="white"/>
<circle cx="123.5" cy="213.5" r="3.5" transform="rotate(180 123.5 213.5)" fill="white"/>
<circle cx="83.5" cy="213.5" r="3.5" transform="rotate(180 83.5 213.5)" fill="white"/>
<circle cx="43.5" cy="213.5" r="3.5" transform="rotate(180 43.5 213.5)" fill="white"/>
<circle cx="3.5" cy="213.5" r="3.5" transform="rotate(180 3.5 213.5)" fill="white"/>
<circle cx="163.5" cy="183.5" r="3.5" transform="rotate(180 163.5 183.5)" fill="white"/>
<circle cx="123.5" cy="183.5" r="3.5" transform="rotate(180 123.5 183.5)" fill="white"/>
<circle cx="83.5" cy="183.5" r="3.5" transform="rotate(180 83.5 183.5)" fill="white"/>
<circle cx="43.5" cy="183.5" r="3.5" transform="rotate(180 43.5 183.5)" fill="white"/>
<circle cx="3.49902" cy="183.5" r="3.5" transform="rotate(180 3.49902 183.5)" fill="white"/>
<circle cx="163.5" cy="153.5" r="3.5" transform="rotate(180 163.5 153.5)" fill="#E8112B"/>
<circle cx="123.5" cy="153.5" r="3.5" transform="rotate(180 123.5 153.5)" fill="#E8112B"/>
<circle cx="83.5" cy="153.5" r="3.5" transform="rotate(180 83.5 153.5)" fill="white"/>
<circle cx="43.5" cy="153.5" r="3.5" transform="rotate(180 43.5 153.5)" fill="white"/>
<circle cx="3.49902" cy="153.5" r="3.5" transform="rotate(180 3.49902 153.5)" fill="white"/>
<circle cx="163.5" cy="123.5" r="3.5" transform="rotate(180 163.5 123.5)" fill="#E8112B"/>
<circle cx="123.5" cy="123.5" r="3.5" transform="rotate(180 123.5 123.5)" fill="#E8112B"/>
<circle cx="83.5" cy="123.5" r="3.5" transform="rotate(180 83.5 123.5)" fill="#E8112B"/>
<circle cx="43.5" cy="123.5" r="3.5" transform="rotate(180 43.5 123.5)" fill="#E8112B"/>
<circle cx="3.5" cy="123.5" r="3.5" transform="rotate(180 3.5 123.5)" fill="white"/>
<circle cx="163.5" cy="93.5001" r="3.5" transform="rotate(180 163.5 93.5001)" fill="white"/>
<circle cx="163.5" cy="63.5001" r="3.5" transform="rotate(180 163.5 63.5001)" fill="white"/>
<circle cx="163.5" cy="33.5001" r="3.5" transform="rotate(180 163.5 33.5001)" fill="white"/>
<circle cx="163.5" cy="3.50006" r="3.5" transform="rotate(180 163.5 3.50006)" fill="white"/>
<circle cx="123.5" cy="93.5001" r="3.5" transform="rotate(180 123.5 93.5001)" fill="white"/>
<circle cx="123.5" cy="63.5001" r="3.5" transform="rotate(180 123.5 63.5001)" fill="white"/>
<circle cx="123.5" cy="33.5001" r="3.5" transform="rotate(180 123.5 33.5001)" fill="white"/>
<circle cx="123.5" cy="3.50006" r="3.5" transform="rotate(180 123.5 3.50006)" fill="white"/>
<circle cx="83.5" cy="93.5001" r="3.5" transform="rotate(180 83.5 93.5001)" fill="#E8112B"/>
<circle cx="83.5" cy="63.5001" r="3.5" transform="rotate(180 83.5 63.5001)" fill="#E8112B"/>
<circle cx="83.5" cy="33.5001" r="3.5" transform="rotate(180 83.5 33.5001)" fill="white"/>
<circle cx="83.5" cy="3.50006" r="3.5" transform="rotate(180 83.5 3.50006)" fill="white"/>
<circle cx="43.5" cy="93.5001" r="3.5" transform="rotate(180 43.5 93.5001)" fill="#E8112B"/>
<circle cx="43.5" cy="63.5001" r="3.5" transform="rotate(180 43.5 63.5001)" fill="#E8112B"/>
<circle cx="43.5" cy="33.5001" r="3.5" transform="rotate(180 43.5 33.5001)" fill="white"/>
<circle cx="43.5" cy="3.50008" r="3.5" transform="rotate(180 43.5 3.50008)" fill="white"/>
<circle cx="3.5" cy="93.5" r="3.5" transform="rotate(180 3.5 93.5)" fill="white"/>
<circle cx="3.5" cy="63.5" r="3.5" transform="rotate(180 3.5 63.5)" fill="#E8112B"/>
<circle cx="3.5" cy="33.5" r="3.5" transform="rotate(180 3.5 33.5)" fill="#E8112B"/>
<circle cx="3.5" cy="3.50002" r="3.5" transform="rotate(180 3.5 3.50002)" fill="white"/>
</g>
</svg>
