<svg width="127" height="52" viewBox="0 0 127 52" fill="none" xmlns="http://www.w3.org/2000/svg">
<g opacity="0.3">
<circle cx="123.5" cy="48.5" r="3.5" transform="rotate(-180 123.5 48.5)" fill="white"/>
<circle cx="93.5" cy="48.5" r="3.5" transform="rotate(-180 93.5 48.5)" fill="white"/>
<circle cx="63.5" cy="48.5" r="3.5" transform="rotate(-180 63.5 48.5)" fill="white"/>
<circle cx="33.5" cy="48.5" r="3.5" transform="rotate(-180 33.5 48.5)" fill="white"/>
<circle cx="3.49976" cy="48.5" r="3.5" transform="rotate(-180 3.49976 48.5)" fill="white"/>
<circle cx="123.5" cy="18.5" r="3.5" transform="rotate(-180 123.5 18.5)" fill="white"/>
<circle cx="93.5" cy="18.5" r="3.5" transform="rotate(-180 93.5 18.5)" fill="white"/>
<circle cx="63.5" cy="18.5" r="3.5" transform="rotate(-180 63.5 18.5)" fill="white"/>
<circle cx="33.5" cy="18.5" r="3.5" transform="rotate(-180 33.5 18.5)" fill="white"/>
<circle cx="3.49976" cy="18.5" r="3.5" transform="rotate(-180 3.49976 18.5)" fill="white"/>
</g>
</svg>
