<svg width="596" height="767" viewBox="0 0 596 767" fill="none" xmlns="http://www.w3.org/2000/svg">
<path d="M57.1605 -308.185L63.6089 -315.87L486.488 38.9677L480.04 46.6525L57.1605 -308.185Z" fill="#F7C600"/>
<path d="M44.2589 -292.815L50.7073 -300.5L473.586 54.3378L467.138 62.0227L44.2589 -292.815Z" fill="#F7C600"/>
<path d="M31.3585 -277.443L37.8069 -285.128L460.686 69.7098L454.238 77.3947L31.3585 -277.443Z" fill="#F7C600"/>
<path d="M18.4627 -262.07L24.9111 -269.755L447.79 85.0829L441.342 92.7678L18.4627 -262.07Z" fill="#F7C600"/>
<path d="M5.56479 -246.697L12.0132 -254.382L434.892 100.456L428.444 108.141L5.56479 -246.697Z" fill="#F7C600"/>
<path d="M468.581 325.193L475.03 317.508L925.241 695.28L918.792 702.965L468.581 325.193Z" fill="#F7C600"/>
<path d="M455.686 340.563L462.135 332.878L912.346 710.65L905.897 718.335L455.686 340.563Z" fill="#F7C600"/>
<path d="M442.787 355.935L449.236 348.25L899.447 726.022L892.998 733.707L442.787 355.935Z" fill="#F7C600"/>
<path d="M429.889 371.309L436.338 363.624L886.549 741.396L880.1 749.081L429.889 371.309Z" fill="#F7C600"/>
<path d="M416.989 386.681L423.438 378.996L873.649 756.768L867.2 764.453L416.989 386.681Z" fill="#F7C600"/>
<path d="M486.489 38.9678L480.038 46.6519L468.581 325.193L475.032 317.509L486.489 38.9678Z" fill="#F7C600"/>
<path d="M473.591 54.3389L467.14 62.023L455.683 340.564L462.134 332.88L473.591 54.3389Z" fill="#F7C600"/>
<path d="M460.689 69.7109L454.242 77.3982L442.785 355.94L449.232 348.252L460.689 69.7109Z" fill="#F7C600"/>
<path d="M447.791 85.082L441.341 92.7696L429.887 371.311L436.335 363.623L447.791 85.082Z" fill="#F7C600"/>
<path d="M434.894 100.457L428.443 108.141L416.986 386.683L423.437 378.998L434.894 100.457Z" fill="#F7C600"/>
<path d="M125.072 -115.794L131.042 -122.909L844.363 475.638L838.393 482.753L125.072 -115.794Z" fill="#F7C600"/>
<path d="M113.136 -101.566L119.106 -108.681L832.426 489.866L826.456 496.981L113.136 -101.566Z" fill="#F7C600"/>
<path d="M101.191 -87.3384L107.161 -94.4531L820.482 504.094L814.512 511.209L101.191 -87.3384Z" fill="#F7C600"/>
<path d="M89.2556 -73.1089L95.2256 -80.2236L808.546 518.323L802.576 525.438L89.2556 -73.1089Z" fill="#F7C600"/>
<path d="M77.3156 -58.8794L83.2856 -65.9941L796.606 532.553L790.636 539.668L77.3156 -58.8794Z" fill="#F7C600"/>
<path d="M65.3745 -44.6519L71.3445 -51.7666L784.665 546.781L778.695 553.895L65.3745 -44.6519Z" fill="#F7C600"/>
</svg>
