<svg width="217" height="54" viewBox="0 0 217 54" fill="none" xmlns="http://www.w3.org/2000/svg">
<g opacity="0.3">
<circle cx="213.5" cy="3.5" r="3.5" transform="rotate(90 213.5 3.5)" fill="white"/>
<circle cx="213.5" cy="33.5" r="3.5" transform="rotate(90 213.5 33.5)" fill="white"/>
<circle cx="183.5" cy="3.5" r="3.5" transform="rotate(90 183.5 3.5)" fill="white"/>
<circle cx="183.5" cy="33.5" r="3.5" transform="rotate(90 183.5 33.5)" fill="white"/>
<circle cx="153.5" cy="3.5" r="3.5" transform="rotate(90 153.5 3.5)" fill="white"/>
<circle cx="153.5" cy="33.5" r="3.5" transform="rotate(90 153.5 33.5)" fill="white"/>
<circle cx="123.5" cy="3.5" r="3.5" transform="rotate(90 123.5 3.5)" fill="white"/>
<circle cx="123.5" cy="33.5" r="3.5" transform="rotate(90 123.5 33.5)" fill="white"/>
<circle cx="93.5002" cy="3.5" r="3.5" transform="rotate(90 93.5002 3.5)" fill="white"/>
<circle cx="63.5002" cy="3.5" r="3.5" transform="rotate(90 63.5002 3.5)" fill="white"/>
<circle cx="33.5002" cy="3.5" r="3.5" transform="rotate(90 33.5002 3.5)" fill="white"/>
<circle cx="3.50024" cy="3.5" r="3.5" transform="rotate(90 3.50024 3.5)" fill="white"/>
<circle cx="93.5002" cy="33.5" r="3.5" transform="rotate(90 93.5002 33.5)" fill="white"/>
<circle cx="63.5002" cy="33.5" r="3.5" transform="rotate(90 63.5002 33.5)" fill="white"/>
<circle cx="33.5002" cy="33.5" r="3.5" transform="rotate(90 33.5002 33.5)" fill="white"/>
<circle cx="3.50024" cy="33.5" r="3.5" transform="rotate(90 3.50024 33.5)" fill="white"/>
</g>
</svg>
