<svg width="370" height="336" viewBox="0 0 370 336" fill="none" xmlns="http://www.w3.org/2000/svg">
<g opacity="0.1">
<path d="M-385.529 558.702L-392.623 551.608L-2.27918 161.265L4.81445 168.358L-385.529 558.702Z" fill="white"/>
<path d="M-371.339 572.889L-378.433 565.795L11.9108 175.451L19.0044 182.545L-371.339 572.889Z" fill="white"/>
<path d="M-357.149 587.077L-364.242 579.983L26.1014 189.64L33.1951 196.733L-357.149 587.077Z" fill="white"/>
<path d="M252.92 175.666L245.826 168.573L661.399 -247L668.493 -239.906L252.92 175.666Z" fill="white"/>
<path d="M267.107 189.852L260.013 182.758L675.586 -232.815L682.68 -225.721L267.107 189.852Z" fill="white"/>
<path d="M281.297 204.041L274.203 196.948L689.776 -218.625L696.87 -211.531L281.297 204.041Z" fill="white"/>
<path d="M295.488 218.23L288.394 211.137L703.967 -204.436L711.061 -197.343L295.488 218.23Z" fill="white"/>
<path d="M309.677 232.422L302.584 225.328L718.157 -190.245L725.25 -183.151L309.677 232.422Z" fill="white"/>
<path d="M-30.6558 132.881L-23.5631 139.977L252.92 175.667L245.827 168.57L-30.6558 132.881Z" fill="white"/>
<path d="M-16.467 147.069L-9.37438 154.165L267.109 189.855L260.016 182.759L-16.467 147.069Z" fill="white"/>
<path d="M-2.27832 161.262L4.81778 168.354L281.301 204.044L274.205 196.951L-2.27832 161.262Z" fill="white"/>
<path d="M11.9104 175.45L19.0065 182.546L295.489 218.232L288.393 211.14L11.9104 175.45Z" fill="white"/>
<path d="M26.1025 189.639L33.1952 196.735L309.678 232.425L302.585 225.329L26.1025 189.639Z" fill="white"/>
<path d="M-216.329 479.434L-222.896 472.866L435.543 -185.573L442.111 -179.006L-216.329 479.434Z" fill="white"/>
<path d="M-203.194 492.565L-209.761 485.998L448.678 -172.441L455.245 -165.874L-203.194 492.565Z" fill="white"/>
<path d="M-190.062 505.704L-196.629 499.137L461.811 -159.303L468.378 -152.735L-190.062 505.704Z" fill="white"/>
<path d="M-176.927 518.834L-183.494 512.267L474.945 -146.173L481.513 -139.605L-176.927 518.834Z" fill="white"/>
<path d="M-163.792 531.969L-170.359 525.401L488.08 -133.038L494.648 -126.471L-163.792 531.969Z" fill="white"/>
<path d="M-150.659 545.104L-157.227 538.537L501.213 -119.902L507.78 -113.335L-150.659 545.104Z" fill="white"/>
</g>
</svg>
