<svg width="127" height="217" viewBox="0 0 127 217" fill="none" xmlns="http://www.w3.org/2000/svg">
<g opacity="0.15">
<circle cx="123.5" cy="213.5" r="2.5" transform="rotate(180 123.5 213.5)" stroke="white" stroke-width="2"/>
<circle cx="93.5001" cy="213.5" r="2.5" transform="rotate(180 93.5001 213.5)" stroke="white" stroke-width="2"/>
<circle cx="63.5001" cy="213.5" r="2.5" transform="rotate(180 63.5001 213.5)" stroke="white" stroke-width="2"/>
<circle cx="33.5001" cy="213.5" r="2.5" transform="rotate(180 33.5001 213.5)" stroke="white" stroke-width="2"/>
<circle cx="3.5" cy="213.5" r="2.5" transform="rotate(180 3.5 213.5)" stroke="white" stroke-width="2"/>
<circle cx="123.5" cy="183.5" r="2.5" transform="rotate(180 123.5 183.5)" stroke="white" stroke-width="2"/>
<circle cx="93.5002" cy="183.5" r="2.5" transform="rotate(180 93.5002 183.5)" stroke="white" stroke-width="2"/>
<circle cx="63.5001" cy="183.5" r="2.5" transform="rotate(180 63.5001 183.5)" stroke="white" stroke-width="2"/>
<circle cx="33.5001" cy="183.5" r="2.5" transform="rotate(180 33.5001 183.5)" stroke="white" stroke-width="2"/>
<circle cx="3.5" cy="183.5" r="2.5" transform="rotate(180 3.5 183.5)" stroke="white" stroke-width="2"/>
<circle cx="123.5" cy="153.5" r="2.5" transform="rotate(180 123.5 153.5)" stroke="white" stroke-width="2"/>
<circle cx="93.5002" cy="153.5" r="2.5" transform="rotate(180 93.5002 153.5)" stroke="white" stroke-width="2"/>
<circle cx="63.5001" cy="153.5" r="2.5" transform="rotate(180 63.5001 153.5)" stroke="white" stroke-width="2"/>
<circle cx="33.5001" cy="153.5" r="2.5" transform="rotate(180 33.5001 153.5)" stroke="white" stroke-width="2"/>
<circle cx="3.5" cy="153.5" r="2.5" transform="rotate(180 3.5 153.5)" stroke="white" stroke-width="2"/>
<circle cx="123.5" cy="123.5" r="2.5" transform="rotate(180 123.5 123.5)" stroke="white" stroke-width="2"/>
<circle cx="93.5002" cy="123.5" r="2.5" transform="rotate(180 93.5002 123.5)" stroke="white" stroke-width="2"/>
<circle cx="63.5001" cy="123.5" r="2.5" transform="rotate(180 63.5001 123.5)" stroke="white" stroke-width="2"/>
<circle cx="33.5001" cy="123.5" r="2.5" transform="rotate(180 33.5001 123.5)" stroke="white" stroke-width="2"/>
<circle cx="3.5" cy="123.5" r="2.5" transform="rotate(180 3.5 123.5)" stroke="white" stroke-width="2"/>
<circle cx="123.5" cy="93.5" r="2.5" transform="rotate(180 123.5 93.5)" stroke="white" stroke-width="2"/>
<circle cx="123.5" cy="63.5" r="2.5" transform="rotate(180 123.5 63.5)" stroke="white" stroke-width="2"/>
<circle cx="123.5" cy="33.5" r="2.5" transform="rotate(180 123.5 33.5)" stroke="white" stroke-width="2"/>
<circle cx="123.5" cy="3.5" r="2.5" transform="rotate(180 123.5 3.5)" stroke="white" stroke-width="2"/>
<circle cx="93.5002" cy="93.5" r="2.5" transform="rotate(180 93.5002 93.5)" stroke="white" stroke-width="2"/>
<circle cx="93.5002" cy="63.5" r="2.5" transform="rotate(180 93.5002 63.5)" stroke="white" stroke-width="2"/>
<circle cx="93.5002" cy="33.5" r="2.5" transform="rotate(180 93.5002 33.5)" stroke="white" stroke-width="2"/>
<circle cx="93.5001" cy="3.5" r="2.5" transform="rotate(180 93.5001 3.5)" stroke="white" stroke-width="2"/>
<circle cx="63.5001" cy="93.5" r="2.5" transform="rotate(180 63.5001 93.5)" stroke="white" stroke-width="2"/>
<circle cx="63.5001" cy="63.5" r="2.5" transform="rotate(180 63.5001 63.5)" stroke="white" stroke-width="2"/>
<circle cx="63.5001" cy="33.5" r="2.5" transform="rotate(180 63.5001 33.5)" stroke="white" stroke-width="2"/>
<circle cx="63.5001" cy="3.5" r="2.5" transform="rotate(180 63.5001 3.5)" stroke="white" stroke-width="2"/>
<circle cx="33.5001" cy="93.5" r="2.5" transform="rotate(180 33.5001 93.5)" stroke="white" stroke-width="2"/>
<circle cx="33.5001" cy="63.5" r="2.5" transform="rotate(180 33.5001 63.5)" stroke="white" stroke-width="2"/>
<circle cx="33.5001" cy="33.5" r="2.5" transform="rotate(180 33.5001 33.5)" stroke="white" stroke-width="2"/>
<circle cx="33.5" cy="3.5" r="2.5" transform="rotate(180 33.5 3.5)" stroke="white" stroke-width="2"/>
<circle cx="3.5" cy="93.5" r="2.5" transform="rotate(180 3.5 93.5)" stroke="white" stroke-width="2"/>
<circle cx="3.5" cy="63.5" r="2.5" transform="rotate(180 3.5 63.5)" stroke="white" stroke-width="2"/>
<circle cx="3.5" cy="33.5" r="2.5" transform="rotate(180 3.5 33.5)" stroke="white" stroke-width="2"/>
<circle cx="3.5" cy="3.5" r="2.5" transform="rotate(180 3.5 3.5)" stroke="white" stroke-width="2"/>
</g>
</svg>
