<svg width="586" height="884" viewBox="0 0 586 884" fill="none" xmlns="http://www.w3.org/2000/svg">
<path d="M57.1605 -256.186L63.6089 -263.87L486.488 90.9673L480.04 98.6522L57.1605 -256.186Z" fill="#F7C600"/>
<path d="M44.2589 -240.815L50.7073 -248.5L473.586 106.338L467.138 114.022L44.2589 -240.815Z" fill="#F7C600"/>
<path d="M31.3585 -225.443L37.8069 -233.128L460.686 121.71L454.238 129.395L31.3585 -225.443Z" fill="#F7C600"/>
<path d="M18.4627 -210.07L24.9111 -217.755L447.79 137.082L441.342 144.767L18.4627 -210.07Z" fill="#F7C600"/>
<path d="M5.56479 -194.697L12.0132 -202.382L434.892 152.456L428.444 160.141L5.56479 -194.697Z" fill="#F7C600"/>
<path d="M468.581 377.193L475.03 369.508L925.241 747.28L918.792 754.965L468.581 377.193Z" fill="#F7C600"/>
<path d="M455.686 392.563L462.135 384.878L912.346 762.65L905.897 770.335L455.686 392.563Z" fill="#F7C600"/>
<path d="M442.787 407.935L449.236 400.25L899.447 778.022L892.998 785.707L442.787 407.935Z" fill="#F7C600"/>
<path d="M429.889 423.309L436.338 415.624L886.549 793.396L880.1 801.081L429.889 423.309Z" fill="#F7C600"/>
<path d="M416.989 438.681L423.438 430.996L873.649 808.768L867.2 816.453L416.989 438.681Z" fill="#F7C600"/>
<path d="M486.489 90.9678L480.038 98.6519L468.581 377.193L475.032 369.509L486.489 90.9678Z" fill="#F7C600"/>
<path d="M473.591 106.339L467.14 114.023L455.683 392.565L462.134 384.881L473.591 106.339Z" fill="#F7C600"/>
<path d="M460.689 121.711L454.242 129.398L442.785 407.939L449.232 400.252L460.689 121.711Z" fill="#F7C600"/>
<path d="M447.791 137.082L441.341 144.77L429.887 423.311L436.335 415.623L447.791 137.082Z" fill="#F7C600"/>
<path d="M434.894 152.457L428.443 160.141L416.986 438.682L423.437 430.998L434.894 152.457Z" fill="#F7C600"/>
<path d="M125.072 -63.7949L131.042 -70.9097L844.363 527.637L838.393 534.752L125.072 -63.7949Z" fill="#F7C600"/>
<path d="M113.136 -49.5655L119.106 -56.6803L832.426 541.867L826.456 548.982L113.136 -49.5655Z" fill="#F7C600"/>
<path d="M101.191 -35.3379L107.161 -42.4526L820.482 556.094L814.512 563.209L101.191 -35.3379Z" fill="#F7C600"/>
<path d="M89.2556 -21.1086L95.2256 -28.2234L808.546 570.324L802.576 577.439L89.2556 -21.1086Z" fill="#F7C600"/>
<path d="M77.3156 -6.87893L83.2856 -13.9937L796.606 584.553L790.636 591.668L77.3156 -6.87893Z" fill="#F7C600"/>
<path d="M65.3745 7.34838L71.3445 0.233625L784.665 598.781L778.695 605.896L65.3745 7.34838Z" fill="#F7C600"/>
</svg>
