<svg width="746" height="282" viewBox="0 0 746 282" fill="none" xmlns="http://www.w3.org/2000/svg">
<g opacity="0.1">
<path d="M-379.719 540.511L-386.813 533.417L3.53112 143.073L10.6248 150.167L-379.719 540.511Z" fill="white"/>
<path d="M-365.529 554.702L-372.623 547.608L17.7208 157.265L24.8145 164.358L-365.529 554.702Z" fill="white"/>
<path d="M-351.339 568.889L-358.433 561.795L31.9108 171.451L39.0044 178.545L-351.339 568.889Z" fill="white"/>
<path d="M-337.149 583.077L-344.242 575.983L46.1014 185.64L53.1951 192.733L-337.149 583.077Z" fill="white"/>
<path d="M272.92 171.667L265.826 164.573L681.399 -251L688.493 -243.906L272.92 171.667Z" fill="white"/>
<path d="M287.107 185.851L280.013 178.758L695.586 -236.815L702.68 -229.721L287.107 185.851Z" fill="white"/>
<path d="M301.297 200.042L294.203 192.948L709.776 -222.625L716.87 -215.531L301.297 200.042Z" fill="white"/>
<path d="M315.488 214.23L308.394 207.137L723.967 -208.436L731.061 -201.343L315.488 214.23Z" fill="white"/>
<path d="M329.677 228.422L322.584 221.328L738.157 -194.245L745.25 -187.151L329.677 228.422Z" fill="white"/>
<path d="M-10.6558 128.881L-3.5631 135.977L272.92 171.667L265.827 164.57L-10.6558 128.881Z" fill="white"/>
<path d="M3.53296 143.069L10.6256 150.165L287.109 185.855L280.016 178.759L3.53296 143.069Z" fill="white"/>
<path d="M17.7217 157.262L24.8178 164.354L301.301 200.044L294.205 192.951L17.7217 157.262Z" fill="white"/>
<path d="M31.9104 171.45L39.0065 178.546L315.489 214.232L308.393 207.14L31.9104 171.45Z" fill="white"/>
<path d="M46.1025 185.639L53.1952 192.735L329.678 228.424L322.585 221.328L46.1025 185.639Z" fill="white"/>
<path d="M-196.329 475.434L-202.896 468.866L455.543 -189.573L462.111 -183.006L-196.329 475.434Z" fill="white"/>
<path d="M-183.194 488.565L-189.761 481.998L468.678 -176.441L475.245 -169.874L-183.194 488.565Z" fill="white"/>
<path d="M-170.062 501.704L-176.629 495.137L481.811 -163.303L488.378 -156.735L-170.062 501.704Z" fill="white"/>
<path d="M-156.927 514.834L-163.494 508.267L494.945 -150.173L501.513 -143.605L-156.927 514.834Z" fill="white"/>
<path d="M-143.792 527.969L-150.359 521.401L508.08 -137.038L514.648 -130.471L-143.792 527.969Z" fill="white"/>
<path d="M-130.659 541.104L-137.227 534.537L521.213 -123.902L527.78 -117.335L-130.659 541.104Z" fill="white"/>
</g>
</svg>
