<svg width="797" height="635" viewBox="0 0 797 635" fill="none" xmlns="http://www.w3.org/2000/svg">
<g opacity="0.1">
<path d="M-342.906 577.319L-350 570.226L40.3439 179.882L47.4375 186.975L-342.906 577.319Z" fill="white"/>
<path d="M-328.719 591.511L-335.813 584.417L54.5311 194.074L61.6248 201.167L-328.719 591.511Z" fill="white"/>
<path d="M-314.529 605.703L-321.623 598.609L68.7209 208.265L75.8146 215.359L-314.529 605.703Z" fill="white"/>
<path d="M-300.339 619.889L-307.433 612.795L82.9108 222.451L90.0044 229.545L-300.339 619.889Z" fill="white"/>
<path d="M-286.149 634.078L-293.242 626.984L97.1016 236.64L104.195 243.734L-286.149 634.078Z" fill="white"/>
<path d="M323.92 222.666L316.826 215.573L732.399 -200L739.493 -192.906L323.92 222.666Z" fill="white"/>
<path d="M338.107 236.852L331.013 229.758L746.586 -185.815L753.68 -178.721L338.107 236.852Z" fill="white"/>
<path d="M352.297 251.041L345.203 243.948L760.776 -171.625L767.87 -164.531L352.297 251.041Z" fill="white"/>
<path d="M366.488 265.23L359.394 258.137L774.967 -157.436L782.061 -150.343L366.488 265.23Z" fill="white"/>
<path d="M380.677 279.421L373.584 272.328L789.157 -143.245L796.25 -136.152L380.677 279.421Z" fill="white"/>
<path d="M40.3442 179.881L47.4369 186.977L323.92 222.667L316.827 215.57L40.3442 179.881Z" fill="white"/>
<path d="M54.533 194.069L61.6256 201.165L338.109 236.855L331.016 229.759L54.533 194.069Z" fill="white"/>
<path d="M68.7217 208.262L75.8178 215.354L352.301 251.044L345.205 243.951L68.7217 208.262Z" fill="white"/>
<path d="M82.9104 222.45L90.0065 229.546L366.489 265.232L359.393 258.14L82.9104 222.45Z" fill="white"/>
<path d="M97.1025 236.639L104.195 243.735L380.678 279.425L373.585 272.329L97.1025 236.639Z" fill="white"/>
<path d="M-145.329 526.434L-151.896 519.866L506.543 -138.573L513.11 -132.006L-145.329 526.434Z" fill="white"/>
<path d="M-132.194 539.565L-138.761 532.998L519.678 -125.442L526.245 -118.874L-132.194 539.565Z" fill="white"/>
<path d="M-119.062 552.704L-125.629 546.137L532.81 -112.303L539.378 -105.735L-119.062 552.704Z" fill="white"/>
<path d="M-105.927 565.834L-112.494 559.267L545.945 -99.1723L552.513 -92.605L-105.927 565.834Z" fill="white"/>
<path d="M-92.7919 578.969L-99.3593 572.401L559.08 -86.0381L565.648 -79.4707L-92.7919 578.969Z" fill="white"/>
<path d="M-79.6594 592.104L-86.2268 585.537L572.213 -72.9023L578.78 -66.335L-79.6594 592.104Z" fill="white"/>
</g>
</svg>
