<svg width="400" height="628" viewBox="0 0 400 628" fill="none" xmlns="http://www.w3.org/2000/svg">
<g opacity="0.1">
<path d="M-275.906 570.319L-283 563.226L107.344 172.882L114.438 179.975L-275.906 570.319Z" fill="white"/>
<path d="M-261.719 584.511L-268.813 577.417L121.531 187.073L128.625 194.167L-261.719 584.511Z" fill="white"/>
<path d="M-247.529 598.702L-254.623 591.608L135.721 201.265L142.815 208.358L-247.529 598.702Z" fill="white"/>
<path d="M-233.339 612.889L-240.433 605.795L149.911 215.451L157.004 222.545L-233.339 612.889Z" fill="white"/>
<path d="M-219.149 627.077L-226.242 619.983L164.101 229.64L171.195 236.733L-219.149 627.077Z" fill="white"/>
<path d="M390.92 215.666L383.826 208.573L799.399 -207L806.493 -199.906L390.92 215.666Z" fill="white"/>
<path d="M405.107 229.852L398.013 222.758L813.586 -192.815L820.68 -185.721L405.107 229.852Z" fill="white"/>
<path d="M107.344 172.881L114.437 179.977L390.92 215.667L383.827 208.57L107.344 172.881Z" fill="white"/>
<path d="M121.533 187.069L128.626 194.165L405.109 229.855L398.016 222.759L121.533 187.069Z" fill="white"/>
<path d="M135.722 201.262L142.818 208.354L419.301 244.044L412.205 236.951L135.722 201.262Z" fill="white"/>
<path d="M149.91 215.45L157.006 222.546L433.489 258.232L426.393 251.14L149.91 215.45Z" fill="white"/>
<path d="M164.103 229.639L171.195 236.735L447.678 272.425L440.585 265.329L164.103 229.639Z" fill="white"/>
<path d="M-78.3289 519.434L-84.8962 512.866L573.543 -145.573L580.111 -139.006L-78.3289 519.434Z" fill="white"/>
<path d="M-65.1941 532.565L-71.7615 525.998L586.678 -132.442L593.245 -125.874L-65.1941 532.565Z" fill="white"/>
<path d="M-52.0615 545.704L-58.6289 539.137L599.811 -119.303L606.378 -112.735L-52.0615 545.704Z" fill="white"/>
<path d="M-38.9268 558.834L-45.4941 552.267L612.945 -106.173L619.513 -99.6055L-38.9268 558.834Z" fill="white"/>
<path d="M-25.7917 571.969L-32.3591 565.401L626.08 -93.0381L632.648 -86.4707L-25.7917 571.969Z" fill="white"/>
<path d="M-12.6594 585.104L-19.2268 578.537L639.213 -79.9023L645.78 -73.335L-12.6594 585.104Z" fill="white"/>
</g>
</svg>
