<svg width="167" height="287" viewBox="0 0 167 287" fill="none" xmlns="http://www.w3.org/2000/svg">
<g opacity="0.1">
<circle cx="163.5" cy="283.5" r="2.5" transform="rotate(180 163.5 283.5)" stroke="white" stroke-width="2"/>
<circle cx="123.5" cy="283.5" r="2.5" transform="rotate(180 123.5 283.5)" stroke="white" stroke-width="2"/>
<circle cx="83.5" cy="283.5" r="2.5" transform="rotate(180 83.5 283.5)" stroke="white" stroke-width="2"/>
<circle cx="43.5" cy="283.5" r="2.5" transform="rotate(180 43.5 283.5)" stroke="white" stroke-width="2"/>
<circle cx="3.5" cy="283.5" r="2.5" transform="rotate(180 3.5 283.5)" stroke="white" stroke-width="2"/>
<circle cx="163.5" cy="243.5" r="2.5" transform="rotate(180 163.5 243.5)" stroke="white" stroke-width="2"/>
<circle cx="123.5" cy="243.5" r="2.5" transform="rotate(180 123.5 243.5)" stroke="white" stroke-width="2"/>
<circle cx="83.5" cy="243.5" r="2.5" transform="rotate(180 83.5 243.5)" stroke="white" stroke-width="2"/>
<circle cx="43.5" cy="243.5" r="2.5" transform="rotate(180 43.5 243.5)" stroke="white" stroke-width="2"/>
<circle cx="3.5" cy="243.5" r="2.5" transform="rotate(180 3.5 243.5)" stroke="white" stroke-width="2"/>
<circle cx="163.5" cy="203.5" r="2.5" transform="rotate(180 163.5 203.5)" stroke="white" stroke-width="2"/>
<circle cx="123.5" cy="203.5" r="2.5" transform="rotate(180 123.5 203.5)" stroke="white" stroke-width="2"/>
<circle cx="83.5" cy="203.5" r="2.5" transform="rotate(180 83.5 203.5)" stroke="white" stroke-width="2"/>
<circle cx="43.5" cy="203.5" r="2.5" transform="rotate(180 43.5 203.5)" stroke="white" stroke-width="2"/>
<circle cx="3.5" cy="203.5" r="2.5" transform="rotate(180 3.5 203.5)" stroke="white" stroke-width="2"/>
<circle cx="163.5" cy="163.5" r="2.5" transform="rotate(180 163.5 163.5)" stroke="white" stroke-width="2"/>
<circle cx="123.5" cy="163.5" r="2.5" transform="rotate(180 123.5 163.5)" stroke="white" stroke-width="2"/>
<circle cx="83.5" cy="163.5" r="2.5" transform="rotate(180 83.5 163.5)" stroke="white" stroke-width="2"/>
<circle cx="43.5" cy="163.5" r="2.5" transform="rotate(180 43.5 163.5)" stroke="white" stroke-width="2"/>
<circle cx="3.5" cy="163.5" r="2.5" transform="rotate(180 3.5 163.5)" stroke="white" stroke-width="2"/>
<circle cx="163.5" cy="123.5" r="2.5" transform="rotate(180 163.5 123.5)" stroke="white" stroke-width="2"/>
<circle cx="163.5" cy="83.5001" r="2.5" transform="rotate(180 163.5 83.5001)" stroke="white" stroke-width="2"/>
<circle cx="163.5" cy="43.5001" r="2.5" transform="rotate(180 163.5 43.5001)" stroke="white" stroke-width="2"/>
<circle cx="163.5" cy="3.50012" r="2.5" transform="rotate(180 163.5 3.50012)" stroke="white" stroke-width="2"/>
<circle cx="123.5" cy="123.5" r="2.5" transform="rotate(180 123.5 123.5)" stroke="white" stroke-width="2"/>
<circle cx="123.5" cy="83.5001" r="2.5" transform="rotate(180 123.5 83.5001)" stroke="white" stroke-width="2"/>
<circle cx="123.5" cy="43.5001" r="2.5" transform="rotate(180 123.5 43.5001)" stroke="white" stroke-width="2"/>
<circle cx="123.5" cy="3.50012" r="2.5" transform="rotate(180 123.5 3.50012)" stroke="white" stroke-width="2"/>
<circle cx="83.5" cy="123.5" r="2.5" transform="rotate(180 83.5 123.5)" stroke="white" stroke-width="2"/>
<circle cx="83.5" cy="83.5001" r="2.5" transform="rotate(180 83.5 83.5001)" stroke="white" stroke-width="2"/>
<circle cx="83.5" cy="43.5001" r="2.5" transform="rotate(180 83.5 43.5001)" stroke="white" stroke-width="2"/>
<circle cx="83.5" cy="3.50012" r="2.5" transform="rotate(180 83.5 3.50012)" stroke="white" stroke-width="2"/>
<circle cx="43.5" cy="123.5" r="2.5" transform="rotate(180 43.5 123.5)" stroke="white" stroke-width="2"/>
<circle cx="43.5" cy="83.5001" r="2.5" transform="rotate(180 43.5 83.5001)" stroke="white" stroke-width="2"/>
<circle cx="43.5" cy="43.5001" r="2.5" transform="rotate(180 43.5 43.5001)" stroke="white" stroke-width="2"/>
<circle cx="43.5" cy="3.50012" r="2.5" transform="rotate(180 43.5 3.50012)" stroke="white" stroke-width="2"/>
<circle cx="3.5" cy="123.5" r="2.5" transform="rotate(180 3.5 123.5)" stroke="white" stroke-width="2"/>
<circle cx="3.5" cy="83.5001" r="2.5" transform="rotate(180 3.5 83.5001)" stroke="white" stroke-width="2"/>
<circle cx="3.5" cy="43.5001" r="2.5" transform="rotate(180 3.5 43.5001)" stroke="white" stroke-width="2"/>
<circle cx="3.5" cy="3.50006" r="2.5" transform="rotate(180 3.5 3.50006)" stroke="white" stroke-width="2"/>
</g>
</svg>
