<svg width="770" height="282" viewBox="0 0 770 282" fill="none" xmlns="http://www.w3.org/2000/svg">
<g opacity="0.1">
<path d="M1139.16 380.319L1146.25 373.226L755.906 -17.1182L748.812 -10.0246L1139.16 380.319Z" fill="white"/>
<path d="M1124.97 394.511L1132.06 387.417L741.719 -2.92684L734.625 4.16679L1124.97 394.511Z" fill="white"/>
<path d="M1110.78 408.702L1117.87 401.608L727.529 11.2646L720.436 18.3582L1110.78 408.702Z" fill="white"/>
<path d="M1096.59 422.889L1103.68 415.795L713.339 25.4511L706.246 32.5447L1096.59 422.889Z" fill="white"/>
<path d="M1082.4 437.077L1089.49 429.983L699.149 39.6396L692.055 46.7332L1082.4 437.077Z" fill="white"/>
<path d="M472.33 25.6669L479.424 18.5732L63.8509 -397L56.7573 -389.906L472.33 25.6669Z" fill="white"/>
<path d="M458.143 39.8514L465.237 32.7578L49.6636 -382.815L42.57 -375.721L458.143 39.8514Z" fill="white"/>
<path d="M443.953 54.0419L451.047 46.9482L35.4737 -368.625L28.3801 -361.531L443.953 54.0419Z" fill="white"/>
<path d="M429.762 68.2304L436.856 61.1367L21.283 -354.436L14.1894 -347.343L429.762 68.2304Z" fill="white"/>
<path d="M415.573 82.4218L422.666 75.3281L7.09334 -340.245L-0.000287874 -333.151L415.573 82.4218Z" fill="white"/>
<path d="M755.906 -17.1191L748.813 -10.023L472.33 25.6665L479.423 18.5705L755.906 -17.1191Z" fill="white"/>
<path d="M741.717 -2.93066L734.624 4.16544L458.141 39.855L465.234 32.759L741.717 -2.93066Z" fill="white"/>
<path d="M727.528 11.2617L720.432 18.3544L443.949 54.044L451.045 46.9513L727.528 11.2617Z" fill="white"/>
<path d="M713.34 25.4502L706.244 32.5463L429.761 68.2325L436.857 61.1398L713.34 25.4502Z" fill="white"/>
<path d="M699.147 39.6387L692.055 46.7348L415.572 82.4244L422.665 75.3283L699.147 39.6387Z" fill="white"/>
<path d="M941.579 329.434L948.146 322.866L289.707 -335.573L283.139 -329.006L941.579 329.434Z" fill="white"/>
<path d="M928.444 342.565L935.011 335.998L276.572 -322.441L270.005 -315.874L928.444 342.565Z" fill="white"/>
<path d="M915.312 355.704L921.879 349.137L263.439 -309.303L256.872 -302.735L915.312 355.704Z" fill="white"/>
<path d="M902.177 368.834L908.744 362.267L250.305 -296.173L243.737 -289.605L902.177 368.834Z" fill="white"/>
<path d="M889.042 381.969L895.609 375.401L237.17 -283.038L230.602 -276.471L889.042 381.969Z" fill="white"/>
<path d="M875.909 395.104L882.477 388.537L224.037 -269.902L217.47 -263.335L875.909 395.104Z" fill="white"/>
</g>
</svg>
