<svg width="817" height="660" viewBox="0 0 817 660" fill="none" xmlns="http://www.w3.org/2000/svg">
<g opacity="0.05">
<path d="M7.09363 729.319L0 722.226L390.344 331.882L397.438 338.975L7.09363 729.319Z" fill="#E8112B"/>
<path d="M21.2809 743.511L14.1873 736.417L404.531 346.074L411.625 353.167L21.2809 743.511Z" fill="#E8112B"/>
<path d="M35.4708 757.703L28.3772 750.609L418.721 360.265L425.815 367.359L35.4708 757.703Z" fill="#E8112B"/>
<path d="M49.6605 771.889L42.5669 764.795L432.911 374.451L440.004 381.545L49.6605 771.889Z" fill="#E8112B"/>
<path d="M63.8512 786.078L56.7576 778.984L447.101 388.64L454.195 395.734L63.8512 786.078Z" fill="#E8112B"/>
<path d="M673.92 374.666L666.826 367.573L1082.4 -48.0001L1089.49 -40.9065L673.92 374.666Z" fill="#E8112B"/>
<path d="M688.107 388.852L681.013 381.758L1096.59 -33.8146L1103.68 -26.721L688.107 388.852Z" fill="#E8112B"/>
<path d="M702.297 403.041L695.203 395.948L1110.78 -19.6251L1117.87 -12.5315L702.297 403.041Z" fill="#E8112B"/>
<path d="M716.488 417.23L709.394 410.137L1124.97 -5.4362L1132.06 1.65743L716.488 417.23Z" fill="#E8112B"/>
<path d="M730.677 431.421L723.584 424.328L1139.16 8.75476L1146.25 15.8484L730.677 431.421Z" fill="#E8112B"/>
<path d="M390.344 331.881L397.437 338.977L673.92 374.667L666.827 367.57L390.344 331.881Z" fill="#E8112B"/>
<path d="M404.533 346.069L411.626 353.165L688.109 388.855L681.016 381.759L404.533 346.069Z" fill="#E8112B"/>
<path d="M418.722 360.262L425.818 367.354L702.301 403.044L695.205 395.951L418.722 360.262Z" fill="#E8112B"/>
<path d="M432.91 374.45L440.006 381.546L716.489 417.232L709.393 410.14L432.91 374.45Z" fill="#E8112B"/>
<path d="M447.103 388.639L454.195 395.735L730.678 431.425L723.585 424.329L447.103 388.639Z" fill="#E8112B"/>
<path d="M204.671 678.434L198.104 671.866L856.543 13.4268L863.111 19.9941L204.671 678.434Z" fill="#E8112B"/>
<path d="M217.806 691.565L211.239 684.998L869.678 26.5581L876.245 33.1255L217.806 691.565Z" fill="#E8112B"/>
<path d="M230.938 704.704L224.371 698.137L882.811 39.6973L889.378 46.2646L230.938 704.704Z" fill="#E8112B"/>
<path d="M244.073 717.834L237.506 711.267L895.945 52.8277L902.513 59.395L244.073 717.834Z" fill="#E8112B"/>
<path d="M257.208 730.969L250.641 724.401L909.08 65.9619L915.648 72.5293L257.208 730.969Z" fill="#E8112B"/>
<path d="M270.341 744.104L263.773 737.537L922.213 79.0977L928.78 85.665L270.341 744.104Z" fill="#E8112B"/>
</g>
</svg>
