<svg width="130" height="220" viewBox="0 0 130 220" fill="none" xmlns="http://www.w3.org/2000/svg">
<circle cx="125" cy="215" r="4" transform="rotate(180 125 215)" stroke="#E8112B" stroke-width="2"/>
<circle cx="95.0002" cy="215" r="4" transform="rotate(180 95.0002 215)" stroke="#E8112B" stroke-width="2"/>
<circle cx="65" cy="215" r="4" transform="rotate(180 65 215)" stroke="#E8112B" stroke-width="2"/>
<circle cx="35" cy="215" r="4" transform="rotate(180 35 215)" stroke="#E8112B" stroke-width="2"/>
<circle cx="5" cy="215" r="4" transform="rotate(180 5 215)" stroke="#E8112B" stroke-width="2"/>
<circle cx="125" cy="185" r="4" transform="rotate(180 125 185)" stroke="#E8112B" stroke-width="2"/>
<circle cx="95.0002" cy="185" r="4" transform="rotate(180 95.0002 185)" stroke="#E8112B" stroke-width="2"/>
<circle cx="65" cy="185" r="4" transform="rotate(180 65 185)" stroke="#E8112B" stroke-width="2"/>
<circle cx="35" cy="185" r="4" transform="rotate(180 35 185)" stroke="#E8112B" stroke-width="2"/>
<circle cx="5" cy="185" r="4" transform="rotate(180 5 185)" stroke="#E8112B" stroke-width="2"/>
<circle cx="125" cy="155" r="4" transform="rotate(180 125 155)" stroke="#E8112B" stroke-width="2"/>
<circle cx="95.0002" cy="155" r="4" transform="rotate(180 95.0002 155)" stroke="#E8112B" stroke-width="2"/>
<circle cx="65" cy="155" r="4" transform="rotate(180 65 155)" stroke="#E8112B" stroke-width="2"/>
<circle cx="35" cy="155" r="4" transform="rotate(180 35 155)" stroke="#E8112B" stroke-width="2"/>
<circle cx="5" cy="155" r="4" transform="rotate(180 5 155)" stroke="#E8112B" stroke-width="2"/>
<circle cx="125" cy="125" r="4" transform="rotate(180 125 125)" stroke="#E8112B" stroke-width="2"/>
<circle cx="95.0002" cy="125" r="4" transform="rotate(180 95.0002 125)" stroke="#E8112B" stroke-width="2"/>
<circle cx="65" cy="125" r="4" transform="rotate(180 65 125)" stroke="#E8112B" stroke-width="2"/>
<circle cx="35" cy="125" r="4" transform="rotate(180 35 125)" stroke="#E8112B" stroke-width="2"/>
<circle cx="5" cy="125" r="4" transform="rotate(180 5 125)" stroke="#E8112B" stroke-width="2"/>
<circle cx="125" cy="95" r="4" transform="rotate(180 125 95)" stroke="#E8112B" stroke-width="2"/>
<circle cx="125" cy="65" r="4" transform="rotate(180 125 65)" stroke="#E8112B" stroke-width="2"/>
<circle cx="125" cy="35" r="4" transform="rotate(180 125 35)" stroke="#E8112B" stroke-width="2"/>
<circle cx="125" cy="5" r="4" transform="rotate(180 125 5)" stroke="#E8112B" stroke-width="2"/>
<circle cx="95.0002" cy="95" r="4" transform="rotate(180 95.0002 95)" stroke="#E8112B" stroke-width="2"/>
<circle cx="95.0002" cy="65" r="4" transform="rotate(180 95.0002 65)" stroke="#E8112B" stroke-width="2"/>
<circle cx="95.0002" cy="35" r="4" transform="rotate(180 95.0002 35)" stroke="#E8112B" stroke-width="2"/>
<circle cx="95" cy="5" r="4" transform="rotate(180 95 5)" stroke="#E8112B" stroke-width="2"/>
<circle cx="65" cy="95" r="4" transform="rotate(180 65 95)" stroke="#E8112B" stroke-width="2"/>
<circle cx="65" cy="65" r="4" transform="rotate(180 65 65)" stroke="#E8112B" stroke-width="2"/>
<circle cx="65" cy="35" r="4" transform="rotate(180 65 35)" stroke="#E8112B" stroke-width="2"/>
<circle cx="65" cy="5" r="4" transform="rotate(180 65 5)" stroke="#E8112B" stroke-width="2"/>
<circle cx="35" cy="95" r="4" transform="rotate(180 35 95)" stroke="#E8112B" stroke-width="2"/>
<circle cx="35" cy="65" r="4" transform="rotate(180 35 65)" stroke="#E8112B" stroke-width="2"/>
<circle cx="35" cy="35" r="4" transform="rotate(180 35 35)" stroke="#E8112B" stroke-width="2"/>
<circle cx="35" cy="5" r="4" transform="rotate(180 35 5)" stroke="#E8112B" stroke-width="2"/>
<circle cx="5" cy="95" r="4" transform="rotate(180 5 95)" stroke="#E8112B" stroke-width="2"/>
<circle cx="5" cy="65" r="4" transform="rotate(180 5 65)" stroke="#E8112B" stroke-width="2"/>
<circle cx="5" cy="35" r="4" transform="rotate(180 5 35)" stroke="#E8112B" stroke-width="2"/>
<circle cx="5" cy="5" r="4" transform="rotate(180 5 5)" stroke="#E8112B" stroke-width="2"/>
</svg>
