<svg width="611" height="767" viewBox="0 0 611 767" fill="none" xmlns="http://www.w3.org/2000/svg">
<path d="M-262.839 3.81477L-256.391 -3.87012L166.488 350.968L160.04 358.653L-262.839 3.81477Z" fill="#E8112B"/>
<path d="M-275.741 19.1849L-269.293 11.5L153.586 366.338L147.138 374.023L-275.741 19.1849Z" fill="#E8112B"/>
<path d="M-288.642 34.557L-282.193 26.8721L140.686 381.71L134.238 389.395L-288.642 34.557Z" fill="#E8112B"/>
<path d="M-301.537 49.93L-295.089 42.2451L127.79 397.083L121.342 404.768L-301.537 49.93Z" fill="#E8112B"/>
<path d="M-314.435 65.3031L-307.987 57.6182L114.893 412.456L108.444 420.141L-314.435 65.3031Z" fill="#E8112B"/>
<path d="M148.581 637.193L155.03 629.508L605.241 1007.28L598.792 1014.96L148.581 637.193Z" fill="#E8112B"/>
<path d="M135.687 652.563L142.135 644.878L592.346 1022.65L585.898 1030.33L135.687 652.563Z" fill="#E8112B"/>
<path d="M122.787 667.935L129.236 660.25L579.447 1038.02L572.999 1045.71L122.787 667.935Z" fill="#E8112B"/>
<path d="M109.89 683.309L116.338 675.624L566.549 1053.4L560.101 1061.08L109.89 683.309Z" fill="#E8112B"/>
<path d="M96.9894 698.681L103.438 690.996L553.649 1068.77L547.2 1076.45L96.9894 698.681Z" fill="#E8112B"/>
<path d="M166.489 350.968L160.038 358.652L148.581 637.193L155.032 629.509L166.489 350.968Z" fill="#E8112B"/>
<path d="M153.591 366.339L147.14 374.023L135.683 652.564L142.134 644.88L153.591 366.339Z" fill="#E8112B"/>
<path d="M140.689 381.711L134.242 389.398L122.786 667.94L129.233 660.252L140.689 381.711Z" fill="#E8112B"/>
<path d="M127.792 397.082L121.341 404.77L109.888 683.311L116.335 675.623L127.792 397.082Z" fill="#E8112B"/>
<path d="M114.894 412.457L108.443 420.141L96.9862 698.683L103.437 690.998L114.894 412.457Z" fill="#E8112B"/>
<path d="M-194.928 196.206L-188.958 189.091L524.363 787.638L518.393 794.753L-194.928 196.206Z" fill="#E8112B"/>
<path d="M-206.864 210.434L-200.894 203.319L512.426 801.866L506.456 808.981L-206.864 210.434Z" fill="#E8112B"/>
<path d="M-218.809 224.662L-212.839 217.547L500.482 816.094L494.512 823.209L-218.809 224.662Z" fill="#E8112B"/>
<path d="M-230.744 238.891L-224.774 231.776L488.546 830.323L482.576 837.438L-230.744 238.891Z" fill="#E8112B"/>
<path d="M-242.684 253.121L-236.714 246.006L476.606 844.553L470.636 851.668L-242.684 253.121Z" fill="#E8112B"/>
<path d="M-254.625 267.348L-248.655 260.233L464.665 858.781L458.695 865.895L-254.625 267.348Z" fill="#E8112B"/>
</svg>
