<svg width="1040" height="388" viewBox="0 0 1040 388" fill="none" xmlns="http://www.w3.org/2000/svg">
<path opacity="0.03" d="M1490.48 403.64L1490.19 403.748L1376.13 557.382L1148.3 634.108L1148.01 634.216L1033.95 787.85L806.124 864.576L805.835 864.684L691.775 1018.32L538.576 1069.89H543.165L692.968 1019.44L693.257 1019.33L807.352 865.696L1035.18 788.97L1035.47 788.862L1149.57 635.228L1377.4 558.502L1377.69 558.394L1491.74 404.76L1719.57 328.034L1719.86 327.926L1794.93 226.841V223.733L1718.35 326.878L1490.52 403.604L1490.48 403.64ZM1461.97 384.449L1461.68 384.558L1347.62 538.191L1119.79 614.917L1119.5 615.026L1005.44 768.659L777.609 845.385L777.32 845.494L663.26 999.127L453.031 1069.93H457.621L664.453 1000.28L664.742 1000.18L778.802 846.542L1006.63 769.816L1006.92 769.707L1120.98 616.074L1348.81 539.348L1349.1 539.239L1463.16 385.606L1690.99 308.88L1691.28 308.771L1794.86 169.269V166.161L1689.76 307.723L1461.93 384.449H1461.97ZM1575.74 0.456665L1461.68 154.09L1233.85 230.816L1233.56 230.925L1119.5 384.558L891.632 461.284L891.343 461.393L777.284 615.026L549.418 691.752L549.129 691.86L435.069 845.494L207.24 922.22L206.95 922.328L97.3725 1069.93H99.6855L208.504 923.34L436.334 846.614L436.623 846.506L550.683 692.872L778.549 616.146L778.838 616.038L892.897 462.404L1120.76 385.678L1121.05 385.57L1235.11 231.937L1462.94 155.21L1463.23 155.102L1577.29 1.4686L1794.96 -71.8243V-73.3784L1576.1 0.312103L1575.81 0.420532L1575.74 0.456665ZM1604.25 19.6473L1490.19 173.281L1262.36 250.007L1262.07 250.115L1148.01 403.748L920.147 480.475L919.858 480.583L805.798 634.216L577.933 710.943L577.643 711.051L463.584 864.684L235.718 941.411L235.429 941.519L140.091 1069.93H142.404L236.983 942.567L464.813 865.841L465.102 865.732L579.161 712.099L807.027 635.373L807.316 635.264L921.376 481.631L1149.21 404.905L1149.49 404.797L1263.59 251.163L1491.42 174.437L1491.71 174.329L1605.8 20.6954L1794.93 -42.9842V-44.5383L1604.58 19.575L1604.29 19.6834L1604.25 19.6473ZM1746.82 576.608L1632.77 730.242L1404.94 806.968L1404.65 807.076L1290.59 960.71L1062.76 1037.44L1062.47 1037.54L1038.43 1069.93H1040.75L1064.02 1038.59L1291.85 961.866L1292.14 961.758L1406.2 808.124L1634.03 731.398L1634.32 731.29L1748.38 577.656L1794.93 561.971V560.417L1747.15 576.5L1746.86 576.608H1746.82ZM1775.34 595.799L1661.28 749.432L1433.45 826.159L1433.16 826.267L1319.1 979.9L1091.27 1056.63L1090.98 1056.73L1081.19 1069.89H1083.5L1092.5 1057.75L1320.33 981.021L1320.62 980.912L1434.68 827.279L1662.54 750.553L1662.83 750.444L1776.89 596.811L1794.93 590.739V589.185L1775.66 595.654L1775.38 595.763L1775.34 595.799ZM1547.51 442.057L1547.22 442.166L1433.16 595.799L1205.33 672.525L1205.04 672.634L1090.98 826.267L863.153 902.993L862.864 903.102L748.805 1056.73L709.701 1069.89H714.291L750.034 1057.86L750.323 1057.75L864.382 904.114L1092.21 827.387L1092.5 827.279L1206.56 673.646L1434.39 596.919L1434.68 596.811L1548.74 443.178L1776.57 366.451L1776.86 366.343L1794.89 342.057V338.948L1775.34 365.295L1547.51 442.021V442.057ZM1518.99 422.867L1518.71 422.975L1404.65 576.608L1176.82 653.335L1176.53 653.443L1062.47 807.076L834.639 883.803L834.349 883.911L720.29 1037.54L624.156 1069.93H628.746L721.519 1038.7L721.808 1038.59L835.867 884.959L1063.7 808.233L1063.99 808.124L1178.05 654.491L1405.88 577.765L1406.16 577.656L1520.22 424.023L1748.05 347.297L1748.34 347.189L1794.89 284.485V281.377L1746.82 346.141L1518.99 422.867ZM1718.31 96.482L1604.25 250.115L1376.42 326.841L1376.13 326.95L1262.07 480.583L1034.24 557.309L1033.95 557.418L919.894 711.051L692.064 787.777L691.775 787.886L577.716 941.519L349.886 1018.25L349.597 1018.35L311.288 1069.93H313.601L351.115 1019.37L578.945 942.639L579.234 942.531L693.293 788.898L921.123 712.171L921.412 712.063L1035.47 558.43L1263.3 481.703L1263.59 481.595L1377.65 327.962L1605.48 251.236L1605.77 251.127L1719.83 97.4939L1794.89 72.2317V70.6777L1718.6 96.3736L1718.31 96.482ZM1775.34 134.899L1661.28 288.533L1433.45 365.259L1433.16 365.367L1319.1 519L1091.27 595.727L1090.98 595.835L976.887 749.469L749.058 826.195L748.769 826.303L634.709 979.936L406.88 1056.66L406.591 1056.77L396.796 1069.93H399.109L408.108 1057.78L635.938 981.057L636.227 980.948L750.287 827.315L978.116 750.589L978.405 750.48L1092.5 596.847L1320.33 520.121L1320.62 520.012L1434.68 366.379L1662.54 289.653L1662.83 289.544L1776.89 135.911L1794.93 129.84V128.286L1775.66 134.755L1775.38 134.863L1775.34 134.899ZM1746.82 115.709L1632.77 269.342L1404.94 346.068L1404.65 346.177L1290.59 499.81L1062.76 576.536L1062.47 576.645L948.409 730.278L720.579 807.004L720.29 807.113L606.231 960.746L378.401 1037.47L378.112 1037.58L354.078 1069.96H356.391L379.666 1038.63L607.496 961.902L607.785 961.794L721.844 808.161L949.674 731.434L949.963 731.326L1064.02 577.693L1291.85 500.966L1292.14 500.858L1406.2 347.225L1634.03 270.498L1634.32 270.39L1748.38 116.757L1794.93 101.072V99.5178L1747.15 115.6L1746.86 115.709H1746.82ZM1632.77 38.874L1518.67 192.507L1290.84 269.234L1290.55 269.342L1176.49 422.975L948.662 499.701L948.373 499.81L834.313 653.443L606.484 730.169L606.195 730.278L492.135 883.911L264.305 960.637L264.016 960.746L182.953 1069.93H185.266L265.57 961.758L493.4 885.031L493.689 884.923L607.749 731.29L835.578 654.563L835.867 654.455L949.927 500.822L1177.76 424.096L1178.05 423.987L1292.1 270.354L1519.97 193.628L1520.26 193.519L1634.32 39.886L1794.93 -14.1802V-15.7343L1633.09 38.7656L1632.8 38.874H1632.77ZM1547.51 -18.8424L1547.22 -18.7339L1433.16 134.899L1205.33 211.626L1205.04 211.734L1090.98 365.367L863.153 442.094L862.864 442.202L748.805 595.835L520.975 672.561L520.686 672.67L406.627 826.303L178.797 903.029L178.508 903.138L64.4485 1056.77L25.3445 1069.93H29.9343L65.6773 1057.89L65.9664 1057.78L180.026 904.15L407.855 827.424L408.145 827.315L522.204 673.682L750.07 596.956L750.359 596.847L864.418 443.214L1092.25 366.488L1092.54 366.379L1206.6 212.746L1434.43 136.02L1434.72 135.911L1548.77 -17.722L1776.6 -94.4483L1776.89 -94.5567L1794.93 -118.843V-121.951L1775.38 -95.6048L1547.55 -18.8785L1547.51 -18.8424ZM1661.28 58.1008L1547.22 211.734L1319.35 288.46L1319.07 288.569L1205.01 442.202L977.177 518.928L976.887 519.037L862.828 672.67L634.998 749.396L634.709 749.505L520.65 903.138L292.82 979.864L292.531 979.973L225.707 1069.96H228.02L294.049 981.021L521.879 904.294L522.168 904.186L636.227 750.553L864.057 673.826L864.346 673.718L978.405 520.085L1206.23 443.358L1206.52 443.25L1320.58 289.617L1548.45 212.891L1548.74 212.782L1662.8 59.1488L1794.89 14.6599V13.1059L1661.57 57.9923L1661.28 58.1008ZM1718.31 557.454L1604.25 711.087L1376.42 787.813L1376.13 787.922L1262.07 941.555L1034.21 1018.28L1033.92 1018.39L995.608 1069.96H997.921L1035.44 1019.4L1263.26 942.676L1263.55 942.567L1377.61 788.934L1605.44 712.208L1605.73 712.099L1719.79 558.466L1794.86 533.204V531.65L1718.56 557.346L1718.27 557.454H1718.31ZM1746.82 -114.723L1518.99 -37.9968L1518.71 -37.8884L1404.65 115.745L1176.82 192.471L1176.53 192.58L1062.47 346.213L834.639 422.939L834.349 423.047L720.29 576.681L492.46 653.407L492.171 653.515L378.112 807.149L150.282 883.875L149.993 883.983L35.9336 1037.62L-60.2001 1070H-55.6102L37.1624 1038.77L37.4515 1038.66L151.511 885.031L379.341 808.305L379.63 808.197L493.689 654.563L721.555 577.837L721.844 577.729L835.903 424.096L1063.73 347.369L1064.02 347.261L1178.08 193.628L1405.91 116.901L1406.2 116.793L1520.26 -36.8403L1748.09 -113.567L1748.38 -113.675L1794.93 -176.343V-179.451L1746.86 -114.687L1746.82 -114.723ZM1689.79 77.3275L1575.74 230.961L1347.87 307.687L1347.58 307.795L1233.52 461.429L1005.69 538.155L1005.4 538.263L891.343 691.897L663.513 768.623L663.224 768.731L549.165 922.365L321.335 999.091L321.046 999.199L268.498 1070H270.811L322.6 1000.25L550.43 923.521L550.719 923.413L664.814 769.779L892.644 693.053L892.933 692.945L1007.03 539.311L1234.86 462.585L1235.15 462.477L1349.21 308.843L1577.07 232.117L1577.36 232.009L1691.42 78.3756L1795 43.5V41.946L1690.19 77.2191L1689.9 77.3275H1689.79ZM1632.77 960.782L1551.7 1069.96H1554.02L1634.32 961.794L1794.93 907.728V906.174L1633.09 960.674L1632.8 960.782H1632.77ZM1661.28 979.973L1594.46 1069.96H1596.77L1662.83 981.021L1794.93 936.532V934.978L1661.61 979.864L1661.32 979.973H1661.28ZM1575.74 922.365L1466.16 1069.96H1468.47L1577.29 923.376L1794.96 850.084V848.53L1576.1 922.22L1575.81 922.328L1575.74 922.365ZM1689.79 999.199L1637.25 1070H1639.56L1691.35 1000.25L1794.93 965.372V963.818L1690.12 999.091L1689.83 999.199H1689.79ZM1547.51 903.066L1547.22 903.174L1433.16 1056.81L1394.06 1069.96H1398.65L1434.39 1057.93L1434.68 1057.82L1548.74 904.186L1776.57 827.46L1776.86 827.351L1794.89 803.065V799.957L1775.34 826.303L1547.51 903.029V903.066ZM1775.34 1056.81L1765.55 1069.96H1767.86L1776.86 1057.82L1794.89 1051.75V1050.19L1775.63 1056.66L1775.34 1056.77V1056.81ZM1746.82 1037.62L1722.79 1070H1725.1L1748.38 1038.66L1794.93 1022.98V1021.43L1747.15 1037.51L1746.86 1037.62H1746.82ZM1689.79 538.263L1575.74 691.897L1347.87 768.623L1347.58 768.731L1233.52 922.365L1005.69 999.091L1005.4 999.199L952.854 1070H955.167L1006.96 1000.25L1234.79 923.521L1235.08 923.413L1349.13 769.779L1577 693.053L1577.29 692.945L1691.35 539.311L1794.93 504.436V502.882L1690.12 538.155L1689.83 538.263H1689.79ZM1718.31 1018.39L1680 1069.96H1682.31L1719.83 1019.4L1794.89 994.14V992.586L1718.6 1018.28L1718.31 1018.39ZM1518.99 883.839L1518.71 883.947L1404.65 1037.58L1308.51 1069.96H1313.1L1405.88 1038.74L1406.16 1038.63L1520.22 884.995L1748.05 808.269L1748.34 808.161L1794.89 745.457V742.349L1746.82 807.113L1518.99 883.839ZM1604.25 480.619L1490.19 634.253L1262.36 710.979L1262.07 711.087L1148.01 864.72L920.147 941.447L919.858 941.555L824.519 1069.96H826.832L921.412 942.603L1149.24 865.877L1149.53 865.769L1263.59 712.135L1491.42 635.409L1491.71 635.301L1605.77 481.667L1794.89 417.988V416.434L1604.54 480.547L1604.25 480.655V480.619ZM1661.28 519.037L1547.22 672.67L1319.35 749.396L1319.07 749.505L1205.01 903.138L977.177 979.864L976.887 979.973L910.064 1069.96H912.377L978.405 981.021L1206.23 904.294L1206.52 904.186L1320.58 750.553L1548.45 673.826L1548.74 673.718L1662.8 520.085L1794.89 475.596V474.042L1661.57 518.928L1661.28 519.037ZM1632.77 499.846L1518.71 653.479L1290.88 730.206L1290.59 730.314L1176.53 883.947L948.662 960.674L948.373 960.782L867.309 1069.96H869.622L949.927 961.794L1177.76 885.068L1178.05 884.959L1292.1 731.326L1519.97 654.6L1520.26 654.491L1634.32 500.858L1794.93 446.792V445.238L1633.09 499.738L1632.8 499.846H1632.77ZM1575.74 461.429L1461.68 615.062L1233.85 691.788L1233.56 691.897L1119.5 845.53L891.632 922.256L891.343 922.365L781.765 1069.96H784.078L892.897 923.376L1120.76 846.65L1121.05 846.542L1235.11 692.909L1462.94 616.182L1463.23 616.074L1577.29 462.441L1794.96 389.148V387.594L1576.1 461.284L1575.81 461.393L1575.74 461.429ZM1490.48 864.648L1490.19 864.757L1376.13 1018.39L1222.97 1069.96H1227.56L1377.36 1019.51L1377.65 1019.4L1491.71 865.769L1719.54 789.042L1719.83 788.934L1794.89 687.849V684.741L1718.31 787.886L1490.48 864.612V864.648ZM1461.97 845.458L1461.68 845.566L1347.62 999.199L1137.39 1070H1141.98L1348.81 1000.36L1349.1 1000.25L1463.16 846.614L1690.99 769.888L1691.28 769.779L1794.86 630.277V627.169L1689.76 768.731L1461.93 845.458H1461.97ZM1604.25 941.591L1508.91 1070H1511.22L1605.8 942.639L1794.93 878.96V877.406L1604.58 941.519L1604.29 941.627L1604.25 941.591ZM8.71983 327.962L236.549 251.236L236.839 251.127L350.898 97.4939L578.728 20.7677L579.017 20.6592L693.112 -132.974L920.942 -209.7L921.231 -209.809L931.025 -223H928.712L919.713 -210.857L691.884 -134.131L691.594 -134.022L577.535 19.6112L349.705 96.3374L349.416 96.4458L235.357 250.079L7.52721 326.805L7.23807 326.914L-106.821 480.547L-124.855 486.619V488.173L-105.303 481.595L8.75598 327.962H8.71983ZM-48.3099 520.012L65.7495 366.379L293.579 289.653L293.868 289.544L407.928 135.911L635.757 59.185L636.047 59.0766L750.106 -94.5567L977.936 -171.283L978.225 -171.391L1016.53 -222.964H1014.22L976.671 -172.403L748.841 -95.677L748.552 -95.5686L634.492 58.0646L406.663 134.791L406.374 134.899L292.314 288.533L64.4846 365.259L64.1955 365.367L-49.8639 519L-124.928 544.263V545.817L-48.6351 520.121L-48.346 520.012H-48.3099ZM151.005 654.563L151.294 654.455L265.353 500.822L493.183 424.096L493.472 423.987L607.532 270.354L835.361 193.628L835.65 193.519L949.71 39.886L1177.54 -36.8403L1177.83 -36.9487L1291.89 -190.582L1388.06 -222.964H1383.47L1290.66 -191.702L1290.37 -191.594L1176.31 -37.9607L948.445 38.7656L948.156 38.874L834.096 192.507L606.267 269.234L605.978 269.342L491.918 422.975L264.089 499.701L263.799 499.81L149.74 653.443L-78.0896 730.169L-78.3788 730.278L-124.928 792.982V796.09L-76.8609 731.326L150.969 654.6L151.005 654.563ZM122.49 635.373L122.779 635.264L236.839 481.631L464.668 404.905L464.957 404.797L579.017 251.163L806.883 174.437L807.172 174.329L921.231 20.6954L1149.06 -56.0309L1149.35 -56.1393L1263.41 -209.773L1302.55 -222.964H1297.96L1262.22 -210.929L1261.93 -210.821L1147.83 -57.1874L920.002 19.5389L919.713 19.6473L805.654 173.281L577.788 250.007L577.499 250.115L463.44 403.748L235.574 480.475L235.285 480.583L121.225 634.216L-106.604 710.943L-106.894 711.051L-124.928 735.338V738.446L-105.376 712.099L122.454 635.373H122.49ZM-66.2356 -222.964H-70.8254L-106.604 -210.929L-106.894 -210.821L-124.928 -186.534V-183.426L-105.376 -209.773L-66.2356 -222.964ZM37.2347 577.62L151.294 423.987L379.124 347.261L379.413 347.152L493.472 193.519L721.338 116.793L721.627 116.685L835.723 -36.9487L1063.55 -113.675L1063.84 -113.783L1144.98 -222.964H1142.66L1062.36 -114.795L834.53 -38.0691L834.241 -37.9607L720.146 115.673L492.316 192.399L492.027 192.507L377.967 346.141L150.101 422.867L149.812 422.975L35.7529 576.608L-124.928 630.675V632.229L36.9094 577.729L37.1985 577.62H37.2347ZM8.71983 558.43L122.779 404.797L350.645 328.07L350.934 327.962L464.994 174.329L692.823 97.6023L693.112 97.4939L807.172 -56.1393L1035 -132.866L1035.29 -132.974L1102.22 -222.964H1099.91L1033.84 -133.986L806.015 -57.2597L805.726 -57.1513L691.667 96.482L463.837 173.208L463.548 173.317L349.489 326.95L121.623 403.676L121.334 403.785L7.27422 557.418L-124.928 601.871V603.425L8.39456 558.538L8.6837 558.43H8.71983ZM-19.795 539.239L94.2644 385.606L322.13 308.88L322.419 308.771L436.479 155.138L664.308 78.4117L664.598 78.3033L778.657 -75.33L1006.49 -152.056L1006.78 -152.165L1059.32 -222.964H1057.01L1005.22 -153.213L777.392 -76.4865L777.103 -76.378L663.044 77.2552L435.214 153.982L434.925 154.09L320.865 307.723L92.9995 384.449L92.7103 384.558L-21.3491 538.191L-124.928 573.067V574.621L-20.1203 539.348L-19.8312 539.239H-19.795ZM-48.3099 980.948L65.7857 827.315L293.615 750.589L293.904 750.48L407.964 596.847L635.794 520.121L636.083 520.012L750.142 366.379L977.972 289.653L978.261 289.544L1092.32 135.911L1320.15 59.185L1320.44 59.0766L1434.5 -94.5567L1662.36 -171.283L1662.65 -171.391L1700.96 -222.964H1698.65L1661.14 -172.403L1433.31 -95.677L1433.02 -95.5686L1318.96 58.0646L1091.13 134.791L1090.84 134.899L976.779 288.533L748.949 365.259L748.66 365.367L634.601 519L406.771 595.727L406.482 595.835L292.423 749.469L64.593 826.195L64.3039 826.303L-49.7555 979.936L-124.819 1005.2V1006.75L-48.5267 981.057L-48.2376 980.948H-48.3099ZM-76.8247 961.758L37.2347 808.124L265.064 731.398L265.353 731.29L379.413 577.656L607.243 500.93L607.532 500.822L721.591 347.189L949.421 270.462L949.71 270.354L1063.77 116.721L1291.6 39.9944L1291.89 39.886L1405.95 -113.747L1633.78 -190.474L1634.07 -190.582L1658.1 -222.964H1655.79L1632.51 -191.63L1404.68 -114.904L1404.39 -114.795L1290.33 38.8379L1062.5 115.564L1062.22 115.673L948.156 269.306L720.326 346.032L720.037 346.141L605.978 499.774L378.148 576.5L377.859 576.608L263.799 730.242L35.9698 806.968L35.6806 807.076L-78.3788 960.71L-124.928 976.395V977.949L-77.15 961.866L-76.8609 961.758H-76.8247ZM8.71983 788.898L236.549 712.171L236.839 712.063L350.898 558.43L578.728 481.703L579.017 481.595L693.076 327.962L920.906 251.236L921.195 251.127L1035.25 97.4939L1263.08 20.7677L1263.37 20.6592L1377.43 -132.974L1605.26 -209.7L1605.55 -209.809L1615.35 -223H1613.03L1604.03 -210.857L1376.2 -134.131L1375.91 -134.022L1261.86 19.6112L1033.99 96.3374L1033.7 96.4458L919.605 250.079L691.775 326.805L691.486 326.914L577.427 480.547L349.597 557.273L349.308 557.382L235.248 711.015L7.41876 787.741L7.12965 787.85L-106.966 941.483L-125 947.555V949.109L-105.448 942.531L8.6114 788.898H8.71983ZM179.52 673.754L179.809 673.646L293.868 520.012L521.698 443.286L521.987 443.178L636.047 289.544L863.876 212.818L864.165 212.71L978.225 59.0766L1206.05 -17.6497L1206.34 -17.7581L1320.4 -171.391L1473.78 -222.964H1469.19L1319.35 -172.512L1319.07 -172.403L1205.01 -18.7701L977.177 57.9562L976.887 58.0646L862.828 211.698L634.998 288.424L634.709 288.533L520.65 442.166L292.82 518.892L292.531 519L178.472 672.634L-49.3579 749.36L-49.6471 749.469L-124.928 850.553V853.661L-48.346 750.48L179.484 673.754H179.52ZM8.71983 1019.33L122.779 865.696L350.645 788.97L350.934 788.862L464.994 635.228L692.823 558.502L693.112 558.394L807.208 404.76L1035.04 328.034L1035.33 327.926L1149.39 174.292L1377.22 97.5662L1377.5 97.4578L1491.56 -56.1755L1719.39 -132.902L1719.68 -133.01L1786.51 -223H1784.19L1718.13 -134.022L1490.3 -57.2958L1490.01 -57.1874L1375.95 96.4458L1148.12 173.172L1147.83 173.281L1033.77 326.914L805.943 403.64L805.654 403.748L691.558 557.382L463.729 634.108L463.44 634.216L349.38 787.85L121.514 864.576L121.225 864.684L7.16579 1018.32L-124.928 1062.81V1064.36L8.39456 1019.47L8.6837 1019.37L8.71983 1019.33ZM208.035 692.945L208.324 692.836L322.383 539.203L550.213 462.477L550.502 462.368L664.561 308.735L892.391 232.009L892.68 231.9L1006.74 78.2672L1234.57 1.54088L1234.86 1.43246L1348.92 -152.201L1559.33 -222.964H1554.74L1347.87 -153.321L1347.58 -153.213L1233.52 0.420532L1005.69 77.1468L1005.4 77.2552L891.343 230.888L663.513 307.615L663.224 307.723L549.165 461.356L321.335 538.083L321.046 538.191L206.987 691.824L-20.8431 768.551L-21.1322 768.659L-124.928 908.161V911.269L-19.8312 769.707L207.999 692.981L208.035 692.945ZM65.7495 596.811L179.809 443.178L407.639 366.451L407.928 366.343L521.987 212.71L749.853 135.984L750.142 135.875L864.201 -17.7581L1092.03 -94.4844L1092.32 -94.5928L1187.77 -222.964H1185.45L1090.87 -95.6048L863.045 -18.8785L862.756 -18.7701L748.696 134.863L520.867 211.589L520.578 211.698L406.518 365.331L178.689 442.057L178.399 442.166L64.34 595.799L-124.928 659.479V661.033L65.4243 596.919L65.7134 596.811H65.7495ZM-19.795 1000.14L94.2644 846.506L322.13 769.779L322.419 769.671L436.479 616.038L664.308 539.311L664.598 539.203L778.657 385.57L1006.49 308.843L1006.78 308.735L1120.84 155.102L1348.66 78.3756L1348.95 78.2672L1463.01 -75.3661L1690.84 -152.092L1691.13 -152.201L1743.68 -223H1741.37L1689.58 -153.249L1461.75 -76.5226L1461.46 -76.4142L1347.4 77.2191L1119.57 153.945L1119.28 154.054L1005.22 307.687L777.392 384.413L777.103 384.522L663.044 538.155L435.214 614.881L434.925 614.99L320.865 768.623L92.9995 845.349L92.7103 845.458L-21.3491 999.091L-124.928 1033.97V1035.52L-20.1203 1000.25L-19.8312 1000.14H-19.795ZM-76.8247 500.786L37.2347 347.152L265.064 270.426L265.353 270.318L379.413 116.685L607.243 39.9583L607.532 39.8498L721.591 -113.783L949.421 -190.51L949.71 -190.618L973.743 -223H971.43L948.156 -191.666L720.326 -114.94L720.037 -114.831L605.978 38.8018L378.148 115.528L377.859 115.636L263.799 269.27L35.9698 345.996L35.6806 346.104L-78.3788 499.738L-124.928 515.423V516.977L-77.15 500.894L-76.8609 500.786H-76.8247ZM-19.795 78.2672L94.2644 -75.3661L322.13 -152.092L322.419 -152.201L374.968 -222.964H372.655L320.865 -153.213L92.9995 -76.4865L92.7103 -76.378L-21.3491 77.2552L-124.928 112.131V113.685L-20.1203 78.4117L-19.8312 78.3033L-19.795 78.2672ZM37.2347 116.685L151.294 -36.9487L379.124 -113.675L379.413 -113.783L460.512 -222.964H458.199L377.895 -114.795L150.029 -38.0691L149.74 -37.9607L35.6806 115.673L-124.928 169.739V171.293L36.9094 116.793L37.1985 116.685H37.2347ZM65.7495 135.875L179.809 -17.7581L407.639 -94.4844L407.928 -94.5928L503.302 -222.964H500.99L406.41 -95.6048L178.58 -18.8785L178.291 -18.7701L64.2316 134.863L-124.928 198.579V200.133L65.4243 136.02L65.7134 135.911L65.7495 135.875ZM8.71983 97.4578L122.779 -56.1755L350.645 -132.902L350.934 -133.01L417.758 -222.964H415.445L349.38 -133.986L121.514 -57.2597L121.225 -57.1513L7.16579 96.482L-124.928 140.935V142.489L8.39456 97.6023L8.6837 97.4939L8.71983 97.4578ZM94.2644 155.066L208.324 1.43246L436.153 -75.2938L436.443 -75.4022L546.093 -222.964H543.78L434.961 -76.378L207.131 0.348251L206.842 0.456665L92.7826 154.09L-124.928 227.383V228.937L93.9391 155.246L94.2282 155.138L94.2644 155.066ZM19.309 -222.964H14.7191L-78.0896 -191.702L-78.3788 -191.594L-124.928 -128.926V-125.818L-76.8609 -190.582L19.309 -222.964ZM190.434 -222.964H185.844L-21.0238 -153.321L-21.3129 -153.213L-124.928 -13.6743V-10.5662L-19.8312 -152.165L190.434 -222.964ZM104.89 -222.964H100.3L-49.5748 -172.512L-49.8639 -172.403L-124.928 -71.3184V-68.2103L-48.346 -171.391L104.854 -222.964H104.89ZM122.49 174.437L122.779 174.329L236.839 20.6954L464.668 -56.0309L464.957 -56.1393L579.089 -209.773L618.229 -222.964H613.639L577.896 -210.929L577.607 -210.821L463.548 -57.1874L235.682 19.5389L235.393 19.6473L121.334 173.281L-106.496 250.007L-106.785 250.115L-124.819 274.402V277.51L-105.267 251.163L122.562 174.437H122.49ZM-48.3099 59.1127L65.7495 -94.5205L293.579 -171.247L293.868 -171.355L332.213 -222.964H329.9L292.35 -172.403L64.5208 -95.677L64.2316 -95.5686L-49.8278 58.0646L-124.928 83.3268V84.8809L-48.6351 59.185L-48.346 59.0766L-48.3099 59.1127ZM208.071 232.081L208.36 231.973L322.419 78.3394L550.249 1.61316L550.538 1.50475L664.598 -152.128L874.863 -222.964H870.273L663.405 -153.321L663.116 -153.213L549.056 0.420532L321.227 77.1468L320.938 77.2552L206.878 230.888L-20.9515 307.615L-21.2406 307.723L-124.928 447.225V450.334L-19.8312 308.771L207.999 232.045L208.071 232.081ZM151.041 193.664L151.33 193.555L265.39 39.9221L493.219 -36.8042L493.508 -36.9126L607.568 -190.546L703.774 -222.964H699.184L606.375 -191.702L606.086 -191.594L492.027 -37.9607L264.197 38.7656L263.908 38.874L149.848 192.507L-77.9812 269.234L-78.2703 269.342L-124.928 332.01V335.118L-76.8609 270.354L150.969 193.628L151.041 193.664ZM179.556 212.854L179.845 212.746L293.941 59.1127L521.77 -17.6136L522.059 -17.722L636.119 -171.355L789.318 -222.964H784.729L634.89 -172.512L634.601 -172.403L520.542 -18.7701L292.712 57.9562L292.423 58.0646L178.363 211.698L-49.4664 288.424L-49.7555 288.533L-124.928 389.617V392.726L-48.346 289.581L179.484 212.854H179.556ZM-76.8609 39.886L37.1985 -113.747L265.028 -190.474L265.317 -190.582L289.351 -222.964H287.038L263.763 -191.63L35.9336 -114.904L35.6445 -114.795L-78.4149 38.8379L-124.964 54.5229V56.0769L-77.1861 39.9944L-76.897 39.886H-76.8609ZM8.6837 -132.974L236.549 -209.7L236.839 -209.809L246.633 -223H244.32L235.321 -210.857L7.49106 -134.131L7.20193 -134.022L-106.894 19.6473L-124.928 25.7189V27.2729L-105.376 20.6954L8.6837 -132.938V-132.974ZM94.2282 616.038L208.288 462.404L436.117 385.678L436.406 385.57L550.466 231.937L778.332 155.21L778.621 155.102L892.68 1.4686L1120.55 -75.2577L1120.84 -75.3661L1230.52 -222.964H1228.21L1119.39 -76.378L891.524 0.348251L891.235 0.456665L777.175 154.09L549.309 230.816L549.02 230.925L434.961 384.558L207.131 461.284L206.842 461.393L92.7826 615.026L-124.928 688.283V689.837L93.9391 616.146L94.2282 616.038Z" fill="#181818"/>
</svg>
