<svg width="1920" height="1293" viewBox="0 0 1920 1293" fill="none" xmlns="http://www.w3.org/2000/svg">
<path opacity="0.03" d="M1615.48 626.64L1615.19 626.748L1501.13 780.382L1273.3 857.108L1273.01 857.216L1158.95 1010.85L931.124 1087.58L930.835 1087.68L816.775 1241.32L663.576 1292.89H668.165L817.968 1242.44L818.257 1242.33L932.352 1088.7L1160.18 1011.97L1160.47 1011.86L1274.57 858.228L1502.4 781.502L1502.69 781.394L1616.74 627.76L1844.57 551.034L1844.86 550.926L1919.93 449.841V446.733L1843.35 549.878L1615.52 626.604L1615.48 626.64ZM1586.97 607.449L1586.68 607.558L1472.62 761.191L1244.79 837.917L1244.5 838.026L1130.44 991.659L902.609 1068.39L902.32 1068.49L788.26 1222.13L578.031 1292.93H582.621L789.453 1223.28L789.742 1223.18L903.802 1069.54L1131.63 992.816L1131.92 992.707L1245.98 839.074L1473.81 762.348L1474.1 762.239L1588.16 608.606L1815.99 531.88L1816.28 531.771L1919.86 392.269V389.161L1814.76 530.723L1586.93 607.449H1586.97ZM1700.74 223.457L1586.68 377.09L1358.85 453.816L1358.56 453.925L1244.5 607.558L1016.63 684.284L1016.34 684.393L902.284 838.026L674.418 914.752L674.129 914.86L560.069 1068.49L332.24 1145.22L331.95 1145.33L222.372 1292.93H224.685L333.504 1146.34L561.334 1069.61L561.623 1069.51L675.683 915.872L903.549 839.146L903.838 839.038L1017.9 685.404L1245.76 608.678L1246.05 608.57L1360.11 454.937L1587.94 378.21L1588.23 378.102L1702.29 224.469L1919.96 151.176V149.622L1701.1 223.312L1700.81 223.421L1700.74 223.457ZM1729.25 242.647L1615.19 396.281L1387.36 473.007L1387.07 473.115L1273.01 626.748L1045.15 703.475L1044.86 703.583L930.798 857.216L702.933 933.943L702.643 934.051L588.584 1087.68L360.718 1164.41L360.429 1164.52L265.091 1292.93H267.404L361.983 1165.57L589.813 1088.84L590.102 1088.73L704.161 935.099L932.027 858.373L932.316 858.264L1046.38 704.631L1274.21 627.905L1274.49 627.797L1388.59 474.163L1616.42 397.437L1616.71 397.329L1730.8 243.695L1919.93 180.016V178.462L1729.58 242.575L1729.29 242.683L1729.25 242.647ZM1871.82 799.608L1757.77 953.242L1529.94 1029.97L1529.65 1030.08L1415.59 1183.71L1187.76 1260.44L1187.47 1260.54L1163.43 1292.93H1165.75L1189.02 1261.59L1416.85 1184.87L1417.14 1184.76L1531.2 1031.12L1759.03 954.398L1759.32 954.29L1873.38 800.656L1919.93 784.971V783.417L1872.15 799.5L1871.86 799.608H1871.82ZM1900.34 818.799L1786.28 972.432L1558.45 1049.16L1558.16 1049.27L1444.1 1202.9L1216.27 1279.63L1215.98 1279.73L1206.19 1292.89H1208.5L1217.5 1280.75L1445.33 1204.02L1445.62 1203.91L1559.68 1050.28L1787.54 973.553L1787.83 973.444L1901.89 819.811L1919.93 813.739V812.185L1900.66 818.654L1900.38 818.763L1900.34 818.799ZM1672.51 665.057L1672.22 665.166L1558.16 818.799L1330.33 895.525L1330.04 895.634L1215.98 1049.27L988.153 1125.99L987.864 1126.1L873.805 1279.73L834.701 1292.89H839.291L875.034 1280.86L875.323 1280.75L989.382 1127.11L1217.21 1050.39L1217.5 1050.28L1331.56 896.646L1559.39 819.919L1559.68 819.811L1673.74 666.178L1901.57 589.451L1901.86 589.343L1919.89 565.057V561.948L1900.34 588.295L1672.51 665.021V665.057ZM1643.99 645.867L1643.71 645.975L1529.65 799.608L1301.82 876.335L1301.53 876.443L1187.47 1030.08L959.639 1106.8L959.349 1106.91L845.29 1260.54L749.156 1292.93H753.746L846.519 1261.7L846.808 1261.59L960.867 1107.96L1188.7 1031.23L1188.99 1031.12L1303.05 877.491L1530.88 800.765L1531.16 800.656L1645.22 647.023L1873.05 570.297L1873.34 570.189L1919.89 507.485V504.377L1871.82 569.141L1643.99 645.867ZM1843.31 319.482L1729.25 473.115L1501.42 549.841L1501.13 549.95L1387.07 703.583L1159.24 780.309L1158.95 780.418L1044.89 934.051L817.064 1010.78L816.775 1010.89L702.716 1164.52L474.886 1241.25L474.597 1241.35L436.288 1292.93H438.601L476.115 1242.37L703.945 1165.64L704.234 1165.53L818.293 1011.9L1046.12 935.171L1046.41 935.063L1160.47 781.43L1388.3 704.703L1388.59 704.595L1502.65 550.962L1730.48 474.236L1730.77 474.127L1844.83 320.494L1919.89 295.232V293.678L1843.6 319.374L1843.31 319.482ZM1900.34 357.899L1786.28 511.533L1558.45 588.259L1558.16 588.367L1444.1 742L1216.27 818.727L1215.98 818.835L1101.89 972.469L874.058 1049.19L873.769 1049.3L759.709 1202.94L531.88 1279.66L531.591 1279.77L521.796 1292.93H524.109L533.108 1280.78L760.938 1204.06L761.227 1203.95L875.287 1050.32L1103.12 973.589L1103.41 973.48L1217.5 819.847L1445.33 743.121L1445.62 743.012L1559.68 589.379L1787.54 512.653L1787.83 512.544L1901.89 358.911L1919.93 352.84V351.286L1900.66 357.755L1900.38 357.863L1900.34 357.899ZM1871.82 338.709L1757.77 492.342L1529.94 569.068L1529.65 569.177L1415.59 722.81L1187.76 799.536L1187.47 799.645L1073.41 953.278L845.579 1030L845.29 1030.11L731.231 1183.75L503.401 1260.47L503.112 1260.58L479.078 1292.96H481.391L504.666 1261.63L732.496 1184.9L732.785 1184.79L846.844 1031.16L1074.67 954.434L1074.96 954.326L1189.02 800.693L1416.85 723.966L1417.14 723.858L1531.2 570.225L1759.03 493.498L1759.32 493.39L1873.38 339.757L1919.93 324.072V322.518L1872.15 338.6L1871.86 338.709H1871.82ZM1757.77 261.874L1643.67 415.507L1415.84 492.234L1415.55 492.342L1301.49 645.975L1073.66 722.701L1073.37 722.81L959.313 876.443L731.484 953.169L731.195 953.278L617.135 1106.91L389.305 1183.64L389.016 1183.75L307.953 1292.93H310.266L390.57 1184.76L618.4 1108.03L618.689 1107.92L732.749 954.29L960.578 877.563L960.867 877.455L1074.93 723.822L1302.76 647.096L1303.05 646.987L1417.1 493.354L1644.97 416.628L1645.26 416.519L1759.32 262.886L1919.93 208.82V207.266L1758.09 261.766L1757.8 261.874H1757.77ZM1672.51 204.158L1672.22 204.266L1558.16 357.899L1330.33 434.626L1330.04 434.734L1215.98 588.367L988.153 665.094L987.864 665.202L873.805 818.835L645.975 895.561L645.686 895.67L531.627 1049.3L303.797 1126.03L303.508 1126.14L189.448 1279.77L150.344 1292.93H154.934L190.677 1280.89L190.966 1280.78L305.026 1127.15L532.855 1050.42L533.145 1050.32L647.204 896.682L875.07 819.956L875.359 819.847L989.418 666.214L1217.25 589.488L1217.54 589.379L1331.6 435.746L1559.43 359.02L1559.72 358.911L1673.77 205.278L1901.6 128.552L1901.89 128.443L1919.93 104.157V101.049L1900.38 127.395L1672.55 204.122L1672.51 204.158ZM1786.28 281.101L1672.22 434.734L1444.35 511.46L1444.07 511.569L1330.01 665.202L1102.18 741.928L1101.89 742.037L987.828 895.67L759.998 972.396L759.709 972.505L645.65 1126.14L417.82 1202.86L417.531 1202.97L350.707 1292.96H353.02L419.049 1204.02L646.879 1127.29L647.168 1127.19L761.227 973.553L989.057 896.826L989.346 896.718L1103.41 743.085L1331.23 666.358L1331.52 666.25L1445.58 512.617L1673.45 435.891L1673.74 435.782L1787.8 282.149L1919.89 237.66V236.106L1786.57 280.992L1786.28 281.101ZM1843.31 780.454L1729.25 934.087L1501.42 1010.81L1501.13 1010.92L1387.07 1164.56L1159.21 1241.28L1158.92 1241.39L1120.61 1292.96H1122.92L1160.44 1242.4L1388.26 1165.68L1388.55 1165.57L1502.61 1011.93L1730.44 935.208L1730.73 935.099L1844.79 781.466L1919.86 756.204V754.65L1843.56 780.346L1843.27 780.454H1843.31ZM1871.82 108.277L1643.99 185.003L1643.71 185.112L1529.65 338.745L1301.82 415.471L1301.53 415.58L1187.47 569.213L959.639 645.939L959.349 646.047L845.29 799.681L617.46 876.407L617.171 876.515L503.112 1030.15L275.282 1106.88L274.993 1106.98L160.934 1260.62L64.7999 1293H69.3898L162.162 1261.77L162.452 1261.66L276.511 1108.03L504.341 1031.31L504.63 1031.2L618.689 877.563L846.555 800.837L846.844 800.729L960.903 647.096L1188.73 570.369L1189.02 570.261L1303.08 416.628L1530.91 339.901L1531.2 339.793L1645.26 186.16L1873.09 109.433L1873.38 109.325L1919.93 46.6574V43.5493L1871.86 108.313L1871.82 108.277ZM1814.79 300.328L1700.74 453.961L1472.87 530.687L1472.58 530.795L1358.52 684.429L1130.69 761.155L1130.4 761.263L1016.34 914.897L788.513 991.623L788.224 991.731L674.165 1145.36L446.335 1222.09L446.046 1222.2L393.498 1293H395.811L447.6 1223.25L675.43 1146.52L675.719 1146.41L789.814 992.779L1017.64 916.053L1017.93 915.945L1132.03 762.311L1359.86 685.585L1360.15 685.477L1474.21 531.843L1702.07 455.117L1702.36 455.009L1816.42 301.376L1920 266.5V264.946L1815.19 300.219L1814.9 300.328H1814.79ZM1757.77 1183.78L1676.7 1292.96H1679.02L1759.32 1184.79L1919.93 1130.73V1129.17L1758.09 1183.67L1757.8 1183.78H1757.77ZM1786.28 1202.97L1719.46 1292.96H1721.77L1787.83 1204.02L1919.93 1159.53V1157.98L1786.61 1202.86L1786.32 1202.97H1786.28ZM1700.74 1145.36L1591.16 1292.96H1593.47L1702.29 1146.38L1919.96 1073.08V1071.53L1701.1 1145.22L1700.81 1145.33L1700.74 1145.36ZM1814.79 1222.2L1762.25 1293H1764.56L1816.35 1223.25L1919.93 1188.37V1186.82L1815.12 1222.09L1814.83 1222.2H1814.79ZM1672.51 1126.07L1672.22 1126.17L1558.16 1279.81L1519.06 1292.96H1523.65L1559.39 1280.93L1559.68 1280.82L1673.74 1127.19L1901.57 1050.46L1901.86 1050.35L1919.89 1026.06V1022.96L1900.34 1049.3L1672.51 1126.03V1126.07ZM1900.34 1279.81L1890.55 1292.96H1892.86L1901.86 1280.82L1919.89 1274.75V1273.19L1900.63 1279.66L1900.34 1279.77V1279.81ZM1871.82 1260.62L1847.79 1293H1850.1L1873.38 1261.66L1919.93 1245.98V1244.43L1872.15 1260.51L1871.86 1260.62H1871.82ZM1814.79 761.263L1700.74 914.897L1472.87 991.623L1472.58 991.731L1358.52 1145.36L1130.69 1222.09L1130.4 1222.2L1077.85 1293H1080.17L1131.96 1223.25L1359.79 1146.52L1360.08 1146.41L1474.13 992.779L1702 916.053L1702.29 915.945L1816.35 762.311L1919.93 727.436V725.882L1815.12 761.155L1814.83 761.263H1814.79ZM1843.31 1241.39L1805 1292.96H1807.31L1844.83 1242.4L1919.89 1217.14V1215.59L1843.6 1241.28L1843.31 1241.39ZM1643.99 1106.84L1643.71 1106.95L1529.65 1260.58L1433.51 1292.96H1438.1L1530.88 1261.74L1531.16 1261.63L1645.22 1108L1873.05 1031.27L1873.34 1031.16L1919.89 968.457V965.349L1871.82 1030.11L1643.99 1106.84ZM1729.25 703.619L1615.19 857.253L1387.36 933.979L1387.07 934.087L1273.01 1087.72L1045.15 1164.45L1044.86 1164.56L949.519 1292.96H951.832L1046.41 1165.6L1274.24 1088.88L1274.53 1088.77L1388.59 935.135L1616.42 858.409L1616.71 858.301L1730.77 704.667L1919.89 640.988V639.434L1729.54 703.547L1729.25 703.655V703.619ZM1786.28 742.037L1672.22 895.67L1444.35 972.396L1444.07 972.505L1330.01 1126.14L1102.18 1202.86L1101.89 1202.97L1035.06 1292.96H1037.38L1103.41 1204.02L1331.23 1127.29L1331.52 1127.19L1445.58 973.553L1673.45 896.826L1673.74 896.718L1787.8 743.085L1919.89 698.596V697.042L1786.57 741.928L1786.28 742.037ZM1757.77 722.846L1643.71 876.479L1415.88 953.206L1415.59 953.314L1301.53 1106.95L1073.66 1183.67L1073.37 1183.78L992.309 1292.96H994.622L1074.93 1184.79L1302.76 1108.07L1303.05 1107.96L1417.1 954.326L1644.97 877.6L1645.26 877.491L1759.32 723.858L1919.93 669.792V668.238L1758.09 722.738L1757.8 722.846H1757.77ZM1700.74 684.429L1586.68 838.062L1358.85 914.788L1358.56 914.897L1244.5 1068.53L1016.63 1145.26L1016.34 1145.36L906.765 1292.96H909.078L1017.9 1146.38L1245.76 1069.65L1246.05 1069.54L1360.11 915.909L1587.94 839.182L1588.23 839.074L1702.29 685.441L1919.96 612.148V610.594L1701.1 684.284L1700.81 684.393L1700.74 684.429ZM1615.48 1087.65L1615.19 1087.76L1501.13 1241.39L1347.97 1292.96H1352.56L1502.36 1242.51L1502.65 1242.4L1616.71 1088.77L1844.54 1012.04L1844.83 1011.93L1919.89 910.849V907.741L1843.31 1010.89L1615.48 1087.61V1087.65ZM1586.97 1068.46L1586.68 1068.57L1472.62 1222.2L1262.39 1293H1266.98L1473.81 1223.36L1474.1 1223.25L1588.16 1069.61L1815.99 992.888L1816.28 992.779L1919.86 853.277V850.169L1814.76 991.731L1586.93 1068.46H1586.97ZM1729.25 1164.59L1633.91 1293H1636.22L1730.8 1165.64L1919.93 1101.96V1100.41L1729.58 1164.52L1729.29 1164.63L1729.25 1164.59ZM133.72 550.962L361.549 474.236L361.839 474.127L475.898 320.494L703.728 243.768L704.017 243.659L818.112 90.026L1045.94 13.2997L1046.23 13.1913L1056.03 0H1053.71L1044.71 12.1432L816.884 88.8695L816.594 88.9779L702.535 242.611L474.705 319.337L474.416 319.446L360.357 473.079L132.527 549.805L132.238 549.914L18.1787 703.547L0.144562 709.619V711.173L19.6966 704.595L133.756 550.962H133.72ZM76.6901 743.012L190.75 589.379L418.579 512.653L418.868 512.544L532.928 358.911L760.757 282.185L761.047 282.077L875.106 128.443L1102.94 51.717L1103.22 51.6086L1141.53 0.0361405H1139.22L1101.67 50.5967L873.841 127.323L873.552 127.431L759.492 281.065L531.663 357.791L531.374 357.899L417.314 511.533L189.485 588.259L189.195 588.367L75.1361 742L0.072281 767.263V768.817L76.3649 743.121L76.654 743.012H76.6901ZM276.005 877.563L276.294 877.455L390.353 723.822L618.183 647.096L618.472 646.987L732.532 493.354L960.361 416.628L960.65 416.519L1074.71 262.886L1302.54 186.16L1302.83 186.051L1416.89 32.418L1513.06 0.0361405H1508.47L1415.66 31.2977L1415.37 31.4061L1301.31 185.039L1073.44 261.766L1073.16 261.874L959.096 415.507L731.267 492.234L730.978 492.342L616.918 645.975L389.089 722.701L388.799 722.81L274.74 876.443L46.9104 953.169L46.6212 953.278L0.072281 1015.98V1019.09L48.1391 954.326L275.969 877.6L276.005 877.563ZM247.49 858.373L247.779 858.264L361.839 704.631L589.668 627.905L589.957 627.797L704.017 474.163L931.883 397.437L932.172 397.329L1046.23 243.695L1274.06 166.969L1274.35 166.861L1388.41 13.2274L1427.55 0.0361405H1422.96L1387.22 12.0709L1386.93 12.1793L1272.83 165.813L1045 242.539L1044.71 242.647L930.654 396.281L702.788 473.007L702.499 473.115L588.44 626.748L360.574 703.475L360.285 703.583L246.225 857.216L18.3955 933.943L18.1064 934.051L0.072281 958.338V961.446L19.6243 935.099L247.454 858.373H247.49ZM58.7644 0.0361405H54.1746L18.3955 12.0709L18.1064 12.1793L0.072281 36.4658V39.5738L19.6243 13.2274L58.7644 0.0361405ZM162.235 800.62L276.294 646.987L504.124 570.261L504.413 570.152L618.472 416.519L846.338 339.793L846.627 339.685L960.723 186.051L1188.55 109.325L1188.84 109.217L1269.98 0.0361405H1267.66L1187.36 108.205L959.53 184.931L959.241 185.039L845.146 338.673L617.316 415.399L617.027 415.507L502.967 569.141L275.101 645.867L274.812 645.975L160.753 799.608L0.072281 853.675V855.229L161.909 800.729L162.199 800.62H162.235ZM133.72 781.43L247.779 627.797L475.645 551.07L475.934 550.962L589.994 397.329L817.823 320.602L818.112 320.494L932.172 166.861L1160 90.1344L1160.29 90.026L1227.22 0.0361405H1224.91L1158.84 89.014L931.015 165.74L930.726 165.849L816.667 319.482L588.837 396.208L588.548 396.317L474.489 549.95L246.623 626.676L246.334 626.785L132.274 780.418L0.072281 824.871V826.425L133.395 781.538L133.684 781.43H133.72ZM105.205 762.239L219.264 608.606L447.13 531.88L447.419 531.771L561.479 378.138L789.308 301.412L789.598 301.303L903.657 147.67L1131.49 70.9438L1131.78 70.8354L1184.32 0.0361405H1182.01L1130.22 69.7873L902.392 146.514L902.103 146.622L788.044 300.255L560.214 376.982L559.925 377.09L445.865 530.723L217.999 607.449L217.71 607.558L103.651 761.191L0.072281 796.067V797.621L104.88 762.348L105.169 762.239H105.205ZM76.6901 1203.95L190.786 1050.32L418.615 973.589L418.904 973.48L532.964 819.847L760.794 743.121L761.083 743.012L875.142 589.379L1102.97 512.653L1103.26 512.544L1217.32 358.911L1445.15 282.185L1445.44 282.077L1559.5 128.443L1787.36 51.717L1787.65 51.6086L1825.96 0.0361405H1823.65L1786.14 50.5967L1558.31 127.323L1558.02 127.431L1443.96 281.065L1216.13 357.791L1215.84 357.899L1101.78 511.533L873.949 588.259L873.66 588.367L759.601 742L531.771 818.727L531.482 818.835L417.423 972.469L189.593 1049.19L189.304 1049.3L75.2445 1202.94L0.180702 1228.2V1229.75L76.4733 1204.06L76.7624 1203.95H76.6901ZM48.1753 1184.76L162.235 1031.12L390.064 954.398L390.353 954.29L504.413 800.656L732.243 723.93L732.532 723.822L846.591 570.189L1074.42 493.462L1074.71 493.354L1188.77 339.721L1416.6 262.994L1416.89 262.886L1530.95 109.253L1758.78 32.5264L1759.07 32.418L1783.1 0.0361405H1780.79L1757.51 31.3699L1529.68 108.096L1529.39 108.205L1415.33 261.838L1187.5 338.564L1187.22 338.673L1073.16 492.306L845.326 569.032L845.037 569.141L730.978 722.774L503.148 799.5L502.859 799.608L388.799 953.242L160.97 1029.97L160.681 1030.08L46.6212 1183.71L0.072281 1199.39V1200.95L47.85 1184.87L48.1391 1184.76H48.1753ZM133.72 1011.9L361.549 935.171L361.839 935.063L475.898 781.43L703.728 704.703L704.017 704.595L818.076 550.962L1045.91 474.236L1046.19 474.127L1160.25 320.494L1388.08 243.768L1388.37 243.659L1502.43 90.026L1730.26 13.2997L1730.55 13.1913L1740.35 0H1738.03L1729.03 12.1432L1501.2 88.8695L1500.91 88.9779L1386.86 242.611L1158.99 319.337L1158.7 319.446L1044.6 473.079L816.775 549.805L816.486 549.914L702.427 703.547L474.597 780.273L474.308 780.382L360.248 934.015L132.419 1010.74L132.13 1010.85L18.0341 1164.48L0 1170.55V1172.11L19.552 1165.53L133.611 1011.9H133.72ZM304.52 896.754L304.809 896.646L418.868 743.012L646.698 666.286L646.987 666.178L761.047 512.544L988.876 435.818L989.165 435.71L1103.22 282.077L1331.05 205.35L1331.34 205.242L1445.4 51.6086L1598.78 0.0361405H1594.19L1444.35 50.4883L1444.07 50.5967L1330.01 204.23L1102.18 280.956L1101.89 281.065L987.828 434.698L759.998 511.424L759.709 511.533L645.65 665.166L417.82 741.892L417.531 742L303.472 895.634L75.6421 972.36L75.3529 972.469L0.072281 1073.55V1076.66L76.654 973.48L304.484 896.754H304.52ZM133.72 1242.33L247.779 1088.7L475.645 1011.97L475.934 1011.86L589.994 858.228L817.823 781.502L818.112 781.394L932.208 627.76L1160.04 551.034L1160.33 550.926L1274.39 397.292L1502.22 320.566L1502.5 320.458L1616.56 166.825L1844.39 90.0983L1844.68 89.9898L1911.51 0H1909.19L1843.13 88.9779L1615.3 165.704L1615.01 165.813L1500.95 319.446L1273.12 396.172L1272.83 396.281L1158.77 549.914L930.943 626.64L930.654 626.748L816.558 780.382L588.729 857.108L588.44 857.216L474.38 1010.85L246.514 1087.58L246.225 1087.68L132.166 1241.32L0.072281 1285.81V1287.36L133.395 1242.47L133.684 1242.37L133.72 1242.33ZM333.035 915.945L333.324 915.836L447.383 762.203L675.213 685.477L675.502 685.368L789.561 531.735L1017.39 455.009L1017.68 454.9L1131.74 301.267L1359.57 224.541L1359.86 224.432L1473.92 70.7992L1684.33 0.0361405H1679.74L1472.87 69.6789L1472.58 69.7873L1358.52 223.421L1130.69 300.147L1130.4 300.255L1016.34 453.888L788.513 530.615L788.224 530.723L674.165 684.356L446.335 761.083L446.046 761.191L331.987 914.824L104.157 991.551L103.868 991.659L0.072281 1131.16V1134.27L105.169 992.707L332.999 915.981L333.035 915.945ZM190.75 819.811L304.809 666.178L532.639 589.451L532.928 589.343L646.987 435.71L874.853 358.984L875.142 358.875L989.201 205.242L1217.03 128.516L1217.32 128.407L1312.77 0.0361405H1310.45L1215.87 127.395L988.045 204.122L987.756 204.23L873.696 357.863L645.867 434.589L645.578 434.698L531.518 588.331L303.689 665.057L303.399 665.166L189.34 818.799L0.072281 882.479V884.033L190.424 819.919L190.713 819.811H190.75ZM105.205 1223.14L219.264 1069.51L447.13 992.779L447.419 992.671L561.479 839.038L789.308 762.311L789.598 762.203L903.657 608.57L1131.49 531.843L1131.78 531.735L1245.84 378.102L1473.66 301.376L1473.95 301.267L1588.01 147.634L1815.84 70.9077L1816.13 70.7992L1868.68 0H1866.37L1814.58 69.7512L1586.75 146.477L1586.46 146.586L1472.4 300.219L1244.57 376.945L1244.28 377.054L1130.22 530.687L902.392 607.413L902.103 607.522L788.044 761.155L560.214 837.881L559.925 837.99L445.865 991.623L217.999 1068.35L217.71 1068.46L103.651 1222.09L0.072281 1256.97V1258.52L104.88 1223.25L105.169 1223.14H105.205ZM48.1753 723.786L162.235 570.152L390.064 493.426L390.353 493.318L504.413 339.685L732.243 262.958L732.532 262.85L846.591 109.217L1074.42 32.4903L1074.71 32.3819L1098.74 0H1096.43L1073.16 31.3338L845.326 108.06L845.037 108.169L730.978 261.802L503.148 338.528L502.859 338.636L388.799 492.27L160.97 568.996L160.681 569.104L46.6212 722.738L0.072281 738.423V739.977L47.85 723.894L48.1391 723.786H48.1753ZM105.205 301.267L219.264 147.634L447.13 70.9077L447.419 70.7992L499.968 0.0361405H497.655L445.865 69.7873L217.999 146.514L217.71 146.622L103.651 300.255L0.072281 335.131V336.685L104.88 301.412L105.169 301.303L105.205 301.267ZM162.235 339.685L276.294 186.051L504.124 109.325L504.413 109.217L585.512 0.0361405H583.199L502.895 108.205L275.029 184.931L274.74 185.039L160.681 338.673L0.072281 392.739V394.293L161.909 339.793L162.199 339.685H162.235ZM190.75 358.875L304.809 205.242L532.639 128.516L532.928 128.407L628.302 0.0361405H625.99L531.41 127.395L303.58 204.122L303.291 204.23L189.232 357.863L0.072281 421.579V423.133L190.424 359.02L190.713 358.911L190.75 358.875ZM133.72 320.458L247.779 166.825L475.645 90.0983L475.934 89.9898L542.758 0.0361405H540.445L474.38 89.014L246.514 165.74L246.225 165.849L132.166 319.482L0.072281 363.935V365.489L133.395 320.602L133.684 320.494L133.72 320.458ZM219.264 378.066L333.324 224.432L561.153 147.706L561.443 147.598L671.093 0.0361405H668.78L559.961 146.622L332.131 223.348L331.842 223.457L217.783 377.09L0.072281 450.383V451.937L218.939 378.246L219.228 378.138L219.264 378.066ZM144.309 0.0361405H139.719L46.9104 31.2977L46.6212 31.4061L0.072281 94.0737V97.1818L48.1391 32.418L144.309 0.0361405ZM315.434 0.0361405H310.844L103.976 69.6789L103.687 69.7873L0.072281 209.326V212.434L105.169 70.8354L315.434 0.0361405ZM229.89 0.0361405H225.3L75.4252 50.4883L75.1361 50.5967L0.072281 151.682V154.79L76.654 51.6086L229.854 0.0361405H229.89ZM247.49 397.437L247.779 397.329L361.839 243.695L589.668 166.969L589.957 166.861L704.089 13.2274L743.229 0.0361405H738.639L702.896 12.0709L702.607 12.1793L588.548 165.813L360.682 242.539L360.393 242.647L246.334 396.281L18.5039 473.007L18.2148 473.115L0.180702 497.402V500.51L19.7327 474.163L247.562 397.437H247.49ZM76.6901 282.113L190.75 128.479L418.579 51.7532L418.868 51.6448L457.213 0.0361405H454.9L417.35 50.5967L189.521 127.323L189.232 127.431L75.1722 281.065L0.072281 306.327V307.881L76.3649 282.185L76.654 282.077L76.6901 282.113ZM333.071 455.081L333.36 454.973L447.419 301.339L675.249 224.613L675.538 224.505L789.598 70.8715L999.863 0.0361405H995.273L788.405 69.6789L788.116 69.7873L674.056 223.421L446.227 300.147L445.938 300.255L331.878 453.888L104.048 530.615L103.759 530.723L0.072281 670.225V673.334L105.169 531.771L332.999 455.045L333.071 455.081ZM276.041 416.664L276.33 416.555L390.39 262.922L618.219 186.196L618.508 186.087L732.568 32.4542L828.774 0.0361405H824.184L731.375 31.2977L731.086 31.4061L617.027 185.039L389.197 261.766L388.908 261.874L274.848 415.507L47.0188 492.234L46.7297 492.342L0.072281 555.01V558.118L48.1391 493.354L275.969 416.628L276.041 416.664ZM304.556 435.854L304.845 435.746L418.941 282.113L646.77 205.386L647.059 205.278L761.119 51.6448L914.318 0.0361405H909.729L759.89 50.4883L759.601 50.5967L645.542 204.23L417.712 280.956L417.423 281.065L303.363 434.698L75.5336 511.424L75.2445 511.533L0.072281 612.617V615.726L76.654 512.581L304.484 435.854H304.556ZM48.1391 262.886L162.199 109.253L390.028 32.5264L390.317 32.418L414.351 0.0361405H412.038L388.763 31.3699L160.934 108.096L160.645 108.205L46.5851 261.838L0.0361405 277.523V279.077L47.8139 262.994L48.103 262.886H48.1391ZM133.684 90.026L361.549 13.2997L361.839 13.1913L371.633 0H369.32L360.321 12.1432L132.491 88.8695L132.202 88.9779L18.1064 242.647L0.072281 248.719V250.273L19.6243 243.695L133.684 90.0621V90.026ZM219.228 839.038L333.288 685.404L561.117 608.678L561.406 608.57L675.466 454.937L903.332 378.21L903.621 378.102L1017.68 224.469L1245.55 147.742L1245.84 147.634L1355.52 0.0361405H1353.21L1244.39 146.622L1016.52 223.348L1016.23 223.457L902.175 377.09L674.309 453.816L674.02 453.925L559.961 607.558L332.131 684.284L331.842 684.393L217.783 838.026L0.072281 911.283V912.837L218.939 839.146L219.228 839.038Z" fill="#181818"/>
</svg>
