<svg width="1920" height="852" viewBox="0 0 1920 852" fill="none" xmlns="http://www.w3.org/2000/svg">
<path opacity="0.03" d="M1615.48 363.64L1615.19 363.748L1501.13 517.382L1273.3 594.108L1273.01 594.216L1158.95 747.85L931.124 824.576L930.835 824.684L816.775 978.318L663.576 1029.89H668.165L817.968 979.438L818.257 979.329L932.352 825.696L1160.18 748.97L1160.47 748.862L1274.57 595.228L1502.4 518.502L1502.69 518.394L1616.74 364.76L1844.57 288.034L1844.86 287.926L1919.93 186.841V183.733L1843.35 286.878L1615.52 363.604L1615.48 363.64ZM1586.97 344.449L1586.68 344.558L1472.62 498.191L1244.79 574.917L1244.5 575.026L1130.44 728.659L902.609 805.385L902.32 805.494L788.26 959.127L578.031 1029.93H582.621L789.453 960.283L789.742 960.175L903.802 806.542L1131.63 729.816L1131.92 729.707L1245.98 576.074L1473.81 499.348L1474.1 499.239L1588.16 345.606L1815.99 268.88L1816.28 268.771L1919.86 129.269V126.161L1814.76 267.723L1586.93 344.449H1586.97ZM1700.74 -39.5433L1586.68 114.09L1358.85 190.816L1358.56 190.925L1244.5 344.558L1016.63 421.284L1016.34 421.393L902.284 575.026L674.418 651.752L674.129 651.86L560.069 805.494L332.24 882.22L331.95 882.328L222.372 1029.93H224.685L333.504 883.34L561.334 806.614L561.623 806.506L675.683 652.872L903.549 576.146L903.838 576.038L1017.9 422.404L1245.76 345.678L1246.05 345.57L1360.11 191.937L1587.94 115.21L1588.23 115.102L1702.29 -38.5314L1919.96 -111.824V-113.378L1701.1 -39.6879L1700.81 -39.5795L1700.74 -39.5433ZM1729.25 -20.3527L1615.19 133.281L1387.36 210.007L1387.07 210.115L1273.01 363.748L1045.15 440.475L1044.86 440.583L930.798 594.216L702.933 670.943L702.643 671.051L588.584 824.684L360.718 901.411L360.429 901.519L265.091 1029.93H267.404L361.983 902.567L589.813 825.841L590.102 825.732L704.161 672.099L932.027 595.373L932.316 595.264L1046.38 441.631L1274.21 364.905L1274.49 364.797L1388.59 211.163L1616.42 134.437L1616.71 134.329L1730.8 -19.3046L1919.93 -82.9842V-84.5383L1729.58 -20.425L1729.29 -20.3166L1729.25 -20.3527ZM1871.82 536.608L1757.77 690.242L1529.94 766.968L1529.65 767.076L1415.59 920.71L1187.76 997.436L1187.47 997.544L1163.43 1029.93H1165.75L1189.02 998.592L1416.85 921.866L1417.14 921.758L1531.2 768.124L1759.03 691.398L1759.32 691.29L1873.38 537.656L1919.93 521.971V520.417L1872.15 536.5L1871.86 536.608H1871.82ZM1900.34 555.799L1786.28 709.432L1558.45 786.159L1558.16 786.267L1444.1 939.9L1216.27 1016.63L1215.98 1016.73L1206.19 1029.89H1208.5L1217.5 1017.75L1445.33 941.021L1445.62 940.912L1559.68 787.279L1787.54 710.553L1787.83 710.444L1901.89 556.811L1919.93 550.739V549.185L1900.66 555.654L1900.38 555.763L1900.34 555.799ZM1672.51 402.057L1672.22 402.166L1558.16 555.799L1330.33 632.525L1330.04 632.634L1215.98 786.267L988.153 862.993L987.864 863.102L873.805 1016.73L834.701 1029.89H839.291L875.034 1017.86L875.323 1017.75L989.382 864.114L1217.21 787.387L1217.5 787.279L1331.56 633.646L1559.39 556.919L1559.68 556.811L1673.74 403.178L1901.57 326.451L1901.86 326.343L1919.89 302.057V298.948L1900.34 325.295L1672.51 402.021V402.057ZM1643.99 382.867L1643.71 382.975L1529.65 536.608L1301.82 613.335L1301.53 613.443L1187.47 767.076L959.639 843.803L959.349 843.911L845.29 997.544L749.156 1029.93H753.746L846.519 998.701L846.808 998.592L960.867 844.959L1188.7 768.233L1188.99 768.124L1303.05 614.491L1530.88 537.765L1531.16 537.656L1645.22 384.023L1873.05 307.297L1873.34 307.189L1919.89 244.485V241.377L1871.82 306.141L1643.99 382.867ZM1843.31 56.482L1729.25 210.115L1501.42 286.841L1501.13 286.95L1387.07 440.583L1159.24 517.309L1158.95 517.418L1044.89 671.051L817.064 747.777L816.775 747.886L702.716 901.519L474.886 978.245L474.597 978.354L436.288 1029.93H438.601L476.115 979.366L703.945 902.639L704.234 902.531L818.293 748.898L1046.12 672.171L1046.41 672.063L1160.47 518.43L1388.3 441.703L1388.59 441.595L1502.65 287.962L1730.48 211.236L1730.77 211.127L1844.83 57.4939L1919.89 32.2317V30.6777L1843.6 56.3736L1843.31 56.482ZM1900.34 94.8993L1786.28 248.533L1558.45 325.259L1558.16 325.367L1444.1 479L1216.27 555.727L1215.98 555.835L1101.89 709.469L874.058 786.195L873.769 786.303L759.709 939.936L531.88 1016.66L531.591 1016.77L521.796 1029.93H524.109L533.108 1017.78L760.938 941.057L761.227 940.948L875.287 787.315L1103.12 710.589L1103.41 710.48L1217.5 556.847L1445.33 480.121L1445.62 480.012L1559.68 326.379L1787.54 249.653L1787.83 249.544L1901.89 95.9113L1919.93 89.8397V88.2856L1900.66 94.7548L1900.38 94.8632L1900.34 94.8993ZM1871.82 75.7087L1757.77 229.342L1529.94 306.068L1529.65 306.177L1415.59 459.81L1187.76 536.536L1187.47 536.645L1073.41 690.278L845.579 767.004L845.29 767.113L731.231 920.746L503.401 997.472L503.112 997.581L479.078 1029.96H481.391L504.666 998.629L732.496 921.902L732.785 921.794L846.844 768.161L1074.67 691.434L1074.96 691.326L1189.02 537.693L1416.85 460.966L1417.14 460.858L1531.2 307.225L1759.03 230.498L1759.32 230.39L1873.38 76.7568L1919.93 61.0718V59.5178L1872.15 75.6003L1871.86 75.7087H1871.82ZM1757.77 -1.12598L1643.67 152.507L1415.84 229.234L1415.55 229.342L1301.49 382.975L1073.66 459.701L1073.37 459.81L959.313 613.443L731.484 690.169L731.195 690.278L617.135 843.911L389.305 920.637L389.016 920.746L307.953 1029.93H310.266L390.57 921.758L618.4 845.031L618.689 844.923L732.749 691.29L960.578 614.563L960.867 614.455L1074.93 460.822L1302.76 384.096L1303.05 383.987L1417.1 230.354L1644.97 153.628L1645.26 153.519L1759.32 -0.114014L1919.93 -54.1802V-55.7343L1758.09 -1.23441L1757.8 -1.12598H1757.77ZM1672.51 -58.8424L1672.22 -58.7339L1558.16 94.8993L1330.33 171.626L1330.04 171.734L1215.98 325.367L988.153 402.094L987.864 402.202L873.805 555.835L645.975 632.561L645.686 632.67L531.627 786.303L303.797 863.029L303.508 863.138L189.448 1016.77L150.344 1029.93H154.934L190.677 1017.89L190.966 1017.78L305.026 864.15L532.855 787.424L533.145 787.315L647.204 633.682L875.07 556.956L875.359 556.847L989.418 403.214L1217.25 326.488L1217.54 326.379L1331.6 172.746L1559.43 96.0197L1559.72 95.9113L1673.77 -57.722L1901.6 -134.448L1901.89 -134.557L1919.93 -158.843V-161.951L1900.38 -135.605L1672.55 -58.8785L1672.51 -58.8424ZM1786.28 18.1008L1672.22 171.734L1444.35 248.46L1444.07 248.569L1330.01 402.202L1102.18 478.928L1101.89 479.037L987.828 632.67L759.998 709.396L759.709 709.505L645.65 863.138L417.82 939.864L417.531 939.973L350.707 1029.96H353.02L419.049 941.021L646.879 864.294L647.168 864.186L761.227 710.553L989.057 633.826L989.346 633.718L1103.41 480.085L1331.23 403.358L1331.52 403.25L1445.58 249.617L1673.45 172.891L1673.74 172.782L1787.8 19.1488L1919.89 -25.3401V-26.8941L1786.57 17.9923L1786.28 18.1008ZM1843.31 517.454L1729.25 671.087L1501.42 747.813L1501.13 747.922L1387.07 901.555L1159.21 978.281L1158.92 978.39L1120.61 1029.96H1122.92L1160.44 979.402L1388.26 902.676L1388.55 902.567L1502.61 748.934L1730.44 672.208L1730.73 672.099L1844.79 518.466L1919.86 493.204V491.65L1843.56 517.346L1843.27 517.454H1843.31ZM1871.82 -154.723L1643.99 -77.9968L1643.71 -77.8884L1529.65 75.7449L1301.82 152.471L1301.53 152.58L1187.47 306.213L959.639 382.939L959.349 383.047L845.29 536.681L617.46 613.407L617.171 613.515L503.112 767.149L275.282 843.875L274.993 843.983L160.934 997.617L64.7999 1030H69.3898L162.162 998.773L162.452 998.665L276.511 845.031L504.341 768.305L504.63 768.197L618.689 614.563L846.555 537.837L846.844 537.729L960.903 384.096L1188.73 307.369L1189.02 307.261L1303.08 153.628L1530.91 76.9014L1531.2 76.7929L1645.26 -76.8403L1873.09 -153.567L1873.38 -153.675L1919.93 -216.343V-219.451L1871.86 -154.687L1871.82 -154.723ZM1814.79 37.3275L1700.74 190.961L1472.87 267.687L1472.58 267.795L1358.52 421.429L1130.69 498.155L1130.4 498.263L1016.34 651.897L788.513 728.623L788.224 728.731L674.165 882.365L446.335 959.091L446.046 959.199L393.498 1030H395.811L447.6 960.247L675.43 883.521L675.719 883.413L789.814 729.779L1017.64 653.053L1017.93 652.945L1132.03 499.311L1359.86 422.585L1360.15 422.477L1474.21 268.843L1702.07 192.117L1702.36 192.009L1816.42 38.3756L1920 3.50003V1.94598L1815.19 37.2191L1814.9 37.3275H1814.79ZM1757.77 920.782L1676.7 1029.96H1679.02L1759.32 921.794L1919.93 867.728V866.174L1758.09 920.674L1757.8 920.782H1757.77ZM1786.28 939.973L1719.46 1029.96H1721.77L1787.83 941.021L1919.93 896.532V894.978L1786.61 939.864L1786.32 939.973H1786.28ZM1700.74 882.365L1591.16 1029.96H1593.47L1702.29 883.376L1919.96 810.084V808.53L1701.1 882.22L1700.81 882.328L1700.74 882.365ZM1814.79 959.199L1762.25 1030H1764.56L1816.35 960.247L1919.93 925.372V923.818L1815.12 959.091L1814.83 959.199H1814.79ZM1672.51 863.066L1672.22 863.174L1558.16 1016.81L1519.06 1029.96H1523.65L1559.39 1017.93L1559.68 1017.82L1673.74 864.186L1901.57 787.46L1901.86 787.351L1919.89 763.065V759.957L1900.34 786.303L1672.51 863.029V863.066ZM1900.34 1016.81L1890.55 1029.96H1892.86L1901.86 1017.82L1919.89 1011.75V1010.19L1900.63 1016.66L1900.34 1016.77V1016.81ZM1871.82 997.617L1847.79 1030H1850.1L1873.38 998.665L1919.93 982.98V981.426L1872.15 997.508L1871.86 997.617H1871.82ZM1814.79 498.263L1700.74 651.897L1472.87 728.623L1472.58 728.731L1358.52 882.365L1130.69 959.091L1130.4 959.199L1077.85 1030H1080.17L1131.96 960.247L1359.79 883.521L1360.08 883.413L1474.13 729.779L1702 653.053L1702.29 652.945L1816.35 499.311L1919.93 464.436V462.882L1815.12 498.155L1814.83 498.263H1814.79ZM1843.31 978.39L1805 1029.96H1807.31L1844.83 979.402L1919.89 954.14V952.586L1843.6 978.281L1843.31 978.39ZM1643.99 843.839L1643.71 843.947L1529.65 997.581L1433.51 1029.96H1438.1L1530.88 998.737L1531.16 998.629L1645.22 844.995L1873.05 768.269L1873.34 768.161L1919.89 705.457V702.349L1871.82 767.113L1643.99 843.839ZM1729.25 440.619L1615.19 594.253L1387.36 670.979L1387.07 671.087L1273.01 824.72L1045.15 901.447L1044.86 901.555L949.519 1029.96H951.832L1046.41 902.603L1274.24 825.877L1274.53 825.769L1388.59 672.135L1616.42 595.409L1616.71 595.301L1730.77 441.667L1919.89 377.988V376.434L1729.54 440.547L1729.25 440.655V440.619ZM1786.28 479.037L1672.22 632.67L1444.35 709.396L1444.07 709.505L1330.01 863.138L1102.18 939.864L1101.89 939.973L1035.06 1029.96H1037.38L1103.41 941.021L1331.23 864.294L1331.52 864.186L1445.58 710.553L1673.45 633.826L1673.74 633.718L1787.8 480.085L1919.89 435.596V434.042L1786.57 478.928L1786.28 479.037ZM1757.77 459.846L1643.71 613.479L1415.88 690.206L1415.59 690.314L1301.53 843.947L1073.66 920.674L1073.37 920.782L992.309 1029.96H994.622L1074.93 921.794L1302.76 845.068L1303.05 844.959L1417.1 691.326L1644.97 614.6L1645.26 614.491L1759.32 460.858L1919.93 406.792V405.238L1758.09 459.738L1757.8 459.846H1757.77ZM1700.74 421.429L1586.68 575.062L1358.85 651.788L1358.56 651.897L1244.5 805.53L1016.63 882.256L1016.34 882.365L906.765 1029.96H909.078L1017.9 883.376L1245.76 806.65L1246.05 806.542L1360.11 652.909L1587.94 576.182L1588.23 576.074L1702.29 422.441L1919.96 349.148V347.594L1701.1 421.284L1700.81 421.393L1700.74 421.429ZM1615.48 824.648L1615.19 824.757L1501.13 978.39L1347.97 1029.96H1352.56L1502.36 979.51L1502.65 979.402L1616.71 825.769L1844.54 749.042L1844.83 748.934L1919.89 647.849V644.741L1843.31 747.886L1615.48 824.612V824.648ZM1586.97 805.458L1586.68 805.566L1472.62 959.199L1262.39 1030H1266.98L1473.81 960.356L1474.1 960.247L1588.16 806.614L1815.99 729.888L1816.28 729.779L1919.86 590.277V587.169L1814.76 728.731L1586.93 805.458H1586.97ZM1729.25 901.591L1633.91 1030H1636.22L1730.8 902.639L1919.93 838.96V837.406L1729.58 901.519L1729.29 901.627L1729.25 901.591ZM133.72 287.962L361.549 211.236L361.839 211.127L475.898 57.4939L703.728 -19.2323L704.017 -19.3408L818.112 -172.974L1045.94 -249.7L1046.23 -249.809L1056.03 -263H1053.71L1044.71 -250.857L816.884 -174.131L816.594 -174.022L702.535 -20.3888L474.705 56.3374L474.416 56.4458L360.357 210.079L132.527 286.805L132.238 286.914L18.1787 440.547L0.144562 446.619V448.173L19.6966 441.595L133.756 287.962H133.72ZM76.6901 480.012L190.75 326.379L418.579 249.653L418.868 249.544L532.928 95.9113L760.757 19.185L761.047 19.0766L875.106 -134.557L1102.94 -211.283L1103.22 -211.391L1141.53 -262.964H1139.22L1101.67 -212.403L873.841 -135.677L873.552 -135.569L759.492 18.0646L531.663 94.7909L531.374 94.8993L417.314 248.533L189.485 325.259L189.195 325.367L75.1361 479L0.072281 504.263V505.817L76.3649 480.121L76.654 480.012H76.6901ZM276.005 614.563L276.294 614.455L390.353 460.822L618.183 384.096L618.472 383.987L732.532 230.354L960.361 153.628L960.65 153.519L1074.71 -0.114014L1302.54 -76.8403L1302.83 -76.9487L1416.89 -230.582L1513.06 -262.964H1508.47L1415.66 -231.702L1415.37 -231.594L1301.31 -77.9607L1073.44 -1.23441L1073.16 -1.12598L959.096 152.507L731.267 229.234L730.978 229.342L616.918 382.975L389.089 459.701L388.799 459.81L274.74 613.443L46.9104 690.169L46.6212 690.278L0.072281 752.982V756.09L48.1391 691.326L275.969 614.6L276.005 614.563ZM247.49 595.373L247.779 595.264L361.839 441.631L589.668 364.905L589.957 364.797L704.017 211.163L931.883 134.437L932.172 134.329L1046.23 -19.3046L1274.06 -96.0309L1274.35 -96.1393L1388.41 -249.773L1427.55 -262.964H1422.96L1387.22 -250.929L1386.93 -250.821L1272.83 -97.1874L1045 -20.4611L1044.71 -20.3527L930.654 133.281L702.788 210.007L702.499 210.115L588.44 363.748L360.574 440.475L360.285 440.583L246.225 594.216L18.3955 670.943L18.1064 671.051L0.072281 695.338V698.446L19.6243 672.099L247.454 595.373H247.49ZM58.7644 -262.964H54.1746L18.3955 -250.929L18.1064 -250.821L0.072281 -226.534V-223.426L19.6243 -249.773L58.7644 -262.964ZM162.235 537.62L276.294 383.987L504.124 307.261L504.413 307.152L618.472 153.519L846.338 76.7929L846.627 76.6845L960.723 -76.9487L1188.55 -153.675L1188.84 -153.783L1269.98 -262.964H1267.66L1187.36 -154.795L959.53 -78.0691L959.241 -77.9607L845.146 75.6726L617.316 152.399L617.027 152.507L502.967 306.141L275.101 382.867L274.812 382.975L160.753 536.608L0.072281 590.675V592.229L161.909 537.729L162.199 537.62H162.235ZM133.72 518.43L247.779 364.797L475.645 288.07L475.934 287.962L589.994 134.329L817.823 57.6023L818.112 57.4939L932.172 -96.1393L1160 -172.866L1160.29 -172.974L1227.22 -262.964H1224.91L1158.84 -173.986L931.015 -97.2597L930.726 -97.1513L816.667 56.482L588.837 133.208L588.548 133.317L474.489 286.95L246.623 363.676L246.334 363.785L132.274 517.418L0.072281 561.871V563.425L133.395 518.538L133.684 518.43H133.72ZM105.205 499.239L219.264 345.606L447.13 268.88L447.419 268.771L561.479 115.138L789.308 38.4117L789.598 38.3033L903.657 -115.33L1131.49 -192.056L1131.78 -192.165L1184.32 -262.964H1182.01L1130.22 -193.213L902.392 -116.486L902.103 -116.378L788.044 37.2552L560.214 113.982L559.925 114.09L445.865 267.723L217.999 344.449L217.71 344.558L103.651 498.191L0.072281 533.067V534.621L104.88 499.348L105.169 499.239H105.205ZM76.6901 940.948L190.786 787.315L418.615 710.589L418.904 710.48L532.964 556.847L760.794 480.121L761.083 480.012L875.142 326.379L1102.97 249.653L1103.26 249.544L1217.32 95.9113L1445.15 19.185L1445.44 19.0766L1559.5 -134.557L1787.36 -211.283L1787.65 -211.391L1825.96 -262.964H1823.65L1786.14 -212.403L1558.31 -135.677L1558.02 -135.569L1443.96 18.0646L1216.13 94.7909L1215.84 94.8993L1101.78 248.533L873.949 325.259L873.66 325.367L759.601 479L531.771 555.727L531.482 555.835L417.423 709.469L189.593 786.195L189.304 786.303L75.2445 939.936L0.180702 965.198V966.753L76.4733 941.057L76.7624 940.948H76.6901ZM48.1753 921.758L162.235 768.124L390.064 691.398L390.353 691.29L504.413 537.656L732.243 460.93L732.532 460.822L846.591 307.189L1074.42 230.462L1074.71 230.354L1188.77 76.7206L1416.6 -0.00561523L1416.89 -0.114014L1530.95 -153.747L1758.78 -230.474L1759.07 -230.582L1783.1 -262.964H1780.79L1757.51 -231.63L1529.68 -154.904L1529.39 -154.795L1415.33 -1.16211L1187.5 75.5641L1187.22 75.6726L1073.16 229.306L845.326 306.032L845.037 306.141L730.978 459.774L503.148 536.5L502.859 536.608L388.799 690.242L160.97 766.968L160.681 767.076L46.6212 920.71L0.072281 936.395V937.949L47.85 921.866L48.1391 921.758H48.1753ZM133.72 748.898L361.549 672.171L361.839 672.063L475.898 518.43L703.728 441.703L704.017 441.595L818.076 287.962L1045.91 211.236L1046.19 211.127L1160.25 57.4939L1388.08 -19.2323L1388.37 -19.3408L1502.43 -172.974L1730.26 -249.7L1730.55 -249.809L1740.35 -263H1738.03L1729.03 -250.857L1501.2 -174.131L1500.91 -174.022L1386.86 -20.3888L1158.99 56.3374L1158.7 56.4458L1044.6 210.079L816.775 286.805L816.486 286.914L702.427 440.547L474.597 517.273L474.308 517.382L360.248 671.015L132.419 747.741L132.13 747.85L18.0341 901.483L0 907.555V909.109L19.552 902.531L133.611 748.898H133.72ZM304.52 633.754L304.809 633.646L418.868 480.012L646.698 403.286L646.987 403.178L761.047 249.544L988.876 172.818L989.165 172.71L1103.22 19.0766L1331.05 -57.6497L1331.34 -57.7581L1445.4 -211.391L1598.78 -262.964H1594.19L1444.35 -212.512L1444.07 -212.403L1330.01 -58.7701L1102.18 17.9562L1101.89 18.0646L987.828 171.698L759.998 248.424L759.709 248.533L645.65 402.166L417.82 478.892L417.531 479L303.472 632.634L75.6421 709.36L75.3529 709.469L0.072281 810.553V813.661L76.654 710.48L304.484 633.754H304.52ZM133.72 979.329L247.779 825.696L475.645 748.97L475.934 748.862L589.994 595.228L817.823 518.502L818.112 518.394L932.208 364.76L1160.04 288.034L1160.33 287.926L1274.39 134.292L1502.22 57.5662L1502.5 57.4578L1616.56 -96.1755L1844.39 -172.902L1844.68 -173.01L1911.51 -263H1909.19L1843.13 -174.022L1615.3 -97.2958L1615.01 -97.1874L1500.95 56.4458L1273.12 133.172L1272.83 133.281L1158.77 286.914L930.943 363.64L930.654 363.748L816.558 517.382L588.729 594.108L588.44 594.216L474.38 747.85L246.514 824.576L246.225 824.684L132.166 978.318L0.072281 1022.81V1024.36L133.395 979.474L133.684 979.366L133.72 979.329ZM333.035 652.945L333.324 652.836L447.383 499.203L675.213 422.477L675.502 422.368L789.561 268.735L1017.39 192.009L1017.68 191.9L1131.74 38.2672L1359.57 -38.4591L1359.86 -38.5675L1473.92 -192.201L1684.33 -262.964H1679.74L1472.87 -193.321L1472.58 -193.213L1358.52 -39.5795L1130.69 37.1468L1130.4 37.2552L1016.34 190.888L788.513 267.615L788.224 267.723L674.165 421.356L446.335 498.083L446.046 498.191L331.987 651.824L104.157 728.551L103.868 728.659L0.072281 868.161V871.269L105.169 729.707L332.999 652.981L333.035 652.945ZM190.75 556.811L304.809 403.178L532.639 326.451L532.928 326.343L646.987 172.71L874.853 95.9836L875.142 95.8751L989.201 -57.7581L1217.03 -134.484L1217.32 -134.593L1312.77 -262.964H1310.45L1215.87 -135.605L988.045 -58.8785L987.756 -58.7701L873.696 94.8632L645.867 171.589L645.578 171.698L531.518 325.331L303.689 402.057L303.399 402.166L189.34 555.799L0.072281 619.479V621.033L190.424 556.919L190.713 556.811H190.75ZM105.205 960.139L219.264 806.506L447.13 729.779L447.419 729.671L561.479 576.038L789.308 499.311L789.598 499.203L903.657 345.57L1131.49 268.843L1131.78 268.735L1245.84 115.102L1473.66 38.3756L1473.95 38.2672L1588.01 -115.366L1815.84 -192.092L1816.13 -192.201L1868.68 -263H1866.37L1814.58 -193.249L1586.75 -116.523L1586.46 -116.414L1472.4 37.2191L1244.57 113.945L1244.28 114.054L1130.22 267.687L902.392 344.413L902.103 344.522L788.044 498.155L560.214 574.881L559.925 574.99L445.865 728.623L217.999 805.349L217.71 805.458L103.651 959.091L0.072281 993.966V995.521L104.88 960.247L105.169 960.139H105.205ZM48.1753 460.786L162.235 307.152L390.064 230.426L390.353 230.318L504.413 76.6845L732.243 -0.041748L732.532 -0.150177L846.591 -153.783L1074.42 -230.51L1074.71 -230.618L1098.74 -263H1096.43L1073.16 -231.666L845.326 -154.94L845.037 -154.831L730.978 -1.19824L503.148 75.528L502.859 75.6364L388.799 229.27L160.97 305.996L160.681 306.104L46.6212 459.738L0.072281 475.423V476.977L47.85 460.894L48.1391 460.786H48.1753ZM105.205 38.2672L219.264 -115.366L447.13 -192.092L447.419 -192.201L499.968 -262.964H497.655L445.865 -193.213L217.999 -116.486L217.71 -116.378L103.651 37.2552L0.072281 72.1308V73.6848L104.88 38.4117L105.169 38.3033L105.205 38.2672ZM162.235 76.6845L276.294 -76.9487L504.124 -153.675L504.413 -153.783L585.512 -262.964H583.199L502.895 -154.795L275.029 -78.0691L274.74 -77.9607L160.681 75.6726L0.072281 129.739V131.293L161.909 76.7929L162.199 76.6845H162.235ZM190.75 95.8751L304.809 -57.7581L532.639 -134.484L532.928 -134.593L628.302 -262.964H625.99L531.41 -135.605L303.58 -58.8785L303.291 -58.7701L189.232 94.8632L0.072281 158.579V160.133L190.424 96.0197L190.713 95.9113L190.75 95.8751ZM133.72 57.4578L247.779 -96.1755L475.645 -172.902L475.934 -173.01L542.758 -262.964H540.445L474.38 -173.986L246.514 -97.2597L246.225 -97.1513L132.166 56.482L0.072281 100.935V102.489L133.395 57.6023L133.684 57.4939L133.72 57.4578ZM219.264 115.066L333.324 -38.5675L561.153 -115.294L561.443 -115.402L671.093 -262.964H668.78L559.961 -116.378L332.131 -39.6517L331.842 -39.5433L217.783 114.09L0.072281 187.383V188.937L218.939 115.246L219.228 115.138L219.264 115.066ZM144.309 -262.964H139.719L46.9104 -231.702L46.6212 -231.594L0.072281 -168.926V-165.818L48.1391 -230.582L144.309 -262.964ZM315.434 -262.964H310.844L103.976 -193.321L103.687 -193.213L0.072281 -53.6743V-50.5662L105.169 -192.165L315.434 -262.964ZM229.89 -262.964H225.3L75.4252 -212.512L75.1361 -212.403L0.072281 -111.318V-108.21L76.654 -211.391L229.854 -262.964H229.89ZM247.49 134.437L247.779 134.329L361.839 -19.3046L589.668 -96.0309L589.957 -96.1393L704.089 -249.773L743.229 -262.964H738.639L702.896 -250.929L702.607 -250.821L588.548 -97.1874L360.682 -20.4611L360.393 -20.3527L246.334 133.281L18.5039 210.007L18.2148 210.115L0.180702 234.402V237.51L19.7327 211.163L247.562 134.437H247.49ZM76.6901 19.1127L190.75 -134.521L418.579 -211.247L418.868 -211.355L457.213 -262.964H454.9L417.35 -212.403L189.521 -135.677L189.232 -135.569L75.1722 18.0646L0.072281 43.3268V44.8809L76.3649 19.185L76.654 19.0766L76.6901 19.1127ZM333.071 192.081L333.36 191.973L447.419 38.3394L675.249 -38.3868L675.538 -38.4953L789.598 -192.128L999.863 -262.964H995.273L788.405 -193.321L788.116 -193.213L674.056 -39.5795L446.227 37.1468L445.938 37.2552L331.878 190.888L104.048 267.615L103.759 267.723L0.072281 407.225V410.334L105.169 268.771L332.999 192.045L333.071 192.081ZM276.041 153.664L276.33 153.555L390.39 -0.0779114L618.219 -76.8042L618.508 -76.9126L732.568 -230.546L828.774 -262.964H824.184L731.375 -231.702L731.086 -231.594L617.027 -77.9607L389.197 -1.23441L388.908 -1.12598L274.848 152.507L47.0188 229.234L46.7297 229.342L0.072281 292.01V295.118L48.1391 230.354L275.969 153.628L276.041 153.664ZM304.556 172.854L304.845 172.746L418.941 19.1127L646.77 -57.6136L647.059 -57.722L761.119 -211.355L914.318 -262.964H909.729L759.89 -212.512L759.601 -212.403L645.542 -58.7701L417.712 17.9562L417.423 18.0646L303.363 171.698L75.5336 248.424L75.2445 248.533L0.072281 349.617V352.726L76.654 249.581L304.484 172.854H304.556ZM48.1391 -0.114014L162.199 -153.747L390.028 -230.474L390.317 -230.582L414.351 -262.964H412.038L388.763 -231.63L160.934 -154.904L160.645 -154.795L46.5851 -1.16211L0.0361405 14.5229V16.0769L47.8139 -0.00561523L48.103 -0.114014H48.1391ZM133.684 -172.974L361.549 -249.7L361.839 -249.809L371.633 -263H369.32L360.321 -250.857L132.491 -174.131L132.202 -174.022L18.1064 -20.3527L0.072281 -14.2811V-12.7271L19.6243 -19.3046L133.684 -172.938V-172.974ZM219.228 576.038L333.288 422.404L561.117 345.678L561.406 345.57L675.466 191.937L903.332 115.21L903.621 115.102L1017.68 -38.5314L1245.55 -115.258L1245.84 -115.366L1355.52 -262.964H1353.21L1244.39 -116.378L1016.52 -39.6517L1016.23 -39.5433L902.175 114.09L674.309 190.816L674.02 190.925L559.961 344.558L332.131 421.284L331.842 421.393L217.783 575.026L0.072281 648.283V649.837L218.939 576.146L219.228 576.038Z" fill="white"/>
</svg>
