<svg width="147" height="108" viewBox="0 0 147 108" fill="none" xmlns="http://www.w3.org/2000/svg">
<g opacity="0.5">
<path d="M67.435 38.3654L66.488 38.7554C66.3765 38.8111 66.3208 38.8668 66.3208 38.9782V43.435C66.3208 43.5464 66.3765 43.6021 66.4323 43.6579C66.488 43.7136 66.5994 43.7136 66.6551 43.6579L67.5465 43.2679C67.6579 43.2122 67.7136 43.1565 67.7136 43.045V38.5882C67.7136 38.4768 67.6579 38.4211 67.6022 38.3654C67.6022 38.3097 67.4907 38.3097 67.435 38.3654ZM70.5548 41.9866C70.6662 42.0423 70.8334 42.098 70.9448 42.0423L72.3375 41.4852C72.5047 41.4295 72.6161 41.2623 72.6161 41.0952V34.2428C72.6161 34.1314 72.5604 33.9643 72.4489 33.9086C72.3375 33.8529 72.1704 33.7972 72.059 33.8529L70.6662 34.41C70.4991 34.4657 70.3877 34.6328 70.3877 34.7999V41.6523C70.3877 41.8194 70.4434 41.9308 70.5548 41.9866ZM125.764 54.8556C124.872 54.7999 122.7 54.7442 119.747 54.6328C119.747 55.8584 119.803 57.6968 119.691 59.201H118.856C118.856 59.201 118.911 56.694 118.911 54.577C117.296 54.5213 115.569 54.4656 113.674 54.4099V57.5854L102.254 57.4183V54.0756C100.081 54.0199 98.0199 53.9642 96.1258 53.9642C96.1815 55.0784 96.1815 57.3625 96.1258 59.201H95.2901C95.2901 59.201 95.3458 56.1369 95.2901 53.9642C93.396 53.9085 91.7247 53.9085 90.3876 53.9085C81.4183 53.9085 80.1927 54.0756 80.0812 54.1314C80.137 54.1314 80.137 54.1314 80.137 54.1314L79.6356 52.7386C80.3041 52.5158 86.655 52.4601 90.3876 52.4601C99.357 52.4601 122.031 53.24 125.764 53.3514C125.764 53.0172 125.652 52.1815 125.596 51.9587C125.485 51.0116 123.257 49.9531 122.031 49.8974L118.076 49.786V48.9503L122.644 49.0617C122.867 49.0617 123.089 48.9503 123.257 48.7832C123.424 48.6161 123.535 48.3932 123.479 48.1704L123.368 44.4935C123.312 43.5464 122.811 42.6551 121.975 42.2651C121.028 41.7637 119.524 41.2623 117.407 41.1509L116.85 33.5186C116.794 32.5158 116.014 31.6802 115.012 31.4573L103.925 29.2846L102.532 22.5994C102.421 21.9866 101.864 21.4852 101.251 21.3181C99.2455 20.9281 95.6244 20.371 90.3319 19.9253L88.8834 19.8139C84.8723 19.4797 79.9698 19.2568 74.1203 19.2011C73.8417 19.2011 73.5074 19.3125 73.3403 19.5354C73.1175 19.7582 73.006 20.0368 73.006 20.371L73.3403 30.0646C73.3403 30.0646 74.1203 29.1175 75.6244 28.5047C76.4044 28.1704 77.63 28.1704 78.5214 28.3376L90.0534 30.3988C91.279 30.6217 92.2261 31.7359 92.2261 33.0172L92.3375 40.371C92.3375 40.6495 92.2261 40.8723 92.0589 41.0395C92.0032 41.0952 91.9475 41.1509 91.8918 41.1509C85.4294 37.3069 77.7971 38.3097 76.1815 39.8139C79.1342 39.3682 80.8055 40.3153 81.6968 41.1509C82.1982 41.5966 82.4768 42.2651 82.4211 42.9336L82.3654 45.552C82.3654 45.7748 82.4768 45.9977 82.5882 46.1648C82.7553 46.3319 82.9782 46.4434 83.201 46.4434H83.591V42.9893H88.5492C89.2734 42.9893 89.8305 43.5464 89.8305 44.2707V46.4434H92.2818L114.844 46.8333C115.401 46.8333 115.903 47.279 115.903 47.8361L115.959 48.3375L93.1731 47.8361L93.4517 50.7888L91.669 48.5603H78.4657C78.4657 48.5603 77.5186 43.4907 74.5659 43.4907C68.7164 43.4907 68.8835 58.0311 68.8835 58.0311L67.7693 57.9196C67.9921 50.3431 69.3292 46.2762 69.3292 46.2762C69.3292 46.2762 67.1008 47.0005 65.8752 47.0562C64.6495 47.1119 64.8724 45.6077 64.8724 45.6077V20.371C68.5492 18.254 72.6718 17.307 72.6718 17.307C91.8361 17.6412 100.36 19.3125 102.421 19.7582C101.92 18.3655 99.6355 17.0841 97.6857 16.6942V13.5187C97.4071 13.3516 97.0728 13.2401 96.7386 13.2401V5.99781C96.7386 5.71926 96.4043 4.71648 96.4043 4.71648C96.4043 4.71648 95.8472 3.49086 94.9559 4.2708C94.0645 4.99503 94.9559 6.05352 94.9559 6.05352V16.3599C94.6773 16.3599 93.8974 16.1928 93.8974 16.1928L93.8417 7.78054L64.0924 4.38222V1.98669C64.0924 1.70813 63.7582 0.705353 63.7582 0.705353C63.7582 0.705353 63.2011 -0.52027 62.3097 0.259671C61.4183 0.983903 62.3097 2.0424 62.3097 2.0424V11.5688C62.3097 11.5688 62.1983 11.5131 61.3069 11.5688L61.0284 29.786H60.0256V4.32651C60.0256 4.2708 59.9699 4.15938 59.9142 4.15938C59.8584 4.10367 59.747 4.10367 59.6913 4.15938L26.4881 25.1621L57.4072 8.89474L26.1538 28.3376L57.0172 14.4658L25.8753 31.7359L56.9615 19.6468L25.5967 35.0785L56.7944 24.7164L25.3182 38.4211L56.2373 30.2317L25.0396 41.708L56.293 35.1342L24.7611 44.9949L56.2373 40.3153L22.4769 48.7832L56.1259 45.6634L22.0312 51.7358L26.0981 52.2929L26.2652 55.1899H29.775C29.775 63.1007 30.6663 65.8305 31.6134 65.8305H42.9783C43.9253 65.8305 44.5382 63.1564 44.5382 63.1564H52.8947C52.8947 63.1564 53.1175 65.6634 54.176 65.6634H66.3765C67.9364 65.6634 67.8807 62.7107 67.8807 62.7107H70.0534C70.2763 63.7135 71.3348 67.0561 73.2289 67.0561H80.3041C82.0311 67.0561 83.3681 61.2065 83.3681 61.2065H108.159C108.493 63.045 109.329 65.6634 111.613 66.8333H118.911C118.911 66.8333 121.585 65.6634 122.254 61.2065H124.427C125.541 59.591 125.764 56.9726 125.764 54.8556ZM121.418 44.3821C121.92 44.3821 122.365 44.8278 122.365 45.3292V47.279H117.853L117.686 44.3821H121.418ZM96.0144 33.63C96.2372 33.4072 96.5715 33.2958 96.9057 33.2958L113.563 34.2986C114.176 34.3543 114.733 34.8557 114.733 35.4685L95.6244 34.5214C95.6244 34.1871 95.7915 33.8529 96.0144 33.63ZM96.0701 36.4713C96.2929 36.2484 96.6272 36.0813 97.0171 36.137L113.73 36.9169C114.343 36.9726 114.9 37.474 114.9 38.0868L95.6801 37.4183C95.6801 37.0841 95.7915 36.7498 96.0701 36.4713ZM96.1258 39.4239C96.3486 39.201 96.6829 39.0339 97.0728 39.0896L113.897 39.7024C114.566 39.7024 115.067 40.2038 115.123 40.8724L95.7915 40.371C95.7358 39.981 95.8472 39.6467 96.1258 39.4239ZM95.7915 43.2679C95.7915 42.9336 95.9029 42.5994 96.1815 42.3208C96.4043 42.098 96.7943 41.9308 97.1286 41.9308L114.064 42.3208C114.733 42.3208 115.234 42.8222 115.29 43.4907L95.7915 43.2679ZM32.0591 63.3235C31.4463 63.3235 30.9449 61.5408 30.9449 59.3124C30.9449 58.0311 31.112 56.8612 31.3906 56.1369C31.3349 56.5826 31.3349 57.084 31.3349 57.5854C31.3349 59.8138 31.8362 61.5965 32.4491 61.5965C32.7276 61.5965 32.9505 61.2623 33.1176 60.7609C32.9505 62.265 32.5048 63.3235 32.0591 63.3235ZM35.346 63.3235C34.7332 63.3235 34.2318 61.5408 34.2318 59.3124C34.2318 58.0311 34.3989 56.8612 34.6775 56.1369C34.6218 56.5826 34.6217 57.084 34.6217 57.5854C34.6217 59.8138 35.1231 61.5965 35.736 61.5965C36.0145 61.5965 36.2374 61.2623 36.4045 60.7609C36.2374 62.265 35.8474 63.3235 35.346 63.3235ZM47.2122 57.4183H41.0284C40.6942 53.7971 39.0786 52.2372 39.0786 52.2372C39.9142 54.7999 39.6914 56.1926 39.6357 57.4183H38.0758C38.0758 51.6244 36.9616 50.9002 36.9616 50.9002L42.1983 50.1759C45.151 52.7943 46.488 52.0144 46.488 52.0144C47.3237 53.63 47.2122 57.4183 47.2122 57.4183ZM73.8417 63.1007C72.3375 63.1007 71.1119 60.2595 71.1119 56.7497C71.1119 54.6885 71.5576 52.9057 72.1704 51.7358C72.059 52.4601 72.0033 53.1843 72.0033 54.0199C72.0033 57.5297 73.2289 60.3709 74.7331 60.3709C75.3459 60.3709 75.9587 59.8695 76.4044 59.0338C76.0144 61.4294 75.0116 63.1007 73.8417 63.1007ZM70.4434 28.0033L72.3375 30.3431C72.1704 28.3376 71.8361 22.7109 71.7247 20.5939C71.7247 20.371 71.6133 20.2039 71.4462 20.0925C71.279 19.9811 71.0562 19.9253 70.8891 20.0368C69.4406 20.5382 67.9921 21.151 67.2679 21.5409C66.9336 21.7081 66.7108 22.0423 66.7108 22.4323V28.059C66.7108 28.3933 66.8779 28.6718 67.1008 28.839C67.3793 29.0061 67.6579 29.0618 67.9921 28.9504L70.4434 28.0033Z" fill="#181818"/>
<path d="M17.4059 81.3728L13.5062 78.1416H11.5006V89.8965L12.8376 94.0747H4.70398L6.04102 89.8965V78.1416H4.03545L0.135742 81.3728V73.9634H17.4616V81.3728H17.4059Z" fill="#181818"/>
<path d="M28.6562 73.9649C29.3247 73.9649 29.9375 74.0206 30.6061 74.1321C31.2189 74.2435 31.8317 74.4663 32.3331 74.912C32.6116 75.1348 32.8345 75.4134 33.0016 75.692C33.1687 75.9705 33.2801 76.3048 33.3359 76.5833C33.3916 76.9176 33.4473 77.2518 33.503 77.5861C33.503 77.9204 33.5587 78.2546 33.5587 78.5889C33.5587 79.2574 33.5587 79.8702 33.503 80.4273C33.4473 80.9844 33.3916 81.4858 33.1687 81.9315C33.0016 82.3772 32.6673 82.7671 32.2774 83.1014C31.8874 83.4357 31.3303 83.7142 30.6618 83.9371C30.7175 83.9928 30.8289 83.9928 30.8846 83.9928C30.9403 83.9928 30.996 83.9928 31.0517 84.0485C31.2189 84.1042 31.4417 84.1599 31.7203 84.2713C31.9988 84.3827 32.3331 84.6056 32.6116 84.9398C33.0016 85.3298 33.2244 85.7755 33.2801 86.2212C33.3359 86.6668 33.3916 87.1682 33.4473 87.6696V89.8423L34.7843 94.0206H30.996C30.3275 94.0206 29.8261 93.9649 29.4361 93.9092C29.0462 93.8534 28.7676 93.6863 28.5448 93.4078C28.3777 93.2406 28.2662 93.0735 28.2105 92.8507C28.1548 92.6278 28.0991 92.3493 28.0991 91.9036V85.7755H24.9236V93.9649H18.0713L19.3526 89.7866V78.0318L18.0713 73.8535H28.6562V73.9649ZM24.9236 82.1543H28.0434V78.1432H24.9236V82.1543Z" fill="#181818"/>
<path d="M42.1941 73.9634V89.9522H45.0353V73.9634H51.832L50.5506 78.1416V88.6709C50.5506 89.0051 50.5506 89.3394 50.5506 89.7293C50.5506 90.0636 50.4949 90.4536 50.4392 90.8435C50.3835 91.2335 50.2721 91.5678 50.1607 91.902C50.0492 92.2363 49.8264 92.5706 49.6036 92.8491C49.3807 93.1277 49.1022 93.4062 48.8236 93.5733C48.5451 93.7405 48.2108 93.8519 47.9323 93.9633C47.598 94.0747 47.2638 94.1304 46.9295 94.1304C46.5952 94.1861 46.261 94.1862 45.9267 94.1862H41.0799C40.9685 94.1862 40.8014 94.1862 40.69 94.1862C40.5785 94.1862 40.4114 94.1862 40.2443 94.1862C40.1329 94.1862 39.9657 94.1861 39.7429 94.1304C39.5201 94.0747 39.2415 94.019 38.963 93.9633C38.6844 93.8519 38.4058 93.7405 38.0716 93.5176C37.793 93.3505 37.5145 93.0719 37.2917 92.7377C36.9574 92.2363 36.7903 91.6792 36.7345 91.1221C36.6788 90.5093 36.6788 89.9522 36.6788 89.3951V78.3088L35.3418 74.1305H42.1941V73.9634Z" fill="#181818"/>
<path d="M66.379 80.4812H61.6994V78.1413H58.6911V89.8962H61.6994V86.665H66.6019V94.0744H58.3011C58.0782 94.0744 57.9111 94.0744 57.6883 94.0744C57.4654 94.0744 57.2983 94.0744 57.0755 94.0187C56.1284 93.963 55.4599 93.7959 54.9585 93.4616C54.4571 93.1831 54.1228 92.8488 53.8443 92.4588C53.6771 92.236 53.5657 92.0131 53.51 91.7903C53.4543 91.5675 53.3429 91.3446 53.2872 91.0661C53.2314 90.8432 53.2314 90.6204 53.2314 90.3976C53.2314 90.1747 53.2314 89.8405 53.2314 89.3948V78.6984C53.2314 78.0299 53.2872 77.4171 53.3429 76.8043C53.4543 76.1915 53.7328 75.6344 54.1785 75.0773C54.4571 74.7987 54.7356 74.5202 55.0699 74.353C55.4042 74.1859 55.7384 74.0745 56.1284 73.9631C56.5184 73.9074 56.8526 73.8516 57.2426 73.7959C57.6326 73.7959 58.0225 73.7402 58.4125 73.7402H66.379V80.4812Z" fill="#181818"/>
<path d="M83.5924 78.1416H81.754L79.1913 82.7099H82.6453V89.8965H84.1495V94.0747H77.2972V86.3867H74.3445V94.0747H67.4922L68.8292 89.8965V78.1416L67.4922 73.9634H74.3445V82.7099L78.3557 73.9634H83.5924V78.1416Z" fill="#181818"/>
<path d="M92.8407 73.9629L91.5593 78.1412V89.896H94.0106V86.3305H99.1359V94.0743H84.7627L86.0997 89.896V78.1412L84.7627 73.9629H92.8407Z" fill="#181818"/>
<path d="M114.896 88.0605C114.896 88.5062 114.896 88.9519 114.896 89.4533C114.896 89.9547 114.841 90.4004 114.729 90.9017C114.618 91.3474 114.506 91.7931 114.284 92.2388C114.061 92.6845 113.782 93.0187 113.392 93.2973C112.891 93.6872 112.334 93.9101 111.665 93.9658C110.997 94.0215 110.384 94.0772 109.827 94.0772H106.15C105.816 94.0772 105.426 94.0772 104.98 94.0215C104.59 94.0215 104.2 93.9658 103.81 93.8544C103.42 93.743 103.03 93.6315 102.696 93.4644C102.362 93.2973 102.027 93.0744 101.749 92.7402C101.303 92.1831 101.08 91.626 100.969 91.0689C100.913 90.4561 100.857 89.8432 100.802 89.1747V79.314C100.802 78.9798 100.802 78.5898 100.802 78.1998C100.802 77.8099 100.857 77.4199 100.913 77.0299C100.969 76.6399 101.08 76.3057 101.192 75.9714C101.303 75.6372 101.526 75.3029 101.805 75.0244C102.306 74.4673 102.863 74.133 103.532 74.0773C104.2 73.9659 104.869 73.9102 105.537 73.9102H109.493C110.105 73.9102 110.607 73.9102 111.052 73.9659C111.498 74.0216 111.888 74.0773 112.222 74.133C112.557 74.2444 112.835 74.3558 113.114 74.523C113.337 74.6901 113.615 74.9129 113.782 75.1358C114.005 75.3586 114.172 75.6372 114.284 75.9157C114.395 76.1943 114.506 76.5285 114.562 76.8628C114.618 77.197 114.674 77.6427 114.729 78.0884C114.785 78.5341 114.785 79.0912 114.785 79.6483V88.0605H114.896ZM106.373 78.1441V89.899H109.381V78.1441H106.373Z" fill="#181818"/>
<path d="M130.55 79.8154L125.536 78.1441H122.417V89.899H125.536V86.1107L123.921 81.9324H130.773V94.1329H121.692C121.525 94.1329 121.414 94.1329 121.247 94.1329C121.08 94.1329 120.968 94.1329 120.801 94.0772C120.077 94.0215 119.52 93.9101 119.13 93.7429C118.74 93.5758 118.406 93.4087 118.127 93.1858C117.793 92.963 117.57 92.6845 117.403 92.3502C117.236 92.0716 117.124 91.7374 117.013 91.4031C116.901 91.0689 116.901 90.7346 116.846 90.4003C116.846 90.0661 116.846 89.6761 116.846 89.3419V78.8684C116.846 78.5341 116.846 78.1441 116.846 77.8099C116.846 77.4756 116.901 77.0856 116.957 76.7514C117.013 76.4171 117.124 76.0828 117.291 75.7486C117.459 75.4143 117.681 75.1358 117.96 74.8572C118.517 74.3558 119.13 74.133 119.798 74.0216C120.467 73.9659 121.135 73.9102 121.804 73.9102H130.495V79.8154H130.55Z" fill="#181818"/>
<path d="M146.987 88.0605C146.987 88.5062 146.987 88.9519 146.987 89.4533C146.987 89.9547 146.932 90.4004 146.82 90.9017C146.709 91.3474 146.597 91.7931 146.374 92.2388C146.152 92.6845 145.873 93.0187 145.483 93.2973C144.982 93.6872 144.425 93.9101 143.756 93.9658C143.088 94.0215 142.475 94.0772 141.918 94.0772H138.241C137.907 94.0772 137.517 94.0772 137.071 94.0215C136.681 94.0215 136.291 93.9658 135.901 93.8544C135.511 93.743 135.121 93.6315 134.787 93.4644C134.452 93.2973 134.118 93.0744 133.84 92.7402C133.394 92.1831 133.171 91.626 133.06 91.0689C133.004 90.4561 132.948 89.8432 132.893 89.1747V79.314C132.893 78.9798 132.893 78.5898 132.893 78.1998C132.893 77.8099 132.948 77.4199 133.004 77.0299C133.06 76.6399 133.171 76.3057 133.283 75.9714C133.394 75.6372 133.617 75.3029 133.895 75.0244C134.397 74.4673 134.954 74.133 135.622 74.0773C136.291 73.9659 136.959 73.9102 137.628 73.9102H141.583C142.196 73.9102 142.698 73.9102 143.143 73.9659C143.589 74.0216 143.979 74.0773 144.313 74.133C144.647 74.2444 144.926 74.3558 145.205 74.523C145.427 74.6901 145.706 74.9129 145.873 75.1358C146.096 75.3586 146.263 75.6372 146.374 75.9157C146.486 76.1943 146.597 76.5285 146.653 76.8628C146.709 77.197 146.764 77.6427 146.82 78.0884C146.876 78.5341 146.876 79.0912 146.876 79.6483V88.0605H146.987ZM138.464 78.1441V89.899H141.472V78.1441H138.464Z" fill="#181818"/>
<path d="M34.1741 100.203V100.983H32.1128V106.833H31.1658V100.983H29.1045V100.203H34.1741Z" fill="#181818"/>
<path d="M39.0238 106.835C38.9124 106.557 38.801 106.278 38.7453 105.999C38.6338 105.721 38.5781 105.442 38.4667 105.164H35.4584L34.8455 106.835H33.8428C34.1213 106.111 34.3442 105.498 34.567 104.885C34.7898 104.272 35.0127 103.715 35.2355 103.158C35.4584 102.601 35.6812 102.1 35.8483 101.598C36.0712 101.097 36.294 100.651 36.5169 100.15H37.3525C37.5753 100.651 37.7982 101.097 38.021 101.598C38.2439 102.1 38.4667 102.601 38.6338 103.158C38.8567 103.715 39.0795 104.272 39.3024 104.885C39.5252 105.498 39.7481 106.111 40.0266 106.835H39.0238ZM38.1325 104.384C37.9096 103.827 37.7425 103.27 37.5196 102.768C37.2968 102.267 37.1297 101.765 36.9068 101.264C36.684 101.765 36.4611 102.267 36.294 102.768C36.0712 103.27 35.904 103.827 35.6812 104.384H38.1325Z" fill="#181818"/>
<path d="M44.7594 103.548H45.7065V106.668C45.6508 106.668 45.5394 106.724 45.3722 106.779C45.2051 106.835 45.038 106.835 44.8708 106.891C44.7037 106.947 44.4809 106.947 44.258 106.947C44.0352 106.947 43.8123 107.002 43.5895 107.002C43.1438 107.002 42.6981 106.947 42.3082 106.779C41.9182 106.612 41.5839 106.389 41.3054 106.111C41.0268 105.832 40.804 105.442 40.6926 105.052C40.5254 104.607 40.4697 104.161 40.4697 103.604C40.4697 103.047 40.5811 102.545 40.7483 102.1C40.9154 101.654 41.1383 101.32 41.4168 101.041C41.6954 100.763 42.0296 100.54 42.4196 100.373C42.8096 100.206 43.1995 100.15 43.6452 100.15C43.9238 100.15 44.2023 100.15 44.4252 100.206C44.648 100.261 44.8708 100.261 45.038 100.317C45.2051 100.373 45.3165 100.428 45.4279 100.484C45.5393 100.54 45.5951 100.596 45.6508 100.596L45.3722 101.376C45.2051 101.264 44.9265 101.153 44.648 101.097C44.3694 101.041 44.0352 100.986 43.7009 100.986C43.3667 100.986 43.0324 101.041 42.7538 101.153C42.4753 101.264 42.2525 101.431 42.0296 101.654C41.8625 101.877 41.6953 102.155 41.5839 102.49C41.4725 102.824 41.4168 103.214 41.4168 103.604C41.4168 103.994 41.4725 104.384 41.5282 104.662C41.6396 104.997 41.7511 105.275 41.9739 105.498C42.141 105.721 42.4196 105.888 42.6981 106.055C42.9767 106.167 43.311 106.222 43.7009 106.222C43.9795 106.222 44.2023 106.222 44.3694 106.167C44.5366 106.111 44.7037 106.111 44.7594 106.111V103.548Z" fill="#181818"/>
<path d="M51.1654 106.053V106.833H47.1543V100.203H48.1014V106.053H51.1654Z" fill="#181818"/>
<path d="M52.1104 100.203H53.0574V106.833H52.1104V100.203Z" fill="#181818"/>
<path d="M59.2421 106.833C59.0749 106.61 58.9635 106.331 58.7407 106.053C58.5735 105.774 58.3507 105.44 58.1279 105.161C57.905 104.827 57.6822 104.548 57.4593 104.214C57.2365 103.88 57.0137 103.601 56.7908 103.267C56.568 102.989 56.3451 102.654 56.1223 102.431C55.8995 102.153 55.7323 101.93 55.5652 101.707V106.888H54.6738V100.259H55.3981C55.6766 100.593 56.0109 100.927 56.3451 101.373C56.6794 101.819 57.0137 102.209 57.3479 102.71C57.6822 103.156 58.0164 103.601 58.295 104.047C58.5735 104.493 58.8521 104.883 59.0192 105.217V100.315H59.9106V106.944H59.2421V106.833Z" fill="#181818"/>
<path d="M61.6953 106.833V100.203H65.7621V100.983H62.6424V102.933H65.4279V103.713H62.6424V105.997H65.985V106.777H61.6953V106.833Z" fill="#181818"/>
<path d="M73.3961 103.548H74.3432V106.668C74.2875 106.668 74.1761 106.724 74.0089 106.779C73.8418 106.835 73.6747 106.835 73.5076 106.891C73.3404 106.947 73.1176 106.947 72.8947 106.947C72.6719 106.947 72.4491 107.002 72.2262 107.002C71.7805 107.002 71.3349 106.947 70.9449 106.779C70.5549 106.612 70.2206 106.389 69.9421 106.111C69.6635 105.832 69.4407 105.442 69.3293 105.052C69.1622 104.607 69.1064 104.161 69.1064 103.604C69.1064 103.047 69.2179 102.545 69.385 102.1C69.5521 101.654 69.775 101.32 70.0535 101.041C70.3321 100.763 70.6663 100.54 71.0563 100.373C71.4463 100.206 71.8362 100.15 72.2819 100.15C72.5605 100.15 72.839 100.15 73.0619 100.206C73.2847 100.261 73.5076 100.261 73.6747 100.317C73.8418 100.373 73.9532 100.428 74.0647 100.484C74.1761 100.54 74.2318 100.596 74.2875 100.596L74.0089 101.376C73.8418 101.264 73.5633 101.153 73.2847 101.097C73.0062 101.041 72.6719 100.986 72.3376 100.986C72.0034 100.986 71.6691 101.041 71.3906 101.153C71.112 101.264 70.8892 101.431 70.6663 101.654C70.4992 101.877 70.3321 102.155 70.2206 102.49C70.1092 102.824 70.0535 103.214 70.0535 103.604C70.0535 103.994 70.1092 104.384 70.165 104.662C70.2764 104.997 70.3878 105.275 70.6106 105.498C70.7778 105.721 71.0563 105.888 71.3349 106.055C71.6134 106.167 71.9477 106.222 72.3376 106.222C72.6162 106.222 72.839 106.222 73.0062 106.167C73.1733 106.111 73.3404 106.111 73.3961 106.111V103.548Z" fill="#181818"/>
<path d="M75.5146 103.49C75.5146 102.933 75.6261 102.431 75.7932 101.985C75.9603 101.54 76.1832 101.206 76.4617 100.927C76.7403 100.648 77.0745 100.426 77.4645 100.258C77.8545 100.091 78.2445 100.036 78.6901 100.036C79.1358 100.036 79.5258 100.091 79.9158 100.258C80.3057 100.426 80.64 100.648 80.9185 100.927C81.1971 101.206 81.4199 101.596 81.5871 101.985C81.7542 102.431 81.8656 102.933 81.8656 103.49C81.8656 104.047 81.7542 104.548 81.5871 104.994C81.4199 105.44 81.1971 105.774 80.9185 106.108C80.64 106.387 80.3057 106.609 79.9158 106.777C79.5258 106.944 79.1358 106.999 78.6901 106.999C78.2445 106.999 77.8545 106.944 77.4645 106.777C77.0745 106.609 76.7403 106.387 76.4617 106.108C76.1832 105.829 75.9603 105.44 75.7932 104.994C75.6261 104.604 75.5146 104.102 75.5146 103.49ZM76.5174 103.49C76.5174 103.88 76.5731 104.27 76.6846 104.604C76.796 104.938 76.9074 105.217 77.1303 105.44C77.2974 105.662 77.5759 105.829 77.7988 105.997C78.0773 106.108 78.3559 106.164 78.6901 106.164C79.0244 106.164 79.3587 106.108 79.5815 105.997C79.86 105.885 80.0829 105.718 80.25 105.44C80.4171 105.217 80.5843 104.938 80.6957 104.604C80.8071 104.27 80.8628 103.935 80.8628 103.49C80.8628 103.1 80.8071 102.71 80.6957 102.375C80.5843 102.041 80.4728 101.763 80.25 101.54C80.0829 101.317 79.86 101.15 79.5815 100.983C79.3029 100.871 79.0244 100.816 78.6901 100.816C78.3559 100.816 78.0216 100.871 77.7988 100.983C77.5202 101.094 77.2974 101.261 77.1303 101.54C76.9631 101.763 76.796 102.041 76.6846 102.375C76.5174 102.765 76.5174 103.1 76.5174 103.49Z" fill="#181818"/>
<path d="M83.2529 106.833V100.203H87.3198V100.983H84.2V102.933H86.9855V103.713H84.2V105.997H87.5426V106.777H83.2529V106.833Z" fill="#181818"/>
<path d="M90.2165 106.164C91.1636 106.164 91.665 105.829 91.665 105.161C91.665 104.938 91.6093 104.771 91.5535 104.66C91.4421 104.492 91.3307 104.381 91.2193 104.27C91.0522 104.158 90.885 104.047 90.7179 103.991C90.5508 103.935 90.3279 103.824 90.1051 103.768C89.8822 103.713 89.6594 103.601 89.4366 103.49C89.2137 103.378 89.0466 103.267 88.8794 103.1C88.7123 102.933 88.6009 102.765 88.4895 102.598C88.3781 102.375 88.3781 102.153 88.3781 101.874C88.3781 101.317 88.6009 100.816 88.9909 100.537C89.3808 100.203 89.9379 100.036 90.6065 100.036C90.9964 100.036 91.3864 100.091 91.7207 100.147C92.0549 100.258 92.2778 100.314 92.4449 100.426L92.1664 101.206C92.0549 101.15 91.8321 101.038 91.5535 100.983C91.275 100.927 90.9964 100.871 90.6065 100.871C90.4393 100.871 90.2722 100.871 90.1051 100.927C89.9379 100.983 89.8265 101.038 89.7151 101.094C89.6037 101.15 89.4923 101.261 89.4366 101.373C89.3808 101.484 89.3251 101.651 89.3251 101.763C89.3251 101.93 89.3808 102.097 89.4366 102.208C89.4923 102.32 89.6037 102.431 89.7151 102.543C89.8265 102.654 89.9937 102.71 90.1608 102.821C90.3279 102.877 90.4951 102.988 90.7179 103.044C90.9964 103.155 91.275 103.267 91.4978 103.378C91.7207 103.49 91.9435 103.657 92.1106 103.768C92.2778 103.935 92.4449 104.102 92.5006 104.325C92.612 104.548 92.6677 104.827 92.6677 105.105C92.6677 105.662 92.4449 106.108 92.0549 106.442C91.6093 106.777 91.0521 106.888 90.2722 106.888C89.9937 106.888 89.7708 106.888 89.548 106.832C89.3251 106.777 89.158 106.777 88.9352 106.721C88.768 106.665 88.6009 106.609 88.4895 106.554C88.3781 106.498 88.2666 106.442 88.2109 106.442L88.4895 105.662C88.6566 105.718 88.8794 105.83 89.158 105.941C89.4366 106.108 89.7708 106.164 90.2165 106.164Z" fill="#181818"/>
<path d="M100.193 100.203H101.14V106.833H100.193V103.769H96.9617V106.833H96.0146V100.203H96.9617V102.989H100.193V100.203Z" fill="#181818"/>
<path d="M102.756 106.833V100.203H106.823V100.983H103.703V102.933H106.488V103.713H103.703V105.997H107.046V106.777H102.756V106.833Z" fill="#181818"/>
<path d="M111.447 104.05C111.558 104.161 111.67 104.328 111.837 104.551C112.004 104.774 112.171 104.997 112.338 105.22C112.505 105.498 112.673 105.721 112.84 105.999C113.007 106.278 113.118 106.557 113.23 106.779H112.227C112.116 106.557 111.948 106.278 111.837 106.055C111.67 105.832 111.558 105.554 111.391 105.331C111.224 105.108 111.113 104.885 110.946 104.718C110.778 104.495 110.667 104.328 110.556 104.217C110.5 104.217 110.389 104.217 110.277 104.217C110.166 104.217 110.11 104.217 109.999 104.217H109.163V106.835H108.216V100.317C108.494 100.261 108.773 100.206 109.107 100.206C109.441 100.206 109.72 100.15 109.999 100.15C110.946 100.15 111.614 100.317 112.116 100.651C112.617 100.986 112.84 101.543 112.84 102.211C112.84 102.657 112.728 103.047 112.506 103.325C112.227 103.66 111.893 103.882 111.447 104.05ZM110.054 100.93C109.664 100.93 109.33 100.93 109.163 100.986V103.493H109.831C110.166 103.493 110.444 103.493 110.667 103.437C110.946 103.381 111.113 103.325 111.336 103.27C111.503 103.158 111.67 103.047 111.726 102.88C111.837 102.713 111.893 102.49 111.893 102.211C111.893 101.988 111.837 101.766 111.726 101.598C111.614 101.431 111.503 101.32 111.336 101.208C111.168 101.097 111.001 101.041 110.778 100.986C110.556 100.986 110.277 100.93 110.054 100.93Z" fill="#181818"/>
<path d="M114.229 106.833V100.203H118.296V100.983H115.177V102.933H117.962V103.713H115.177V105.997H118.519V106.777H114.229V106.833Z" fill="#181818"/>
</g>
</svg>
