<svg width="122" height="107" viewBox="0 0 122 107" fill="none" xmlns="http://www.w3.org/2000/svg">
<g opacity="0.5">
<path d="M62.7763 40.9203L68.0781 41.4987V0L55.5947 5.7838V22.9424L62.8245 26.2681V40.9203H62.7763ZM59.0168 14.3149L57.0407 15.2306V12.146L59.0168 11.2302V14.3149ZM59.0168 9.54326L57.0407 10.459V7.37434L59.0168 6.45857V9.54326ZM62.3907 18.0262L60.4146 18.9419V15.8572L62.3907 14.9415V18.0262ZM63.7402 4.48244L65.7164 3.56668V6.65136L63.7402 7.56713V4.48244ZM63.7402 19.2311L65.7164 18.3153V21.4L63.7402 22.3158V19.2311Z" fill="#181818"/>
<path d="M74.3938 39.8594C75.3095 39.8594 75.9361 40.5342 76.2253 41.1126C76.2735 41.1608 76.2735 41.209 76.2735 41.2571C76.5145 42.0765 76.5145 42.3657 76.5145 42.4621V45.8842C76.8519 46.1252 77.0929 46.559 77.0929 46.9928V47.8603C78.346 48.3423 79.5028 49.1617 79.8884 50.2702C80.033 50.704 79.9848 51.1378 79.7438 51.5234C79.8402 51.7162 79.9366 51.9572 79.9848 52.1982L80.6595 55.331L83.1659 55.813V14.9409L73.1406 19.5679V40.245C73.6708 39.9076 74.1046 39.8594 74.3938 39.8594ZM79.551 19.0378L81.5271 18.122V21.2067L79.551 22.1225V19.0378ZM79.551 30.6535L81.5271 29.7378V32.8225L79.551 33.7382V30.6535ZM76.9483 24.6288L78.9244 23.713V26.7977L76.9483 27.7135V24.6288Z" fill="#181818"/>
<path d="M50.2939 41.1609V20.4839L37.8105 26.2677V49.0172L50.2939 41.1609ZM46.4862 24.8699L48.4624 23.9542V27.0388L46.4862 27.9546V24.8699ZM46.4862 36.2447L48.4624 35.3289V38.4136L46.4862 39.3294V36.2447ZM42.775 31.9069L44.7511 30.9911V34.0758L42.775 34.9915V31.9069ZM39.3529 27.8582L41.329 26.9424V30.0271L39.3529 30.9429V27.8582Z" fill="#181818"/>
<path d="M57.3289 62.0789L56.7505 62.3199C56.7023 62.3681 56.6541 62.4163 56.6541 62.4645V65.1636C56.6541 65.2118 56.7023 65.26 56.7023 65.3082C56.7505 65.3564 56.7987 65.3564 56.8469 65.3082L57.4253 65.0672C57.4735 65.019 57.5217 64.9708 57.5217 64.9226V62.2235C57.5217 62.1753 57.4735 62.1271 57.4735 62.0789C57.4735 62.0789 57.3771 62.0789 57.3289 62.0789ZM59.2568 64.2961C59.305 64.3443 59.4014 64.3443 59.4978 64.3443L60.3654 64.0069C60.4618 63.9587 60.51 63.8623 60.51 63.7659V59.6208C60.51 59.5244 60.4618 59.4762 60.4136 59.428C60.3654 59.3798 60.269 59.3798 60.1726 59.3798L59.305 59.7172C59.2086 59.7654 59.1604 59.8618 59.1604 59.9582V64.1033C59.1604 64.1997 59.2086 64.2479 59.2568 64.2961ZM92.7546 72.1042C92.2244 72.1042 90.8749 72.056 89.0915 71.9596C89.0915 72.6826 89.1397 73.7911 89.0915 74.7551H88.5614C88.5614 74.7551 88.6096 73.2127 88.5614 71.9596C87.5974 71.9114 86.537 71.9114 85.3803 71.8632V73.7911L78.4397 73.6947V71.6704C77.1384 71.6222 75.8852 71.6222 74.7285 71.574C74.7285 72.2488 74.7767 73.6465 74.7285 74.7551H74.1983C74.1983 74.7551 74.2465 72.8754 74.1983 71.574C73.0415 71.574 72.0294 71.5258 71.21 71.5258C65.7636 71.5258 64.9924 71.6222 64.9442 71.6704C64.9924 71.6704 64.9924 71.6704 64.9924 71.6704L64.7032 70.8028C65.0888 70.6582 68.9447 70.6582 71.21 70.6582C76.6564 70.6582 90.3929 71.1402 92.7064 71.1884C92.7064 70.9956 92.6582 70.5136 92.61 70.3209C92.5136 69.7425 91.1641 69.1159 90.4411 69.0677L88.0312 68.9713V68.4411L90.7785 68.4893C90.9231 68.4893 91.0677 68.4411 91.1641 68.3447C91.2605 68.2483 91.3086 68.1037 91.3086 67.9591L91.2604 65.742C91.2604 65.1636 90.9231 64.6334 90.3929 64.3925C89.8145 64.1033 88.8987 63.7659 87.5974 63.7177L87.26 59.0906C87.2118 58.4641 86.778 57.9821 86.1514 57.8375L79.4519 56.5843L78.5843 52.5357C78.4879 52.1501 78.1987 51.8609 77.8131 51.7645C76.6082 51.5235 74.3911 51.1861 71.1618 50.9451L70.2942 50.8969C67.8361 50.7042 64.896 50.5596 61.3293 50.5114C61.1365 50.5114 60.9438 50.5596 60.8474 50.7042C60.7028 50.8487 60.6546 50.9933 60.6546 51.1861L60.8956 57.0663C60.8956 57.0663 61.3775 56.488 62.2933 56.1024C62.7753 55.9096 63.5465 55.9096 64.0284 56.006L71.0172 57.2591C71.7884 57.4037 72.3185 58.0785 72.3185 58.8497L72.3667 63.2839C72.3667 63.4285 72.3185 63.5731 72.2221 63.6695C72.1739 63.7177 72.1739 63.7177 72.1257 63.7659C68.2217 61.4524 63.5465 62.0307 62.5825 62.9465C64.3658 62.7055 65.4262 63.2839 65.9082 63.7659C66.1974 64.0551 66.3902 64.4407 66.342 64.8263L66.2938 66.4168C66.2938 66.5614 66.342 66.706 66.4384 66.8024C66.5347 66.8988 66.6793 66.947 66.8239 66.947H67.0649V64.8744H70.0532C70.487 64.8744 70.8244 65.2118 70.8244 65.6456V66.947H72.3185L86.055 67.188C86.3924 67.188 86.6816 67.4771 86.7298 67.8145V68.1037L72.8969 67.8145L73.0415 69.5979L71.9811 68.2483H63.9802C63.9802 68.2483 63.4019 65.1636 61.6185 65.1636C58.1001 65.1636 58.1483 73.9839 58.1483 73.9839L57.4735 73.9357C57.6181 69.3569 58.4374 66.8506 58.4374 66.8506C58.4374 66.8506 57.0879 67.2844 56.3167 67.3326C55.5455 67.3808 55.6901 66.465 55.6901 66.465V51.1379C57.9073 49.8366 60.4136 49.2582 60.4136 49.2582C72.0775 49.451 77.2348 50.4632 78.4879 50.7524C78.1987 49.8848 76.801 49.1618 75.596 48.9208V46.9929C75.4514 46.8965 75.2104 46.8483 75.0176 46.8001V42.4141C75.0176 42.2213 74.8248 41.6429 74.8248 41.6429C74.8248 41.6429 74.4875 40.9199 73.9573 41.3537C73.4271 41.7875 73.9573 42.4141 73.9573 42.4141V48.6798C73.8127 48.6798 73.3307 48.5834 73.3307 48.5834L73.2825 43.4744L55.2082 41.4501V40.0041C55.2082 39.8114 55.0154 39.233 55.0154 39.233C55.0154 39.233 54.678 38.51 54.1478 38.9438C53.6176 39.3776 54.1478 40.0041 54.1478 40.0041V45.7879C54.1478 45.7879 54.0996 45.7397 53.5694 45.7879L53.3766 56.8253H52.75V41.4019C52.75 41.3537 52.7019 41.3055 52.7019 41.3055C52.6537 41.3055 52.6055 41.3055 52.5573 41.3055L21.8068 60.5848L51.1595 44.1974L28.4099 58.2231L50.9185 47.5713L32.0248 58.0785L50.9185 50.7524L25.6626 62.8501L50.8221 53.837L31.7838 62.1753L50.5811 57.2109L20.0234 67.7663L50.6293 60.1992L29.0847 66.7542L50.5329 63.3803L22.9635 69.9353L50.4847 66.6578L29.8077 70.3691L32.2658 70.7064L32.3622 72.4898H34.4829C34.4829 77.3096 35.0131 78.9483 35.5915 78.9483H42.4838C43.0622 78.9483 43.3996 77.3578 43.3996 77.3578H48.4604C48.4604 77.3578 48.605 78.9001 49.2316 78.9001H56.6059C57.5217 78.9001 57.5217 77.1168 57.5217 77.1168H58.8712C59.0158 77.6952 59.6424 79.7195 60.7992 79.7195H65.0888C66.1492 79.7195 66.9685 76.1528 66.9685 76.1528H82.0546C82.2474 77.2614 82.7776 78.8519 84.1753 79.5749H88.6095C88.6095 79.5749 90.2001 78.8519 90.6339 76.1528H91.9352C92.6582 74.9961 92.8028 73.4055 92.7546 72.1042ZM90.1037 65.742C90.3929 65.742 90.6821 65.983 90.6821 66.3204V67.5253H87.9348L87.8384 65.7902H90.1037V65.742ZM74.6803 59.187C74.8248 59.0425 75.0176 58.9461 75.2104 58.9943L85.3321 59.5726C85.7177 59.5726 86.0068 59.91 86.055 60.2956L74.4393 59.7172C74.4875 59.5726 74.5357 59.3316 74.6803 59.187ZM74.7285 60.9704C74.8731 60.8258 75.0658 60.7294 75.3068 60.7776L85.4767 61.2596C85.8622 61.2596 86.1996 61.597 86.1996 61.9825L74.5357 61.5488C74.4875 61.3078 74.5839 61.115 74.7285 60.9704ZM74.7766 62.7537C74.9212 62.6091 75.114 62.5127 75.355 62.5127L85.5731 62.8983C85.9586 62.8983 86.296 63.2357 86.296 63.6213L74.5839 63.3321C74.5357 63.0911 74.6321 62.8983 74.7766 62.7537ZM74.5357 65.0672C74.5357 64.8745 74.6321 64.6335 74.7766 64.4889C74.9212 64.3443 75.114 64.2479 75.355 64.2479L85.6213 64.4889C86.0068 64.4889 86.3442 64.8262 86.3442 65.2118L74.5357 65.0672ZM35.8807 77.2614C35.4951 77.2614 35.2059 76.1528 35.2059 74.8033C35.2059 74.0321 35.3023 73.3091 35.4469 72.8754C35.3987 73.1645 35.3987 73.4537 35.3987 73.7429C35.3987 75.0925 35.6879 76.1528 36.0735 76.1528C36.2181 76.1528 36.3626 75.96 36.5072 75.6227C36.4108 76.5866 36.1217 77.2614 35.8807 77.2614ZM37.8568 77.2614C37.4712 77.2614 37.182 76.1528 37.182 74.8033C37.182 74.0321 37.2784 73.3091 37.423 72.8754C37.3748 73.1645 37.3748 73.4537 37.3748 73.7429C37.3748 75.0925 37.664 76.1528 38.0496 76.1528C38.1942 76.1528 38.3388 75.96 38.4834 75.6227C38.387 76.5866 38.146 77.2614 37.8568 77.2614ZM45.0383 73.6947H41.2789C41.0379 71.4776 40.0739 70.5618 40.0739 70.5618C40.5559 72.1524 40.4595 72.9718 40.4113 73.6947H39.4473C39.4473 70.1763 38.7726 69.7425 38.7726 69.7425L41.9536 69.3087C43.737 70.8992 44.5563 70.4172 44.5563 70.4172C45.1347 71.3812 45.0383 73.6947 45.0383 73.6947ZM61.2329 77.1168C60.3172 77.1168 59.546 75.3817 59.546 73.2609C59.546 72.0078 59.787 70.8992 60.1726 70.2244C60.1244 70.6582 60.0762 71.1402 60.0762 71.6222C60.0762 73.7429 60.7992 75.4781 61.7631 75.4781C62.1487 75.4781 62.4861 75.1889 62.7753 74.6587C62.5343 76.1046 61.9559 77.1168 61.2329 77.1168ZM59.1604 55.8132L60.3172 57.2591C60.2208 56.0542 60.028 52.6321 59.9798 51.3307C59.9798 51.1861 59.9316 51.0897 59.787 51.0415C59.6906 50.9933 59.546 50.9451 59.4496 50.9933C58.582 51.2825 57.7145 51.6681 57.2325 51.9091C57.0397 52.0055 56.8951 52.1983 56.8951 52.4393V55.8614C56.8951 56.0542 56.9915 56.247 57.1361 56.3434C57.2807 56.4398 57.4735 56.4879 57.6663 56.4397L59.1604 55.8132Z" fill="#181818"/>
<path d="M61.1407 80.2496C77.1907 80.2496 91.7948 80.9726 102.688 82.1293C96.6146 79.382 80.3236 77.4541 61.1407 77.4541C41.9578 77.4541 25.6667 79.4302 19.5938 82.1293C30.5348 80.9244 45.1388 80.2496 61.1407 80.2496Z" fill="#181818"/>
<path d="M9.5184 90.226H6.48191V88.7318H4.55398V96.3471H6.48191V94.2746H9.66299V99.0944H4.31298C4.16839 99.0944 4.0238 99.0944 3.9274 99.0944C3.831 99.0944 3.68641 99.0944 3.54181 99.0944C2.91524 99.0462 2.48145 98.9498 2.14406 98.757C1.80668 98.5643 1.61388 98.3233 1.42109 98.1305C1.32469 97.9859 1.2283 97.8413 1.1801 97.6967C1.1319 97.5521 1.0837 97.4075 1.0355 97.2147C0.987305 97.0701 0.987305 96.9255 0.987305 96.7809C0.987305 96.6363 0.987305 96.4435 0.987305 96.1543V89.2138C0.987305 88.78 1.0355 88.3944 1.0837 87.9606C1.1319 87.5751 1.32469 87.1895 1.61388 86.8521C1.80668 86.6593 1.99947 86.5147 2.19226 86.3701C2.38505 86.2737 2.62605 86.1773 2.86704 86.1291C3.10803 86.0809 3.34902 86.0327 3.59001 86.0327C3.831 86.0327 4.07199 86.0327 4.31298 86.0327H9.4702V90.226H9.5184Z" fill="#181818"/>
<path d="M15.4971 85.9863L14.6295 88.7336V96.3489L15.4971 99.0962H10.1953L11.0629 96.3489V88.7336L10.1953 85.9863H15.4971Z" fill="#181818"/>
<path d="M27.2025 90.8062L24.6962 88.7336H23.3948V96.3489L24.2624 99.0962H18.9606L19.8282 96.3489V88.7336H18.5268L16.0205 90.8062V85.9863H27.2507V90.8062H27.2025Z" fill="#181818"/>
<path d="M32.0766 85.9863L31.3054 87.6251L32.414 90.517L33.5225 87.6251L32.7032 85.9863H37.3784L34.1491 93.7462V96.3489L35.0167 99.0962H29.7631L30.6788 96.3489V93.7462L27.4014 85.9863H32.0766Z" fill="#181818"/>
<path d="M42.9665 85.9863L42.1471 88.7336V96.3489H43.7377V94.0354H47.0633V99.0962H37.7129L38.5805 96.3489V88.7336L37.7129 85.9863H42.9665Z" fill="#181818"/>
<path d="M57.238 95.192C57.238 95.4812 57.238 95.7704 57.238 96.1078C57.238 96.4452 57.1898 96.7343 57.1416 97.0235C57.0934 97.3127 56.997 97.6019 56.8524 97.8911C56.7079 98.1803 56.5151 98.4213 56.2741 98.6141C55.9367 98.8551 55.5993 98.9997 55.1655 99.0479C54.7317 99.0961 54.3461 99.1442 53.9606 99.1442H51.5506C51.3096 99.1442 51.0687 99.1442 50.8277 99.1442C50.5867 99.1442 50.2975 99.0961 50.0565 99.0479C49.8155 98.9997 49.5745 98.9033 49.3335 98.8069C49.0925 98.7105 48.8997 98.5177 48.7551 98.3249C48.4659 97.9875 48.3214 97.6019 48.2732 97.2163C48.225 96.8307 48.1768 96.4451 48.1768 96.0114V89.601C48.1768 89.36 48.1768 89.119 48.1768 88.878C48.1768 88.637 48.225 88.396 48.2732 88.1551C48.3214 87.9141 48.3696 87.6731 48.4659 87.4321C48.5623 87.1911 48.6587 86.9983 48.8515 86.8055C49.1889 86.4681 49.5263 86.2271 49.9601 86.1789C50.3939 86.1307 50.8277 86.0825 51.2614 86.0825H53.816C54.2015 86.0825 54.5389 86.0825 54.8281 86.1307C55.1173 86.1789 55.3583 86.1789 55.5993 86.2271C55.7921 86.2753 55.9849 86.3717 56.1777 86.4681C56.3223 86.5645 56.4669 86.7091 56.6115 86.8537C56.7561 86.9983 56.8524 87.1911 56.9488 87.3839C57.0452 87.5767 57.0934 87.7695 57.1416 88.0104C57.1898 88.2514 57.238 88.4924 57.238 88.8298C57.238 89.119 57.2862 89.4564 57.2862 89.842V95.192H57.238ZM51.7434 88.7334V96.3488H53.6714V88.7334H51.7434Z" fill="#181818"/>
<path d="M67.4023 89.794L64.173 88.6854H62.1487V96.3007H64.173V93.8426L63.1127 91.0953H67.5469V98.9998H61.6667C61.5703 98.9998 61.4739 98.9998 61.3775 98.9998C61.2811 98.9998 61.1847 98.9998 61.0883 98.9998C60.6546 98.9516 60.269 98.9035 60.028 98.8071C59.7388 98.7107 59.546 98.5661 59.4014 98.4697C59.2086 98.3251 59.0158 98.1323 58.9194 97.9395C58.823 97.7467 58.7266 97.5539 58.6784 97.3129C58.6302 97.1201 58.582 96.8791 58.582 96.6381C58.582 96.3971 58.582 96.1561 58.582 95.9633V89.1674C58.582 88.9264 58.582 88.6854 58.582 88.4444C58.582 88.2034 58.6302 87.9624 58.6784 87.7697C58.7266 87.5287 58.823 87.3359 58.9194 87.1431C59.0158 86.9503 59.1604 86.7575 59.3532 86.5647C59.6906 86.2755 60.0762 86.0827 60.5582 86.0345C60.9919 85.9863 61.4257 85.9863 61.8595 85.9863H67.4987V89.794H67.4023Z" fill="#181818"/>
<path d="M73.8135 85.9863L72.946 88.7336V96.3489L73.8135 99.0962H68.5117L69.3793 96.3489V88.7336L68.5117 85.9863H73.8135Z" fill="#181818"/>
<path d="M83.4521 89.8404L80.271 88.7318H78.2948V91.1417H80.7048C80.8012 91.1417 80.8975 91.1417 81.0421 91.1417C81.1385 91.1417 81.2831 91.1417 81.3795 91.1417C81.4759 91.1417 81.5723 91.1417 81.7651 91.1899C81.9579 91.1899 82.1507 91.2381 82.3435 91.3345C82.5363 91.3827 82.7773 91.5273 82.9701 91.6237C83.2111 91.7683 83.3557 91.9611 83.5485 92.2021C83.7412 92.4913 83.8376 92.7805 83.8376 93.0696C83.8858 93.3588 83.8858 93.648 83.8858 93.9854V96.1061C83.8858 96.3471 83.8858 96.5399 83.8858 96.7809C83.8858 97.0219 83.8376 97.2147 83.7894 97.4557C83.6448 97.8895 83.4521 98.2751 83.1629 98.5161C82.8737 98.757 82.5845 98.9016 82.2953 98.998C82.0061 99.0944 81.7169 99.1426 81.4277 99.1426C81.1385 99.1426 80.9939 99.1426 80.8494 99.1426H74.9692V95.094L78.343 96.3953H80.3192V93.7444H77.7165C77.6201 93.7444 77.5237 93.7444 77.4273 93.7444C77.3309 93.7444 77.2345 93.7444 77.1381 93.7444C77.0417 93.7444 76.9453 93.7444 76.8007 93.6962C76.6561 93.6962 76.5115 93.648 76.3187 93.5516C76.1259 93.5034 75.9331 93.407 75.7885 93.2625C75.5957 93.1661 75.4511 92.9733 75.2583 92.7805C75.0174 92.4913 74.921 92.2021 74.8728 91.8647C74.8246 91.5755 74.7764 91.2381 74.7764 90.8525V88.6836C74.8246 88.298 74.8246 87.9606 74.921 87.6715C74.9692 87.3823 75.1138 87.0449 75.3547 86.8039C75.6921 86.4183 76.0295 86.2255 76.4633 86.1291C76.8971 86.0327 77.3309 86.0327 77.7647 86.0327H83.5485V89.8404H83.4521Z" fill="#181818"/>
<path d="M95.9362 90.8062L93.4299 88.7336H92.1286V96.3489L92.9962 99.0962H87.6943L88.5619 96.3489V88.7336H87.2124L84.7061 90.8062V85.9863H95.9362V90.8062Z" fill="#181818"/>
<path d="M101.626 85.9863L100.758 88.7336V96.3489L101.626 99.0962H96.3242L97.1918 96.3489V88.7336L96.3242 85.9863H101.626Z" fill="#181818"/>
<path d="M111.121 90.2264H108.085V88.7323H106.157V96.3476H108.085V94.2751H111.266V99.0949H105.868C105.723 99.0949 105.578 99.0949 105.482 99.0949C105.337 99.0949 105.241 99.0949 105.096 99.0949C104.47 99.0467 104.036 98.9503 103.699 98.7575C103.361 98.5647 103.169 98.3237 102.976 98.1309C102.879 97.9864 102.783 97.8418 102.735 97.6972C102.687 97.5526 102.638 97.408 102.59 97.2152C102.542 97.0706 102.542 96.926 102.542 96.7814C102.542 96.6368 102.542 96.444 102.542 96.1548V89.2143C102.542 88.7805 102.59 88.3949 102.638 87.9611C102.687 87.5755 102.879 87.19 103.169 86.8526C103.361 86.6598 103.554 86.5152 103.747 86.3706C103.94 86.2742 104.181 86.1778 104.422 86.1296C104.663 86.0814 104.904 86.0332 105.145 86.0332C105.386 86.0332 105.627 86.0332 105.868 86.0332H111.025V90.2264H111.121Z" fill="#181818"/>
<path d="M120.956 89.8409L117.775 88.7323H115.799V91.1422H118.209C118.305 91.1422 118.402 91.1422 118.546 91.1422C118.643 91.1422 118.787 91.1422 118.884 91.1422C118.98 91.1422 119.077 91.1422 119.269 91.1904C119.462 91.1904 119.655 91.2386 119.848 91.335C120.041 91.3832 120.282 91.5278 120.474 91.6242C120.715 91.7688 120.86 91.9616 121.053 92.2026C121.245 92.4918 121.342 92.7809 121.342 93.0701C121.39 93.3593 121.39 93.6485 121.39 93.9859V96.1066C121.39 96.3476 121.39 96.5404 121.39 96.7814C121.39 97.0224 121.342 97.2152 121.294 97.4562C121.149 97.89 120.956 98.2756 120.667 98.5165C120.378 98.7575 120.089 98.9021 119.8 98.9985C119.51 99.0949 119.221 99.1431 118.932 99.1431C118.643 99.1431 118.498 99.1431 118.354 99.1431H112.473V95.0945L115.847 96.3958H117.823V93.7449H115.173C115.076 93.7449 114.98 93.7449 114.883 93.7449C114.787 93.7449 114.691 93.7449 114.594 93.7449C114.498 93.7449 114.401 93.7449 114.257 93.6967C114.112 93.6967 113.968 93.6485 113.775 93.5521C113.582 93.5039 113.437 93.4075 113.245 93.2629C113.052 93.1665 112.907 92.9737 112.714 92.781C112.473 92.4918 112.377 92.2026 112.329 91.8652C112.281 91.576 112.232 91.2386 112.232 90.853V88.6841C112.281 88.2985 112.281 87.9611 112.377 87.6719C112.425 87.3828 112.57 87.0454 112.811 86.8044C113.148 86.4188 113.486 86.226 113.919 86.1296C114.353 86.0332 114.787 86.0332 115.221 86.0332H121.005V89.8409H120.956Z" fill="#181818"/>
<path d="M35.3996 102.566V103.096H34.05V106.856H33.4716V103.096H32.1221V102.566H35.3996Z" fill="#181818"/>
<path d="M38.4868 106.856C38.4386 106.663 38.3422 106.47 38.294 106.325C38.2458 106.133 38.1494 105.94 38.1012 105.795H36.1733L35.7877 106.904H35.1611C35.3057 106.47 35.4985 106.036 35.6431 105.651C35.7877 105.265 35.9323 104.879 36.0769 104.542C36.2215 104.205 36.3661 103.867 36.5107 103.53C36.6553 103.192 36.7999 102.903 36.9445 102.566H37.4747C37.6192 102.855 37.7638 103.192 37.9084 103.53C38.053 103.867 38.1976 104.156 38.3422 104.542C38.4868 104.879 38.6314 105.265 38.776 105.651C38.9206 106.036 39.0652 106.47 39.258 106.904H38.4868V106.856ZM37.9566 105.265C37.812 104.928 37.7156 104.542 37.571 104.205C37.4265 103.867 37.2819 103.53 37.1855 103.241C37.0409 103.53 36.8963 103.867 36.7517 104.205C36.6071 104.542 36.5107 104.879 36.3661 105.265H37.9566Z" fill="#181818"/>
<path d="M42.2473 104.733H42.8739V106.758C42.8257 106.758 42.7293 106.806 42.6811 106.806C42.5847 106.806 42.4883 106.854 42.3437 106.854C42.1991 106.854 42.1027 106.902 41.9581 106.902C41.8135 106.902 41.6689 106.902 41.5243 106.902C41.2351 106.902 40.9459 106.854 40.705 106.758C40.464 106.661 40.223 106.517 40.0784 106.324C39.8856 106.131 39.741 105.89 39.6446 105.601C39.5482 105.312 39.5 105.022 39.5 104.637C39.5 104.3 39.5482 103.962 39.6446 103.673C39.741 103.384 39.8856 103.143 40.0784 102.95C40.2712 102.757 40.464 102.613 40.7532 102.516C40.9941 102.42 41.2833 102.372 41.5725 102.372C41.7653 102.372 41.9581 102.372 42.1027 102.42C42.2473 102.468 42.3919 102.468 42.4883 102.516C42.5847 102.564 42.6811 102.564 42.7293 102.613C42.7775 102.661 42.8257 102.661 42.8739 102.709L42.6811 103.191C42.5847 103.095 42.3919 103.046 42.1991 102.998C42.0063 102.95 41.8135 102.902 41.5725 102.902C41.3315 102.902 41.1387 102.95 40.9941 102.998C40.8014 103.095 40.6568 103.191 40.5122 103.336C40.3676 103.48 40.2712 103.673 40.223 103.866C40.1748 104.059 40.1266 104.3 40.1266 104.589C40.1266 104.83 40.1748 105.071 40.223 105.312C40.2712 105.504 40.3676 105.697 40.5122 105.842C40.6568 105.986 40.8014 106.131 40.9459 106.179C41.1387 106.276 41.3315 106.324 41.5725 106.324C41.7653 106.324 41.9099 106.324 42.0063 106.276C42.1509 106.276 42.1991 106.227 42.2473 106.227V104.733Z" fill="#181818"/>
<path d="M46.3927 106.325V106.856H43.79V102.566H44.4166V106.325H46.3927Z" fill="#181818"/>
<path d="M47.0166 102.566H47.6432V106.856H47.0166V102.566Z" fill="#181818"/>
<path d="M51.6406 106.854C51.5442 106.71 51.4478 106.517 51.3032 106.324C51.2068 106.131 51.0623 105.939 50.9177 105.746C50.7731 105.553 50.6285 105.312 50.4839 105.119C50.3393 104.927 50.1947 104.686 50.0501 104.493C49.9055 104.3 49.7609 104.107 49.6163 103.914C49.4717 103.722 49.3753 103.577 49.2307 103.432V106.806H48.6523V102.517H49.1343C49.3271 102.709 49.5199 102.95 49.7609 103.24C50.0019 103.529 50.1947 103.818 50.4357 104.107C50.6767 104.396 50.8695 104.686 51.0623 104.975C51.255 105.264 51.3996 105.505 51.5442 105.746V102.565H52.1226V106.854H51.6406Z" fill="#181818"/>
<path d="M53.2344 106.856V102.566H55.8853V103.096H53.861V104.397H55.6443V104.879H53.861V106.374H56.0299V106.904H53.2344V106.856Z" fill="#181818"/>
<path d="M60.8528 104.733H61.4793V106.758C61.4312 106.758 61.3348 106.806 61.2866 106.806C61.1902 106.806 61.0938 106.854 60.9492 106.854C60.8046 106.854 60.7082 106.902 60.5636 106.902C60.419 106.902 60.2744 106.902 60.1298 106.902C59.8406 106.902 59.5514 106.854 59.3104 106.758C59.0694 106.661 58.8284 106.517 58.6839 106.324C58.4911 106.131 58.3465 105.89 58.2501 105.601C58.1537 105.312 58.1055 105.022 58.1055 104.637C58.1055 104.3 58.1537 103.962 58.2501 103.673C58.3465 103.384 58.4911 103.143 58.6839 102.95C58.8766 102.757 59.0694 102.613 59.3586 102.516C59.5996 102.42 59.8888 102.372 60.178 102.372C60.3708 102.372 60.5636 102.372 60.7082 102.42C60.8528 102.468 60.9974 102.468 61.0938 102.516C61.1902 102.564 61.2866 102.564 61.3348 102.613C61.383 102.661 61.4312 102.661 61.4793 102.709L61.2866 103.191C61.1902 103.095 60.9974 103.046 60.8046 102.998C60.6118 102.95 60.419 102.902 60.178 102.902C59.937 102.902 59.7442 102.95 59.5996 102.998C59.4068 103.095 59.2622 103.191 59.1176 103.336C58.973 103.48 58.8766 103.673 58.8284 103.866C58.7802 104.059 58.732 104.3 58.732 104.589C58.732 104.83 58.7802 105.071 58.8284 105.312C58.8766 105.504 58.973 105.697 59.1176 105.842C59.2622 105.986 59.4068 106.131 59.5514 106.179C59.7442 106.276 59.937 106.324 60.178 106.324C60.3708 106.324 60.5154 106.324 60.6118 106.276C60.7564 106.276 60.8046 106.227 60.8528 106.227V104.733Z" fill="#181818"/>
<path d="M62.2012 104.736C62.2012 104.35 62.2494 104.061 62.3458 103.772C62.4422 103.482 62.5868 103.241 62.7796 103.049C62.9723 102.856 63.1651 102.711 63.4543 102.615C63.6953 102.518 63.9845 102.47 64.2737 102.47C64.5629 102.47 64.8039 102.518 65.0449 102.615C65.2859 102.711 65.5269 102.856 65.6714 103.049C65.8642 103.241 66.0088 103.482 66.1052 103.772C66.2016 104.061 66.2498 104.398 66.2498 104.736C66.2498 105.121 66.2016 105.41 66.1052 105.7C66.0088 105.989 65.8642 106.23 65.6714 106.422C65.4787 106.615 65.2859 106.76 65.0449 106.856C64.8039 106.953 64.5147 107.001 64.2737 107.001C63.9845 107.001 63.7435 106.953 63.4543 106.856C63.2133 106.76 62.9723 106.615 62.7796 106.422C62.5868 106.23 62.4422 105.989 62.3458 105.7C62.2494 105.41 62.2012 105.073 62.2012 104.736ZM62.8277 104.736C62.8277 104.977 62.876 105.218 62.9241 105.459C62.9723 105.651 63.0687 105.844 63.2133 105.989C63.3579 106.133 63.5025 106.23 63.6471 106.326C63.7917 106.422 64.0327 106.471 64.2255 106.471C64.4665 106.471 64.6593 106.422 64.8039 106.326C64.9967 106.23 65.1413 106.133 65.2377 105.989C65.3823 105.844 65.4305 105.651 65.5269 105.459C65.5751 105.266 65.6232 105.025 65.6232 104.736C65.6232 104.495 65.5751 104.254 65.5269 104.013C65.4787 103.82 65.3823 103.627 65.2377 103.482C65.0931 103.338 64.9485 103.241 64.8039 103.145C64.6111 103.049 64.4183 103 64.2255 103C63.9845 103 63.7917 103.049 63.6471 103.145C63.4543 103.241 63.3097 103.338 63.2133 103.482C63.0687 103.627 63.0205 103.82 62.9241 104.013C62.876 104.205 62.8277 104.446 62.8277 104.736Z" fill="#181818"/>
<path d="M67.2129 106.856V102.566H69.8638V103.096H67.8395V104.397H69.6228V104.879H67.8395V106.374H70.0084V106.904H67.2129V106.856Z" fill="#181818"/>
<path d="M71.7402 106.423C72.3667 106.423 72.7041 106.23 72.7041 105.796C72.7041 105.652 72.6559 105.555 72.6077 105.459C72.5595 105.362 72.4631 105.266 72.3667 105.218C72.2704 105.17 72.174 105.073 72.0294 105.025C71.8848 104.977 71.7884 104.929 71.6438 104.88C71.4992 104.832 71.3546 104.784 71.21 104.688C71.0654 104.639 70.969 104.543 70.8244 104.447C70.728 104.35 70.6316 104.254 70.5834 104.109C70.5352 103.965 70.487 103.82 70.487 103.627C70.487 103.242 70.6316 102.953 70.8726 102.76C71.1136 102.567 71.4992 102.422 71.933 102.422C72.174 102.422 72.415 102.471 72.6559 102.519C72.8487 102.567 73.0415 102.615 73.1379 102.712L72.9451 103.194C72.8487 103.145 72.7523 103.097 72.5595 103.049C72.3668 103.001 72.174 102.953 71.9812 102.953C71.8848 102.953 71.7402 102.953 71.6438 103.001C71.5474 103.049 71.451 103.049 71.4028 103.097C71.3064 103.145 71.2582 103.194 71.21 103.29C71.1618 103.386 71.1618 103.435 71.1618 103.579C71.1618 103.676 71.1618 103.772 71.21 103.868C71.2582 103.965 71.3064 104.013 71.4028 104.061C71.4992 104.109 71.5956 104.157 71.692 104.206C71.7884 104.254 71.933 104.302 72.0776 104.35C72.2704 104.447 72.4149 104.495 72.6077 104.591C72.7523 104.688 72.8969 104.736 72.9933 104.88C73.0897 104.977 73.1861 105.121 73.2343 105.266C73.2825 105.411 73.3307 105.603 73.3307 105.796C73.3307 106.182 73.1861 106.471 72.8969 106.664C72.6077 106.857 72.2222 106.953 71.7402 106.953C71.5474 106.953 71.4028 106.953 71.2582 106.905C71.1136 106.905 70.969 106.857 70.8726 106.808C70.7762 106.76 70.6798 106.76 70.5834 106.712C70.487 106.664 70.4388 106.664 70.3906 106.616L70.5834 106.134C70.6798 106.182 70.8244 106.23 71.0172 106.326C71.21 106.423 71.451 106.423 71.7402 106.423Z" fill="#181818"/>
<path d="M78.1985 102.566H78.7768V106.856H78.1985V104.879H76.0777V106.856H75.4512V102.566H76.0777V104.349H78.1985V102.566Z" fill="#181818"/>
<path d="M79.8916 106.856V102.566H82.5425V103.096H80.47V104.397H82.2533V104.879H80.47V106.374H82.6389V106.904H79.8916V106.856Z" fill="#181818"/>
<path d="M85.5257 105.071C85.5738 105.168 85.6702 105.264 85.7666 105.408C85.863 105.553 85.9594 105.698 86.104 105.842C86.2004 105.987 86.2968 106.18 86.4414 106.372C86.5378 106.565 86.6342 106.71 86.7306 106.903H86.0558C85.9594 106.758 85.863 106.565 85.7666 106.421C85.6702 106.276 85.5738 106.083 85.4774 105.939C85.3811 105.794 85.2847 105.649 85.1883 105.505C85.0919 105.36 84.9955 105.264 84.9473 105.168C84.8991 105.168 84.8509 105.168 84.8027 105.168C84.7545 105.168 84.7063 105.168 84.6099 105.168H84.0797V106.854H83.4531V102.613C83.6459 102.565 83.7905 102.565 84.0315 102.517C84.2243 102.517 84.4171 102.517 84.6099 102.517C85.2365 102.517 85.6702 102.613 86.0076 102.854C86.345 103.095 86.4896 103.432 86.4896 103.866C86.4896 104.155 86.3932 104.396 86.2486 104.589C86.0558 104.83 85.8148 104.975 85.5257 105.071ZM84.6099 103.047C84.3689 103.047 84.1761 103.047 84.0315 103.047V104.686H84.4653C84.6581 104.686 84.8509 104.686 85.0437 104.637C85.1883 104.637 85.3329 104.589 85.4774 104.541C85.5738 104.493 85.6702 104.396 85.7184 104.3C85.7666 104.204 85.8148 104.059 85.8148 103.866C85.8148 103.722 85.7666 103.577 85.7184 103.481C85.6702 103.384 85.5738 103.288 85.4774 103.24C85.3811 103.191 85.2365 103.143 85.0919 103.095C84.9473 103.047 84.7545 103.047 84.6099 103.047Z" fill="#181818"/>
<path d="M87.3115 106.856V102.566H89.9624V103.096H87.9381V104.397H89.7214V104.879H87.9381V106.374H90.107V106.904H87.3115V106.856Z" fill="#181818"/>
</g>
</svg>
