<svg width="127" height="107" viewBox="0 0 127 107" fill="none" xmlns="http://www.w3.org/2000/svg">
<g opacity="0.5">
<path d="M33.8737 22.9216C33.583 17.1548 33.8737 12.6481 34.0676 10.7097L64.0643 3.24682L94.061 10.7097C94.3033 13.5688 94.8364 21.9524 93.3341 31.8382C94.5456 32.129 95.6117 32.8559 96.2417 33.8735C98.5193 20.4986 97.1624 9.69199 97.114 9.20739L96.9686 8.14127L64.0643 0L31.16 8.14127L31.0146 9.20739C30.9661 9.59507 30.1908 15.9918 30.8207 24.9084L33.8737 22.9216Z" fill="#181818"/>
<path d="M77.7712 65.566C73.8459 69.4428 69.2907 72.5927 64.057 74.9672C58.4356 72.3989 53.5412 68.9582 49.4705 64.6453C48.0167 64.5968 46.6114 64.5968 45.2061 64.5483C50.149 70.412 56.2549 75.0157 63.427 78.1656L64.057 78.4564L64.687 78.1656C71.3745 75.2095 77.0927 71.042 81.8418 65.7598C80.4849 65.7114 79.128 65.6145 77.7712 65.566Z" fill="#181818"/>
<path d="M57.8615 39.7863L57.183 40.0771C57.0861 40.1255 57.0377 40.174 57.0377 40.2709V43.5662C57.0377 43.6146 57.0861 43.7116 57.1346 43.7116C57.183 43.76 57.2315 43.76 57.3284 43.7116L58.0069 43.4208C58.1038 43.3723 58.1522 43.3239 58.1522 43.227V39.9317C58.1522 39.8832 58.1038 39.7863 58.0553 39.7863C58.0069 39.7378 57.9584 39.7378 57.8615 39.7863ZM60.1876 42.4516C60.2845 42.5001 60.3814 42.5001 60.4783 42.5001L61.496 42.1124C61.5929 42.0639 61.6898 41.967 61.6898 41.8216V36.7818C61.6898 36.6849 61.6414 36.5879 61.5444 36.5395C61.4475 36.491 61.3506 36.491 61.2537 36.491L60.236 36.8787C60.1391 36.9272 60.0422 37.0241 60.0422 37.1695V42.1608C60.0422 42.3062 60.0906 42.4031 60.1876 42.4516ZM100.555 51.8528C99.9247 51.8528 98.3256 51.7559 96.1449 51.7075C96.1449 52.5797 96.1933 53.9366 96.0964 55.0512H95.4664C95.4664 55.0512 95.5149 53.2097 95.5149 51.659C94.3519 51.6105 93.0434 51.5621 91.6866 51.5621V53.8882L83.303 53.7912V51.3682C81.7038 51.3198 80.2015 51.3198 78.7962 51.2713C78.8447 52.0951 78.8447 53.7428 78.7962 55.0996H78.1662C78.1662 55.0996 78.2147 52.8705 78.1662 51.2713C76.8093 51.2713 75.5494 51.2229 74.5802 51.2229C68.0381 51.2229 67.1173 51.3682 67.0204 51.3682C67.0689 51.3682 67.0689 51.3682 67.0689 51.3682L66.6812 50.3506C67.1658 50.1567 71.818 50.1567 74.5317 50.1567C81.0738 50.1567 97.6471 50.7383 100.409 50.8352C100.409 50.5929 100.312 50.0114 100.312 49.8175C100.216 49.1391 98.5679 48.3637 97.6956 48.3153L94.788 48.2183V47.5884L98.1317 47.6853C98.3256 47.6853 98.4709 47.6368 98.5679 47.4914C98.7132 47.3461 98.7617 47.2007 98.7617 47.0553L98.6648 44.3415C98.6648 43.6631 98.2286 43.0331 97.6471 42.6939C96.9687 42.3062 95.8541 41.967 94.3034 41.8701L93.8673 36.2972C93.8188 35.5703 93.2373 34.9403 92.5104 34.7949L84.466 33.2442L83.4484 28.3497C83.3514 27.8651 82.9637 27.5259 82.5276 27.429C81.0738 27.1382 78.4085 26.7506 74.5317 26.4113L73.4656 26.3144C70.5095 26.0721 66.9235 25.9267 62.659 25.8783C62.4167 25.8783 62.2229 25.9752 62.0775 26.1206C61.9321 26.266 61.8352 26.5083 61.8352 26.7021L62.0775 33.7773C62.0775 33.7773 62.659 33.0504 63.7251 32.6142C64.3067 32.3719 65.2274 32.3719 65.8574 32.4688L74.2894 33.9711C75.2101 34.1649 75.8401 34.9403 75.8886 35.861L75.9855 41.2401C75.9855 41.4339 75.9371 41.5793 75.7917 41.7247C75.7432 41.7732 75.6948 41.7732 75.6948 41.8216C70.9941 39.0109 65.3728 39.7378 64.2097 40.8524C66.3904 40.5617 67.6019 41.2401 68.2319 41.8216C68.5711 42.1608 68.765 42.597 68.765 43.0816L68.7165 44.9715C68.7165 45.1654 68.765 45.3107 68.9104 45.4077C69.0073 45.553 69.2011 45.6015 69.3465 45.6015H69.6373V43.0816H73.2718C73.8048 43.0816 74.241 43.5177 74.241 44.0508V45.65H76.034L92.5588 45.9407C92.995 45.9407 93.3342 46.2799 93.3342 46.7161V47.0553L76.664 46.7161L76.8578 48.8483L75.5494 47.2491H65.9058C65.9058 47.2491 65.2274 43.5177 63.0467 43.5177C58.7822 43.5177 58.8791 54.1789 58.8791 54.1789L58.0553 54.082C58.2492 48.5576 59.1699 45.553 59.1699 45.553C59.1699 45.553 57.5223 46.0861 56.65 46.1346C55.7292 46.183 55.9231 45.0684 55.9231 45.0684V26.6052C58.5884 25.0545 61.6414 24.376 61.6414 24.376C75.6463 24.6183 81.8976 25.8298 83.3999 26.169C83.0122 25.1514 81.3646 24.2306 79.9108 23.9399V21.6138C79.7169 21.4684 79.4746 21.42 79.2323 21.42V16.1378C79.2323 15.944 78.99 15.1686 78.99 15.1686C78.99 15.1686 78.6023 14.2963 77.9239 14.8294C77.2939 15.3625 77.9239 16.1378 77.9239 16.1378V23.6491C77.7301 23.6491 77.1486 23.5037 77.1486 23.5037L77.1001 17.3493L55.3416 14.8779V13.1333C55.3416 12.9395 55.0993 12.1641 55.0993 12.1641C55.0993 12.1641 54.7116 11.2918 54.0331 11.8249C53.4032 12.3579 54.0331 13.1333 54.0331 13.1333V20.1115C54.0331 20.1115 53.9847 20.0631 53.3062 20.1115L53.1124 33.438H52.3855V14.9263C52.3855 14.8779 52.337 14.8294 52.2886 14.7809C52.2401 14.7325 52.1917 14.7325 52.1432 14.7809L27.9617 30.1428L50.5925 18.2701L27.7194 32.4688L50.3017 22.2922L27.5255 34.9403L50.2533 26.1206L27.3317 37.4118L50.1563 29.8035L27.0894 39.8832L49.7202 33.9226L26.8955 42.2578L49.7687 37.4602L26.7017 44.6808L49.7202 41.2401L25.0056 47.443L49.6233 45.1654L24.7148 49.6237L27.7194 50.0598L27.8647 52.1921H30.4331C30.4331 57.9588 31.0631 59.9941 31.7415 59.9941H40.0282C40.7066 59.9941 41.1428 58.0557 41.1428 58.0557H47.2487C47.2487 58.0557 47.4426 59.8972 48.1695 59.8972H57.0861C58.2007 59.8972 58.2007 57.7649 58.2007 57.7649H59.7999C59.9453 58.4918 60.7691 60.9148 62.126 60.9148H67.3112C68.5711 60.9148 69.5403 56.6504 69.5403 56.6504H87.6644C87.9067 58.0073 88.5367 59.8972 90.2328 60.7695H95.5634C95.5634 60.7695 97.5018 59.8972 97.9864 56.6504H99.5855C100.409 55.342 100.555 53.4036 100.555 51.8528ZM97.3564 44.1962C97.744 44.1962 98.0348 44.4869 98.0348 44.8746V46.3284H94.7395L94.6426 44.1962H97.3564ZM78.7962 36.2972C78.99 36.1033 79.2323 36.0549 79.4746 36.0549L91.6381 36.7818C92.1227 36.8302 92.4619 37.1695 92.5104 37.6541L78.5054 36.9756C78.5054 36.7333 78.6024 36.491 78.7962 36.2972ZM78.8447 38.4294C79.0385 38.2356 79.2808 38.1387 79.5231 38.1871L91.7835 38.7686C92.2681 38.7686 92.6073 39.1563 92.6558 39.6409L78.6024 39.1079C78.5539 38.8171 78.6508 38.5748 78.8447 38.4294ZM78.8447 40.5617C79.0385 40.3678 79.2808 40.2709 79.5231 40.3194L91.8319 40.7555C92.3165 40.7555 92.7042 41.1432 92.7042 41.6278L78.5539 41.2401C78.5539 40.9493 78.6993 40.707 78.8447 40.5617ZM78.6024 43.3723C78.6024 43.13 78.6993 42.8877 78.8931 42.6939C79.0869 42.5001 79.3293 42.4031 79.5716 42.4031L91.9289 42.6939C92.4135 42.6939 92.8011 43.0816 92.8011 43.5662L78.6024 43.3723ZM31.9838 58.0557C31.5477 58.0557 31.16 56.7473 31.16 55.0996C31.16 54.1789 31.3054 53.3066 31.4508 52.7736C31.4023 53.1128 31.4023 53.452 31.4023 53.8397C31.4023 55.4389 31.7415 56.7473 32.2261 56.7473C32.42 56.7473 32.5654 56.505 32.7107 56.1173C32.6623 57.2804 32.3715 58.0557 31.9838 58.0557ZM34.4068 58.0557C33.9707 58.0557 33.583 56.7473 33.583 55.0996C33.583 54.1789 33.7284 53.3066 33.8738 52.7736C33.8253 53.1128 33.8253 53.452 33.8253 53.8397C33.8253 55.4389 34.1645 56.7473 34.6491 56.7473C34.843 56.7473 34.9884 56.505 35.1337 56.1173C35.0368 57.2804 34.7461 58.0557 34.4068 58.0557ZM43.0812 53.7428H38.5744C38.3321 51.0775 37.1206 49.9629 37.1206 49.9629C37.7021 51.8528 37.5567 52.8705 37.5567 53.7428H36.4422C36.4422 49.4783 35.6183 48.9937 35.6183 48.9937L39.4467 48.4606C41.6274 50.3506 42.5966 49.8175 42.5966 49.8175C43.1781 50.9321 43.0812 53.7428 43.0812 53.7428ZM62.5621 57.8619C61.4475 57.8619 60.5752 55.7781 60.5752 53.2097C60.5752 51.7075 60.866 50.399 61.3506 49.5268C61.2537 50.0598 61.2052 50.5929 61.2052 51.1744C61.2052 53.7428 62.126 55.8265 63.1921 55.8265C63.6767 55.8265 64.0644 55.4873 64.4036 54.8574C64.1613 56.6504 63.4344 57.8619 62.5621 57.8619ZM60.0906 32.1781L61.4475 33.9226C61.3021 32.4688 61.1083 28.3497 61.0114 26.799C61.0114 26.6536 60.9145 26.5083 60.8175 26.4598C60.6722 26.3629 60.5268 26.3629 60.3814 26.4113C59.3153 26.799 58.2492 27.2352 57.7161 27.4775C57.4738 27.5744 57.3284 27.8167 57.3284 28.1074V32.2265C57.3284 32.4688 57.4253 32.6627 57.6192 32.8081C57.813 32.9534 58.0553 32.9534 58.2492 32.905L60.0906 32.1781Z" fill="#181818"/>
<path d="M27.4746 59.7026H100.795V65.5178C81.5075 61.3503 27.4746 61.4957 27.4746 61.4957V59.7026V59.7026Z" fill="#181818"/>
<path d="M9.54661 87.4211H6.15442V85.725H3.97372V94.3508H6.15442V91.9763H9.74045V97.4038H3.68296C3.53758 97.4038 3.3922 97.4038 3.24682 97.4038C3.10144 97.4038 2.95606 97.4038 2.81068 97.4038C2.13224 97.3554 1.59918 97.21 1.25996 97.0161C0.92074 96.7738 0.62998 96.5315 0.43614 96.2892C0.33922 96.1439 0.2423 95.95 0.19384 95.8046C0.14538 95.6593 0.0969199 95.4654 0.04846 95.2716C0 95.1262 0 94.9808 0 94.787C0 94.6416 0 94.3993 0 94.0601V86.2096C0 85.725 0.04846 85.2404 0.09692 84.8042C0.14538 84.3681 0.38768 83.932 0.7269 83.5443C0.92074 83.302 1.16304 83.1566 1.40534 83.0112C1.64764 82.8658 1.88994 82.8174 2.1807 82.7205C2.47146 82.672 2.71376 82.6235 3.00452 82.6235C3.29528 82.6235 3.53758 82.6235 3.82834 82.6235H9.64353V87.4211H9.54661Z" fill="#181818"/>
<path d="M19.6232 82.6714L21.7069 94.3502L22.7246 97.4032H18.1694L17.6363 93.8172H15.1648L14.6802 97.4032H10.125L11.1911 94.3502L13.2264 82.6714H19.6232ZM15.4556 91.2488H17.2971L16.3763 85.0459L15.4556 91.2488Z" fill="#181818"/>
<path d="M30.7198 82.6714C31.2044 82.6714 31.6405 82.7198 32.1251 82.7683C32.6097 82.8168 32.9974 83.0106 33.3851 83.3498C33.5789 83.5437 33.7728 83.7375 33.8697 83.9313C33.9666 84.1252 34.0635 84.3675 34.112 84.6098C34.1604 84.8521 34.2089 85.0944 34.2089 85.3367C34.2089 85.579 34.2089 85.8213 34.2089 86.112C34.2089 86.5966 34.2089 87.0328 34.1604 87.4689C34.1604 87.8566 34.0635 88.2443 33.9181 88.5835C33.7728 88.9227 33.5789 89.2135 33.2882 89.4558C32.9974 89.6981 32.6097 89.8919 32.0767 90.0858C32.1251 90.1342 32.1736 90.1342 32.222 90.1342C32.2705 90.1342 32.319 90.1342 32.3674 90.1827C32.4643 90.2311 32.6582 90.2796 32.852 90.3281C33.0459 90.425 33.2882 90.5704 33.482 90.8127C33.7728 91.1034 33.9181 91.4426 33.9666 91.7819C34.0151 92.1211 34.0635 92.4603 34.0635 92.848V94.4472L35.0327 97.5001H32.4159C31.9313 97.5001 31.5436 97.5001 31.3013 97.4517C31.0105 97.4032 30.8167 97.3063 30.6229 97.1125C30.4775 96.9671 30.429 96.8702 30.3806 96.7248C30.3321 96.5794 30.3321 96.3371 30.3321 96.0463V91.588H28.0545V97.4032H23.0146L23.9354 94.3502V85.7244L23.0146 82.6714H30.7198V82.6714ZM28.006 88.632H30.2836V85.7244H28.006V88.632Z" fill="#181818"/>
<path d="M46.041 86.9374L42.4065 85.7259H40.1289V94.3518H42.4065V91.5895L41.195 88.5366H46.1864V97.4047H39.5473C39.4504 97.4047 39.305 97.4047 39.2081 97.4047C39.1112 97.4047 38.9658 97.4047 38.8689 97.4047C38.3358 97.3563 37.9482 97.3078 37.6574 97.1624C37.3666 97.0171 37.1243 96.9201 36.9305 96.7748C36.6882 96.5809 36.4944 96.3871 36.3974 96.1448C36.3005 95.9025 36.2036 95.7086 36.1067 95.4663C36.0582 95.224 36.0098 94.9817 36.0098 94.691C36.0098 94.4487 36.0098 94.1579 36.0098 93.9156V86.2589C36.0098 86.0166 36.0098 85.7259 36.0098 85.4836C36.0098 85.2413 36.0582 84.9505 36.1067 84.7082C36.1551 84.4659 36.2521 84.2236 36.349 83.9813C36.4459 83.739 36.6397 83.5452 36.8336 83.3513C37.2213 83.0121 37.6574 82.8183 38.1905 82.7214C38.6751 82.6729 39.2081 82.6244 39.6927 82.6729H46.041V86.9374Z" fill="#181818"/>
<path d="M58.1046 92.9946C58.1046 93.3338 58.1046 93.673 58.1046 94.0122C58.1046 94.3515 58.0561 94.7391 58.0076 95.0784C57.9592 95.4176 57.8623 95.7568 57.7169 96.0476C57.5715 96.3383 57.3292 96.6291 57.0385 96.8229C56.6992 97.1137 56.2631 97.2591 55.7785 97.3075C55.2939 97.356 54.8578 97.4044 54.4216 97.4044H51.7079C51.4656 97.4044 51.1748 97.4044 50.884 97.4044C50.5933 97.4044 50.3025 97.356 50.0118 97.3075C49.721 97.2591 49.4302 97.1621 49.1879 97.0168C48.9456 96.8714 48.7033 96.726 48.5095 96.4837C48.1703 96.096 48.0249 95.6599 47.928 95.2722C47.8795 94.8361 47.8311 94.3999 47.8311 93.9153V86.6948C47.8311 86.4525 47.8311 86.1617 47.8311 85.871C47.8311 85.5802 47.8795 85.2894 47.928 85.0471C47.9764 84.7564 48.0734 84.5141 48.1703 84.2718C48.2672 84.0295 48.4126 83.7872 48.6064 83.5933C48.9456 83.2057 49.3818 82.9634 49.8664 82.8664C50.351 82.818 50.8356 82.7695 51.3686 82.7695H54.2762C54.7124 82.7695 55.1001 82.7695 55.3908 82.818C55.73 82.8664 55.9723 82.9149 56.2146 82.9634C56.4569 83.0118 56.6508 83.1088 56.8446 83.2541C57.0384 83.3511 57.1838 83.5449 57.3292 83.6903C57.4746 83.8841 57.62 84.0779 57.7169 84.2718C57.8138 84.4656 57.9107 84.7079 57.9592 84.9502C58.0076 85.1925 58.0561 85.5317 58.0561 85.871C58.0561 86.2102 58.1046 86.5979 58.1046 87.034V92.9946V92.9946ZM51.8532 85.7256V94.3515H54.0339V85.7256H51.8532Z" fill="#181818"/>
<path d="M77.3498 88.0989L74.4907 85.7244H72.9884V94.3502L73.9576 97.4032H68.0455L69.0147 94.3502V85.7244H67.5125L64.6533 88.0989V82.6714H77.3014V88.0989H77.3498Z" fill="#181818"/>
<path d="M85.5245 82.6714C86.0091 82.6714 86.4452 82.7198 86.9298 82.7683C87.4144 82.8168 87.8021 83.0106 88.1898 83.3498C88.3836 83.5437 88.5775 83.7375 88.6744 83.9313C88.7713 84.1252 88.8682 84.3675 88.9167 84.6098C88.9651 84.8521 89.0136 85.0944 89.0136 85.3367C89.0136 85.579 89.0136 85.8213 89.0136 86.112C89.0136 86.5966 89.0136 87.0328 88.9651 87.4689C88.9651 87.8566 88.8682 88.2443 88.7228 88.5835C88.5775 88.9227 88.3836 89.2135 88.0929 89.4558C87.8021 89.6981 87.4144 89.8919 86.8814 90.0858C86.9298 90.1342 86.9783 90.1342 87.0267 90.1342C87.0752 90.1342 87.1237 90.1342 87.1721 90.1827C87.269 90.2311 87.4629 90.2796 87.6567 90.3281C87.8506 90.425 88.0929 90.5704 88.2867 90.8127C88.5775 91.1034 88.7228 91.4426 88.7713 91.7819C88.8198 92.1211 88.8682 92.4603 88.8682 92.848V94.4472L89.8374 97.5001H87.0752C86.5906 97.5001 86.2029 97.5001 85.9606 97.4517C85.6699 97.4032 85.476 97.3063 85.2822 97.1125C85.1368 96.9671 85.0883 96.8702 85.0399 96.7248C84.9914 96.5794 84.9914 96.3371 84.9914 96.0463V91.588H82.8107V97.4032H77.8193L78.7401 94.3502V85.7244L77.8193 82.6714H85.5245V82.6714ZM82.8107 88.632H85.0883V85.7244H82.8107V88.632Z" fill="#181818"/>
<path d="M95.4117 82.6714V94.3502H97.4954V82.6714H102.487L101.566 85.7244V93.4295C101.566 93.6718 101.566 93.9141 101.566 94.2049C101.566 94.4472 101.518 94.7379 101.469 95.0287C101.421 95.3194 101.372 95.5617 101.275 95.804C101.178 96.0463 101.033 96.2886 100.888 96.4825C100.694 96.7248 100.5 96.8702 100.306 97.0155C100.112 97.1125 99.87 97.2094 99.6277 97.3063C99.3854 97.3548 99.1431 97.4032 98.9008 97.4517C98.6585 97.4517 98.4162 97.5001 98.1254 97.5001H94.6363C94.5394 97.5001 94.4425 97.5001 94.3455 97.5001C94.2486 97.5001 94.1517 97.5001 94.0548 97.5001C93.9579 97.5001 93.8609 97.5001 93.6671 97.4517C93.4733 97.4517 93.2794 97.4032 93.0856 97.3063C92.8917 97.2578 92.6494 97.1125 92.4556 97.0155C92.2618 96.8702 92.0679 96.6763 91.8741 96.434C91.6318 96.0948 91.4864 95.6587 91.4864 95.2225C91.4379 94.7864 91.4379 94.3502 91.4379 93.9626V85.8213L90.4688 82.7683H95.4117V82.6714Z" fill="#181818"/>
<path d="M113.158 87.4211H109.765V85.725H107.536V94.3508H109.717V91.9763H113.303V97.4038H107.245C107.1 97.4038 106.955 97.4038 106.809 97.4038C106.664 97.4038 106.519 97.4038 106.373 97.4038C105.695 97.3554 105.162 97.21 104.822 97.0161C104.483 96.7738 104.192 96.5315 103.999 96.2892C103.902 96.1439 103.805 95.95 103.756 95.8046C103.708 95.6593 103.659 95.4654 103.611 95.2716C103.562 95.1262 103.563 94.9808 103.563 94.787C103.563 94.6416 103.563 94.3993 103.563 94.0601V86.2096C103.563 85.725 103.611 85.2404 103.659 84.8042C103.708 84.3681 103.95 83.932 104.289 83.5443C104.483 83.302 104.726 83.1566 104.968 83.0112C105.21 82.8658 105.452 82.8174 105.743 82.7205C106.034 82.672 106.276 82.6235 106.567 82.6235C106.858 82.6235 107.1 82.6235 107.391 82.6235H113.206V87.4211H113.158Z" fill="#181818"/>
<path d="M125.7 85.7244H124.392L122.55 89.0681H125.07V94.3502H126.136V97.4032H121.096V91.7819H118.964V97.4032H113.973L114.942 94.3502V85.7244L113.973 82.6714H118.964V89.0681L121.872 82.6714H125.7V85.7244Z" fill="#181818"/>
<path d="M9.88804 102.055V102.636H8.38578V106.901H7.70734V102.636H6.20508V102.055H9.88804Z" fill="#181818"/>
<path d="M16.1822 106.901C16.0853 106.707 16.0368 106.465 15.9399 106.271C15.8915 106.077 15.7945 105.883 15.7461 105.641H13.5654L13.1292 106.901H12.4023C12.5962 106.368 12.7416 105.931 12.9354 105.495C13.0808 105.059 13.2746 104.623 13.42 104.235C13.5654 103.848 13.7108 103.46 13.9046 103.121C14.05 102.782 14.2438 102.394 14.3892 102.055H14.9707C15.1161 102.394 15.3099 102.782 15.4553 103.121C15.6007 103.46 15.7461 103.848 15.9399 104.235C16.0853 104.623 16.2791 105.059 16.4245 105.495C16.5699 105.931 16.7637 106.416 16.9576 106.901H16.1822V106.901ZM15.5522 105.108C15.4069 104.72 15.2615 104.332 15.1161 103.945C14.9707 103.557 14.8253 103.218 14.68 102.83C14.5346 103.169 14.3407 103.557 14.1954 103.945C14.05 104.332 13.9046 104.72 13.7592 105.108H15.5522Z" fill="#181818"/>
<path d="M23.2202 104.526H23.8987V106.804C23.8502 106.804 23.7533 106.852 23.6564 106.852C23.5594 106.852 23.4141 106.901 23.2687 106.901C23.1233 106.901 22.9779 106.949 22.8325 106.949C22.6872 106.949 22.4933 106.998 22.3479 106.998C22.0087 106.998 21.718 106.949 21.4272 106.852C21.1364 106.755 20.8941 106.561 20.7003 106.368C20.5065 106.174 20.3611 105.883 20.2157 105.592C20.1188 105.302 20.0703 104.914 20.0703 104.526C20.0703 104.138 20.1188 103.751 20.2642 103.46C20.4095 103.121 20.5549 102.879 20.7488 102.685C20.9426 102.491 21.1849 102.297 21.4757 102.2C21.7664 102.103 22.0572 102.055 22.3964 102.055C22.6387 102.055 22.8325 102.055 22.9779 102.103C23.1718 102.152 23.3171 102.152 23.4141 102.2C23.5594 102.249 23.6564 102.297 23.7048 102.297C23.8017 102.345 23.8502 102.345 23.8502 102.394L23.6564 102.975C23.511 102.879 23.3171 102.83 23.1233 102.733C22.881 102.685 22.6872 102.636 22.4449 102.636C22.2026 102.636 21.9603 102.685 21.7664 102.782C21.5726 102.879 21.3787 102.975 21.2334 103.169C21.088 103.315 20.9911 103.557 20.8941 103.799C20.7972 104.042 20.7972 104.332 20.7972 104.623C20.7972 104.914 20.8457 105.156 20.8941 105.398C20.9426 105.641 21.088 105.835 21.1849 106.028C21.3303 106.222 21.4757 106.319 21.718 106.416C21.9118 106.513 22.1541 106.561 22.4449 106.561C22.6387 106.561 22.7841 106.561 22.9295 106.513C23.0748 106.513 23.1718 106.465 23.2202 106.465V104.526V104.526Z" fill="#181818"/>
<path d="M30.6722 106.319V106.901H27.7646V102.055H28.4431V106.319H30.6722Z" fill="#181818"/>
<path d="M34.2178 102.055H34.8962V106.901H34.2178V102.055Z" fill="#181818"/>
<path d="M42.2148 106.901C42.1179 106.707 41.9725 106.514 41.8756 106.32C41.7302 106.126 41.5849 105.884 41.4395 105.641C41.2941 105.399 41.1487 105.157 40.9549 104.914C40.8095 104.672 40.6157 104.43 40.4703 104.236C40.3249 103.994 40.1311 103.8 39.9857 103.606C39.8403 103.412 39.6949 103.218 39.5495 103.073V106.853H38.8711V102.007H39.4042C39.6465 102.249 39.8403 102.491 40.1311 102.831C40.3734 103.121 40.6157 103.461 40.858 103.8C41.1003 104.139 41.3426 104.43 41.5364 104.769C41.7302 105.108 41.9241 105.351 42.0695 105.593V102.007H42.7479V106.853H42.2148V106.901Z" fill="#181818"/>
<path d="M46.7734 106.901V102.055H49.7295V102.636H47.4519V104.09H49.4872V104.672H47.4519V106.368H49.9233V106.949H46.7734V106.901Z" fill="#181818"/>
<path d="M60.9614 104.526H61.6399V106.804C61.5914 106.804 61.4945 106.852 61.3976 106.852C61.3006 106.852 61.1553 106.901 61.0099 106.901C60.8645 106.901 60.7191 106.949 60.5737 106.949C60.4284 106.949 60.2345 106.998 60.0891 106.998C59.7499 106.998 59.4592 106.949 59.1684 106.852C58.8776 106.755 58.6353 106.561 58.4415 106.368C58.2477 106.174 58.1023 105.883 57.9569 105.592C57.86 105.302 57.8115 104.914 57.8115 104.526C57.8115 104.138 57.86 103.751 58.0054 103.46C58.1507 103.121 58.2961 102.879 58.49 102.685C58.6838 102.491 58.9261 102.297 59.2169 102.2C59.5076 102.103 59.7984 102.055 60.1376 102.055C60.3799 102.055 60.5737 102.055 60.7191 102.103C60.913 102.152 61.0583 102.152 61.1553 102.2C61.3006 102.249 61.3976 102.297 61.446 102.297C61.5429 102.345 61.5914 102.345 61.5914 102.394L61.3976 102.975C61.2522 102.879 61.0583 102.83 60.8645 102.733C60.6222 102.685 60.4284 102.636 60.1861 102.636C59.9438 102.636 59.7015 102.685 59.5076 102.782C59.3138 102.879 59.1199 102.975 58.9746 103.169C58.8292 103.315 58.7323 103.557 58.6353 103.799C58.5384 104.042 58.5384 104.332 58.5384 104.623C58.5384 104.914 58.5869 105.156 58.6353 105.398C58.6838 105.641 58.8292 105.835 58.9261 106.028C59.0715 106.222 59.2169 106.319 59.4592 106.416C59.653 106.513 59.8953 106.561 60.1861 106.561C60.3799 106.561 60.5253 106.561 60.6707 106.513C60.816 106.513 60.913 106.465 60.9614 106.465V104.526V104.526Z" fill="#181818"/>
<path d="M65.3213 104.475C65.3213 104.039 65.3698 103.7 65.5151 103.361C65.6605 103.022 65.8059 102.779 65.9997 102.586C66.1936 102.392 66.4359 102.198 66.7266 102.101C67.0174 102.004 67.3081 101.956 67.6474 101.956C67.9381 101.956 68.2774 102.004 68.5197 102.101C68.8104 102.198 69.0527 102.392 69.2466 102.586C69.4404 102.779 69.6342 103.07 69.7312 103.361C69.8765 103.7 69.925 104.039 69.925 104.475C69.925 104.912 69.8765 105.251 69.7312 105.59C69.5858 105.929 69.4404 106.172 69.2466 106.365C69.0527 106.559 68.8104 106.753 68.5197 106.85C68.2289 106.947 67.9381 106.995 67.6474 106.995C67.3081 106.995 67.0174 106.947 66.7266 106.85C66.4359 106.753 66.1936 106.559 65.9997 106.365C65.8059 106.172 65.6121 105.881 65.5151 105.59C65.3698 105.251 65.3213 104.912 65.3213 104.475ZM65.9997 104.475C65.9997 104.766 66.0482 105.057 66.0967 105.299C66.1936 105.542 66.2905 105.735 66.4359 105.929C66.5813 106.075 66.7266 106.22 66.9205 106.317C67.1143 106.414 67.3566 106.462 67.5989 106.462C67.8412 106.462 68.0835 106.414 68.2774 106.317C68.4712 106.22 68.6166 106.075 68.762 105.929C68.9073 105.784 69.0042 105.542 69.1012 105.299C69.1981 105.057 69.1981 104.815 69.1981 104.475C69.1981 104.136 69.1496 103.894 69.1012 103.652C69.0042 103.409 68.9073 103.216 68.762 103.022C68.6166 102.876 68.4712 102.731 68.2774 102.634C68.0835 102.537 67.8412 102.489 67.5989 102.489C67.3566 102.489 67.1143 102.537 66.9205 102.634C66.7266 102.731 66.5328 102.876 66.4359 103.022C66.2905 103.167 66.1936 103.409 66.0967 103.652C66.0482 103.942 65.9997 104.185 65.9997 104.475Z" fill="#181818"/>
<path d="M73.7588 106.901V102.055H76.7148V102.636H74.4372V104.09H76.4725V104.672H74.4372V106.368H76.9087V106.949H73.7588V106.901Z" fill="#181818"/>
<path d="M81.707 106.415C82.4339 106.415 82.7731 106.173 82.7731 105.689C82.7731 105.543 82.7246 105.398 82.6762 105.301C82.6277 105.204 82.5308 105.107 82.4339 105.01C82.3369 104.913 82.1916 104.865 82.0462 104.816C81.9008 104.768 81.7554 104.719 81.61 104.671C81.4162 104.622 81.2708 104.526 81.1254 104.477C80.9801 104.38 80.8347 104.332 80.6893 104.186C80.5924 104.089 80.4955 103.944 80.3985 103.799C80.3501 103.653 80.3016 103.459 80.3016 103.266C80.3016 102.829 80.447 102.49 80.7378 102.248C81.0285 102.006 81.4162 101.909 81.9493 101.909C82.24 101.909 82.5308 101.957 82.7731 102.006C83.0154 102.054 83.2092 102.151 83.3061 102.199L83.1123 102.733C83.0154 102.684 82.87 102.636 82.6762 102.539C82.4823 102.49 82.24 102.442 81.9977 102.442C81.8524 102.442 81.7554 102.442 81.61 102.49C81.5131 102.539 81.4162 102.539 81.3193 102.636C81.2224 102.684 81.1739 102.781 81.1254 102.829C81.077 102.926 81.0285 103.023 81.0285 103.12C81.0285 103.266 81.077 103.362 81.1254 103.459C81.1739 103.556 81.2708 103.605 81.3193 103.702C81.4162 103.75 81.5131 103.847 81.6585 103.896C81.8039 103.944 81.9008 103.992 82.0462 104.041C82.24 104.138 82.4339 104.186 82.6277 104.283C82.8216 104.38 82.9669 104.477 83.0638 104.574C83.2092 104.671 83.3062 104.816 83.3546 105.01C83.4031 105.156 83.4515 105.349 83.4515 105.592C83.4515 106.028 83.3062 106.367 82.9669 106.561C82.6762 106.803 82.24 106.9 81.6585 106.9C81.4647 106.9 81.2708 106.9 81.1254 106.852C80.9801 106.803 80.8347 106.803 80.6893 106.755C80.5439 106.706 80.447 106.706 80.3501 106.658C80.2532 106.609 80.2047 106.561 80.1562 106.561L80.3501 105.979C80.447 106.028 80.6408 106.125 80.8347 106.173C81.077 106.415 81.3677 106.415 81.707 106.415Z" fill="#181818"/>
<path d="M94.5471 102.055H95.2256V106.901H94.5471V104.672H92.1726V106.901H91.4941V102.055H92.1726V104.09H94.5471V102.055Z" fill="#181818"/>
<path d="M99.2451 106.901V102.055H102.201V102.636H99.9236V104.09H101.959V104.672H99.9236V106.368H102.395V106.949H99.2451V106.901Z" fill="#181818"/>
<path d="M108.402 104.865C108.499 104.962 108.547 105.059 108.693 105.252C108.79 105.398 108.935 105.592 109.032 105.737C109.177 105.931 109.274 106.125 109.371 106.319C109.468 106.512 109.613 106.706 109.662 106.9H108.983C108.886 106.706 108.79 106.561 108.693 106.367C108.596 106.173 108.45 106.028 108.353 105.834C108.257 105.689 108.111 105.495 108.014 105.349C107.917 105.204 107.82 105.059 107.723 104.962C107.675 104.962 107.578 104.962 107.53 104.962C107.481 104.962 107.384 104.962 107.336 104.962H106.706V106.852H106.027V102.054C106.221 102.006 106.415 101.957 106.657 101.957C106.9 101.957 107.093 101.909 107.287 101.909C107.966 101.909 108.499 102.054 108.838 102.296C109.177 102.539 109.371 102.926 109.371 103.459C109.371 103.799 109.274 104.041 109.129 104.283C108.983 104.622 108.741 104.768 108.402 104.865ZM107.384 102.587C107.093 102.587 106.851 102.587 106.706 102.587V104.429H107.19C107.433 104.429 107.627 104.429 107.82 104.38C108.014 104.38 108.16 104.332 108.305 104.235C108.45 104.186 108.547 104.089 108.596 103.944C108.644 103.847 108.693 103.653 108.693 103.459C108.693 103.266 108.644 103.12 108.596 103.023C108.547 102.878 108.45 102.829 108.305 102.733C108.208 102.684 108.063 102.636 107.869 102.587C107.723 102.636 107.578 102.587 107.384 102.587Z" fill="#181818"/>
<path d="M113.252 106.901V102.055H116.208V102.636H113.93V104.09H115.966V104.672H113.93V106.368H116.402V106.949H113.252V106.901Z" fill="#181818"/>
</g>
</svg>
