<svg width="148" height="107" viewBox="0 0 148 107" fill="none" xmlns="http://www.w3.org/2000/svg">
<g opacity="0.5">
<path d="M129.318 30.4631C129.183 30.1496 127.974 31.1349 127.974 31.1349C125.018 30.1048 92.4601 17.7443 91.1166 17.3412C89.7283 16.9381 80.9505 14.5198 80.9505 14.5198C81.3088 8.92169 80.2339 6.99595 78.2186 3.32361C76.2033 -0.348727 74.1432 0.00955005 74.1432 0.00955005C74.1432 0.00955005 72.0831 -0.348727 70.0678 3.32361C68.0525 6.99595 66.9329 8.92169 67.3359 14.5198C67.3359 14.5198 58.5134 16.9381 57.1698 17.3412C55.7815 17.7443 23.2679 30.1048 20.3122 31.1349C20.3122 31.1349 19.103 30.1496 18.9686 30.4631C18.8343 30.7766 20.4913 32.5232 21.6109 33.0606C21.6109 33.0606 27.5225 31.8962 34.6432 30.4631C35.0463 31.0005 35.8524 32.0306 36.7481 32.3441C38.0469 32.7919 39.1665 32.6575 39.3456 32.1649C39.3456 32.1649 40.0621 32.6128 40.8235 32.4784C41.5848 32.344 42.3014 31.4931 42.2566 30.7318C42.2566 30.3287 41.8983 29.6122 41.6296 29.0748C45.302 28.3582 48.8847 27.6417 51.8853 27.1042C52.4675 27.5969 53.4975 28.1343 54.7963 27.5521C54.9306 27.5073 54.9754 27.3282 55.065 26.9699C55.065 26.9699 55.692 27.6417 56.4533 27.5521C57.1699 27.4625 58.0655 27.0147 58.379 25.8503C58.7373 25.8055 59.006 25.7607 59.1404 25.7159C62.2753 25.3576 68.5899 25.4472 68.5899 25.4472C68.5899 25.4472 68.8138 31.1796 69.0378 33.2397C69.0378 33.2397 57.9312 35.0311 58.1551 35.2103C58.379 35.4342 58.8717 36.9569 58.8717 36.9569L69.3513 36.2851C69.3513 36.2851 69.4856 38.9722 74.1432 38.8378C78.8008 38.9722 78.9352 36.2851 78.9352 36.2851L89.4147 36.9569C89.4147 36.9569 89.9074 35.4342 90.1313 35.2103C90.3552 34.9863 79.2487 33.2397 79.2487 33.2397C79.4726 31.2244 79.6965 25.4472 79.6965 25.4472C79.6965 25.4472 86.0111 25.3576 89.146 25.7159C89.3252 25.7159 89.5939 25.7607 89.9074 25.8503C90.2209 27.0147 91.1166 27.4625 91.8331 27.5521C92.5945 27.6417 93.2214 26.9699 93.2214 26.9699C93.3558 27.3282 93.3558 27.4625 93.4902 27.5521C94.7441 28.0895 95.7742 27.5969 96.4011 27.1042C99.4017 27.6864 102.984 28.3582 106.657 29.0748C106.343 29.657 106.03 30.3287 106.03 30.7318C106.03 31.4931 106.702 32.344 107.463 32.4784C108.224 32.6128 108.941 32.1649 108.941 32.1649C109.165 32.6575 110.284 32.7919 111.538 32.3441C112.479 32.0306 113.285 31.0005 113.643 30.4631C120.764 31.8514 126.675 33.0606 126.675 33.0606C127.795 32.5232 129.452 30.7318 129.318 30.4631ZM35.5389 29.657C34.7776 29.657 34.1506 29.0748 34.1506 28.3134C34.1506 27.5521 34.7328 26.9251 35.4941 26.9251C36.2555 26.9251 36.8824 27.5073 36.8824 28.2686C36.8824 29.03 36.2555 29.657 35.5389 29.657ZM38.9426 29.5674C38.1812 29.5674 37.5542 28.9852 37.5542 28.2239C37.5542 27.4625 38.1364 26.8355 38.8978 26.8355C39.6591 26.8355 40.2861 27.4177 40.2861 28.1791C40.2861 28.9404 39.7039 29.5674 38.9426 29.5674ZM51.8853 24.4172C51.0344 24.462 50.3626 23.7902 50.3178 22.9393C50.273 22.0884 50.9448 21.4166 51.7957 21.3718C52.6466 21.327 53.3184 21.9988 53.3632 22.8497C53.3632 23.7006 52.7362 24.3724 51.8853 24.4172ZM55.692 24.2828C54.8411 24.3276 54.1693 23.6558 54.1245 22.8049C54.0797 21.954 54.7515 21.2822 55.6024 21.2375C56.4533 21.1927 57.1251 21.8644 57.1698 22.7154C57.1698 23.5663 56.4981 24.2828 55.692 24.2828ZM92.5945 24.2828C91.7436 24.238 91.1166 23.5663 91.1166 22.7154C91.1614 21.8644 91.8331 21.2375 92.684 21.2375C93.5349 21.2822 94.1619 21.954 94.1619 22.8049C94.1171 23.6558 93.4006 24.3276 92.5945 24.2828ZM96.4011 24.4172C95.5502 24.3724 94.9233 23.7006 94.9233 22.8497C94.968 21.9988 95.6398 21.3718 96.4907 21.3718C97.3416 21.4166 97.9686 22.0884 97.9686 22.9393C97.9238 23.7454 97.2073 24.4172 96.4011 24.4172ZM109.299 29.5674C108.538 29.5674 107.956 28.8956 107.956 28.1791C107.956 27.4177 108.627 26.8355 109.344 26.8355C110.105 26.8355 110.687 27.5073 110.687 28.2239C110.687 28.9852 110.06 29.6122 109.299 29.5674ZM112.748 29.657C111.986 29.657 111.404 28.9852 111.404 28.2686C111.404 27.5073 112.031 26.9251 112.792 26.9251C113.554 26.9251 114.136 27.5521 114.136 28.3134C114.136 29.1196 113.509 29.7018 112.748 29.657Z" fill="#181818"/>
<path d="M103.975 55.1402L103.393 55.3642C103.348 55.409 103.303 55.4537 103.303 55.5433V58.4095C103.303 58.4543 103.348 58.4991 103.393 58.5439C103.438 58.5887 103.483 58.5887 103.572 58.5439L104.154 58.32C104.199 58.2752 104.244 58.2304 104.244 58.1408V55.2746C104.244 55.2298 104.199 55.185 104.154 55.1402C104.11 55.0955 104.02 55.0955 103.975 55.1402ZM105.991 57.469C106.08 57.5138 106.17 57.5138 106.214 57.5138L107.11 57.1556C107.2 57.1108 107.289 57.0212 107.289 56.9316V52.5427C107.289 52.4532 107.245 52.3636 107.155 52.3188C107.065 52.274 106.976 52.274 106.931 52.274L106.035 52.6323C105.946 52.6771 105.856 52.7667 105.856 52.8562V57.2451C105.901 57.3347 105.946 57.4243 105.991 57.469ZM141.415 65.7094C140.833 65.7094 139.445 65.6198 137.564 65.5751C137.564 66.3812 137.608 67.5456 137.519 68.5308H136.981C136.981 68.5308 137.026 66.9186 137.026 65.5751C135.996 65.5303 134.877 65.4855 133.667 65.4855V67.5008L126.323 67.4112V65.2616C124.934 65.2168 123.591 65.2168 122.382 65.172C122.382 65.8885 122.426 67.3664 122.382 68.5308H121.844C121.844 68.5308 121.889 66.5603 121.844 65.172C120.635 65.172 119.56 65.1272 118.709 65.1272C112.977 65.1272 112.171 65.2616 112.081 65.2616C112.126 65.2616 112.126 65.2616 112.126 65.2616L111.813 64.3659C112.26 64.2315 116.336 64.1867 118.709 64.1867C124.487 64.1867 138.997 64.6794 141.415 64.7689C141.415 64.545 141.326 64.0524 141.326 63.8732C141.236 63.291 139.803 62.5745 139.042 62.5745L136.489 62.4849V61.9475L139.4 62.0371C139.534 62.0371 139.713 61.9923 139.803 61.8579C139.892 61.7684 139.982 61.5892 139.982 61.4549L139.892 59.0813C139.892 58.4543 139.534 57.9169 138.997 57.6482C138.37 57.3347 137.429 56.9764 136.086 56.9316L135.727 52.0501C135.683 51.3783 135.19 50.8409 134.563 50.7514L127.487 49.4078L126.591 45.1085C126.502 44.7054 126.188 44.3919 125.785 44.3024C124.487 44.0784 122.203 43.7202 118.799 43.4067L117.858 43.3171C115.261 43.138 112.126 42.9588 108.409 42.914C108.23 42.914 108.006 43.0036 107.871 43.138C107.737 43.2723 107.648 43.4515 107.692 43.6754L107.916 49.9004C107.916 49.9004 108.409 49.2735 109.349 48.8704C109.887 48.6465 110.648 48.6465 111.186 48.736L118.575 50.0348C119.381 50.1692 119.963 50.8857 119.963 51.6918L120.008 56.3942C120.008 56.5734 119.963 56.7077 119.829 56.8421C119.784 56.8868 119.784 56.8868 119.739 56.9316C115.619 54.4685 110.693 55.1402 109.663 56.0807C111.544 55.812 112.663 56.439 113.201 56.9316C113.514 57.2003 113.693 57.6482 113.693 58.0512L113.649 59.7083C113.649 59.8426 113.693 60.0218 113.828 60.1113C113.917 60.2009 114.097 60.2905 114.231 60.2905H114.5V58.096H117.679C118.127 58.096 118.53 58.4543 118.53 58.9469V60.3353H120.098L134.608 60.604C134.966 60.604 135.28 60.9175 135.28 61.2757V61.5892L120.635 61.2757L120.814 63.1567L119.695 61.7236H111.23C111.23 61.7236 110.648 58.4543 108.722 58.4543C105.005 58.4543 105.05 67.8143 105.05 67.8143L104.334 67.7695C104.513 62.9328 105.319 60.2905 105.319 60.2905C105.319 60.2905 103.886 60.7383 103.08 60.7831C102.273 60.8279 102.408 59.8874 102.408 59.8874V43.6754C104.781 42.2871 107.424 41.7049 107.424 41.7049C119.739 41.9288 125.203 43.0036 126.502 43.2723C126.188 42.3766 124.71 41.5705 123.457 41.3018V39.2865C123.277 39.1969 123.053 39.1074 122.874 39.1074V34.405C122.874 34.2258 122.65 33.5541 122.65 33.5541C122.65 33.5541 122.292 32.7927 121.71 33.2406C121.128 33.7332 121.71 34.3602 121.71 34.3602V40.9435C121.531 40.9435 121.038 40.854 121.038 40.854L120.993 35.4798L101.915 33.3301V31.8075C101.915 31.6283 101.691 30.9566 101.691 30.9566C101.691 30.9566 101.333 30.1952 100.751 30.6431C100.169 31.1357 100.751 31.7627 100.751 31.7627V37.8982C100.751 37.8982 100.706 37.8534 100.124 37.8982L99.9446 49.587H99.3176V33.2854C99.3176 33.2406 99.2728 33.1958 99.2281 33.151C99.1833 33.1062 99.1385 33.151 99.0937 33.151L77.7762 46.6312L97.6158 36.1964L77.5075 48.6913L97.3023 39.7791L77.3284 50.8857L97.2575 43.138L77.1493 53.0354L97.168 46.3625L76.9701 55.185L96.8097 49.9452L76.7462 57.2899L96.8097 53.0802L76.6118 59.4396L96.8097 56.439L75.134 61.9027L96.7201 59.8874L74.8652 63.7837L77.5075 64.1419L77.6419 66.0229H79.8811C79.8811 71.0836 80.4633 72.8749 81.0455 72.8749H88.2558C88.838 72.8749 89.2411 71.1731 89.2411 71.1731H94.6153C94.6153 71.1731 94.7496 72.7854 95.4214 72.7854H103.259C104.244 72.7854 104.244 70.9044 104.244 70.9044H105.632C105.767 71.5314 106.483 73.6811 107.648 73.6811H112.171C113.29 73.6811 114.141 69.9192 114.141 69.9192H130.085C130.309 71.0836 130.846 72.7854 132.324 73.5467H137.026C137.026 73.5467 138.728 72.7854 139.176 69.9192H140.564C141.281 68.7995 141.415 67.0977 141.415 65.7094ZM138.638 58.9917C138.952 58.9917 139.221 59.2604 139.221 59.5739V60.8279H136.354L136.265 58.9917H138.638ZM122.337 52.0949C122.516 51.9605 122.695 51.871 122.919 51.871L133.623 52.498C134.026 52.5427 134.339 52.8562 134.384 53.2593L122.113 52.6771C122.068 52.4532 122.158 52.2292 122.337 52.0949ZM122.337 53.9311C122.516 53.7967 122.695 53.7071 122.919 53.7071L133.667 54.2446C134.07 54.2446 134.429 54.6028 134.429 55.0059L122.113 54.558C122.113 54.2893 122.203 54.1102 122.337 53.9311ZM122.382 55.812C122.561 55.6777 122.74 55.5881 122.964 55.5881L133.757 55.9912C134.16 55.9912 134.518 56.3494 134.518 56.7525L122.113 56.439C122.158 56.1703 122.247 55.9464 122.382 55.812ZM122.158 58.2752C122.158 58.0512 122.247 57.8273 122.382 57.693C122.561 57.5586 122.74 57.469 122.964 57.469L133.802 57.7378C134.205 57.7378 134.563 58.0512 134.563 58.4991L122.158 58.2752ZM81.2695 71.1731C80.8664 71.1731 80.5529 70.0087 80.5529 68.6204C80.5529 67.8143 80.6425 67.0529 80.8216 66.6051C80.7768 66.8738 80.7768 67.1873 80.7768 67.5456C80.7768 68.9787 81.0903 70.0983 81.4934 70.0983C81.6725 70.0983 81.8069 69.9192 81.9412 69.5609C81.8069 70.4566 81.5829 71.1731 81.2695 71.1731ZM83.3743 71.1731C82.9712 71.1731 82.6578 70.0087 82.6578 68.6204C82.6578 67.8143 82.7473 67.0529 82.9265 66.6051C82.8817 66.8738 82.8817 67.1873 82.8817 67.5456C82.8817 68.9787 83.1952 70.0983 83.5982 70.0983C83.7774 70.0983 83.9117 69.9192 84.0461 69.5609C83.9565 70.4566 83.6878 71.1731 83.3743 71.1731ZM90.9877 67.3664H87.0466C86.8227 65.0376 85.7927 64.0524 85.7927 64.0524C86.3301 65.7094 86.1957 66.6051 86.151 67.3664H85.1657C85.1657 63.6493 84.4491 63.2015 84.4491 63.2015L87.808 62.7536C89.7337 64.4107 90.5846 63.918 90.5846 63.918C91.0773 64.9481 90.9877 67.3664 90.9877 67.3664ZM108.095 70.994C107.11 70.994 106.349 69.1578 106.349 66.9186C106.349 65.6198 106.618 64.4554 107.021 63.6941C106.931 64.1419 106.886 64.6346 106.886 65.172C106.886 67.4112 107.692 69.2474 108.633 69.2474C109.036 69.2474 109.394 68.9339 109.708 68.3965C109.484 69.9192 108.812 70.994 108.095 70.994ZM105.901 48.4673L107.11 49.99C106.976 48.6913 106.797 45.1085 106.752 43.7202C106.752 43.5858 106.662 43.4515 106.573 43.4067C106.483 43.3171 106.349 43.3171 106.214 43.3619C105.274 43.6754 104.378 44.0784 103.886 44.3024C103.662 44.3919 103.527 44.6159 103.527 44.8398V48.4226C103.527 48.6017 103.617 48.8256 103.796 48.9152C103.975 49.0495 104.154 49.0495 104.334 49.0048L105.901 48.4673Z" fill="#181818"/>
<path d="M44.1383 55.1402C44.0936 55.185 44.0488 55.2297 44.0488 55.2745V58.1407C44.0488 58.2303 44.0936 58.2751 44.1383 58.3199L44.7205 58.5438C44.7653 58.5438 44.8549 58.5438 44.8997 58.5438C44.9445 58.499 44.9893 58.4542 44.9893 58.4094V55.5432C44.9893 55.4537 44.9445 55.4089 44.8997 55.3641L44.3175 55.1402C44.2279 55.0954 44.1831 55.0954 44.1383 55.1402ZM42.3917 57.245V52.8562C42.3917 52.7666 42.347 52.6322 42.2126 52.6322L41.3169 52.274C41.2273 52.2292 41.1378 52.274 41.093 52.3187C41.0034 52.3635 40.9586 52.4531 40.9586 52.5427V56.9316C40.9586 57.0211 41.0034 57.1107 41.1378 57.1555L42.0335 57.5138C42.123 57.5585 42.2126 57.5138 42.2574 57.469C42.347 57.4242 42.3917 57.3346 42.3917 57.245ZM7.72845 69.8743H9.11676C9.5646 72.7405 11.2664 73.5019 11.2664 73.5019H15.9688C17.4467 72.7405 17.9841 71.0835 18.208 69.8743H34.1514C34.1514 69.8743 35.0023 73.6362 36.1219 73.6362H40.6451C41.8543 73.6362 42.5261 71.4865 42.6605 70.8596H44.0488C44.0488 70.8596 44.0488 72.7405 45.034 72.7405H52.8713C53.5431 72.7405 53.6775 71.1283 53.6775 71.1283H59.0516C59.0516 71.1283 59.4547 72.8301 60.0369 72.8301H67.3368C67.919 72.8301 68.5012 71.0835 68.5012 65.978H70.7404L70.8748 64.0971L73.517 63.7388L51.6622 59.8426L73.2483 61.8579L51.5726 56.3941L71.7705 59.3947L51.5278 53.0801L71.5913 57.2898L51.5278 49.9452L71.3674 55.185L51.08 46.4072L71.0987 53.0801L50.9904 43.1827L70.9195 50.9304L50.9456 39.779L70.7852 48.6912L50.7217 36.1963L70.5613 46.6311L49.2438 33.1509C49.199 33.1061 49.1542 33.1061 49.1094 33.1509C49.0646 33.1957 49.0199 33.2405 49.0199 33.2853V49.5869H48.3929L48.2137 37.8981C47.6315 37.8533 47.5868 37.8981 47.5868 37.8981V31.8074C47.5868 31.8074 48.169 31.1356 47.5868 30.6878C47.0046 30.1951 46.6463 31.0013 46.6463 31.0013C46.6463 31.0013 46.4223 31.673 46.4223 31.8522V33.3748L27.3441 35.4797L27.2993 40.8539C27.2993 40.8539 26.7619 40.9434 26.6276 40.9434V34.4049C26.6276 34.4049 27.2098 33.7331 26.6276 33.2853C26.0454 32.7927 25.6871 33.5988 25.6871 33.5988C25.6871 33.5988 25.4631 34.2705 25.4631 34.4497V39.1073C25.284 39.1521 25.0601 39.1969 24.881 39.2864V41.3017C23.627 41.5704 22.1491 42.3766 21.8356 43.2723C23.1344 42.9588 28.5981 41.8839 40.9138 41.7048C40.9138 41.7048 43.5561 42.287 45.9297 43.6753V59.8873C45.9297 59.8873 46.0641 60.8278 45.258 60.783C44.4518 60.7382 43.0187 60.2904 43.0187 60.2904C43.0187 60.2904 43.8696 62.9327 44.004 67.7694L43.2874 67.8142C43.2874 67.8142 43.377 58.4542 39.6151 58.4542C37.6894 58.4542 37.1072 61.7235 37.1072 61.7235H28.6876L27.568 63.1566L27.7472 61.2757L13.1026 61.5892V61.2757C13.1026 60.9174 13.4161 60.6039 13.7744 60.6039L28.2846 60.3352H29.852V58.9469C29.852 58.499 30.2103 58.096 30.703 58.096H33.8827V60.2904H34.1514C34.2857 60.2904 34.4648 60.2456 34.5544 60.1113C34.644 60.0217 34.7336 59.8426 34.7336 59.7082L34.6888 58.0512C34.6888 57.6033 34.8679 57.2003 35.1814 56.9316C35.7188 56.3941 36.8385 55.8119 38.7194 56.0806C37.6894 55.1402 32.7631 54.4684 28.6429 56.9316C28.5981 56.9316 28.5533 56.8868 28.5533 56.842C28.4189 56.7076 28.3741 56.5733 28.3741 56.3941L28.4189 51.6918C28.4189 50.8856 29.0011 50.1691 29.8073 50.0347L37.1967 48.736C37.7341 48.6464 38.5403 48.6464 39.0329 48.8703C39.9734 49.2734 40.466 49.9004 40.466 49.9004L40.6899 43.6753C40.6899 43.4962 40.6452 43.2722 40.5108 43.1379C40.3764 43.0035 40.1973 42.914 39.9734 42.914C36.2563 42.9588 33.0765 43.0931 30.5238 43.317L29.5833 43.4066C26.1797 43.6753 23.8509 44.0784 22.5969 44.3023C22.1939 44.3919 21.8804 44.7054 21.7908 45.1084L20.8951 49.4077L13.8191 50.7513C13.1922 50.8856 12.6995 51.423 12.6548 52.05L12.2965 56.9316C10.9082 57.0211 9.96768 57.3346 9.38548 57.6481C8.84807 57.9168 8.48979 58.499 8.48979 59.0812L8.40021 61.4548C8.40021 61.5891 8.44498 61.7683 8.57934 61.8579C8.66891 61.9474 8.84806 62.037 8.98241 62.037L11.8934 61.9474V62.4848L9.34068 62.5744C8.57934 62.6192 7.14625 63.291 7.05668 63.8732C7.01189 64.0523 6.9671 64.5449 6.9671 64.7689C9.38547 64.6793 23.8957 64.1867 29.6729 64.1867C32.0465 64.1867 36.1219 64.2314 36.5697 64.3658L36.2563 65.2615C36.2563 65.2615 36.2562 65.2615 36.301 65.2615C36.2115 65.2615 35.4053 65.1271 29.6729 65.1271C28.822 65.1271 27.7472 65.1271 26.538 65.1719C26.4932 66.5602 26.538 68.5308 26.538 68.5308H26.0006C25.9558 67.3664 25.9558 65.8885 26.0006 65.1719C24.7914 65.2167 23.4478 65.2167 22.0595 65.2615V67.4112L14.7148 67.5007V65.4854C13.5057 65.5302 12.386 65.575 11.356 65.575C11.356 66.9185 11.4008 68.5308 11.4008 68.5308H10.7738C10.729 67.5455 10.729 66.3811 10.729 65.575C8.84807 65.6198 7.41494 65.7093 6.87753 65.7093C6.83274 67.0977 7.01189 68.7995 7.72845 69.8743ZM12.0278 58.9916L11.9382 60.8278H9.07198V59.5738C9.07198 59.2604 9.34069 58.9916 9.65418 58.9916H12.0278ZM26.1797 52.677L13.9087 53.2592C13.9535 52.8562 14.267 52.5427 14.6701 52.4979L25.3736 51.8709C25.5975 51.8709 25.8214 51.9157 25.9558 52.0948C26.0901 52.2292 26.1797 52.4531 26.1797 52.677ZM26.1797 54.5132L13.8639 54.961C13.9087 54.558 14.2222 54.2445 14.6253 54.1997L25.3736 53.6623C25.5975 53.6623 25.8214 53.7518 25.9558 53.8862C26.0901 54.1101 26.1797 54.2893 26.1797 54.5132ZM26.1349 56.3941L13.7296 56.7076C13.7744 56.3046 14.0879 55.9911 14.4909 55.9463L25.284 55.5432C25.5079 55.5432 25.7319 55.6328 25.8662 55.7672C26.0454 55.9463 26.1349 56.1702 26.1349 56.3941ZM13.64 58.4542C13.6848 58.0512 13.9983 57.7377 14.4013 57.6929L25.2392 57.4242C25.4631 57.4242 25.6871 57.5138 25.8214 57.6481C26.0006 57.8272 26.0901 58.0064 26.0453 58.2303L13.64 58.4542ZM66.3515 69.516C66.4859 69.8743 66.6202 70.0534 66.7993 70.0534C67.2024 70.0534 67.5159 68.889 67.5159 67.5007C67.5159 67.1872 67.5159 66.8737 67.4711 66.5602C67.6503 67.0529 67.7398 67.7694 67.7398 68.5756C67.7398 70.0087 67.4263 71.1283 67.0233 71.1283C66.7098 71.1731 66.4411 70.4565 66.3515 69.516ZM64.2466 69.516C64.381 69.8743 64.5154 70.0534 64.6945 70.0534C65.0976 70.0534 65.411 68.889 65.411 67.5007C65.411 67.1872 65.411 66.8737 65.3663 66.5602C65.5454 67.0529 65.635 67.7694 65.635 68.5756C65.635 70.0087 65.3215 71.1283 64.9184 71.1283C64.6049 71.1731 64.3362 70.4565 64.2466 69.516ZM57.7529 63.9179C57.7529 63.9179 58.6038 64.4106 60.5295 62.7536L63.8884 63.2014C63.8884 63.2014 63.1718 63.6492 63.1718 67.3664H62.1865C62.1865 66.605 62.0522 65.7093 62.5448 64.0523C62.5448 64.0523 61.5148 65.0376 61.2908 67.3664H57.3498C57.305 67.3664 57.2155 64.948 57.7529 63.9179ZM38.5403 68.3964C38.8538 68.9338 39.212 69.2473 39.6151 69.2473C40.6004 69.2473 41.3617 67.4112 41.3617 65.1719C41.3617 64.6793 41.3169 64.1867 41.2273 63.694C41.6304 64.4554 41.8991 65.6198 41.8991 66.9185C41.8991 69.1578 41.093 70.9939 40.1525 70.9939C39.4359 70.9939 38.809 69.9191 38.5403 68.3964ZM43.9592 49.0495C44.1383 49.139 44.3623 49.0942 44.4966 48.9599C44.6758 48.8255 44.7653 48.6464 44.7653 48.4673V44.8845C44.7653 44.6606 44.631 44.4366 44.407 44.3471C43.9144 44.1232 43.0187 43.7201 42.0783 43.4066C41.9439 43.3618 41.8095 43.3618 41.72 43.4514C41.6304 43.541 41.5408 43.6305 41.5408 43.7649C41.4513 45.1532 41.2721 48.736 41.1826 50.0347L42.3917 48.512L43.9592 49.0495Z" fill="#181818"/>
<path d="M76.3863 72.604H71.8631H7.14941V74.1715C7.14941 74.1715 52.3818 74.0819 71.8631 76.9033C72.6692 77.0377 73.4306 77.1272 74.1023 77.2616C74.8189 77.1272 75.5802 77.0377 76.3416 76.9033C95.8228 74.0819 141.055 74.1715 141.055 74.1715V72.604H76.3863Z" fill="#181818"/>
<path d="M6.87865 81.8315L5.89339 85.0112V93.9682H7.77434V91.2811H11.6706V97.1926H0.743164L1.72843 94.0129V85.056L0.743164 81.8763H6.87865V81.8315Z" fill="#181818"/>
<path d="M23.6247 92.5791C23.6247 92.8926 23.6247 93.2509 23.6247 93.654C23.6247 94.0122 23.5799 94.3705 23.5351 94.7288C23.4904 95.0871 23.356 95.4006 23.2216 95.7588C23.0873 96.0723 22.8634 96.341 22.5499 96.565C22.1916 96.8337 21.7438 97.0128 21.2511 97.1024C20.7585 97.1472 20.2659 97.1919 19.818 97.1919H16.9966C16.7279 97.1919 16.4144 97.1919 16.1457 97.1919C15.8322 97.1919 15.5187 97.1472 15.25 97.0576C14.9365 97.0128 14.6678 96.8785 14.3991 96.7441C14.1303 96.6097 13.9064 96.4306 13.6825 96.2067C13.369 95.8036 13.1451 95.3558 13.1003 94.9079C13.0555 94.4601 13.0107 93.9675 13.0107 93.4748V85.951C13.0107 85.6823 13.0107 85.3688 13.0107 85.1001C13.0107 84.7866 13.0555 84.5179 13.1003 84.2492C13.1451 83.9805 13.2347 83.7118 13.3242 83.4431C13.4138 83.1744 13.5929 82.9505 13.7721 82.7265C14.1304 82.3235 14.5782 82.0548 15.1156 82.01C15.6083 81.9204 16.1457 81.9204 16.6383 81.9204H19.6389C20.0867 81.9204 20.4898 81.9204 20.8033 81.9652C21.1168 82.01 21.4303 82.0548 21.699 82.0995C21.9677 82.1443 22.1916 82.2787 22.3707 82.3683C22.5499 82.5026 22.729 82.637 22.9081 82.8161C23.0873 82.9952 23.1769 83.2192 23.3112 83.3983C23.4008 83.6222 23.4904 83.8461 23.5351 84.1149C23.5799 84.3836 23.6247 84.6971 23.6247 85.0553C23.6247 85.4136 23.6695 85.8167 23.6695 86.2645V92.5791H23.6247ZM17.1309 85.0105V93.9675H19.4149V85.0105H17.1309Z" fill="#181818"/>
<path d="M35.5443 86.3115L31.7376 85.0128H29.3641V93.9697H31.7376V91.1035L30.4837 87.9238H35.6787V97.1942H28.7819C28.6475 97.1942 28.5579 97.1942 28.4236 97.1942C28.2892 97.1942 28.1996 97.1942 28.0653 97.1942C27.5279 97.1494 27.1248 97.1046 26.8113 96.9703C26.4978 96.8359 26.2291 96.7016 26.05 96.5672C25.7813 96.3881 25.6022 96.1641 25.5126 95.9402C25.3782 95.7163 25.2887 95.4476 25.2439 95.2237C25.1991 94.955 25.1543 94.731 25.1543 94.4623C25.1543 94.1936 25.1543 93.9249 25.1543 93.6562V85.7293C25.1543 85.4606 25.1543 85.1919 25.1543 84.9232C25.1543 84.6545 25.1991 84.3858 25.2439 84.1171C25.2887 83.8484 25.3782 83.5797 25.5126 83.3557C25.6469 83.1318 25.7813 82.9079 26.0052 82.684C26.4083 82.3257 26.8561 82.1018 27.3935 82.057C27.9309 82.0122 28.4236 81.9674 28.9162 82.0122H35.4995V86.3115H35.5443Z" fill="#181818"/>
<path d="M43.0641 81.8315L42.0788 85.0113V93.9682L43.0641 97.1479H36.8838L37.8691 93.9682V85.0113L36.8838 81.8315H43.0641Z" fill="#181818"/>
<path d="M54.3469 86.31L50.6298 85.0112H48.301V87.8327H51.1224C51.2568 87.8327 51.3463 87.8327 51.4807 87.8327C51.6151 87.8327 51.7494 87.8327 51.8837 87.8327C51.9733 87.8327 52.1077 87.8327 52.3316 87.8775C52.5555 87.8775 52.7794 87.967 53.0034 88.0118C53.2273 88.1014 53.496 88.191 53.7647 88.3701C54.0334 88.5492 54.2573 88.7732 54.4365 89.0866C54.6604 89.4001 54.75 89.7584 54.7947 90.0719C54.8395 90.4302 54.8395 90.7885 54.8395 91.1467V93.6099C54.8395 93.8786 54.8395 94.1473 54.8395 94.416C54.8395 94.6847 54.7947 94.9534 54.7052 95.2221C54.526 95.7595 54.3021 96.1626 53.9886 96.4313C53.6751 96.7 53.3169 96.8792 52.9586 97.0135C52.6003 97.1031 52.242 97.1926 51.9285 97.1926C51.6151 97.1926 51.3911 97.1926 51.2568 97.1926H44.4047V92.4903L48.3905 93.9682H50.7194V90.878H47.674C47.5397 90.878 47.4501 90.878 47.3605 90.878C47.2709 90.878 47.1366 90.878 47.047 90.878C46.9574 90.878 46.8231 90.878 46.6439 90.8332C46.4648 90.8332 46.2857 90.7437 46.0617 90.6989C45.8378 90.6093 45.6587 90.5198 45.4348 90.3854C45.2109 90.251 45.0317 90.0719 44.8078 89.8032C44.5391 89.4449 44.4047 89.0866 44.3599 88.7284C44.3151 88.3701 44.2704 87.967 44.2256 87.564V85.0112C44.2704 84.5634 44.3151 84.1603 44.3599 83.8021C44.4047 83.4438 44.5839 83.0855 44.8974 82.772C45.2556 82.3242 45.7035 82.0555 46.1961 81.9659C46.6887 81.8763 47.1814 81.8315 47.674 81.8315H54.4365V86.31H54.3469Z" fill="#181818"/>
<path d="M68.9499 87.4744L65.9941 85.0113H64.4714V93.9682L65.4567 97.1479H59.2764L60.2617 93.9682V85.0113H58.739L55.7832 87.4744V81.8315H68.9499V87.4744Z" fill="#181818"/>
<path d="M75.6217 81.8315L74.6364 85.0113V93.9682L75.6217 97.1479H69.4414L70.4267 93.9682V85.0113L69.4414 81.8315H75.6217Z" fill="#181818"/>
<path d="M86.7293 86.8019H83.1913V85.0105H80.9073V93.9675H83.1913V91.5043H86.9084V97.1472H80.5938C80.4147 97.1472 80.2803 97.1472 80.146 97.1472C80.0116 97.1472 79.8325 97.1472 79.6981 97.1472C78.9816 97.1024 78.4441 96.968 78.0858 96.7441C77.7276 96.5202 77.4589 96.2515 77.235 95.9828C77.1006 95.8036 77.011 95.6245 76.9662 95.4901C76.9214 95.311 76.8767 95.1319 76.8319 94.9527C76.7871 94.7736 76.7871 94.6392 76.7871 94.4601C76.7871 94.281 76.7871 94.057 76.7871 93.6988V85.548C76.7871 85.0553 76.8319 84.5627 76.8767 84.1149C76.9214 83.667 77.1454 83.2192 77.5037 82.8161C77.7276 82.5922 77.9515 82.413 78.1754 82.2787C78.4441 82.1443 78.7128 82.0548 78.9815 82.01C79.2502 81.9652 79.5637 81.9204 79.8325 81.9204C80.1012 81.9204 80.4146 81.9204 80.6833 81.9204H86.7293V86.8019Z" fill="#181818"/>
<path d="M98.2394 86.31L94.5222 85.0112H92.1934V87.8327H95.0149C95.1492 87.8327 95.2388 87.8327 95.3732 87.8327C95.5075 87.8327 95.6418 87.8327 95.7762 87.8327C95.8658 87.8327 96.0001 87.8327 96.224 87.8775C96.448 87.8775 96.6719 87.967 96.8958 88.0118C97.1197 88.1014 97.3884 88.191 97.6572 88.3701C97.9259 88.5492 98.1498 88.7732 98.3289 89.0866C98.5528 89.4001 98.6424 89.7584 98.6872 90.0719C98.732 90.4302 98.732 90.7885 98.732 91.1467V93.6099C98.732 93.8786 98.732 94.1473 98.732 94.416C98.732 94.6847 98.6872 94.9534 98.5976 95.2221C98.4185 95.7595 98.1946 96.1626 97.8811 96.4313C97.5676 96.7 97.2093 96.8792 96.851 97.0135C96.4928 97.1031 96.1345 97.1926 95.821 97.1926C95.5075 97.1926 95.2836 97.1926 95.1492 97.1926H88.2524V92.4903L92.2382 93.9682H94.567V90.878H91.5217C91.3873 90.878 91.2977 90.878 91.2082 90.878C91.1186 90.878 90.9843 90.878 90.8947 90.878C90.8051 90.878 90.6708 90.878 90.4916 90.8332C90.3125 90.8332 90.1334 90.7437 89.9094 90.6989C89.6855 90.6093 89.5064 90.5198 89.2824 90.3854C89.0585 90.251 88.8794 90.0719 88.6555 89.8032C88.3868 89.4449 88.2524 89.0866 88.2076 88.7284C88.1628 88.3701 88.118 87.967 88.0732 87.564V85.0112C88.118 84.5634 88.1628 84.1603 88.2076 83.8021C88.2524 83.4438 88.4315 83.0855 88.745 82.772C89.1033 82.3242 89.5511 82.0555 90.0438 81.9659C90.5364 81.8763 91.029 81.8315 91.5217 81.8315H98.2842V86.31H98.2394Z" fill="#181818"/>
<path d="M105.944 81.8315L104.959 85.0112V93.9682H106.84V91.2811H110.736V97.1926H99.8086L100.794 94.0129V85.056L99.8086 81.8763H105.944V81.8315Z" fill="#181818"/>
<path d="M122.691 92.5791C122.691 92.8926 122.691 93.2509 122.691 93.654C122.691 94.0122 122.646 94.3705 122.602 94.7288C122.557 95.0871 122.422 95.4006 122.288 95.7588C122.154 96.0723 121.93 96.341 121.616 96.565C121.258 96.8337 120.81 97.0128 120.318 97.1024C119.825 97.1472 119.332 97.1919 118.884 97.1919H116.063C115.794 97.1919 115.481 97.1919 115.212 97.1919C114.899 97.1919 114.585 97.1472 114.316 97.0576C114.003 97.0128 113.734 96.8785 113.465 96.7441C113.197 96.6097 112.973 96.4306 112.749 96.2067C112.435 95.8036 112.212 95.3558 112.167 94.9079C112.122 94.4601 112.077 93.9675 112.077 93.4748V85.951C112.077 85.6823 112.077 85.3688 112.077 85.1001C112.077 84.7866 112.122 84.5179 112.167 84.2492C112.212 83.9805 112.301 83.7118 112.391 83.4431C112.48 83.1744 112.659 82.9505 112.838 82.7265C113.197 82.3235 113.645 82.0548 114.182 82.01C114.675 81.9204 115.212 81.9204 115.705 81.9204H118.705C119.153 81.9204 119.556 81.9204 119.87 81.9652C120.183 82.01 120.497 82.0548 120.765 82.0995C121.034 82.1443 121.258 82.2787 121.437 82.3683C121.616 82.5026 121.795 82.637 121.975 82.8161C122.154 82.9952 122.243 83.2192 122.378 83.3983C122.467 83.6222 122.557 83.8461 122.602 84.1149C122.646 84.3836 122.691 84.6971 122.691 85.0553C122.691 85.4136 122.736 85.8167 122.736 86.2645V92.5791H122.691ZM116.242 85.0105V93.9675H118.526V85.0105H116.242Z" fill="#181818"/>
<path d="M134.604 86.3115L130.797 85.0128H128.424V93.9697H130.797V91.1035L129.543 87.9238H134.738V97.1942H127.841C127.707 97.1942 127.617 97.1942 127.483 97.1942C127.349 97.1942 127.259 97.1942 127.125 97.1942C126.587 97.1494 126.184 97.1046 125.871 96.9703C125.557 96.8359 125.289 96.7016 125.11 96.5672C124.841 96.3881 124.662 96.1641 124.572 95.9402C124.438 95.7163 124.348 95.4476 124.303 95.2237C124.259 94.955 124.214 94.731 124.214 94.4623C124.214 94.1936 124.214 93.9249 124.214 93.6562V85.7293C124.214 85.4606 124.214 85.1919 124.214 84.9232C124.214 84.6545 124.259 84.3858 124.303 84.1171C124.348 83.8484 124.438 83.5797 124.572 83.3557C124.706 83.1318 124.841 82.9079 125.065 82.684C125.468 82.3257 125.916 82.1018 126.453 82.057C126.991 82.0122 127.483 81.9674 127.976 82.0122H134.559V86.3115H134.604Z" fill="#181818"/>
<path d="M147.102 92.5791C147.102 92.8926 147.102 93.2509 147.102 93.654C147.102 94.0122 147.057 94.3705 147.013 94.7288C146.968 95.0871 146.834 95.4006 146.699 95.7588C146.565 96.0723 146.341 96.341 146.027 96.565C145.669 96.8337 145.221 97.0128 144.729 97.1024C144.236 97.1472 143.743 97.1919 143.296 97.1919H140.474C140.205 97.1919 139.892 97.1919 139.623 97.1919C139.31 97.1919 138.996 97.1472 138.728 97.0576C138.414 97.0128 138.145 96.8785 137.877 96.7441C137.608 96.6097 137.384 96.4306 137.16 96.2067C136.847 95.8036 136.623 95.3558 136.578 94.9079C136.533 94.4601 136.488 93.9675 136.488 93.4748V85.951C136.488 85.6823 136.488 85.3688 136.488 85.1001C136.488 84.7866 136.533 84.5179 136.578 84.2492C136.623 83.9805 136.712 83.7118 136.802 83.4431C136.891 83.1744 137.07 82.9505 137.25 82.7265C137.608 82.3235 138.056 82.0548 138.593 82.01C139.086 81.9204 139.623 81.9204 140.116 81.9204H143.116C143.564 81.9204 143.967 81.9204 144.281 81.9652C144.594 82.01 144.908 82.0548 145.176 82.0995C145.445 82.1443 145.669 82.2787 145.848 82.3683C146.027 82.5026 146.207 82.637 146.386 82.8161C146.565 82.9952 146.654 83.2192 146.789 83.3983C146.878 83.6222 146.968 83.8461 147.013 84.1149C147.057 84.3836 147.102 84.6971 147.102 85.0553C147.102 85.4136 147.147 85.8167 147.147 86.2645V92.5791H147.102ZM140.653 85.0105V93.9675H142.937V85.0105H140.653Z" fill="#181818"/>
<path d="M13.0165 101.807V102.434H11.449V106.867H10.7325V102.434H9.16504V101.807H13.0165Z" fill="#181818"/>
<path d="M20.3133 106.823C20.2237 106.599 20.1341 106.375 20.0893 106.196C19.9998 105.972 19.955 105.748 19.8654 105.569H17.5814L17.1336 106.867H16.417C16.5961 106.33 16.7753 105.837 16.9544 105.389C17.1336 104.942 17.3127 104.494 17.4471 104.091C17.6262 103.688 17.7605 103.285 17.9397 102.926C18.1188 102.568 18.2532 102.21 18.4323 101.807H19.0593C19.2384 102.165 19.4176 102.523 19.5519 102.926C19.7311 103.285 19.8654 103.688 20.0446 104.091C20.2237 104.494 20.358 104.942 20.5372 105.389C20.7163 105.837 20.8955 106.33 21.0746 106.867H20.3133V106.823ZM19.6415 104.986C19.5071 104.583 19.328 104.135 19.1936 103.777C19.0593 103.374 18.8802 103.016 18.701 102.658C18.5219 103.016 18.3875 103.419 18.2084 103.777C18.074 104.18 17.8949 104.583 17.7605 104.986H19.6415Z" fill="#181818"/>
<path d="M28.3317 104.357H29.0482V106.731C29.0034 106.731 28.9139 106.776 28.7795 106.776C28.6899 106.82 28.5556 106.82 28.4212 106.865C28.2869 106.91 28.1077 106.91 27.9734 106.91C27.7942 106.91 27.6151 106.955 27.436 106.955C27.0777 106.955 26.7642 106.91 26.4507 106.776C26.1372 106.641 25.9133 106.507 25.6893 106.283C25.4654 106.059 25.3311 105.79 25.1967 105.477C25.0624 105.163 25.0176 104.76 25.0176 104.357C25.0176 103.954 25.0624 103.551 25.1967 103.238C25.3311 102.924 25.5102 102.655 25.7341 102.432C25.9581 102.208 26.2268 102.028 26.4955 101.939C26.809 101.805 27.1225 101.76 27.436 101.76C27.6599 101.76 27.8838 101.76 28.0629 101.805C28.2421 101.849 28.3764 101.849 28.5108 101.894C28.6451 101.939 28.7347 101.984 28.8243 102.028C28.9138 102.073 28.9586 102.118 29.0034 102.118L28.7795 102.7C28.6451 102.611 28.466 102.521 28.1973 102.476C27.9734 102.432 27.7494 102.387 27.4807 102.387C27.212 102.387 26.9881 102.432 26.7642 102.521C26.5403 102.611 26.3611 102.745 26.2268 102.924C26.0924 103.103 25.9581 103.327 25.8685 103.551C25.7789 103.82 25.7341 104.089 25.7341 104.402C25.7341 104.716 25.7789 104.984 25.8237 105.208C25.9133 105.477 26.0028 105.656 26.1372 105.835C26.2715 106.014 26.4507 106.149 26.6746 106.238C26.8985 106.328 27.1225 106.373 27.436 106.373C27.6599 106.373 27.7942 106.373 27.9734 106.328C28.1077 106.328 28.1973 106.283 28.2869 106.283V104.357H28.3317Z" fill="#181818"/>
<path d="M36.8412 106.24V106.867H33.7959V101.807H34.5124V106.24H36.8412Z" fill="#181818"/>
<path d="M41.1836 101.807H41.9001V106.867H41.1836V101.807Z" fill="#181818"/>
<path d="M50.2718 106.82C50.1822 106.641 50.0479 106.417 49.9135 106.238C49.7792 106.014 49.6448 105.79 49.4657 105.522C49.2866 105.298 49.1522 105.029 48.973 104.805C48.7939 104.536 48.6148 104.312 48.4804 104.089C48.3013 103.865 48.1669 103.641 47.9878 103.417C47.8086 103.193 47.6743 103.014 47.5399 102.879V106.82H46.8682V101.76H47.4504C47.6743 101.984 47.943 102.297 48.1669 102.611C48.4356 102.924 48.7044 103.282 48.9283 103.596C49.197 103.954 49.4209 104.268 49.6448 104.626C49.8687 104.939 50.0479 105.253 50.227 105.522V101.805H50.8988V106.865H50.2718V106.82Z" fill="#181818"/>
<path d="M55.7402 106.82V101.76H58.8304V102.342H56.4568V103.82H58.5617V104.402H56.4568V106.149H59.0095V106.731H55.7402V106.82Z" fill="#181818"/>
<path d="M71.9498 104.357H72.6664V106.731C72.6216 106.731 72.532 106.776 72.3976 106.776C72.3081 106.82 72.1737 106.82 72.0394 106.865C71.905 106.91 71.7259 106.91 71.5915 106.91C71.4124 106.91 71.2332 106.955 71.0541 106.955C70.6958 106.955 70.3823 106.91 70.0689 106.776C69.7554 106.641 69.5314 106.507 69.3075 106.283C69.0836 106.059 68.9492 105.79 68.8149 105.477C68.6805 105.163 68.6357 104.76 68.6357 104.357C68.6357 103.954 68.6805 103.551 68.8149 103.238C68.9492 102.924 69.1284 102.655 69.3523 102.432C69.5762 102.208 69.8449 102.028 70.1136 101.939C70.4271 101.805 70.7406 101.76 71.0541 101.76C71.278 101.76 71.502 101.76 71.6811 101.805C71.8602 101.849 71.9946 101.849 72.1289 101.894C72.2633 101.939 72.3529 101.984 72.4424 102.028C72.532 102.073 72.5768 102.118 72.6216 102.118L72.3976 102.7C72.2633 102.611 72.0842 102.521 71.8154 102.476C71.5915 102.432 71.3676 102.387 71.0989 102.387C70.8302 102.387 70.6063 102.432 70.3823 102.521C70.1584 102.611 69.9793 102.745 69.8449 102.924C69.7106 103.103 69.5762 103.327 69.4866 103.551C69.3971 103.82 69.3523 104.089 69.3523 104.402C69.3523 104.716 69.3971 104.984 69.4419 105.208C69.5314 105.477 69.621 105.656 69.7554 105.835C69.8897 106.014 70.0689 106.149 70.2928 106.238C70.5167 106.328 70.7406 106.373 71.0541 106.373C71.278 106.373 71.4124 106.373 71.5915 106.328C71.7259 106.328 71.8154 106.283 71.905 106.283V104.357H71.9498Z" fill="#181818"/>
<path d="M77.1914 104.313C77.1914 103.865 77.2362 103.507 77.3706 103.149C77.5049 102.835 77.6841 102.522 77.908 102.343C78.1319 102.119 78.4006 101.94 78.6693 101.85C78.9828 101.76 79.2963 101.671 79.6098 101.671C79.9233 101.671 80.2368 101.716 80.5502 101.85C80.819 101.94 81.0877 102.119 81.3116 102.343C81.5355 102.567 81.7147 102.835 81.849 103.149C81.9834 103.462 82.0281 103.865 82.0281 104.313C82.0281 104.761 81.9834 105.119 81.849 105.478C81.7147 105.791 81.5355 106.105 81.3116 106.284C81.0877 106.508 80.819 106.687 80.5502 106.776C80.2815 106.866 79.9681 106.955 79.6098 106.955C79.2963 106.955 78.9828 106.911 78.6693 106.776C78.3558 106.687 78.1319 106.508 77.908 106.284C77.6841 106.06 77.5049 105.791 77.3706 105.478C77.2362 105.119 77.1914 104.761 77.1914 104.313ZM77.908 104.313C77.908 104.627 77.9528 104.895 78.0423 105.164C78.1319 105.433 78.2215 105.612 78.3558 105.791C78.4902 105.97 78.6693 106.105 78.8932 106.194C79.1171 106.284 79.3411 106.328 79.6098 106.328C79.8785 106.328 80.1024 106.284 80.2816 106.194C80.5055 106.105 80.6398 105.97 80.819 105.791C80.9533 105.612 81.0877 105.388 81.1324 105.164C81.222 104.895 81.2668 104.627 81.2668 104.313C81.2668 104 81.222 103.731 81.1324 103.462C81.0429 103.194 80.9533 103.014 80.819 102.835C80.6846 102.656 80.5055 102.522 80.2816 102.432C80.0576 102.343 79.8337 102.298 79.6098 102.298C79.3411 102.298 79.1171 102.343 78.8932 102.432C78.6693 102.522 78.4902 102.656 78.3558 102.835C78.2215 103.014 78.0871 103.238 78.0423 103.462C77.9528 103.731 77.908 104 77.908 104.313Z" fill="#181818"/>
<path d="M86.6826 106.82V101.76H89.7728V102.342H87.3992V103.82H89.504V104.402H87.3992V106.149H89.9519V106.731H86.6826V106.82Z" fill="#181818"/>
<path d="M95.6418 106.329C96.3584 106.329 96.7614 106.06 96.7614 105.567C96.7614 105.433 96.7167 105.298 96.6719 105.164C96.6271 105.075 96.5375 104.94 96.4032 104.895C96.3136 104.806 96.1792 104.761 96.0001 104.671C95.8657 104.627 95.6866 104.537 95.5523 104.492C95.3731 104.448 95.194 104.358 95.0148 104.268C94.8357 104.179 94.7013 104.089 94.567 104C94.4326 103.91 94.3431 103.776 94.2983 103.597C94.2087 103.462 94.2087 103.283 94.2087 103.059C94.2087 102.611 94.3431 102.253 94.6566 102.029C94.9701 101.76 95.3731 101.671 95.9105 101.671C96.224 101.671 96.4927 101.716 96.7614 101.76C97.0302 101.805 97.2093 101.895 97.2989 101.984L97.0749 102.567C96.9854 102.522 96.8062 102.432 96.6271 102.387C96.448 102.343 96.1792 102.298 95.9105 102.298C95.7762 102.298 95.6418 102.298 95.5523 102.343C95.4179 102.387 95.3283 102.432 95.2388 102.477C95.1492 102.522 95.1044 102.611 95.0148 102.701C94.97 102.791 94.9253 102.88 94.9253 103.014C94.9253 103.149 94.97 103.283 95.0148 103.373C95.0596 103.462 95.1492 103.552 95.2388 103.597C95.3283 103.686 95.4627 103.731 95.5971 103.776C95.7314 103.821 95.8658 103.91 96.0449 103.955C96.2688 104.044 96.448 104.134 96.6271 104.224C96.8062 104.313 96.9854 104.403 97.1197 104.537C97.2541 104.671 97.3436 104.806 97.4332 104.985C97.5228 105.164 97.5228 105.343 97.5228 105.612C97.5228 106.06 97.3436 106.373 97.0301 106.642C96.7166 106.866 96.2688 107 95.6866 107C95.5075 107 95.2836 107 95.1492 106.955C94.9701 106.911 94.8357 106.911 94.7014 106.866C94.567 106.821 94.4774 106.776 94.3431 106.732C94.2535 106.687 94.1639 106.642 94.1191 106.642L94.3431 106.06C94.4326 106.105 94.6118 106.194 94.8357 106.284C95.0148 106.284 95.3283 106.329 95.6418 106.329Z" fill="#181818"/>
<path d="M110.465 101.807H111.181V106.867H110.465V104.539H108.002V106.867H107.285V101.807H108.002V103.912H110.465V101.807Z" fill="#181818"/>
<path d="M116.062 106.82V101.76H119.153V102.342H116.779V103.82H118.884V104.402H116.779V106.149H119.332V106.731H116.062V106.82Z" fill="#181818"/>
<path d="M126.317 104.716C126.406 104.806 126.496 104.94 126.63 105.119C126.765 105.298 126.854 105.433 126.988 105.657C127.123 105.836 127.257 106.06 127.347 106.239C127.481 106.463 127.571 106.642 127.66 106.821H126.899C126.809 106.642 126.675 106.463 126.585 106.239C126.451 106.06 126.361 105.881 126.227 105.702C126.093 105.522 126.003 105.388 125.869 105.209C125.734 105.075 125.645 104.94 125.555 104.806C125.511 104.806 125.421 104.806 125.376 104.806C125.331 104.806 125.242 104.806 125.197 104.806H124.57V106.776H123.854V101.805C124.033 101.76 124.257 101.716 124.525 101.716C124.749 101.716 124.973 101.671 125.197 101.671C125.914 101.671 126.451 101.805 126.809 102.074C127.168 102.343 127.347 102.746 127.347 103.283C127.347 103.597 127.257 103.91 127.078 104.134C126.944 104.448 126.675 104.627 126.317 104.716ZM125.242 102.387C124.928 102.387 124.704 102.387 124.57 102.387V104.268H125.063C125.287 104.268 125.511 104.268 125.734 104.224C125.914 104.179 126.093 104.134 126.227 104.089C126.361 104 126.451 103.91 126.541 103.821C126.63 103.686 126.63 103.552 126.63 103.328C126.63 103.149 126.585 102.97 126.541 102.835C126.451 102.701 126.361 102.611 126.227 102.522C126.093 102.432 125.958 102.387 125.779 102.387C125.645 102.387 125.466 102.387 125.242 102.387Z" fill="#181818"/>
<path d="M132.099 106.82V101.76H135.189V102.342H132.815V103.82H134.92V104.402H132.815V106.149H135.368V106.731H132.099V106.82Z" fill="#181818"/>
</g>
</svg>
