<svg width="100" height="107" viewBox="0 0 100 107" fill="none" xmlns="http://www.w3.org/2000/svg">
<g opacity="0.5">
<path d="M10.4055 35.2177C13.0441 29.8866 18.0522 25.3094 24.6218 21.9168C23.9218 23.64 23.3294 25.4709 22.7909 27.3556L25.2141 25.8478C25.7526 24.0708 26.3988 22.3476 27.1527 20.7321C31.2453 18.9012 35.8764 17.555 40.8305 16.8011C40.5074 18.4704 40.1844 20.2475 39.9151 22.0784L41.7998 22.2938C42.1229 20.2475 42.446 18.3089 42.823 16.5319C45.2462 16.2626 47.7233 16.101 50.3081 16.101C52.839 16.101 55.3699 16.2626 57.7932 16.5319C58.1701 18.2012 58.4932 19.9782 58.7625 21.9168C59.301 21.5937 59.8933 21.4322 60.5395 21.4322H60.5934C60.3241 19.8167 60.0549 18.3089 59.7856 16.8011C64.7398 17.555 69.3709 18.9012 73.4634 20.7321C75.2943 24.8247 76.6406 29.4558 77.3945 34.4099C74.0019 33.7099 70.2863 33.1714 66.4091 32.7944C67.2169 33.3329 67.9169 34.033 68.4016 34.8946C71.7941 35.3254 74.9174 35.81 77.6637 36.4024C77.933 38.7179 78.0945 41.0873 78.0945 43.5105C79.0638 44.2106 79.71 45.2876 79.9254 46.5261C79.9792 45.6645 79.9792 44.8029 79.9792 43.8875C79.9792 41.5181 79.8715 39.1487 79.6023 36.8332C87.572 38.7718 92.257 41.4104 92.257 43.8875C92.257 46.2569 88.0567 48.6801 80.787 50.6187C81.3255 50.7802 81.8101 50.9956 82.2948 51.2649C82.6717 51.4264 82.941 51.6957 83.2641 51.9111C86.9258 50.8341 89.8876 49.4878 91.8262 47.9262C90.9646 51.9111 88.7567 55.6267 85.6335 58.8577C86.0642 59.3423 86.4412 59.8808 86.6027 60.527C88.1644 58.9654 89.5106 57.2961 90.6415 55.5729C89.726 58.8038 88.3798 61.8194 86.7643 64.6735C86.6027 66.2351 86.3335 68.3352 86.1181 68.9276H86.3335C91.2877 61.8194 94.1955 53.2035 94.1955 43.8875C94.1955 19.709 74.4866 0 50.3081 0C28.2836 0 10.0286 16.2626 6.90527 37.4255L10.4055 35.2177ZM79.3869 34.8407C78.7407 30.2097 77.556 25.9017 76.0482 21.9168C84.4488 26.2248 90.2645 32.579 91.88 39.8488C89.3491 37.8025 84.8796 36.1331 79.3869 34.8407ZM90.6415 32.2021C87.3028 26.9787 81.8101 22.5092 74.9174 19.332C71.7402 12.4393 67.2707 6.89276 62.0473 3.60793C75.779 7.59281 86.6566 18.4704 90.6415 32.2021ZM72.2787 18.2012C68.3477 16.6395 63.9859 15.5087 59.3548 14.8625C58.1163 9.36985 56.3931 4.90032 54.3468 2.36938C61.6704 3.98487 68.0246 9.85448 72.2787 18.2012ZM50.3081 1.93859C52.7852 1.93859 55.4238 6.62351 57.3624 14.5933C55.0469 14.324 52.7313 14.2163 50.3081 14.2163C47.9387 14.2163 45.5693 14.324 43.2538 14.5933C45.2462 6.62351 47.831 1.93859 50.3081 1.93859ZM41.2614 14.8625C36.6303 15.5087 32.3223 16.6934 28.3374 18.2012C32.6454 9.80063 38.9997 3.98487 46.2694 2.36938C44.2231 4.90032 42.4999 9.36985 41.2614 14.8625ZM38.6227 3.60793C33.3993 6.94661 28.9298 12.4393 25.7526 19.332C18.8599 22.5092 13.3672 26.9787 10.0286 32.2021C14.0134 18.4704 24.8372 7.59281 38.6227 3.60793Z" fill="#181818"/>
<path d="M38.8911 50.9974L38.191 51.2666C38.1372 51.3205 38.0833 51.3743 38.0833 51.482V54.9284C38.0833 54.9822 38.1372 55.0361 38.191 55.0899C38.2449 55.1438 38.2987 55.1438 38.4064 55.0899L39.1065 54.8207C39.1603 54.7668 39.2142 54.713 39.2142 54.6053V51.1589C39.2142 51.1051 39.1603 51.0512 39.1065 50.9974C38.9988 50.9974 38.9449 50.9974 38.8911 50.9974ZM41.3143 53.8514C41.422 53.9052 41.5297 53.9053 41.5836 53.9053L42.6606 53.4744C42.7683 53.4206 42.876 53.3129 42.876 53.2052V47.9279C42.876 47.8202 42.8221 47.7125 42.7144 47.6587C42.6067 47.6048 42.499 47.6048 42.4452 47.6048L41.3682 48.0356C41.2605 48.0895 41.1528 48.1972 41.1528 48.3049V53.5821C41.1528 53.6898 41.2066 53.7976 41.3143 53.8514ZM83.9094 63.7597C83.2093 63.7597 81.54 63.652 79.2783 63.5982C79.2783 64.5675 79.3322 65.9676 79.2245 67.1523H78.5783C78.5783 67.1523 78.6321 65.2137 78.6321 63.5982C77.3936 63.5443 76.0473 63.4905 74.5934 63.4905V65.9137L65.7621 65.806V63.2212C64.0927 63.1674 62.4772 63.1674 61.0233 63.1135C61.0233 63.9751 61.0771 65.7522 61.0233 67.1523H60.3232C60.3232 67.1523 60.3771 64.7829 60.3232 63.1135C58.8693 63.1135 57.5769 63.0597 56.5538 63.0597C49.661 63.0597 48.6917 63.2212 48.584 63.2212C48.6379 63.2212 48.6379 63.2212 48.6379 63.2212L48.2609 62.1442C48.7994 61.9827 53.6997 61.9288 56.5538 61.9288C63.5004 61.9288 80.9477 62.5212 83.8556 62.6289C83.8556 62.3596 83.7478 61.7673 83.7478 61.5519C83.6401 60.8518 81.917 59.9903 81.0015 59.9903L77.9321 59.8826V59.2364L81.4323 59.3441C81.5939 59.3441 81.8093 59.2902 81.917 59.1287C82.0247 59.021 82.1324 58.8056 82.1324 58.644L82.0247 55.79C82.0247 55.0361 81.5939 54.3899 80.9477 54.0668C80.1938 53.6898 79.0629 53.259 77.4474 53.2052L77.0166 47.3356C76.9628 46.5278 76.3704 45.8816 75.6165 45.7739L67.1083 44.1585L66.0313 38.9889C65.9236 38.5042 65.5467 38.1273 65.062 38.0196C63.5004 37.7504 60.7541 37.3196 56.6615 36.9426L55.5306 36.8349C52.4073 36.6195 48.6379 36.4041 44.1684 36.3503C43.9529 36.3503 43.6837 36.458 43.5221 36.6195C43.3606 36.7811 43.2529 36.9965 43.2529 37.2657L43.5221 44.7508C43.5221 44.7508 44.1145 43.9969 45.2453 43.5123C45.8915 43.243 46.807 43.243 47.4532 43.3507L56.3384 44.9124C57.3077 45.0739 58.0077 45.9355 58.0077 46.9048L58.0616 52.559C58.0616 52.7744 58.0077 52.936 57.8462 53.0975C57.7923 53.1514 57.7923 53.1513 57.7385 53.2052C52.7843 50.2435 46.8608 51.0512 45.6223 52.1821C47.884 51.859 49.2302 52.6129 49.8764 53.2052C50.2534 53.5283 50.4688 54.0668 50.4688 54.5514L50.4149 56.5439C50.4149 56.7054 50.4688 56.9208 50.6303 57.0285C50.738 57.1362 50.9534 57.2439 51.115 57.2439H51.4381V54.6053H55.2614C55.7999 54.6053 56.2845 55.0361 56.2845 55.6284V57.2978H58.1693L75.6165 57.6209C76.0473 57.6209 76.4243 57.9978 76.4243 58.4286V58.8056L58.8155 58.4286L59.0309 60.6903L57.6846 58.9671H47.507C47.507 58.9671 46.807 55.0361 44.4915 55.0361C40.0219 55.0361 40.0758 66.2907 40.0758 66.2907L39.2142 66.2368C39.4296 60.4211 40.3989 57.2439 40.3989 57.2439C40.3989 57.2439 38.6757 57.7824 37.7064 57.8363C36.7371 57.8901 36.8986 56.7593 36.8986 56.7593V37.2657C39.7527 35.5964 42.9298 34.8963 42.9298 34.8963C57.7385 35.1656 64.3081 36.4579 65.8698 36.781C65.4928 35.7041 63.7158 34.7348 62.208 34.4117V31.9884C61.9926 31.8807 61.7233 31.773 61.5079 31.773V26.1727C61.5079 25.9573 61.2387 25.1495 61.2387 25.1495C61.2387 25.1495 60.8079 24.2341 60.1078 24.7726C59.4078 25.3649 60.1078 26.1188 60.1078 26.1188V34.0347C59.8925 34.0347 59.3001 33.8732 59.3001 33.8732L59.2463 27.4112L36.3063 24.8264V22.9955C36.3063 22.7801 36.037 21.9724 36.037 21.9724C36.037 21.9724 35.6062 21.057 34.9062 21.5955C34.2062 22.1878 34.9062 22.9417 34.9062 22.9417V30.3191C34.9062 30.3191 34.8524 30.2652 34.1523 30.3191L33.9369 44.3739H33.183V24.7726C33.183 24.7187 33.1292 24.6649 33.0753 24.611C33.0215 24.5572 32.9676 24.611 32.9138 24.611L7.28134 40.8198L31.1367 28.2728L7.01209 43.2969L30.8675 32.5808L6.85054 45.9355L30.8136 36.6195L6.63513 48.5203L30.7059 40.4967L6.41974 51.1051L30.2751 44.8047L6.15049 53.636L30.2751 48.5741L5.93509 56.1669L30.2213 52.559L4.15806 59.1287L30.1136 56.7054L3.83496 61.3904L7.01209 61.8211L7.17363 64.0828H9.86611C9.86611 70.1678 10.5662 72.3218 11.2662 72.3218H20.0437C20.7438 72.3218 21.2284 70.2755 21.2284 70.2755H27.6904C27.6904 70.2755 27.9058 72.2141 28.6597 72.2141H38.0833C39.268 72.2141 39.268 69.9524 39.268 69.9524H40.9374C41.0989 70.7063 41.9605 73.2911 43.3606 73.2911H48.7994C50.1457 73.2911 51.1688 68.7678 51.1688 68.7678H70.3393C70.6085 70.1679 71.2547 72.2141 73.0318 73.1296H78.686C78.686 73.1296 80.7323 72.2141 81.2708 68.7678H82.9401C83.7478 67.4215 83.9094 65.3752 83.9094 63.7597ZM80.5169 55.6823C80.8938 55.6823 81.2169 56.0054 81.2169 56.3823V57.8901H77.7705L77.6628 55.6823H80.5169ZM60.9156 47.3356C61.131 47.174 61.3464 47.0663 61.6156 47.0663L74.4857 47.8202C74.9703 47.8741 75.3473 48.251 75.4011 48.7357L60.6463 48.0356C60.6463 47.7664 60.754 47.551 60.9156 47.3356ZM60.9694 49.5973C61.1848 49.4357 61.4002 49.328 61.6695 49.328L74.5934 49.9742C75.078 49.9742 75.5089 50.405 75.5089 50.8897L60.7002 50.3512C60.7002 50.0281 60.8079 49.7588 60.9694 49.5973ZM61.0233 51.8051C61.2387 51.6436 61.4541 51.5359 61.7233 51.5359L74.7011 52.0205C75.1858 52.0205 75.6165 52.4513 75.6165 52.9359L60.7002 52.559C60.7002 52.2898 60.8079 52.0205 61.0233 51.8051ZM60.754 54.8207C60.754 54.5514 60.8617 54.2822 61.0233 54.1206C61.2387 53.9591 61.4541 53.8514 61.7233 53.8514L74.7549 54.1745C75.2396 54.1745 75.6704 54.5514 75.6704 55.0899L60.754 54.8207ZM11.5893 70.2755C11.1047 70.2755 10.7277 68.8754 10.7277 67.2061C10.7277 66.2368 10.8354 65.3214 11.0508 64.7829C10.997 65.106 10.997 65.4829 10.997 65.9137C10.997 67.6369 11.3739 68.9832 11.8586 68.9832C12.074 68.9832 12.2355 68.7677 12.3971 68.337C12.2355 69.4678 11.9124 70.2755 11.5893 70.2755ZM14.1202 70.2755C13.6356 70.2755 13.2587 68.8754 13.2587 67.2061C13.2587 66.2368 13.3664 65.3214 13.5818 64.7829C13.5279 65.106 13.5279 65.4829 13.5279 65.9137C13.5279 67.6369 13.9049 68.9832 14.3895 68.9832C14.6049 68.9832 14.7664 68.7677 14.928 68.337C14.7664 69.4678 14.4972 70.2755 14.1202 70.2755ZM23.2747 65.7522H18.5359C18.2667 62.952 17.0281 61.7673 17.0281 61.7673C17.6743 63.7597 17.5128 64.8367 17.4589 65.7522H16.2742C16.2742 61.2827 15.4126 60.7441 15.4126 60.7441L19.4514 60.2057C21.7669 62.1981 22.79 61.6057 22.79 61.6057C23.3824 62.7904 23.2747 65.7522 23.2747 65.7522ZM43.7914 70.114C42.6067 70.114 41.6913 67.9062 41.6913 65.2137C41.6913 63.652 42.0144 62.2519 42.499 61.3365C42.3913 61.875 42.3375 62.4674 42.3375 63.1135C42.3375 65.806 43.3068 68.0139 44.4376 68.0139C44.9222 68.0139 45.353 67.6369 45.73 66.9907C45.4607 68.8216 44.7068 70.114 43.7914 70.114ZM41.1528 43.0276L42.6067 44.8585C42.4452 43.2969 42.2298 38.9889 42.1759 37.3195C42.1759 37.158 42.0682 36.9965 41.9605 36.9426C41.8528 36.8349 41.6913 36.8349 41.5297 36.8888C40.3989 37.2657 39.3219 37.7504 38.7295 38.0196C38.4603 38.1273 38.2987 38.3965 38.2987 38.6658V42.9738C38.2987 43.1892 38.4064 43.4584 38.6218 43.5661C38.8372 43.7277 39.0526 43.7277 39.268 43.6738L41.1528 43.0276Z" fill="#181818"/>
<path d="M3.83496 72.0518H90.8021L86.8173 77.4906C65.2774 73.9365 3.83496 73.9365 3.83496 73.9365V72.0518Z" fill="#181818"/>
<path d="M6.58236 81.8496L5.61305 85.0806V94.1812H7.49779V91.4348H11.4827V97.4122H0.389648L1.41279 94.1812V85.0806L0.389648 81.8496H6.58236Z" fill="#181818"/>
<path d="M23.5455 92.7272C23.5455 93.0503 23.5455 93.4273 23.5455 93.8042C23.5455 94.1812 23.4916 94.5581 23.4378 94.8812C23.3839 95.2582 23.2762 95.5813 23.1147 95.9044C22.9531 96.2275 22.7377 96.4967 22.4146 96.766C22.0377 97.0352 21.6069 97.2506 21.0684 97.3045C20.5837 97.3583 20.0991 97.4122 19.6144 97.4122H16.7604C16.4912 97.4122 16.1681 97.4122 15.8988 97.4122C15.5757 97.4122 15.3065 97.3583 14.9834 97.3045C14.6603 97.2506 14.391 97.1429 14.1218 96.9814C13.8525 96.8737 13.6371 96.6583 13.4217 96.4429C13.0986 96.0121 12.8832 95.5813 12.8294 95.1505C12.7755 94.7197 12.7217 94.235 12.7217 93.6965V86.0499C12.7217 85.7806 12.7217 85.4575 12.7217 85.1883C12.7217 84.8652 12.7755 84.5959 12.8294 84.3267C12.8832 84.0574 12.9371 83.7343 13.0448 83.4651C13.1525 83.1959 13.314 82.9266 13.5294 82.7112C13.9064 82.2804 14.3372 82.0112 14.8757 81.9573C15.4142 81.9035 15.8988 81.8496 16.4373 81.8496H19.5067C19.9375 81.8496 20.3683 81.8496 20.6914 81.9035C21.0145 81.9573 21.3376 81.9573 21.6069 82.065C21.8761 82.1189 22.0915 82.2266 22.2531 82.3343C22.4685 82.442 22.63 82.6035 22.7916 82.8189C22.9531 83.0343 23.0608 83.1958 23.1685 83.4112C23.2762 83.6266 23.3301 83.8959 23.3839 84.1651C23.4378 84.4344 23.4916 84.7575 23.4916 85.1344C23.4916 85.5114 23.5455 85.8883 23.5455 86.373V92.7272ZM16.9758 85.0806V94.1812H19.2913V85.0806H16.9758Z" fill="#181818"/>
<path d="M35.6629 86.3738L31.7858 85.0814H29.3625V94.182H31.7858V91.2741L30.5472 88.0432H35.8245V97.4668H28.824C28.7163 97.4668 28.6086 97.4668 28.4471 97.4668C28.3394 97.4668 28.2317 97.4668 28.0701 97.4668C27.5316 97.413 27.1008 97.3591 26.7777 97.1976C26.4546 97.0899 26.1854 96.9284 26.0238 96.7668C25.7546 96.5514 25.593 96.336 25.4853 96.1206C25.3776 95.9052 25.2699 95.636 25.2161 95.3667C25.1622 95.0975 25.1084 94.8282 25.1084 94.559C25.1084 94.2897 25.1084 94.0205 25.1084 93.7512V85.6738C25.1084 85.4045 25.1084 85.1353 25.1084 84.8122C25.1084 84.5429 25.1622 84.2737 25.2161 84.0044C25.2699 83.7352 25.3776 83.4659 25.4853 83.2505C25.593 83.0351 25.7546 82.7659 25.97 82.6043C26.4008 82.2274 26.8316 82.012 27.3701 81.9581C27.9086 81.9043 28.4471 81.9043 28.9317 81.9043H35.6091V86.3738H35.6629Z" fill="#181818"/>
<path d="M43.3053 81.8496L42.2821 85.0806V94.1812L43.3053 97.4122H37.0049L38.028 94.1812V85.0806L37.0049 81.8496H43.3053Z" fill="#181818"/>
<path d="M54.7814 86.3726L51.0119 85.0264H48.6425V87.8804H51.4965C51.6042 87.8804 51.7658 87.8804 51.8735 87.8804C51.9812 87.8804 52.1427 87.8804 52.2504 87.8804C52.3581 87.8804 52.4658 87.8804 52.6812 87.9343C52.8966 87.9343 53.112 87.9881 53.3813 88.0958C53.6505 88.2035 53.8659 88.3112 54.1352 88.4728C54.4044 88.6343 54.6198 88.8497 54.7814 89.1728C54.9968 89.4959 55.1045 89.819 55.1583 90.196C55.2122 90.5729 55.2122 90.896 55.2122 91.273V93.8039C55.2122 94.0731 55.2122 94.3424 55.2122 94.6116C55.2122 94.8809 55.1583 95.1501 55.1045 95.4194C54.9429 95.9579 54.6737 96.3887 54.3506 96.6579C54.0275 96.9272 53.6505 97.1426 53.2736 97.2503C52.8966 97.358 52.5735 97.4118 52.2504 97.4118C51.9273 97.4118 51.7119 97.4118 51.6042 97.4118H44.6576V92.6731L48.6964 94.1808H51.0657V91.0576H47.9425C47.8348 91.0576 47.7271 91.0576 47.6194 91.0576C47.5117 91.0576 47.404 91.0576 47.2963 91.0576C47.1886 91.0576 47.0809 91.0576 46.9193 91.0037C46.7578 91.0037 46.5424 90.9499 46.327 90.8422C46.1116 90.7883 45.8962 90.6268 45.6808 90.5191C45.4654 90.3575 45.25 90.196 45.0884 89.9267C44.8192 89.5498 44.6576 89.2267 44.6038 88.8497C44.5499 88.4728 44.4961 88.0958 44.4961 87.665V85.0802C44.5499 84.6494 44.5499 84.2187 44.6576 83.8417C44.7115 83.4648 44.9269 83.1417 45.1961 82.7647C45.5731 82.3339 46.0039 82.0647 46.5424 81.957C47.027 81.8493 47.5655 81.7954 48.0502 81.7954H54.8891V86.3726H54.7814Z" fill="#181818"/>
<path d="M69.5832 87.5577L66.5677 85.0806H65.006V94.1812L66.0292 97.4122H59.7826L60.8057 94.1812V85.0806H59.2441L56.2285 87.5577V81.8496H69.5832V87.5577Z" fill="#181818"/>
<path d="M76.3707 81.8496L75.3476 85.0806V94.1812L76.3707 97.4122H70.0703L71.0935 94.1812V85.0806L70.0703 81.8496H76.3707Z" fill="#181818"/>
<path d="M87.624 86.8593H84.0161V85.0823H81.7006V94.1828H84.0161V91.7058H87.7856V97.4138H81.3774C81.2159 97.4138 81.0544 97.4138 80.8928 97.4138C80.7313 97.4138 80.5697 97.4138 80.4081 97.4138C79.7081 97.36 79.1158 97.2523 78.7388 96.983C78.3619 96.7676 78.0926 96.4984 77.8772 96.2291C77.7695 96.0676 77.6618 95.906 77.608 95.6906C77.5541 95.5291 77.5003 95.3137 77.4464 95.1521C77.3926 94.9906 77.3926 94.829 77.3926 94.6675C77.3926 94.5059 77.3926 94.2367 77.3926 93.9136V85.6208C77.3926 85.0823 77.4464 84.5976 77.5003 84.1668C77.5541 83.6822 77.7695 83.2514 78.1465 82.8744C78.3619 82.659 78.5773 82.4436 78.8465 82.3359C79.1158 82.2282 79.385 82.1205 79.6543 82.0667C79.9235 82.0128 80.2466 81.959 80.5159 81.959C80.7851 81.959 81.1082 81.959 81.3774 81.959H87.5163V86.8593H87.624Z" fill="#181818"/>
<path d="M99.3126 86.3726L95.5432 85.0264H93.1738V87.8804H96.0278C96.1355 87.8804 96.2971 87.8804 96.4048 87.8804C96.5125 87.8804 96.674 87.8804 96.7817 87.8804C96.8894 87.8804 96.9971 87.8804 97.2125 87.9343C97.4279 87.9343 97.6433 87.9881 97.9125 88.0958C98.1818 88.2035 98.3972 88.3112 98.6664 88.4728C98.9357 88.6343 99.1511 88.8497 99.3126 89.1728C99.528 89.4959 99.6357 89.819 99.6896 90.196C99.7434 90.5729 99.7434 90.896 99.7434 91.273V93.8039C99.7434 94.0731 99.7434 94.3424 99.7434 94.6116C99.7434 94.8809 99.6896 95.1501 99.6357 95.4194C99.4742 95.9579 99.2049 96.3887 98.8818 96.6579C98.5587 96.9272 98.1818 97.1426 97.8048 97.2503C97.4279 97.358 97.1048 97.4118 96.7817 97.4118C96.4586 97.4118 96.2432 97.4118 96.1355 97.4118H89.1889V92.6731L93.2276 94.1808H95.597V91.0576H92.4737C92.366 91.0576 92.2583 91.0576 92.1506 91.0576C92.0429 91.0576 91.9352 91.0576 91.8275 91.0576C91.7198 91.0576 91.6121 91.0576 91.4506 91.0037C91.289 91.0037 91.0736 90.9499 90.8582 90.8422C90.6428 90.7883 90.4274 90.6268 90.212 90.5191C89.9966 90.3575 89.7812 90.196 89.6197 89.9267C89.3504 89.5498 89.1889 89.2267 89.135 88.8497C89.0812 88.4728 89.0273 88.0958 89.0273 87.665V85.0802C89.0812 84.6494 89.0812 84.2187 89.1889 83.8417C89.2428 83.4648 89.4582 83.1417 89.7274 82.7647C90.1043 82.3339 90.5351 82.0647 91.0736 81.957C91.5583 81.8493 92.0968 81.7954 92.5814 81.7954H99.4203V86.3726H99.3126Z" fill="#181818"/>
<path d="M19.6644 101.667V102.313H18.0489V106.836H17.3489V102.313H15.7334V101.667H19.6644Z" fill="#181818"/>
<path d="M23.3257 106.782C23.218 106.567 23.1641 106.351 23.1103 106.136C23.0564 105.921 22.9487 105.705 22.8949 105.49H20.5794L20.0947 106.782H19.3408C19.5562 106.244 19.7178 105.759 19.8793 105.274C20.0409 104.79 20.2024 104.359 20.364 103.982C20.5255 103.551 20.6871 103.174 20.8486 102.797C21.0102 102.42 21.1717 102.043 21.3333 101.667H21.9794C22.141 102.043 22.3026 102.42 22.4641 102.797C22.6257 103.174 22.7872 103.551 22.9488 103.982C23.1103 104.413 23.2718 104.844 23.4334 105.274C23.5949 105.759 23.8103 106.244 23.9719 106.782H23.3257ZM22.6795 104.897C22.518 104.467 22.3564 104.036 22.1949 103.659C22.0333 103.282 21.8718 102.851 21.7102 102.528C21.5487 102.905 21.3871 103.282 21.2256 103.659C21.064 104.036 20.9025 104.467 20.7409 104.897H22.6795Z" fill="#181818"/>
<path d="M27.7947 104.305H28.4948V106.675C28.4409 106.675 28.3332 106.728 28.2255 106.728C28.1178 106.728 28.0101 106.782 27.8486 106.782C27.687 106.782 27.5255 106.836 27.3639 106.836C27.2024 106.836 27.0408 106.836 26.8254 106.836C26.4485 106.836 26.1254 106.782 25.8561 106.675C25.5869 106.567 25.3177 106.405 25.1023 106.136C24.8869 105.921 24.7253 105.651 24.6176 105.275C24.5099 104.951 24.4561 104.574 24.4561 104.144C24.4561 103.713 24.5099 103.336 24.6714 103.013C24.7791 102.69 24.9945 102.42 25.2099 102.151C25.4253 101.936 25.6946 101.774 25.9639 101.613C26.287 101.505 26.5562 101.451 26.9331 101.451C27.1485 101.451 27.3639 101.451 27.5255 101.505C27.687 101.559 27.8486 101.559 28.0101 101.613C28.1178 101.667 28.2255 101.667 28.3332 101.72C28.4409 101.774 28.4948 101.774 28.4948 101.828L28.2794 102.42C28.1178 102.313 27.9563 102.259 27.687 102.205C27.4716 102.151 27.2024 102.097 26.987 102.097C26.7177 102.097 26.5023 102.151 26.2869 102.259C26.0715 102.367 25.91 102.474 25.7484 102.69C25.5869 102.851 25.4792 103.067 25.3715 103.336C25.2638 103.605 25.2638 103.874 25.2638 104.198C25.2638 104.521 25.3177 104.79 25.3715 105.059C25.4254 105.328 25.5331 105.544 25.6946 105.705C25.8562 105.867 26.0177 106.028 26.2331 106.136C26.4485 106.244 26.7177 106.298 26.987 106.298C27.2024 106.298 27.3639 106.298 27.5255 106.244C27.687 106.244 27.7947 106.19 27.8486 106.19V104.305H27.7947Z" fill="#181818"/>
<path d="M32.6944 106.188V106.834H29.625V101.719H30.325V106.242H32.6944V106.188Z" fill="#181818"/>
<path d="M33.4502 101.667H34.1502V106.782H33.4502V101.667Z" fill="#181818"/>
<path d="M38.9933 106.782C38.8856 106.621 38.7779 106.405 38.6163 106.19C38.4548 105.974 38.3471 105.705 38.1855 105.49C38.024 105.221 37.8624 105.005 37.7009 104.736C37.5393 104.467 37.3778 104.251 37.1624 103.982C37.0008 103.767 36.8393 103.551 36.6777 103.336C36.5162 103.12 36.3546 102.959 36.2469 102.797V106.782H35.5469V101.667H36.1392C36.3546 101.936 36.6239 102.205 36.8931 102.528C37.1624 102.851 37.4316 103.174 37.7009 103.551C37.9701 103.874 38.1855 104.251 38.4548 104.574C38.6702 104.897 38.8856 105.221 39.0471 105.49V101.72H39.7471V106.836H38.9933V106.782Z" fill="#181818"/>
<path d="M40.8242 106.782V101.667H43.9475V102.259H41.5243V103.767H43.6783V104.359H41.5243V106.136H44.1091V106.728H40.8242V106.782Z" fill="#181818"/>
<path d="M49.8729 104.305H50.5729V106.675C50.5191 106.675 50.4114 106.728 50.3037 106.728C50.196 106.728 50.0883 106.782 49.9267 106.782C49.7652 106.782 49.6036 106.836 49.4421 106.836C49.2805 106.836 49.119 106.836 48.9036 106.836C48.5266 106.836 48.2035 106.782 47.9343 106.675C47.665 106.567 47.3958 106.405 47.1804 106.136C46.965 105.921 46.8034 105.651 46.6957 105.275C46.588 104.951 46.5342 104.574 46.5342 104.144C46.5342 103.713 46.588 103.336 46.7496 103.013C46.8573 102.69 47.0727 102.42 47.2881 102.151C47.5035 101.936 47.7727 101.774 48.042 101.613C48.3651 101.505 48.6343 101.451 49.0113 101.451C49.2267 101.451 49.4421 101.451 49.6036 101.505C49.7652 101.559 49.9267 101.559 50.0883 101.613C50.196 101.667 50.3037 101.667 50.4114 101.72C50.5191 101.774 50.5729 101.774 50.5729 101.828L50.3575 102.42C50.196 102.313 50.0344 102.259 49.7652 102.205C49.5498 102.151 49.2805 102.097 49.0651 102.097C48.7959 102.097 48.5805 102.151 48.3651 102.259C48.1497 102.367 47.9881 102.474 47.8266 102.69C47.665 102.851 47.5573 103.067 47.4496 103.336C47.3419 103.605 47.3419 103.874 47.3419 104.198C47.3419 104.521 47.3958 104.79 47.4496 105.059C47.5035 105.328 47.6112 105.544 47.7727 105.705C47.9343 105.867 48.0958 106.028 48.3112 106.136C48.5266 106.244 48.7959 106.298 49.0651 106.298C49.2805 106.298 49.4421 106.298 49.6036 106.244C49.7652 106.244 49.8729 106.19 49.9267 106.19V104.305H49.8729Z" fill="#181818"/>
<path d="M51.542 104.251C51.542 103.82 51.5958 103.443 51.7574 103.066C51.8651 102.743 52.0805 102.474 52.2959 102.205C52.5113 101.989 52.7805 101.828 53.1036 101.72C53.4267 101.612 53.696 101.559 54.0729 101.559C54.396 101.559 54.7191 101.612 54.9884 101.72C55.2576 101.828 55.5269 101.989 55.7423 102.205C55.9577 102.42 56.1192 102.689 56.2808 103.066C56.3885 103.389 56.4961 103.766 56.4961 104.251C56.4961 104.736 56.4423 105.059 56.2808 105.436C56.1731 105.759 55.9577 106.028 55.7423 106.297C55.5269 106.513 55.2576 106.674 54.9884 106.782C54.7191 106.89 54.396 106.944 54.0729 106.944C53.7498 106.944 53.4267 106.89 53.1036 106.782C52.7805 106.674 52.5651 106.513 52.2959 106.297C52.0805 106.082 51.9189 105.813 51.7574 105.436C51.5958 105.059 51.542 104.682 51.542 104.251ZM52.2959 104.251C52.2959 104.574 52.3497 104.843 52.4036 105.113C52.4574 105.382 52.619 105.597 52.7267 105.759C52.8882 105.92 53.0498 106.082 53.2652 106.19C53.4806 106.297 53.696 106.351 53.9652 106.351C54.2345 106.351 54.4499 106.297 54.6653 106.19C54.8807 106.082 55.0422 105.974 55.2038 105.759C55.3653 105.597 55.473 105.382 55.5269 105.113C55.5807 104.843 55.6346 104.574 55.6346 104.251C55.6346 103.928 55.5807 103.659 55.5269 103.389C55.473 103.12 55.3115 102.905 55.2038 102.743C55.0422 102.582 54.8807 102.42 54.6653 102.312C54.4499 102.205 54.2345 102.151 53.9652 102.151C53.696 102.151 53.4806 102.205 53.2652 102.312C53.0498 102.42 52.8882 102.528 52.7267 102.743C52.5651 102.905 52.4574 103.12 52.4036 103.389C52.2959 103.659 52.2959 103.928 52.2959 104.251Z" fill="#181818"/>
<path d="M57.4619 106.782V101.666H60.5852V102.258H58.162V103.766H60.3159V104.358H58.162V106.136H60.7467V106.728H57.4619V106.782Z" fill="#181818"/>
<path d="M62.9052 106.296C63.6591 106.296 64.0361 106.027 64.0361 105.542C64.0361 105.381 63.9823 105.273 63.9284 105.165C63.8746 105.057 63.7669 104.95 63.6592 104.896C63.5515 104.788 63.3899 104.734 63.2822 104.68C63.1206 104.627 62.9591 104.573 62.7976 104.519C62.636 104.465 62.4206 104.357 62.2591 104.304C62.0975 104.196 61.936 104.142 61.8283 104.034C61.7206 103.927 61.6129 103.819 61.559 103.657C61.5052 103.496 61.4513 103.334 61.4513 103.119C61.4513 102.688 61.6129 102.311 61.936 102.096C62.2591 101.826 62.636 101.719 63.1745 101.719C63.4976 101.719 63.7668 101.773 64.0361 101.826C64.3053 101.88 64.4669 101.988 64.5746 102.042L64.3592 102.634C64.2515 102.58 64.0899 102.527 63.8745 102.419C63.6591 102.365 63.4437 102.311 63.1745 102.311C63.0129 102.311 62.9053 102.311 62.7976 102.365C62.6899 102.419 62.5822 102.419 62.4745 102.473C62.3668 102.526 62.3129 102.58 62.2591 102.688C62.2052 102.796 62.2052 102.903 62.2052 103.011C62.2052 103.173 62.2052 103.28 62.3129 103.334C62.3668 103.442 62.4206 103.496 62.5283 103.603C62.636 103.657 62.7437 103.765 62.8514 103.819C62.9591 103.873 63.1206 103.927 63.2822 103.98C63.4976 104.088 63.713 104.142 63.8745 104.25C64.0361 104.357 64.1976 104.465 64.3592 104.573C64.5207 104.68 64.5746 104.842 64.6823 105.004C64.7361 105.165 64.79 105.381 64.79 105.596C64.79 106.027 64.6284 106.404 64.3053 106.619C63.9822 106.834 63.4976 106.996 62.9052 106.996C62.6898 106.996 62.5283 106.996 62.3667 106.942C62.2052 106.888 62.0437 106.888 61.936 106.834C61.8283 106.781 61.6667 106.781 61.6129 106.727C61.5052 106.673 61.4513 106.673 61.3975 106.619L61.6129 106.027C61.7206 106.081 61.8821 106.188 62.1514 106.242C62.2591 106.242 62.5283 106.296 62.9052 106.296Z" fill="#181818"/>
<path d="M70.5503 101.666H71.2504V106.782H70.5503V104.412H68.0194V106.782H67.3193V101.666H68.0194V103.82H70.5503V101.666Z" fill="#181818"/>
<path d="M72.543 106.782V101.666H75.6662V102.258H73.243V103.766H75.397V104.358H73.243V106.136H75.8278V106.728H72.543V106.782Z" fill="#181818"/>
<path d="M79.2723 104.682C79.3261 104.79 79.4338 104.898 79.5954 105.059C79.7031 105.221 79.8646 105.382 79.9723 105.598C80.08 105.813 80.2416 105.975 80.3493 106.19C80.457 106.405 80.5647 106.621 80.6724 106.782H79.8646C79.7569 106.621 79.6492 106.405 79.5415 106.19C79.4338 105.975 79.3261 105.813 79.1646 105.652C79.0569 105.49 78.9492 105.328 78.7876 105.167C78.6799 105.005 78.5722 104.898 78.4645 104.79C78.4107 104.79 78.3568 104.79 78.2491 104.79C78.1953 104.79 78.1414 104.79 78.0337 104.79H77.3876V106.782H76.6875V101.72C76.9029 101.667 77.1183 101.613 77.3876 101.613C77.6568 101.613 77.8722 101.613 78.0876 101.613C78.7876 101.613 79.38 101.774 79.7569 102.044C80.1339 102.313 80.2954 102.744 80.2954 103.228C80.2954 103.551 80.1877 103.874 80.0262 104.09C79.8646 104.359 79.5954 104.521 79.2723 104.682ZM78.1953 102.259C77.8722 102.259 77.6568 102.259 77.4952 102.259V104.198H77.9799C78.2491 104.198 78.4645 104.198 78.6261 104.144C78.8415 104.144 79.003 104.09 79.1107 103.982C79.2723 103.928 79.3261 103.821 79.4338 103.713C79.4877 103.605 79.5415 103.444 79.5415 103.228C79.5415 103.013 79.4877 102.851 79.4338 102.744C79.38 102.636 79.2723 102.528 79.1107 102.421C79.003 102.367 78.8415 102.313 78.6799 102.259C78.5722 102.259 78.3568 102.259 78.1953 102.259Z" fill="#181818"/>
<path d="M81.4297 106.782V101.666H84.553V102.258H82.1297V103.766H84.2837V104.358H82.1297V106.136H84.7145V106.728H81.4297V106.782Z" fill="#181818"/>
</g>
</svg>
